<svg width="1426" height="140" viewBox="0 0 1426 140" fill="none" xmlns="http://www.w3.org/2000/svg">
<path d="M145.309 19.8802H137.725V27.1762H135.013V10.4242H137.725V17.4802H145.309V10.4242H148.021V27.1762H145.309V19.8802ZM162.466 27.4642C161.378 27.4642 160.386 27.2802 159.49 26.9122C158.61 26.5282 157.85 25.9762 157.21 25.2562C156.586 24.5202 156.098 23.6162 155.746 22.5442C155.41 21.4562 155.242 20.2082 155.242 18.8002C155.242 17.3922 155.41 16.1522 155.746 15.0802C156.098 13.9922 156.586 13.0882 157.21 12.3682C157.85 11.6322 158.61 11.0802 159.49 10.7122C160.386 10.3282 161.378 10.1362 162.466 10.1362C163.554 10.1362 164.538 10.3282 165.418 10.7122C166.314 11.0802 167.074 11.6322 167.698 12.3682C168.338 13.0882 168.826 13.9922 169.162 15.0802C169.514 16.1522 169.69 17.3922 169.69 18.8002C169.69 20.2082 169.514 21.4562 169.162 22.5442C168.826 23.6162 168.338 24.5202 167.698 25.2562C167.074 25.9762 166.314 26.5282 165.418 26.9122C164.538 27.2802 163.554 27.4642 162.466 27.4642ZM162.466 25.0402C163.106 25.0402 163.69 24.9282 164.218 24.7042C164.762 24.4802 165.218 24.1602 165.586 23.7442C165.97 23.3122 166.266 22.7922 166.474 22.1842C166.682 21.5762 166.786 20.8882 166.786 20.1202V17.4802C166.786 16.7122 166.682 16.0242 166.474 15.4162C166.266 14.8082 165.97 14.2962 165.586 13.8802C165.218 13.4482 164.762 13.1202 164.218 12.8962C163.69 12.6722 163.106 12.5602 162.466 12.5602C161.81 12.5602 161.218 12.6722 160.69 12.8962C160.162 13.1202 159.706 13.4482 159.322 13.8802C158.954 14.2962 158.666 14.8082 158.458 15.4162C158.25 16.0242 158.146 16.7122 158.146 17.4802V20.1202C158.146 20.8882 158.25 21.5762 158.458 22.1842C158.666 22.7922 158.954 23.3122 159.322 23.7442C159.706 24.1602 160.162 24.4802 160.69 24.7042C161.218 24.9282 161.81 25.0402 162.466 25.0402ZM179.48 10.4242V20.7442C179.48 22.1682 179.752 23.2402 180.296 23.9602C180.84 24.6802 181.768 25.0402 183.08 25.0402C184.392 25.0402 185.32 24.6802 185.864 23.9602C186.408 23.2402 186.68 22.1682 186.68 20.7442V10.4242H189.344V20.3122C189.344 21.5442 189.232 22.6082 189.008 23.5042C188.784 24.4002 188.424 25.1442 187.928 25.7362C187.432 26.3122 186.784 26.7442 185.984 27.0322C185.2 27.3202 184.232 27.4642 183.08 27.4642C181.928 27.4642 180.952 27.3202 180.152 27.0322C179.368 26.7442 178.728 26.3122 178.232 25.7362C177.736 25.1442 177.376 24.4002 177.152 23.5042C176.928 22.6082 176.816 21.5442 176.816 20.3122V10.4242H179.48ZM199.917 27.1762H197.205V10.4242H204.429C205.933 10.4242 207.117 10.8802 207.981 11.7922C208.845 12.6882 209.277 13.9122 209.277 15.4642C209.277 16.6642 208.997 17.6642 208.437 18.4642C207.893 19.2482 207.085 19.8002 206.013 20.1202L209.637 27.1762H206.613L203.253 20.4082H199.917V27.1762ZM204.237 18.1282C204.925 18.1282 205.461 17.9522 205.845 17.6002C206.229 17.2322 206.421 16.7122 206.421 16.0402V14.8882C206.421 14.2162 206.229 13.7042 205.845 13.3522C205.461 12.9842 204.925 12.8002 204.237 12.8002H199.917V18.1282H204.237ZM221.787 27.4642C220.379 27.4642 219.179 27.2082 218.187 26.6962C217.211 26.1842 216.371 25.4962 215.667 24.6322L217.539 22.8802C218.131 23.6002 218.779 24.1442 219.483 24.5122C220.203 24.8802 221.019 25.0642 221.931 25.0642C223.003 25.0642 223.811 24.8242 224.355 24.3442C224.899 23.8642 225.171 23.2162 225.171 22.4002C225.171 21.7442 224.979 21.2242 224.595 20.8402C224.211 20.4562 223.531 20.1682 222.555 19.9762L221.067 19.7122C219.435 19.4082 218.211 18.8722 217.395 18.1042C216.579 17.3362 216.171 16.2802 216.171 14.9362C216.171 14.2002 216.307 13.5362 216.579 12.9442C216.867 12.3362 217.259 11.8322 217.755 11.4322C218.267 11.0162 218.883 10.6962 219.603 10.4722C220.323 10.2482 221.131 10.1362 222.027 10.1362C223.291 10.1362 224.387 10.3602 225.315 10.8082C226.243 11.2402 227.035 11.8722 227.691 12.7042L225.795 14.3842C225.363 13.8242 224.835 13.3762 224.211 13.0402C223.587 12.7042 222.811 12.5362 221.883 12.5362C220.923 12.5362 220.179 12.7282 219.651 13.1122C219.123 13.4962 218.859 14.0562 218.859 14.7922C218.859 15.4962 219.075 16.0242 219.507 16.3762C219.939 16.7122 220.611 16.9682 221.523 17.1442L223.011 17.4562C224.691 17.7762 225.915 18.3202 226.683 19.0882C227.467 19.8562 227.859 20.9122 227.859 22.2562C227.859 23.0402 227.723 23.7522 227.451 24.3922C227.179 25.0322 226.779 25.5842 226.251 26.0482C225.739 26.4962 225.107 26.8482 224.355 27.1042C223.603 27.3442 222.747 27.4642 221.787 27.4642Z" fill="white"/>
<path d="M643.651 27.1762V10.4242H646.363V24.7762H653.179V27.1762H643.651ZM665.456 27.4642C664.368 27.4642 663.376 27.2802 662.48 26.9122C661.6 26.5282 660.84 25.9762 660.2 25.2562C659.576 24.5202 659.088 23.6162 658.736 22.5442C658.4 21.4562 658.232 20.2082 658.232 18.8002C658.232 17.3922 658.4 16.1522 658.736 15.0802C659.088 13.9922 659.576 13.0882 660.2 12.3682C660.84 11.6322 661.6 11.0802 662.48 10.7122C663.376 10.3282 664.368 10.1362 665.456 10.1362C666.544 10.1362 667.528 10.3282 668.408 10.7122C669.304 11.0802 670.064 11.6322 670.688 12.3682C671.328 13.0882 671.816 13.9922 672.152 15.0802C672.504 16.1522 672.68 17.3922 672.68 18.8002C672.68 20.2082 672.504 21.4562 672.152 22.5442C671.816 23.6162 671.328 24.5202 670.688 25.2562C670.064 25.9762 669.304 26.5282 668.408 26.9122C667.528 27.2802 666.544 27.4642 665.456 27.4642ZM665.456 25.0402C666.096 25.0402 666.68 24.9282 667.208 24.7042C667.752 24.4802 668.208 24.1602 668.576 23.7442C668.96 23.3122 669.256 22.7922 669.464 22.1842C669.672 21.5762 669.776 20.8882 669.776 20.1202V17.4802C669.776 16.7122 669.672 16.0242 669.464 15.4162C669.256 14.8082 668.96 14.2962 668.576 13.8802C668.208 13.4482 667.752 13.1202 667.208 12.8962C666.68 12.6722 666.096 12.5602 665.456 12.5602C664.8 12.5602 664.208 12.6722 663.68 12.8962C663.152 13.1202 662.696 13.4482 662.312 13.8802C661.944 14.2962 661.656 14.8082 661.448 15.4162C661.24 16.0242 661.136 16.7122 661.136 17.4802V20.1202C661.136 20.8882 661.24 21.5762 661.448 22.1842C661.656 22.7922 661.944 23.3122 662.312 23.7442C662.696 24.1602 663.152 24.4802 663.68 24.7042C664.208 24.9282 664.8 25.0402 665.456 25.0402ZM686.19 27.4642C683.998 27.4642 682.278 26.7282 681.03 25.2562C679.782 23.7682 679.158 21.6162 679.158 18.8002C679.158 17.3922 679.318 16.1522 679.638 15.0802C679.958 14.0082 680.422 13.1042 681.03 12.3682C681.638 11.6322 682.374 11.0802 683.238 10.7122C684.118 10.3282 685.102 10.1362 686.19 10.1362C687.646 10.1362 688.862 10.4562 689.838 11.0962C690.83 11.7362 691.606 12.6802 692.166 13.9282L689.886 15.1762C689.598 14.3762 689.15 13.7442 688.542 13.2802C687.95 12.8002 687.166 12.5602 686.19 12.5602C684.894 12.5602 683.878 13.0002 683.142 13.8802C682.406 14.7602 682.038 15.9762 682.038 17.5282V20.0722C682.038 21.6242 682.406 22.8402 683.142 23.7202C683.878 24.6002 684.894 25.0402 686.19 25.0402C687.198 25.0402 688.014 24.7842 688.638 24.2722C689.278 23.7442 689.75 23.0722 690.054 22.2562L692.238 23.5762C691.678 24.7922 690.894 25.7442 689.886 26.4322C688.878 27.1202 687.646 27.4642 686.19 27.4642ZM709.346 27.1762L707.834 22.6402H701.57L700.106 27.1762H697.346L703.058 10.4242H706.466L712.178 27.1762H709.346ZM704.762 12.9202H704.642L702.218 20.3122H707.162L704.762 12.9202ZM723.259 12.8242V27.1762H720.547V12.8242H715.555V10.4242H728.251V12.8242H723.259ZM733.874 27.1762V24.9682H736.154V12.6322H733.874V10.4242H741.17V12.6322H738.866V24.9682H741.17V27.1762H733.874ZM754.898 27.4642C753.81 27.4642 752.818 27.2802 751.922 26.9122C751.042 26.5282 750.282 25.9762 749.642 25.2562C749.018 24.5202 748.53 23.6162 748.178 22.5442C747.842 21.4562 747.674 20.2082 747.674 18.8002C747.674 17.3922 747.842 16.1522 748.178 15.0802C748.53 13.9922 749.018 13.0882 749.642 12.3682C750.282 11.6322 751.042 11.0802 751.922 10.7122C752.818 10.3282 753.81 10.1362 754.898 10.1362C755.986 10.1362 756.97 10.3282 757.85 10.7122C758.746 11.0802 759.506 11.6322 760.13 12.3682C760.77 13.0882 761.258 13.9922 761.594 15.0802C761.946 16.1522 762.122 17.3922 762.122 18.8002C762.122 20.2082 761.946 21.4562 761.594 22.5442C761.258 23.6162 760.77 24.5202 760.13 25.2562C759.506 25.9762 758.746 26.5282 757.85 26.9122C756.97 27.2802 755.986 27.4642 754.898 27.4642ZM754.898 25.0402C755.538 25.0402 756.122 24.9282 756.65 24.7042C757.194 24.4802 757.65 24.1602 758.018 23.7442C758.402 23.3122 758.698 22.7922 758.906 22.1842C759.114 21.5762 759.218 20.8882 759.218 20.1202V17.4802C759.218 16.7122 759.114 16.0242 758.906 15.4162C758.698 14.8082 758.402 14.2962 758.018 13.8802C757.65 13.4482 757.194 13.1202 756.65 12.8962C756.122 12.6722 755.538 12.5602 754.898 12.5602C754.242 12.5602 753.65 12.6722 753.122 12.8962C752.594 13.1202 752.138 13.4482 751.754 13.8802C751.386 14.2962 751.098 14.8082 750.89 15.4162C750.682 16.0242 750.578 16.7122 750.578 17.4802V20.1202C750.578 20.8882 750.682 21.5762 750.89 22.1842C751.098 22.7922 751.386 23.3122 751.754 23.7442C752.138 24.1602 752.594 24.4802 753.122 24.7042C753.65 24.9282 754.242 25.0402 754.898 25.0402ZM773.856 17.9122L772.008 14.3602H771.936V27.1762H769.344V10.4242H772.368L777.84 19.6882L779.688 23.2402H779.76V10.4242H782.352V27.1762H779.328L773.856 17.9122Z" fill="white"/>
<path d="M1164.92 27.4642C1162.72 27.4642 1161 26.7282 1159.76 25.2562C1158.51 23.7682 1157.88 21.6162 1157.88 18.8002C1157.88 17.3922 1158.04 16.1522 1158.36 15.0802C1158.68 14.0082 1159.15 13.1042 1159.76 12.3682C1160.36 11.6322 1161.1 11.0802 1161.96 10.7122C1162.84 10.3282 1163.83 10.1362 1164.92 10.1362C1166.37 10.1362 1167.59 10.4562 1168.56 11.0962C1169.56 11.7362 1170.33 12.6802 1170.89 13.9282L1168.61 15.1762C1168.32 14.3762 1167.88 13.7442 1167.27 13.2802C1166.68 12.8002 1165.89 12.5602 1164.92 12.5602C1163.62 12.5602 1162.6 13.0002 1161.87 13.8802C1161.13 14.7602 1160.76 15.9762 1160.76 17.5282V20.0722C1160.76 21.6242 1161.13 22.8402 1161.87 23.7202C1162.6 24.6002 1163.62 25.0402 1164.92 25.0402C1165.92 25.0402 1166.74 24.7842 1167.36 24.2722C1168 23.7442 1168.48 23.0722 1168.78 22.2562L1170.96 23.5762C1170.4 24.7922 1169.62 25.7442 1168.61 26.4322C1167.6 27.1202 1166.37 27.4642 1164.92 27.4642ZM1183.85 27.4642C1182.77 27.4642 1181.77 27.2802 1180.88 26.9122C1180 26.5282 1179.24 25.9762 1178.6 25.2562C1177.97 24.5202 1177.49 23.6162 1177.13 22.5442C1176.8 21.4562 1176.63 20.2082 1176.63 18.8002C1176.63 17.3922 1176.8 16.1522 1177.13 15.0802C1177.49 13.9922 1177.97 13.0882 1178.6 12.3682C1179.24 11.6322 1180 11.0802 1180.88 10.7122C1181.77 10.3282 1182.77 10.1362 1183.85 10.1362C1184.94 10.1362 1185.93 10.3282 1186.81 10.7122C1187.7 11.0802 1188.46 11.6322 1189.09 12.3682C1189.73 13.0882 1190.21 13.9922 1190.55 15.0802C1190.9 16.1522 1191.08 17.3922 1191.08 18.8002C1191.08 20.2082 1190.9 21.4562 1190.55 22.5442C1190.21 23.6162 1189.73 24.5202 1189.09 25.2562C1188.46 25.9762 1187.7 26.5282 1186.81 26.9122C1185.93 27.2802 1184.94 27.4642 1183.85 27.4642ZM1183.85 25.0402C1184.49 25.0402 1185.08 24.9282 1185.61 24.7042C1186.15 24.4802 1186.61 24.1602 1186.97 23.7442C1187.36 23.3122 1187.65 22.7922 1187.86 22.1842C1188.07 21.5762 1188.17 20.8882 1188.17 20.1202V17.4802C1188.17 16.7122 1188.07 16.0242 1187.86 15.4162C1187.65 14.8082 1187.36 14.2962 1186.97 13.8802C1186.61 13.4482 1186.15 13.1202 1185.61 12.8962C1185.08 12.6722 1184.49 12.5602 1183.85 12.5602C1183.2 12.5602 1182.61 12.6722 1182.08 12.8962C1181.55 13.1202 1181.09 13.4482 1180.71 13.8802C1180.34 14.2962 1180.05 14.8082 1179.85 15.4162C1179.64 16.0242 1179.53 16.7122 1179.53 17.4802V20.1202C1179.53 20.8882 1179.64 21.5762 1179.85 22.1842C1180.05 22.7922 1180.34 23.3122 1180.71 23.7442C1181.09 24.1602 1181.55 24.4802 1182.08 24.7042C1182.61 24.9282 1183.2 25.0402 1183.85 25.0402ZM1202.81 17.9122L1200.96 14.3602H1200.89V27.1762H1198.3V10.4242H1201.32L1206.8 19.6882L1208.64 23.2402H1208.72V10.4242H1211.31V27.1762H1208.28L1202.81 17.9122ZM1225.49 12.8242V27.1762H1222.78V12.8242H1217.78V10.4242H1230.48V12.8242H1225.49ZM1245.86 27.1762L1244.35 22.6402H1238.08L1236.62 27.1762H1233.86L1239.57 10.4242H1242.98L1248.69 27.1762H1245.86ZM1241.27 12.9202H1241.15L1238.73 20.3122H1243.67L1241.27 12.9202ZM1260.9 27.4642C1258.7 27.4642 1256.98 26.7282 1255.74 25.2562C1254.49 23.7682 1253.86 21.6162 1253.86 18.8002C1253.86 17.3922 1254.02 16.1522 1254.34 15.0802C1254.66 14.0082 1255.13 13.1042 1255.74 12.3682C1256.34 11.6322 1257.08 11.0802 1257.94 10.7122C1258.82 10.3282 1259.81 10.1362 1260.9 10.1362C1262.35 10.1362 1263.57 10.4562 1264.54 11.0962C1265.54 11.7362 1266.31 12.6802 1266.87 13.9282L1264.59 15.1762C1264.3 14.3762 1263.86 13.7442 1263.25 13.2802C1262.66 12.8002 1261.87 12.5602 1260.9 12.5602C1259.6 12.5602 1258.58 13.0002 1257.85 13.8802C1257.11 14.7602 1256.74 15.9762 1256.74 17.5282V20.0722C1256.74 21.6242 1257.11 22.8402 1257.85 23.7202C1258.58 24.6002 1259.6 25.0402 1260.9 25.0402C1261.9 25.0402 1262.72 24.7842 1263.34 24.2722C1263.98 23.7442 1264.46 23.0722 1264.76 22.2562L1266.94 23.5762C1266.38 24.7922 1265.6 25.7442 1264.59 26.4322C1263.58 27.1202 1262.35 27.4642 1260.9 27.4642ZM1279.88 12.8242V27.1762H1277.16V12.8242H1272.17V10.4242H1284.87V12.8242H1279.88ZM1303.43 10.4242V20.7442C1303.43 22.1682 1303.7 23.2402 1304.25 23.9602C1304.79 24.6802 1305.72 25.0402 1307.03 25.0402C1308.34 25.0402 1309.27 24.6802 1309.82 23.9602C1310.36 23.2402 1310.63 22.1682 1310.63 20.7442V10.4242H1313.3V20.3122C1313.3 21.5442 1313.18 22.6082 1312.96 23.5042C1312.74 24.4002 1312.38 25.1442 1311.88 25.7362C1311.38 26.3122 1310.74 26.7442 1309.94 27.0322C1309.15 27.3202 1308.18 27.4642 1307.03 27.4642C1305.88 27.4642 1304.9 27.3202 1304.1 27.0322C1303.32 26.7442 1302.68 26.3122 1302.18 25.7362C1301.69 25.1442 1301.33 24.4002 1301.1 23.5042C1300.88 22.6082 1300.77 21.5442 1300.77 20.3122V10.4242H1303.43ZM1326.17 27.4642C1324.76 27.4642 1323.56 27.2082 1322.57 26.6962C1321.6 26.1842 1320.76 25.4962 1320.05 24.6322L1321.92 22.8802C1322.52 23.6002 1323.16 24.1442 1323.87 24.5122C1324.59 24.8802 1325.4 25.0642 1326.32 25.0642C1327.39 25.0642 1328.2 24.8242 1328.74 24.3442C1329.28 23.8642 1329.56 23.2162 1329.56 22.4002C1329.56 21.7442 1329.36 21.2242 1328.98 20.8402C1328.6 20.4562 1327.92 20.1682 1326.94 19.9762L1325.45 19.7122C1323.82 19.4082 1322.6 18.8722 1321.78 18.1042C1320.96 17.3362 1320.56 16.2802 1320.56 14.9362C1320.56 14.2002 1320.69 13.5362 1320.96 12.9442C1321.25 12.3362 1321.64 11.8322 1322.14 11.4322C1322.65 11.0162 1323.27 10.6962 1323.99 10.4722C1324.71 10.2482 1325.52 10.1362 1326.41 10.1362C1327.68 10.1362 1328.77 10.3602 1329.7 10.8082C1330.63 11.2402 1331.42 11.8722 1332.08 12.7042L1330.18 14.3842C1329.75 13.8242 1329.22 13.3762 1328.6 13.0402C1327.97 12.7042 1327.2 12.5362 1326.27 12.5362C1325.31 12.5362 1324.56 12.7282 1324.04 13.1122C1323.51 13.4962 1323.24 14.0562 1323.24 14.7922C1323.24 15.4962 1323.46 16.0242 1323.89 16.3762C1324.32 16.7122 1325 16.9682 1325.91 17.1442L1327.4 17.4562C1329.08 17.7762 1330.3 18.3202 1331.07 19.0882C1331.85 19.8562 1332.24 20.9122 1332.24 22.2562C1332.24 23.0402 1332.11 23.7522 1331.84 24.3922C1331.56 25.0322 1331.16 25.5842 1330.64 26.0482C1330.12 26.4962 1329.49 26.8482 1328.74 27.1042C1327.99 27.3442 1327.13 27.4642 1326.17 27.4642Z" fill="white"/>
<path d="M113.385 60.275H113.305L112.225 62.495L109.365 67.775L106.505 62.495L105.425 60.275H105.345V70.295H102.845V56.335H105.825L109.405 63.155H109.485L113.025 56.335H115.885V70.295H113.385V60.275ZM123.153 70.535C122.407 70.535 121.733 70.4084 121.133 70.155C120.547 69.9017 120.04 69.535 119.613 69.055C119.2 68.575 118.88 68.0017 118.653 67.335C118.427 66.655 118.313 65.895 118.313 65.055C118.313 64.215 118.427 63.4617 118.653 62.795C118.88 62.1284 119.2 61.5617 119.613 61.095C120.04 60.615 120.547 60.2484 121.133 59.995C121.733 59.7417 122.407 59.615 123.153 59.615C123.9 59.615 124.573 59.7417 125.173 59.995C125.773 60.2484 126.28 60.615 126.693 61.095C127.12 61.5617 127.447 62.1284 127.673 62.795C127.9 63.4617 128.013 64.215 128.013 65.055C128.013 65.895 127.9 66.655 127.673 67.335C127.447 68.0017 127.12 68.575 126.693 69.055C126.28 69.535 125.773 69.9017 125.173 70.155C124.573 70.4084 123.9 70.535 123.153 70.535ZM123.153 68.475C123.833 68.475 124.367 68.2684 124.753 67.855C125.14 67.4417 125.333 66.835 125.333 66.035V64.095C125.333 63.3084 125.14 62.7084 124.753 62.295C124.367 61.8817 123.833 61.675 123.153 61.675C122.487 61.675 121.96 61.8817 121.573 62.295C121.187 62.7084 120.993 63.3084 120.993 64.095V66.035C120.993 66.835 121.187 67.4417 121.573 67.855C121.96 68.2684 122.487 68.475 123.153 68.475ZM130.283 70.295V59.855H132.843V61.595H132.943C133.156 61.035 133.489 60.5684 133.943 60.195C134.409 59.8084 135.049 59.615 135.863 59.615C136.943 59.615 137.769 59.9684 138.343 60.675C138.916 61.3817 139.203 62.3884 139.203 63.695V70.295H136.643V63.955C136.643 63.2084 136.509 62.6484 136.243 62.275C135.976 61.9017 135.536 61.715 134.923 61.715C134.656 61.715 134.396 61.755 134.143 61.835C133.903 61.9017 133.683 62.0084 133.483 62.155C133.296 62.2884 133.143 62.4617 133.023 62.675C132.903 62.875 132.843 63.115 132.843 63.395V70.295H130.283ZM148.521 68.555H148.421C148.234 69.155 147.881 69.635 147.361 69.995C146.841 70.355 146.234 70.535 145.541 70.535C144.221 70.535 143.207 70.0617 142.501 69.115C141.807 68.1684 141.461 66.815 141.461 65.055C141.461 63.3084 141.807 61.9684 142.501 61.035C143.207 60.0884 144.221 59.615 145.541 59.615C146.234 59.615 146.841 59.795 147.361 60.155C147.881 60.5017 148.234 60.975 148.421 61.575H148.521V55.495H151.081V70.295H148.521V68.555ZM146.361 68.415C146.974 68.415 147.487 68.2684 147.901 67.975C148.314 67.6817 148.521 67.2617 148.521 66.715V63.395C148.521 62.8884 148.314 62.4817 147.901 62.175C147.487 61.8684 146.974 61.715 146.361 61.715C145.694 61.715 145.154 61.9417 144.741 62.395C144.341 62.835 144.141 63.4284 144.141 64.175V65.975C144.141 66.7217 144.341 67.315 144.741 67.755C145.154 68.195 145.694 68.415 146.361 68.415ZM161.713 70.295C161.153 70.295 160.706 70.135 160.373 69.815C160.053 69.4817 159.853 69.0417 159.773 68.495H159.653C159.479 69.175 159.126 69.6884 158.593 70.035C158.059 70.3684 157.399 70.535 156.613 70.535C155.546 70.535 154.726 70.255 154.153 69.695C153.579 69.135 153.293 68.3884 153.293 67.455C153.293 66.375 153.679 65.575 154.453 65.055C155.226 64.5217 156.326 64.255 157.753 64.255H159.533V63.495C159.533 62.9084 159.379 62.455 159.073 62.135C158.766 61.815 158.273 61.655 157.593 61.655C156.993 61.655 156.506 61.7884 156.133 62.055C155.773 62.3084 155.466 62.615 155.213 62.975L153.693 61.615C154.079 61.015 154.593 60.535 155.233 60.175C155.873 59.8017 156.719 59.615 157.773 59.615C159.186 59.615 160.259 59.935 160.993 60.575C161.726 61.215 162.093 62.135 162.093 63.335V68.255H163.133V70.295H161.713ZM157.473 68.675C158.046 68.675 158.533 68.5484 158.933 68.295C159.333 68.0417 159.533 67.6684 159.533 67.175V65.795H157.893C156.559 65.795 155.893 66.2217 155.893 67.075V67.415C155.893 67.8417 156.026 68.1617 156.293 68.375C156.573 68.575 156.966 68.675 157.473 68.675ZM171.448 59.855H173.848L169.648 72.155C169.515 72.5284 169.362 72.8484 169.188 73.115C169.028 73.395 168.835 73.6217 168.608 73.795C168.382 73.9684 168.108 74.095 167.788 74.175C167.468 74.255 167.095 74.295 166.668 74.295H165.128V72.255H167.008L167.488 70.795L163.748 59.855H166.288L168.108 65.375L168.788 68.015H168.908L169.628 65.375L171.448 59.855ZM179.943 65.475V62.935H185.663V65.475H179.943ZM197.537 70.535C196.337 70.535 195.317 70.3217 194.477 69.895C193.65 69.4684 192.937 68.9084 192.337 68.215L194.117 66.495C194.597 67.055 195.13 67.4817 195.717 67.775C196.317 68.0684 196.977 68.215 197.697 68.215C198.51 68.215 199.123 68.0417 199.537 67.695C199.95 67.335 200.157 66.855 200.157 66.255C200.157 65.7884 200.023 65.4084 199.757 65.115C199.49 64.8217 198.99 64.6084 198.257 64.475L196.937 64.275C194.15 63.835 192.757 62.4817 192.757 60.215C192.757 59.5884 192.87 59.0217 193.097 58.515C193.337 58.0084 193.677 57.575 194.117 57.215C194.557 56.855 195.083 56.5817 195.697 56.395C196.323 56.195 197.03 56.095 197.817 56.095C198.87 56.095 199.79 56.2684 200.577 56.615C201.363 56.9617 202.037 57.475 202.597 58.155L200.797 59.855C200.45 59.4284 200.03 59.0817 199.537 58.815C199.043 58.5484 198.423 58.415 197.677 58.415C196.917 58.415 196.343 58.5617 195.957 58.855C195.583 59.135 195.397 59.535 195.397 60.055C195.397 60.5884 195.55 60.9817 195.857 61.235C196.163 61.4884 196.657 61.675 197.337 61.795L198.637 62.035C200.05 62.2884 201.09 62.7417 201.757 63.395C202.437 64.035 202.777 64.935 202.777 66.095C202.777 66.7617 202.657 67.3684 202.417 67.915C202.19 68.4484 201.85 68.915 201.397 69.315C200.957 69.7017 200.41 70.0017 199.757 70.215C199.117 70.4284 198.377 70.535 197.537 70.535ZM211.503 68.555H211.403C211.31 68.8217 211.183 69.075 211.023 69.315C210.877 69.5417 210.683 69.7484 210.443 69.935C210.217 70.1217 209.937 70.2684 209.603 70.375C209.283 70.4817 208.91 70.535 208.483 70.535C207.403 70.535 206.577 70.1817 206.003 69.475C205.43 68.7684 205.143 67.7617 205.143 66.455V59.855H207.703V66.195C207.703 66.915 207.843 67.4684 208.123 67.855C208.403 68.2284 208.85 68.415 209.463 68.415C209.717 68.415 209.963 68.3817 210.203 68.315C210.457 68.2484 210.677 68.1484 210.863 68.015C211.05 67.8684 211.203 67.695 211.323 67.495C211.443 67.2817 211.503 67.035 211.503 66.755V59.855H214.063V70.295H211.503V68.555ZM217.021 70.295V59.855H219.581V61.595H219.681C219.894 61.035 220.228 60.5684 220.681 60.195C221.148 59.8084 221.788 59.615 222.601 59.615C223.681 59.615 224.508 59.9684 225.081 60.675C225.654 61.3817 225.941 62.3884 225.941 63.695V70.295H223.381V63.955C223.381 63.2084 223.248 62.6484 222.981 62.275C222.714 61.9017 222.274 61.715 221.661 61.715C221.394 61.715 221.134 61.755 220.881 61.835C220.641 61.9017 220.421 62.0084 220.221 62.155C220.034 62.2884 219.881 62.4617 219.761 62.675C219.641 62.875 219.581 63.115 219.581 63.395V70.295H217.021ZM235.259 68.555H235.159C234.972 69.155 234.619 69.635 234.099 69.995C233.579 70.355 232.972 70.535 232.279 70.535C230.959 70.535 229.945 70.0617 229.239 69.115C228.545 68.1684 228.199 66.815 228.199 65.055C228.199 63.3084 228.545 61.9684 229.239 61.035C229.945 60.0884 230.959 59.615 232.279 59.615C232.972 59.615 233.579 59.795 234.099 60.155C234.619 60.5017 234.972 60.975 235.159 61.575H235.259V55.495H237.819V70.295H235.259V68.555ZM233.099 68.415C233.712 68.415 234.225 68.2684 234.639 67.975C235.052 67.6817 235.259 67.2617 235.259 66.715V63.395C235.259 62.8884 235.052 62.4817 234.639 62.175C234.225 61.8684 233.712 61.715 233.099 61.715C232.432 61.715 231.892 61.9417 231.479 62.395C231.079 62.835 230.879 63.4284 230.879 64.175V65.975C230.879 66.7217 231.079 67.315 231.479 67.755C231.892 68.195 232.432 68.415 233.099 68.415ZM248.451 70.295C247.891 70.295 247.444 70.135 247.111 69.815C246.791 69.4817 246.591 69.0417 246.511 68.495H246.391C246.218 69.175 245.864 69.6884 245.331 70.035C244.798 70.3684 244.138 70.535 243.351 70.535C242.284 70.535 241.464 70.255 240.891 69.695C240.318 69.135 240.031 68.3884 240.031 67.455C240.031 66.375 240.418 65.575 241.191 65.055C241.964 64.5217 243.064 64.255 244.491 64.255H246.271V63.495C246.271 62.9084 246.118 62.455 245.811 62.135C245.504 61.815 245.011 61.655 244.331 61.655C243.731 61.655 243.244 61.7884 242.871 62.055C242.511 62.3084 242.204 62.615 241.951 62.975L240.431 61.615C240.818 61.015 241.331 60.535 241.971 60.175C242.611 59.8017 243.458 59.615 244.511 59.615C245.924 59.615 246.998 59.935 247.731 60.575C248.464 61.215 248.831 62.135 248.831 63.335V68.255H249.871V70.295H248.451ZM244.211 68.675C244.784 68.675 245.271 68.5484 245.671 68.295C246.071 68.0417 246.271 67.6684 246.271 67.175V65.795H244.631C243.298 65.795 242.631 66.2217 242.631 67.075V67.415C242.631 67.8417 242.764 68.1617 243.031 68.375C243.311 68.575 243.704 68.675 244.211 68.675ZM258.187 59.855H260.587L256.387 72.155C256.253 72.5284 256.1 72.8484 255.927 73.115C255.767 73.395 255.573 73.6217 255.347 73.795C255.12 73.9684 254.847 74.095 254.527 74.175C254.207 74.255 253.833 74.295 253.407 74.295H251.867V72.255H253.747L254.227 70.795L250.487 59.855H253.027L254.847 65.375L255.527 68.015H255.647L256.367 65.375L258.187 59.855ZM91.9495 103.295V101.415H95.8695V90.975H95.7095L92.4695 94.435L91.0895 93.195L94.6495 89.335H98.0895V101.415H101.489V103.295H91.9495ZM103.942 103.295V101.415H107.862V90.975H107.702L104.462 94.435L103.082 93.195L106.642 89.335H110.082V101.415H113.482V103.295H103.942ZM117.274 103.535C116.78 103.535 116.414 103.408 116.174 103.155C115.934 102.888 115.814 102.562 115.814 102.175V101.875C115.814 101.488 115.934 101.168 116.174 100.915C116.414 100.648 116.78 100.515 117.274 100.515C117.767 100.515 118.134 100.648 118.374 100.915C118.614 101.168 118.734 101.488 118.734 101.875V102.175C118.734 102.562 118.614 102.888 118.374 103.155C118.134 103.408 117.767 103.535 117.274 103.535ZM117.274 95.675C116.78 95.675 116.414 95.5484 116.174 95.295C115.934 95.0284 115.814 94.7017 115.814 94.315V94.015C115.814 93.6284 115.934 93.3084 116.174 93.055C116.414 92.7884 116.78 92.655 117.274 92.655C117.767 92.655 118.134 92.7884 118.374 93.055C118.614 93.3084 118.734 93.6284 118.734 94.015V94.315C118.734 94.7017 118.614 95.0284 118.374 95.295C118.134 95.5484 117.767 95.675 117.274 95.675ZM125.605 95.075C126.472 95.075 127.112 94.895 127.525 94.535C127.939 94.1617 128.145 93.6884 128.145 93.115V92.975C128.145 92.335 127.945 91.8484 127.545 91.515C127.145 91.1684 126.605 90.995 125.925 90.995C125.259 90.995 124.692 91.1484 124.225 91.455C123.759 91.7484 123.365 92.1617 123.045 92.695L121.545 91.395C121.759 91.0884 121.999 90.795 122.265 90.515C122.532 90.235 122.845 89.995 123.205 89.795C123.565 89.5817 123.972 89.415 124.425 89.295C124.879 89.1617 125.399 89.095 125.985 89.095C126.639 89.095 127.245 89.175 127.805 89.335C128.365 89.495 128.845 89.735 129.245 90.055C129.645 90.3617 129.959 90.7417 130.185 91.195C130.412 91.635 130.525 92.135 130.525 92.695C130.525 93.135 130.452 93.535 130.305 93.895C130.172 94.255 129.979 94.575 129.725 94.855C129.485 95.1217 129.199 95.3417 128.865 95.515C128.545 95.6884 128.205 95.815 127.845 95.895V95.995C128.245 96.075 128.619 96.2084 128.965 96.395C129.325 96.5684 129.639 96.8017 129.905 97.095C130.172 97.375 130.379 97.715 130.525 98.115C130.685 98.5017 130.765 98.9484 130.765 99.455C130.765 100.068 130.645 100.628 130.405 101.135C130.165 101.628 129.825 102.055 129.385 102.415C128.959 102.775 128.439 103.055 127.825 103.255C127.212 103.442 126.532 103.535 125.785 103.535C125.132 103.535 124.559 103.462 124.065 103.315C123.572 103.182 123.132 103.002 122.745 102.775C122.372 102.535 122.039 102.268 121.745 101.975C121.465 101.668 121.219 101.355 121.005 101.035L122.665 99.735C122.839 100.015 123.019 100.275 123.205 100.515C123.405 100.742 123.625 100.942 123.865 101.115C124.119 101.275 124.399 101.402 124.705 101.495C125.025 101.588 125.385 101.635 125.785 101.635C126.639 101.635 127.292 101.435 127.745 101.035C128.199 100.622 128.425 100.055 128.425 99.335V99.195C128.425 98.475 128.185 97.9284 127.705 97.555C127.225 97.1817 126.545 96.995 125.665 96.995H124.185V95.075H125.605ZM138.357 103.535C137.491 103.535 136.737 103.375 136.097 103.055C135.457 102.722 134.931 102.248 134.517 101.635C134.104 101.022 133.797 100.268 133.597 99.375C133.397 98.4817 133.297 97.4617 133.297 96.315C133.297 95.1817 133.397 94.1684 133.597 93.275C133.797 92.3684 134.104 91.6084 134.517 90.995C134.931 90.3817 135.457 89.915 136.097 89.595C136.737 89.2617 137.491 89.095 138.357 89.095C140.091 89.095 141.364 89.7284 142.177 90.995C143.004 92.2617 143.417 94.035 143.417 96.315C143.417 98.595 143.004 100.368 142.177 101.635C141.364 102.902 140.091 103.535 138.357 103.535ZM138.357 101.615C138.837 101.615 139.244 101.522 139.577 101.335C139.924 101.135 140.204 100.855 140.417 100.495C140.631 100.135 140.784 99.7084 140.877 99.215C140.971 98.7084 141.017 98.1484 141.017 97.535V95.095C141.017 94.4817 140.971 93.9284 140.877 93.435C140.784 92.9284 140.631 92.495 140.417 92.135C140.204 91.775 139.924 91.5017 139.577 91.315C139.244 91.115 138.837 91.015 138.357 91.015C137.877 91.015 137.464 91.115 137.117 91.315C136.784 91.5017 136.511 91.775 136.297 92.135C136.084 92.495 135.931 92.9284 135.837 93.435C135.744 93.9284 135.697 94.4817 135.697 95.095V97.535C135.697 98.1484 135.744 98.7084 135.837 99.215C135.931 99.7084 136.084 100.135 136.297 100.495C136.511 100.855 136.784 101.135 137.117 101.335C137.464 101.522 137.877 101.615 138.357 101.615ZM159.516 103.295L158.256 99.515H153.036L151.816 103.295H149.516L154.276 89.335H157.116L161.876 103.295H159.516ZM155.696 91.415H155.596L153.576 97.575H157.696L155.696 91.415ZM174.718 92.615H174.618L173.518 94.875L170.458 100.455L167.398 94.875L166.298 92.615H166.198V103.295H164.038V89.335H166.718L170.458 96.435H170.578L174.318 89.335H176.878V103.295H174.718V92.615ZM184.574 98.315V96.095H190.114V98.315H184.574ZM206.968 94.535C206.968 95.5484 206.815 96.5017 206.508 97.395C206.201 98.2884 205.808 99.1084 205.328 99.855C204.848 100.602 204.308 101.268 203.708 101.855C203.121 102.442 202.541 102.922 201.968 103.295H198.968C199.755 102.722 200.461 102.168 201.088 101.635C201.715 101.102 202.261 100.555 202.728 99.995C203.195 99.435 203.581 98.8417 203.888 98.215C204.208 97.5884 204.455 96.9017 204.628 96.155L204.488 96.115C204.341 96.395 204.168 96.6617 203.968 96.915C203.781 97.155 203.555 97.3684 203.288 97.555C203.035 97.7417 202.741 97.8884 202.408 97.995C202.075 98.1017 201.688 98.155 201.248 98.155C200.661 98.155 200.115 98.055 199.608 97.855C199.115 97.655 198.681 97.3684 198.308 96.995C197.948 96.6084 197.661 96.155 197.448 95.635C197.248 95.1017 197.148 94.5017 197.148 93.835C197.148 93.1417 197.261 92.5017 197.488 91.915C197.728 91.3284 198.061 90.8284 198.488 90.415C198.915 90.0017 199.428 89.6817 200.028 89.455C200.628 89.215 201.301 89.095 202.048 89.095C202.821 89.095 203.508 89.2217 204.108 89.475C204.721 89.7284 205.235 90.095 205.648 90.575C206.075 91.0417 206.401 91.6084 206.628 92.275C206.855 92.9417 206.968 93.695 206.968 94.535ZM202.048 96.335C202.861 96.335 203.495 96.1217 203.948 95.695C204.401 95.255 204.628 94.615 204.628 93.775V93.495C204.628 92.655 204.401 92.0217 203.948 91.595C203.495 91.155 202.861 90.935 202.048 90.935C201.235 90.935 200.601 91.155 200.148 91.595C199.695 92.0217 199.468 92.655 199.468 93.495V93.775C199.468 94.615 199.695 95.255 200.148 95.695C200.601 96.1217 201.235 96.335 202.048 96.335ZM211.18 103.535C210.687 103.535 210.32 103.408 210.08 103.155C209.84 102.888 209.72 102.562 209.72 102.175V101.875C209.72 101.488 209.84 101.168 210.08 100.915C210.32 100.648 210.687 100.515 211.18 100.515C211.673 100.515 212.04 100.648 212.28 100.915C212.52 101.168 212.64 101.488 212.64 101.875V102.175C212.64 102.562 212.52 102.888 212.28 103.155C212.04 103.408 211.673 103.535 211.18 103.535ZM211.18 95.675C210.687 95.675 210.32 95.5484 210.08 95.295C209.84 95.0284 209.72 94.7017 209.72 94.315V94.015C209.72 93.6284 209.84 93.3084 210.08 93.055C210.32 92.7884 210.687 92.655 211.18 92.655C211.673 92.655 212.04 92.7884 212.28 93.055C212.52 93.3084 212.64 93.6284 212.64 94.015V94.315C212.64 94.7017 212.52 95.0284 212.28 95.295C212.04 95.5484 211.673 95.675 211.18 95.675ZM220.271 103.535C219.405 103.535 218.651 103.375 218.011 103.055C217.371 102.722 216.845 102.248 216.431 101.635C216.018 101.022 215.711 100.268 215.511 99.375C215.311 98.4817 215.211 97.4617 215.211 96.315C215.211 95.1817 215.311 94.1684 215.511 93.275C215.711 92.3684 216.018 91.6084 216.431 90.995C216.845 90.3817 217.371 89.915 218.011 89.595C218.651 89.2617 219.405 89.095 220.271 89.095C222.005 89.095 223.278 89.7284 224.091 90.995C224.918 92.2617 225.331 94.035 225.331 96.315C225.331 98.595 224.918 100.368 224.091 101.635C223.278 102.902 222.005 103.535 220.271 103.535ZM220.271 101.615C220.751 101.615 221.158 101.522 221.491 101.335C221.838 101.135 222.118 100.855 222.331 100.495C222.545 100.135 222.698 99.7084 222.791 99.215C222.885 98.7084 222.931 98.1484 222.931 97.535V95.095C222.931 94.4817 222.885 93.9284 222.791 93.435C222.698 92.9284 222.545 92.495 222.331 92.135C222.118 91.775 221.838 91.5017 221.491 91.315C221.158 91.115 220.751 91.015 220.271 91.015C219.791 91.015 219.378 91.115 219.031 91.315C218.698 91.5017 218.425 91.775 218.211 92.135C217.998 92.495 217.845 92.9284 217.751 93.435C217.658 93.9284 217.611 94.4817 217.611 95.095V97.535C217.611 98.1484 217.658 98.7084 217.751 99.215C217.845 99.7084 217.998 100.135 218.211 100.495C218.425 100.855 218.698 101.135 219.031 101.335C219.378 101.522 219.791 101.615 220.271 101.615ZM232.264 103.535C231.397 103.535 230.644 103.375 230.004 103.055C229.364 102.722 228.837 102.248 228.424 101.635C228.01 101.022 227.704 100.268 227.504 99.375C227.304 98.4817 227.204 97.4617 227.204 96.315C227.204 95.1817 227.304 94.1684 227.504 93.275C227.704 92.3684 228.01 91.6084 228.424 90.995C228.837 90.3817 229.364 89.915 230.004 89.595C230.644 89.2617 231.397 89.095 232.264 89.095C233.997 89.095 235.27 89.7284 236.084 90.995C236.91 92.2617 237.324 94.035 237.324 96.315C237.324 98.595 236.91 100.368 236.084 101.635C235.27 102.902 233.997 103.535 232.264 103.535ZM232.264 101.615C232.744 101.615 233.15 101.522 233.484 101.335C233.83 101.135 234.11 100.855 234.324 100.495C234.537 100.135 234.69 99.7084 234.784 99.215C234.877 98.7084 234.924 98.1484 234.924 97.535V95.095C234.924 94.4817 234.877 93.9284 234.784 93.435C234.69 92.9284 234.537 92.495 234.324 92.135C234.11 91.775 233.83 91.5017 233.484 91.315C233.15 91.115 232.744 91.015 232.264 91.015C231.784 91.015 231.37 91.115 231.024 91.315C230.69 91.5017 230.417 91.775 230.204 92.135C229.99 92.495 229.837 92.9284 229.744 93.435C229.65 93.9284 229.604 94.4817 229.604 95.095V97.535C229.604 98.1484 229.65 98.7084 229.744 99.215C229.837 99.7084 229.99 100.135 230.204 100.495C230.417 100.855 230.69 101.135 231.024 101.335C231.37 101.522 231.784 101.615 232.264 101.615ZM244.702 103.295V89.335H250.702C251.996 89.335 252.996 89.715 253.702 90.475C254.409 91.235 254.762 92.255 254.762 93.535C254.762 94.815 254.409 95.835 253.702 96.595C252.996 97.355 251.996 97.735 250.702 97.735H246.962V103.295H244.702ZM246.962 95.755H250.562C251.136 95.755 251.582 95.6084 251.902 95.315C252.222 95.0084 252.382 94.575 252.382 94.015V93.055C252.382 92.495 252.222 92.0684 251.902 91.775C251.582 91.4684 251.136 91.315 250.562 91.315H246.962V95.755ZM267.921 92.615H267.821L266.721 94.875L263.661 100.455L260.601 94.875L259.501 92.615H259.401V103.295H257.241V89.335H259.921L263.661 96.435H263.781L267.521 89.335H270.081V103.295H267.921V92.615Z" fill="white"/>
<path d="M594.518 59.98H594.438L593.358 62.2L590.498 67.48L587.638 62.2L586.558 59.98H586.478V70H583.978V56.04H586.958L590.538 62.86H590.618L594.158 56.04H597.018V70H594.518V59.98ZM604.366 70.24C603.593 70.24 602.899 70.1133 602.286 69.86C601.686 69.5933 601.173 69.2266 600.746 68.76C600.333 68.28 600.013 67.7066 599.786 67.04C599.559 66.36 599.446 65.6 599.446 64.76C599.446 63.9333 599.553 63.1866 599.766 62.52C599.993 61.8533 600.313 61.2866 600.726 60.82C601.139 60.34 601.646 59.9733 602.246 59.72C602.846 59.4533 603.526 59.32 604.286 59.32C605.099 59.32 605.806 59.46 606.406 59.74C607.006 60.02 607.499 60.4 607.886 60.88C608.273 61.36 608.559 61.92 608.746 62.56C608.946 63.1866 609.046 63.86 609.046 64.58V65.42H602.106V65.68C602.106 66.44 602.319 67.0533 602.746 67.52C603.173 67.9733 603.806 68.2 604.646 68.2C605.286 68.2 605.806 68.0666 606.206 67.8C606.619 67.5333 606.986 67.1933 607.306 66.78L608.686 68.32C608.259 68.92 607.673 69.3933 606.926 69.74C606.193 70.0733 605.339 70.24 604.366 70.24ZM604.326 61.24C603.646 61.24 603.106 61.4666 602.706 61.92C602.306 62.3733 602.106 62.96 602.106 63.68V63.84H606.386V63.66C606.386 62.94 606.206 62.36 605.846 61.92C605.499 61.4666 604.993 61.24 604.326 61.24ZM614.718 70.24C613.718 70.24 612.878 70.0733 612.198 69.74C611.518 69.3933 610.918 68.92 610.398 68.32L611.958 66.8C612.345 67.24 612.765 67.5866 613.218 67.84C613.685 68.0933 614.218 68.22 614.818 68.22C615.432 68.22 615.872 68.1133 616.138 67.9C616.418 67.6866 616.558 67.3933 616.558 67.02C616.558 66.7133 616.458 66.4733 616.258 66.3C616.072 66.1133 615.745 65.9866 615.278 65.92L614.238 65.78C613.105 65.6333 612.238 65.3133 611.638 64.82C611.052 64.3133 610.758 63.58 610.758 62.62C610.758 62.1133 610.852 61.66 611.038 61.26C611.225 60.8466 611.492 60.5 611.838 60.22C612.185 59.9266 612.598 59.7066 613.078 59.56C613.572 59.4 614.118 59.32 614.718 59.32C615.225 59.32 615.672 59.36 616.058 59.44C616.458 59.5066 616.818 59.6133 617.138 59.76C617.458 59.8933 617.752 60.0666 618.018 60.28C618.285 60.48 618.545 60.7066 618.798 60.96L617.298 62.46C616.992 62.14 616.625 61.8733 616.198 61.66C615.772 61.4466 615.305 61.34 614.798 61.34C614.238 61.34 613.832 61.44 613.578 61.64C613.338 61.84 613.218 62.1 613.218 62.42C613.218 62.7666 613.318 63.0333 613.518 63.22C613.732 63.3933 614.085 63.52 614.578 63.6L615.638 63.74C617.892 64.06 619.018 65.0866 619.018 66.82C619.018 67.3266 618.912 67.7933 618.698 68.22C618.498 68.6333 618.212 68.9933 617.838 69.3C617.465 69.5933 617.012 69.8266 616.478 70C615.958 70.16 615.372 70.24 614.718 70.24ZM621.279 55.2H623.839V64.12H623.939L625.319 62.24L627.659 59.56H630.559L626.959 63.6L630.939 70H627.899L625.219 65.32L623.839 66.82V70H621.279V55.2ZM633.789 58.04C633.256 58.04 632.869 57.92 632.629 57.68C632.403 57.44 632.289 57.1333 632.289 56.76V56.36C632.289 55.9866 632.403 55.68 632.629 55.44C632.869 55.2 633.256 55.08 633.789 55.08C634.309 55.08 634.689 55.2 634.929 55.44C635.169 55.68 635.289 55.9866 635.289 56.36V56.76C635.289 57.1333 635.169 57.44 634.929 57.68C634.689 57.92 634.309 58.04 633.789 58.04ZM632.509 59.56H635.069V70H632.509V59.56ZM642.257 70.24C641.483 70.24 640.79 70.1133 640.177 69.86C639.577 69.5933 639.063 69.2266 638.637 68.76C638.223 68.28 637.903 67.7066 637.677 67.04C637.45 66.36 637.337 65.6 637.337 64.76C637.337 63.9333 637.443 63.1866 637.657 62.52C637.883 61.8533 638.203 61.2866 638.617 60.82C639.03 60.34 639.537 59.9733 640.137 59.72C640.737 59.4533 641.417 59.32 642.177 59.32C642.99 59.32 643.697 59.46 644.297 59.74C644.897 60.02 645.39 60.4 645.777 60.88C646.163 61.36 646.45 61.92 646.637 62.56C646.837 63.1866 646.937 63.86 646.937 64.58V65.42H639.997V65.68C639.997 66.44 640.21 67.0533 640.637 67.52C641.063 67.9733 641.697 68.2 642.537 68.2C643.177 68.2 643.697 68.0666 644.097 67.8C644.51 67.5333 644.877 67.1933 645.197 66.78L646.577 68.32C646.15 68.92 645.563 69.3933 644.817 69.74C644.083 70.0733 643.23 70.24 642.257 70.24ZM642.217 61.24C641.537 61.24 640.997 61.4666 640.597 61.92C640.197 62.3733 639.997 62.96 639.997 63.68V63.84H644.277V63.66C644.277 62.94 644.097 62.36 643.737 61.92C643.39 61.4666 642.883 61.24 642.217 61.24ZM650.044 55C650.591 55 650.984 55.1333 651.224 55.4C651.478 55.6533 651.604 55.9733 651.604 56.36V56.74C651.604 57.1 651.551 57.4666 651.444 57.84C651.351 58.2 651.211 58.5533 651.024 58.9C650.838 59.2466 650.618 59.5733 650.364 59.88C650.111 60.1866 649.838 60.46 649.544 60.7H647.824C648.251 60.3 648.611 59.9 648.904 59.5C649.198 59.0866 649.418 58.6333 649.564 58.14C649.178 58.0733 648.898 57.92 648.724 57.68C648.551 57.4266 648.464 57.1333 648.464 56.8V56.36C648.464 55.9733 648.584 55.6533 648.824 55.4C649.078 55.1333 649.484 55 650.044 55ZM656.515 70.24C655.515 70.24 654.675 70.0733 653.995 69.74C653.315 69.3933 652.715 68.92 652.195 68.32L653.755 66.8C654.142 67.24 654.562 67.5866 655.015 67.84C655.482 68.0933 656.015 68.22 656.615 68.22C657.229 68.22 657.669 68.1133 657.935 67.9C658.215 67.6866 658.355 67.3933 658.355 67.02C658.355 66.7133 658.255 66.4733 658.055 66.3C657.869 66.1133 657.542 65.9866 657.075 65.92L656.035 65.78C654.902 65.6333 654.035 65.3133 653.435 64.82C652.849 64.3133 652.555 63.58 652.555 62.62C652.555 62.1133 652.649 61.66 652.835 61.26C653.022 60.8466 653.289 60.5 653.635 60.22C653.982 59.9266 654.395 59.7066 654.875 59.56C655.369 59.4 655.915 59.32 656.515 59.32C657.022 59.32 657.469 59.36 657.855 59.44C658.255 59.5066 658.615 59.6133 658.935 59.76C659.255 59.8933 659.549 60.0666 659.815 60.28C660.082 60.48 660.342 60.7066 660.595 60.96L659.095 62.46C658.789 62.14 658.422 61.8733 657.995 61.66C657.569 61.4466 657.102 61.34 656.595 61.34C656.035 61.34 655.629 61.44 655.375 61.64C655.135 61.84 655.015 62.1 655.015 62.42C655.015 62.7666 655.115 63.0333 655.315 63.22C655.529 63.3933 655.882 63.52 656.375 63.6L657.435 63.74C659.689 64.06 660.815 65.0866 660.815 66.82C660.815 67.3266 660.709 67.7933 660.495 68.22C660.295 68.6333 660.009 68.9933 659.635 69.3C659.262 69.5933 658.809 69.8266 658.275 70C657.755 70.16 657.169 70.24 656.515 70.24ZM667.962 70V56.04H677.162V58.38H670.602V61.76H676.402V64.1H670.602V67.66H677.162V70H667.962ZM683.054 70C682.174 70 681.501 69.7733 681.034 69.32C680.581 68.8533 680.354 68.1933 680.354 67.34V61.6H678.814V59.56H679.614C680.001 59.56 680.261 59.4733 680.394 59.3C680.541 59.1133 680.614 58.84 680.614 58.48V56.7H682.914V59.56H685.054V61.6H682.914V67.96H684.894V70H683.054ZM687.275 55.2H689.835V61.3H689.935C690.148 60.74 690.482 60.2733 690.935 59.9C691.402 59.5133 692.042 59.32 692.855 59.32C693.935 59.32 694.762 59.6733 695.335 60.38C695.908 61.0866 696.195 62.0933 696.195 63.4V70H693.635V63.66C693.635 62.9133 693.502 62.3533 693.235 61.98C692.968 61.6066 692.528 61.42 691.915 61.42C691.648 61.42 691.388 61.46 691.135 61.54C690.895 61.6066 690.675 61.7133 690.475 61.86C690.288 61.9933 690.135 62.1666 690.015 62.38C689.895 62.58 689.835 62.82 689.835 63.1V70H687.275V55.2ZM700.313 58.04C699.779 58.04 699.393 57.92 699.153 57.68C698.926 57.44 698.813 57.1333 698.813 56.76V56.36C698.813 55.9866 698.926 55.68 699.153 55.44C699.393 55.2 699.779 55.08 700.313 55.08C700.833 55.08 701.213 55.2 701.453 55.44C701.693 55.68 701.813 55.9866 701.813 56.36V56.76C701.813 57.1333 701.693 57.44 701.453 57.68C701.213 57.92 700.833 58.04 700.313 58.04ZM699.033 59.56H701.593V70H699.033V59.56ZM708.7 70.24C707.953 70.24 707.28 70.1133 706.68 69.86C706.093 69.6066 705.587 69.24 705.16 68.76C704.747 68.28 704.427 67.7066 704.2 67.04C703.973 66.36 703.86 65.6 703.86 64.76C703.86 63.92 703.973 63.1666 704.2 62.5C704.427 61.8333 704.747 61.2666 705.16 60.8C705.587 60.32 706.093 59.9533 706.68 59.7C707.28 59.4466 707.953 59.32 708.7 59.32C709.447 59.32 710.12 59.4466 710.72 59.7C711.32 59.9533 711.827 60.32 712.24 60.8C712.667 61.2666 712.993 61.8333 713.22 62.5C713.447 63.1666 713.56 63.92 713.56 64.76C713.56 65.6 713.447 66.36 713.22 67.04C712.993 67.7066 712.667 68.28 712.24 68.76C711.827 69.24 711.32 69.6066 710.72 69.86C710.12 70.1133 709.447 70.24 708.7 70.24ZM708.7 68.18C709.38 68.18 709.913 67.9733 710.3 67.56C710.687 67.1466 710.88 66.54 710.88 65.74V63.8C710.88 63.0133 710.687 62.4133 710.3 62C709.913 61.5866 709.38 61.38 708.7 61.38C708.033 61.38 707.507 61.5866 707.12 62C706.733 62.4133 706.54 63.0133 706.54 63.8V65.74C706.54 66.54 706.733 67.1466 707.12 67.56C707.507 67.9733 708.033 68.18 708.7 68.18ZM715.83 59.56H718.39V61.28H718.47C718.656 60.68 719.01 60.2066 719.53 59.86C720.05 59.5 720.656 59.32 721.35 59.32C722.683 59.32 723.696 59.7933 724.39 60.74C725.096 61.6733 725.45 63.0133 725.45 64.76C725.45 66.52 725.096 67.8733 724.39 68.82C723.696 69.7666 722.683 70.24 721.35 70.24C720.656 70.24 720.05 70.06 719.53 69.7C719.023 69.34 718.67 68.86 718.47 68.26H718.39V74H715.83V59.56ZM720.53 68.12C721.196 68.12 721.736 67.9 722.15 67.46C722.563 67.02 722.77 66.4266 722.77 65.68V63.88C722.77 63.1333 722.563 62.54 722.15 62.1C721.736 61.6466 721.196 61.42 720.53 61.42C719.916 61.42 719.403 61.5733 718.99 61.88C718.59 62.1866 718.39 62.5933 718.39 63.1V66.42C718.39 66.9666 718.59 67.3866 718.99 67.68C719.403 67.9733 719.916 68.12 720.53 68.12ZM735.502 70C734.942 70 734.495 69.84 734.162 69.52C733.842 69.1866 733.642 68.7466 733.562 68.2H733.442C733.268 68.88 732.915 69.3933 732.382 69.74C731.848 70.0733 731.188 70.24 730.402 70.24C729.335 70.24 728.515 69.96 727.942 69.4C727.368 68.84 727.082 68.0933 727.082 67.16C727.082 66.08 727.468 65.28 728.242 64.76C729.015 64.2266 730.115 63.96 731.542 63.96H733.322V63.2C733.322 62.6133 733.168 62.16 732.862 61.84C732.555 61.52 732.062 61.36 731.382 61.36C730.782 61.36 730.295 61.4933 729.922 61.76C729.562 62.0133 729.255 62.32 729.002 62.68L727.482 61.32C727.868 60.72 728.382 60.24 729.022 59.88C729.662 59.5066 730.508 59.32 731.562 59.32C732.975 59.32 734.048 59.64 734.782 60.28C735.515 60.92 735.882 61.84 735.882 63.04V67.96H736.922V70H735.502ZM731.262 68.38C731.835 68.38 732.322 68.2533 732.722 68C733.122 67.7466 733.322 67.3733 733.322 66.88V65.5H731.682C730.348 65.5 729.682 65.9266 729.682 66.78V67.12C729.682 67.5466 729.815 67.8666 730.082 68.08C730.362 68.28 730.755 68.38 731.262 68.38ZM746.52 70H743.88V56.04H750.18C750.82 56.04 751.394 56.14 751.9 56.34C752.407 56.54 752.834 56.8333 753.18 57.22C753.54 57.5933 753.814 58.0466 754 58.58C754.2 59.1133 754.3 59.7066 754.3 60.36C754.3 61.32 754.08 62.1466 753.64 62.84C753.214 63.5333 752.567 64.0266 751.7 64.32L754.56 70H751.62L749.02 64.62H746.52V70ZM749.92 62.4C750.427 62.4 750.827 62.2666 751.12 62C751.414 61.72 751.56 61.3266 751.56 60.82V59.9C751.56 59.3933 751.414 59.0066 751.12 58.74C750.827 58.4733 750.427 58.34 749.92 58.34H746.52V62.4H749.92ZM760.929 70.24C760.155 70.24 759.462 70.1133 758.849 69.86C758.249 69.5933 757.735 69.2266 757.309 68.76C756.895 68.28 756.575 67.7066 756.349 67.04C756.122 66.36 756.009 65.6 756.009 64.76C756.009 63.9333 756.115 63.1866 756.329 62.52C756.555 61.8533 756.875 61.2866 757.289 60.82C757.702 60.34 758.209 59.9733 758.809 59.72C759.409 59.4533 760.089 59.32 760.849 59.32C761.662 59.32 762.369 59.46 762.969 59.74C763.569 60.02 764.062 60.4 764.449 60.88C764.835 61.36 765.122 61.92 765.309 62.56C765.509 63.1866 765.609 63.86 765.609 64.58V65.42H758.669V65.68C758.669 66.44 758.882 67.0533 759.309 67.52C759.735 67.9733 760.369 68.2 761.209 68.2C761.849 68.2 762.369 68.0666 762.769 67.8C763.182 67.5333 763.549 67.1933 763.869 66.78L765.249 68.32C764.822 68.92 764.235 69.3933 763.489 69.74C762.755 70.0733 761.902 70.24 760.929 70.24ZM760.889 61.24C760.209 61.24 759.669 61.4666 759.269 61.92C758.869 62.3733 758.669 62.96 758.669 63.68V63.84H762.949V63.66C762.949 62.94 762.769 62.36 762.409 61.92C762.062 61.4666 761.555 61.24 760.889 61.24ZM771.281 70.24C770.281 70.24 769.441 70.0733 768.761 69.74C768.081 69.3933 767.481 68.92 766.961 68.32L768.521 66.8C768.908 67.24 769.328 67.5866 769.781 67.84C770.248 68.0933 770.781 68.22 771.381 68.22C771.994 68.22 772.434 68.1133 772.701 67.9C772.981 67.6866 773.121 67.3933 773.121 67.02C773.121 66.7133 773.021 66.4733 772.821 66.3C772.634 66.1133 772.308 65.9866 771.841 65.92L770.801 65.78C769.668 65.6333 768.801 65.3133 768.201 64.82C767.614 64.3133 767.321 63.58 767.321 62.62C767.321 62.1133 767.414 61.66 767.601 61.26C767.788 60.8466 768.054 60.5 768.401 60.22C768.748 59.9266 769.161 59.7066 769.641 59.56C770.134 59.4 770.681 59.32 771.281 59.32C771.788 59.32 772.234 59.36 772.621 59.44C773.021 59.5066 773.381 59.6133 773.701 59.76C774.021 59.8933 774.314 60.0666 774.581 60.28C774.848 60.48 775.108 60.7066 775.361 60.96L773.861 62.46C773.554 62.14 773.188 61.8733 772.761 61.66C772.334 61.4466 771.868 61.34 771.361 61.34C770.801 61.34 770.394 61.44 770.141 61.64C769.901 61.84 769.781 62.1 769.781 62.42C769.781 62.7666 769.881 63.0333 770.081 63.22C770.294 63.3933 770.648 63.52 771.141 63.6L772.201 63.74C774.454 64.06 775.581 65.0866 775.581 66.82C775.581 67.3266 775.474 67.7933 775.261 68.22C775.061 68.6333 774.774 68.9933 774.401 69.3C774.028 69.5933 773.574 69.8266 773.041 70C772.521 70.16 771.934 70.24 771.281 70.24ZM780.945 70C780.065 70 779.392 69.7733 778.925 69.32C778.472 68.8533 778.245 68.1933 778.245 67.34V61.6H776.705V59.56H777.505C777.892 59.56 778.152 59.4733 778.285 59.3C778.432 59.1133 778.505 58.84 778.505 58.48V56.7H780.805V59.56H782.945V61.6H780.805V67.96H782.785V70H780.945ZM792.846 70C792.286 70 791.839 69.84 791.506 69.52C791.186 69.1866 790.986 68.7466 790.906 68.2H790.786C790.612 68.88 790.259 69.3933 789.726 69.74C789.192 70.0733 788.532 70.24 787.746 70.24C786.679 70.24 785.859 69.96 785.286 69.4C784.712 68.84 784.426 68.0933 784.426 67.16C784.426 66.08 784.812 65.28 785.586 64.76C786.359 64.2266 787.459 63.96 788.886 63.96H790.666V63.2C790.666 62.6133 790.512 62.16 790.206 61.84C789.899 61.52 789.406 61.36 788.726 61.36C788.126 61.36 787.639 61.4933 787.266 61.76C786.906 62.0133 786.599 62.32 786.346 62.68L784.826 61.32C785.212 60.72 785.726 60.24 786.366 59.88C787.006 59.5066 787.852 59.32 788.906 59.32C790.319 59.32 791.392 59.64 792.126 60.28C792.859 60.92 793.226 61.84 793.226 63.04V67.96H794.266V70H792.846ZM788.606 68.38C789.179 68.38 789.666 68.2533 790.066 68C790.466 67.7466 790.666 67.3733 790.666 66.88V65.5H789.026C787.692 65.5 787.026 65.9266 787.026 66.78V67.12C787.026 67.5466 787.159 67.8666 787.426 68.08C787.706 68.28 788.099 68.38 788.606 68.38ZM802.577 68.26H802.477C802.384 68.5266 802.257 68.78 802.097 69.02C801.951 69.2466 801.757 69.4533 801.517 69.64C801.291 69.8266 801.011 69.9733 800.677 70.08C800.357 70.1866 799.984 70.24 799.557 70.24C798.477 70.24 797.651 69.8866 797.077 69.18C796.504 68.4733 796.217 67.4666 796.217 66.16V59.56H798.777V65.9C798.777 66.62 798.917 67.1733 799.197 67.56C799.477 67.9333 799.924 68.12 800.537 68.12C800.791 68.12 801.037 68.0866 801.277 68.02C801.531 67.9533 801.751 67.8533 801.937 67.72C802.124 67.5733 802.277 67.4 802.397 67.2C802.517 66.9866 802.577 66.74 802.577 66.46V59.56H805.137V70H802.577V68.26ZM808.095 70V59.56H810.655V61.72H810.755C810.822 61.44 810.922 61.1733 811.055 60.92C811.202 60.6533 811.389 60.42 811.615 60.22C811.842 60.02 812.109 59.86 812.415 59.74C812.735 59.62 813.102 59.56 813.515 59.56H814.075V61.98H813.275C812.409 61.98 811.755 62.1066 811.315 62.36C810.875 62.6133 810.655 63.0266 810.655 63.6V70H808.095ZM823.412 70C822.852 70 822.405 69.84 822.072 69.52C821.752 69.1866 821.552 68.7466 821.472 68.2H821.352C821.179 68.88 820.825 69.3933 820.292 69.74C819.759 70.0733 819.099 70.24 818.312 70.24C817.245 70.24 816.425 69.96 815.852 69.4C815.279 68.84 814.992 68.0933 814.992 67.16C814.992 66.08 815.379 65.28 816.152 64.76C816.925 64.2266 818.025 63.96 819.452 63.96H821.232V63.2C821.232 62.6133 821.079 62.16 820.772 61.84C820.465 61.52 819.972 61.36 819.292 61.36C818.692 61.36 818.205 61.4933 817.832 61.76C817.472 62.0133 817.165 62.32 816.912 62.68L815.392 61.32C815.779 60.72 816.292 60.24 816.932 59.88C817.572 59.5066 818.419 59.32 819.472 59.32C820.885 59.32 821.959 59.64 822.692 60.28C823.425 60.92 823.792 61.84 823.792 63.04V67.96H824.832V70H823.412ZM819.172 68.38C819.745 68.38 820.232 68.2533 820.632 68C821.032 67.7466 821.232 67.3733 821.232 66.88V65.5H819.592C818.259 65.5 817.592 65.9266 817.592 66.78V67.12C817.592 67.5466 817.725 67.8666 817.992 68.08C818.272 68.28 818.665 68.38 819.172 68.38ZM826.904 70V59.56H829.464V61.3H829.564C829.777 60.74 830.11 60.2733 830.564 59.9C831.03 59.5133 831.67 59.32 832.484 59.32C833.564 59.32 834.39 59.6733 834.964 60.38C835.537 61.0866 835.824 62.0933 835.824 63.4V70H833.264V63.66C833.264 62.9133 833.13 62.3533 832.864 61.98C832.597 61.6066 832.157 61.42 831.544 61.42C831.277 61.42 831.017 61.46 830.764 61.54C830.524 61.6066 830.304 61.7133 830.104 61.86C829.917 61.9933 829.764 62.1666 829.644 62.38C829.524 62.58 829.464 62.82 829.464 63.1V70H826.904ZM841.922 70C841.042 70 840.368 69.7733 839.902 69.32C839.448 68.8533 839.222 68.1933 839.222 67.34V61.6H837.682V59.56H838.482C838.868 59.56 839.128 59.4733 839.262 59.3C839.408 59.1133 839.482 58.84 839.482 58.48V56.7H841.782V59.56H843.922V61.6H841.782V67.96H843.762V70H841.922ZM633.226 103H623.746V100.84L628.206 96.86C628.913 96.22 629.453 95.6133 629.826 95.04C630.213 94.4533 630.406 93.84 630.406 93.2V92.94C630.406 92.26 630.2 91.7266 629.786 91.34C629.386 90.9533 628.84 90.76 628.146 90.76C627.76 90.76 627.42 90.82 627.126 90.94C626.846 91.0466 626.6 91.2 626.386 91.4C626.173 91.6 625.993 91.8333 625.846 92.1C625.713 92.3666 625.606 92.6533 625.526 92.96L623.546 92.2C623.693 91.76 623.893 91.34 624.146 90.94C624.4 90.5266 624.72 90.16 625.106 89.84C625.493 89.52 625.946 89.2666 626.466 89.08C627 88.8933 627.62 88.8 628.326 88.8C629.033 88.8 629.666 88.9066 630.226 89.12C630.786 89.32 631.253 89.6066 631.626 89.98C632.013 90.34 632.306 90.7733 632.506 91.28C632.706 91.7866 632.806 92.34 632.806 92.94C632.806 93.5 632.72 94.02 632.546 94.5C632.373 94.98 632.133 95.4333 631.826 95.86C631.52 96.2866 631.16 96.6933 630.746 97.08C630.346 97.4666 629.92 97.86 629.466 98.26L626.186 101.08H633.226V103ZM645.278 94.24C645.278 95.2533 645.125 96.2066 644.818 97.1C644.512 97.9933 644.118 98.8133 643.638 99.56C643.158 100.307 642.618 100.973 642.018 101.56C641.432 102.147 640.852 102.627 640.278 103H637.278C638.065 102.427 638.772 101.873 639.398 101.34C640.025 100.807 640.572 100.26 641.038 99.7C641.505 99.14 641.892 98.5466 642.198 97.92C642.518 97.2933 642.765 96.6066 642.938 95.86L642.798 95.82C642.652 96.1 642.478 96.3666 642.278 96.62C642.092 96.86 641.865 97.0733 641.598 97.26C641.345 97.4466 641.052 97.5933 640.718 97.7C640.385 97.8066 639.998 97.86 639.558 97.86C638.972 97.86 638.425 97.76 637.918 97.56C637.425 97.36 636.992 97.0733 636.618 96.7C636.258 96.3133 635.972 95.86 635.758 95.34C635.558 94.8066 635.458 94.2066 635.458 93.54C635.458 92.8466 635.572 92.2066 635.798 91.62C636.038 91.0333 636.372 90.5333 636.798 90.12C637.225 89.7066 637.738 89.3866 638.338 89.16C638.938 88.92 639.612 88.8 640.358 88.8C641.132 88.8 641.818 88.9266 642.418 89.18C643.032 89.4333 643.545 89.8 643.958 90.28C644.385 90.7466 644.712 91.3133 644.938 91.98C645.165 92.6466 645.278 93.4 645.278 94.24ZM640.358 96.04C641.172 96.04 641.805 95.8266 642.258 95.4C642.712 94.96 642.938 94.32 642.938 93.48V93.2C642.938 92.36 642.712 91.7266 642.258 91.3C641.805 90.86 641.172 90.64 640.358 90.64C639.545 90.64 638.912 90.86 638.458 91.3C638.005 91.7266 637.778 92.36 637.778 93.2V93.48C637.778 94.32 638.005 94.96 638.458 95.4C638.912 95.8266 639.545 96.04 640.358 96.04ZM656.551 91H650.351L649.991 95.94H650.131C650.291 95.66 650.457 95.4133 650.631 95.2C650.804 94.9733 651.004 94.78 651.231 94.62C651.457 94.46 651.717 94.34 652.011 94.26C652.304 94.1666 652.651 94.12 653.051 94.12C653.651 94.12 654.204 94.22 654.711 94.42C655.231 94.62 655.677 94.9066 656.051 95.28C656.437 95.6533 656.737 96.1133 656.951 96.66C657.164 97.1933 657.271 97.8 657.271 98.48C657.271 99.1733 657.157 99.8133 656.931 100.4C656.717 100.987 656.397 101.493 655.971 101.92C655.544 102.333 655.017 102.66 654.391 102.9C653.777 103.127 653.077 103.24 652.291 103.24C651.664 103.24 651.111 103.167 650.631 103.02C650.151 102.887 649.724 102.707 649.351 102.48C648.991 102.24 648.671 101.973 648.391 101.68C648.124 101.373 647.884 101.06 647.671 100.74L649.311 99.44C649.484 99.72 649.664 99.9733 649.851 100.2C650.037 100.427 650.251 100.627 650.491 100.8C650.731 100.973 650.997 101.107 651.291 101.2C651.597 101.293 651.944 101.34 652.331 101.34C653.157 101.34 653.791 101.113 654.231 100.66C654.684 100.207 654.911 99.58 654.911 98.78V98.54C654.911 97.74 654.684 97.1133 654.231 96.66C653.791 96.2066 653.157 95.98 652.331 95.98C651.731 95.98 651.251 96.0933 650.891 96.32C650.531 96.5466 650.224 96.8 649.971 97.08L648.111 96.82L648.631 89.04H656.551V91ZM668.543 91H662.343L661.983 95.94H662.123C662.283 95.66 662.449 95.4133 662.623 95.2C662.796 94.9733 662.996 94.78 663.223 94.62C663.449 94.46 663.709 94.34 664.003 94.26C664.296 94.1666 664.643 94.12 665.043 94.12C665.643 94.12 666.196 94.22 666.703 94.42C667.223 94.62 667.669 94.9066 668.043 95.28C668.429 95.6533 668.729 96.1133 668.943 96.66C669.156 97.1933 669.263 97.8 669.263 98.48C669.263 99.1733 669.149 99.8133 668.923 100.4C668.709 100.987 668.389 101.493 667.963 101.92C667.536 102.333 667.009 102.66 666.383 102.9C665.769 103.127 665.069 103.24 664.283 103.24C663.656 103.24 663.103 103.167 662.623 103.02C662.143 102.887 661.716 102.707 661.343 102.48C660.983 102.24 660.663 101.973 660.383 101.68C660.116 101.373 659.876 101.06 659.663 100.74L661.303 99.44C661.476 99.72 661.656 99.9733 661.843 100.2C662.029 100.427 662.243 100.627 662.483 100.8C662.723 100.973 662.989 101.107 663.283 101.2C663.589 101.293 663.936 101.34 664.323 101.34C665.149 101.34 665.783 101.113 666.223 100.66C666.676 100.207 666.903 99.58 666.903 98.78V98.54C666.903 97.74 666.676 97.1133 666.223 96.66C665.783 96.2066 665.149 95.98 664.323 95.98C663.723 95.98 663.243 96.0933 662.883 96.32C662.523 96.5466 662.216 96.8 661.963 97.08L660.103 96.82L660.623 89.04H668.543V91ZM682.002 91.04V103H679.742V91.04H675.582V89.04H686.162V91.04H682.002ZM690.976 103.24C690.229 103.24 689.563 103.113 688.976 102.86C688.389 102.607 687.889 102.247 687.476 101.78C687.063 101.3 686.743 100.727 686.516 100.06C686.303 99.38 686.196 98.6266 686.196 97.8C686.196 96.9733 686.303 96.2266 686.516 95.56C686.743 94.88 687.063 94.3066 687.476 93.84C687.889 93.36 688.389 92.9933 688.976 92.74C689.563 92.4866 690.229 92.36 690.976 92.36C691.736 92.36 692.403 92.4933 692.976 92.76C693.563 93.0266 694.049 93.4 694.436 93.88C694.823 94.3466 695.109 94.8933 695.296 95.52C695.496 96.1466 695.596 96.82 695.596 97.54V98.36H688.456V98.7C688.456 99.5 688.689 100.16 689.156 100.68C689.636 101.187 690.316 101.44 691.196 101.44C691.836 101.44 692.376 101.3 692.816 101.02C693.256 100.74 693.629 100.36 693.936 99.88L695.216 101.14C694.829 101.78 694.269 102.293 693.536 102.68C692.803 103.053 691.949 103.24 690.976 103.24ZM690.976 94.06C690.603 94.06 690.256 94.1266 689.936 94.26C689.629 94.3933 689.363 94.58 689.136 94.82C688.923 95.06 688.756 95.3466 688.636 95.68C688.516 96.0133 688.456 96.38 688.456 96.78V96.92H693.296V96.72C693.296 95.92 693.089 95.28 692.676 94.8C692.263 94.3066 691.696 94.06 690.976 94.06ZM700.229 103C699.483 103 698.923 102.813 698.549 102.44C698.189 102.053 698.009 101.52 698.009 100.84V88.2H700.189V101.22H701.629V103H700.229ZM707.792 103.24C707.046 103.24 706.379 103.113 705.792 102.86C705.206 102.607 704.706 102.247 704.292 101.78C703.879 101.3 703.559 100.727 703.332 100.06C703.119 99.38 703.012 98.6266 703.012 97.8C703.012 96.9733 703.119 96.2266 703.332 95.56C703.559 94.88 703.879 94.3066 704.292 93.84C704.706 93.36 705.206 92.9933 705.792 92.74C706.379 92.4866 707.046 92.36 707.792 92.36C708.552 92.36 709.219 92.4933 709.792 92.76C710.379 93.0266 710.866 93.4 711.252 93.88C711.639 94.3466 711.926 94.8933 712.112 95.52C712.312 96.1466 712.412 96.82 712.412 97.54V98.36H705.272V98.7C705.272 99.5 705.506 100.16 705.972 100.68C706.452 101.187 707.132 101.44 708.012 101.44C708.652 101.44 709.192 101.3 709.632 101.02C710.072 100.74 710.446 100.36 710.752 99.88L712.032 101.14C711.646 101.78 711.086 102.293 710.352 102.68C709.619 103.053 708.766 103.24 707.792 103.24ZM707.792 94.06C707.419 94.06 707.072 94.1266 706.752 94.26C706.446 94.3933 706.179 94.58 705.952 94.82C705.739 95.06 705.572 95.3466 705.452 95.68C705.332 96.0133 705.272 96.38 705.272 96.78V96.92H710.112V96.72C710.112 95.92 709.906 95.28 709.492 94.8C709.079 94.3066 708.512 94.06 707.792 94.06ZM723.946 103.98C723.946 105.06 723.532 105.873 722.706 106.42C721.879 106.967 720.532 107.24 718.666 107.24C717.812 107.24 717.086 107.18 716.486 107.06C715.899 106.953 715.412 106.793 715.026 106.58C714.652 106.367 714.379 106.107 714.206 105.8C714.032 105.493 713.946 105.14 713.946 104.74C713.946 104.167 714.099 103.72 714.406 103.4C714.726 103.08 715.166 102.86 715.726 102.74V102.52C714.939 102.267 714.546 101.733 714.546 100.92C714.546 100.387 714.726 99.98 715.086 99.7C715.446 99.4066 715.879 99.2 716.386 99.08V99C715.772 98.7066 715.299 98.3 714.966 97.78C714.646 97.2466 714.486 96.6266 714.486 95.92C714.486 94.8533 714.839 93.9933 715.546 93.34C716.266 92.6866 717.292 92.36 718.626 92.36C719.359 92.36 719.986 92.4666 720.506 92.68V92.4C720.506 91.9333 720.612 91.5733 720.826 91.32C721.052 91.0533 721.399 90.92 721.866 90.92H723.466V92.68H721.346V93.1C721.812 93.4066 722.172 93.8066 722.426 94.3C722.679 94.78 722.806 95.32 722.806 95.92C722.806 96.9733 722.446 97.8266 721.726 98.48C721.006 99.12 719.979 99.44 718.646 99.44C718.139 99.44 717.686 99.3866 717.286 99.28C717.019 99.3733 716.786 99.5066 716.586 99.68C716.386 99.84 716.286 100.053 716.286 100.32C716.286 100.6 716.412 100.8 716.666 100.92C716.919 101.04 717.279 101.1 717.746 101.1H720.306C721.586 101.1 722.512 101.36 723.086 101.88C723.659 102.387 723.946 103.087 723.946 103.98ZM721.906 104.22C721.906 103.86 721.766 103.573 721.486 103.36C721.219 103.147 720.726 103.04 720.006 103.04H716.486C716.006 103.32 715.766 103.72 715.766 104.24C715.766 104.667 715.932 105.007 716.266 105.26C716.612 105.527 717.192 105.66 718.006 105.66H719.366C721.059 105.66 721.906 105.18 721.906 104.22ZM718.646 97.86C719.286 97.86 719.779 97.72 720.126 97.44C720.486 97.1466 720.666 96.7 720.666 96.1V95.7C720.666 95.1 720.486 94.66 720.126 94.38C719.779 94.0866 719.286 93.94 718.646 93.94C718.006 93.94 717.506 94.0866 717.146 94.38C716.799 94.66 716.626 95.1 716.626 95.7V96.1C716.626 96.7 716.799 97.1466 717.146 97.44C717.506 97.72 718.006 97.86 718.646 97.86ZM725.568 103V92.6H727.748V94.6H727.848C727.994 94.0666 728.301 93.6 728.768 93.2C729.234 92.8 729.881 92.6 730.708 92.6H731.288V94.7H730.428C729.561 94.7 728.894 94.84 728.428 95.12C727.974 95.4 727.748 95.8133 727.748 96.36V103H725.568ZM740.688 103C740.114 103 739.674 102.84 739.368 102.52C739.061 102.187 738.874 101.767 738.808 101.26H738.708C738.508 101.913 738.141 102.407 737.608 102.74C737.074 103.073 736.428 103.24 735.668 103.24C734.588 103.24 733.754 102.96 733.168 102.4C732.594 101.84 732.308 101.087 732.308 100.14C732.308 99.1 732.681 98.32 733.428 97.8C734.188 97.28 735.294 97.02 736.748 97.02H738.628V96.14C738.628 95.5 738.454 95.0066 738.108 94.66C737.761 94.3133 737.221 94.14 736.488 94.14C735.874 94.14 735.374 94.2733 734.988 94.54C734.601 94.8066 734.274 95.1466 734.008 95.56L732.708 94.38C733.054 93.7933 733.541 93.3133 734.168 92.94C734.794 92.5533 735.614 92.36 736.628 92.36C737.974 92.36 739.008 92.6733 739.728 93.3C740.448 93.9266 740.808 94.8266 740.808 96V101.22H741.908V103H740.688ZM736.288 101.58C736.968 101.58 737.528 101.433 737.968 101.14C738.408 100.833 738.628 100.427 738.628 99.92V98.42H736.788C735.281 98.42 734.528 98.8866 734.528 99.82V100.18C734.528 100.647 734.681 101 734.988 101.24C735.308 101.467 735.741 101.58 736.288 101.58ZM744.044 92.6H746.224V94.32H746.324C746.551 93.6933 746.918 93.2133 747.424 92.88C747.944 92.5333 748.551 92.36 749.244 92.36C750.564 92.36 751.584 92.84 752.304 93.8C753.024 94.7466 753.384 96.08 753.384 97.8C753.384 99.52 753.024 100.86 752.304 101.82C751.584 102.767 750.564 103.24 749.244 103.24C748.551 103.24 747.944 103.067 747.424 102.72C746.918 102.373 746.551 101.893 746.324 101.28H746.224V107H744.044V92.6ZM748.584 101.36C749.344 101.36 749.951 101.12 750.404 100.64C750.858 100.147 751.084 99.5 751.084 98.7V96.9C751.084 96.1 750.858 95.46 750.404 94.98C749.951 94.4866 749.344 94.24 748.584 94.24C747.918 94.24 747.358 94.4066 746.904 94.74C746.451 95.06 746.224 95.4866 746.224 96.02V99.58C746.224 100.113 746.451 100.547 746.904 100.88C747.358 101.2 747.918 101.36 748.584 101.36ZM755.88 88.2H758.06V94.32H758.16C758.387 93.76 758.727 93.2933 759.18 92.92C759.647 92.5466 760.28 92.36 761.08 92.36C762.147 92.36 762.974 92.7133 763.56 93.42C764.16 94.1133 764.46 95.1066 764.46 96.4V103H762.28V96.66C762.28 95.0466 761.627 94.24 760.32 94.24C760.04 94.24 759.76 94.28 759.48 94.36C759.214 94.4266 758.974 94.5333 758.76 94.68C758.547 94.8266 758.374 95.0133 758.24 95.24C758.12 95.4666 758.06 95.7266 758.06 96.02V103H755.88V88.2ZM781.088 103L779.828 99.22H774.608L773.388 103H771.088L775.848 89.04H778.688L783.448 103H781.088ZM777.268 91.12H777.168L775.148 97.28H779.268L777.268 91.12ZM787.222 103L783.682 92.6H785.842L787.422 97.34L788.482 100.98H788.602L789.662 97.34L791.282 92.6H793.362L789.782 103H787.222ZM799.12 103.24C798.374 103.24 797.707 103.113 797.12 102.86C796.534 102.607 796.034 102.247 795.62 101.78C795.207 101.3 794.887 100.727 794.66 100.06C794.447 99.38 794.34 98.6266 794.34 97.8C794.34 96.9733 794.447 96.2266 794.66 95.56C794.887 94.88 795.207 94.3066 795.62 93.84C796.034 93.36 796.534 92.9933 797.12 92.74C797.707 92.4866 798.374 92.36 799.12 92.36C799.88 92.36 800.547 92.4933 801.12 92.76C801.707 93.0266 802.194 93.4 802.58 93.88C802.967 94.3466 803.254 94.8933 803.44 95.52C803.64 96.1466 803.74 96.82 803.74 97.54V98.36H796.6V98.7C796.6 99.5 796.834 100.16 797.3 100.68C797.78 101.187 798.46 101.44 799.34 101.44C799.98 101.44 800.52 101.3 800.96 101.02C801.4 100.74 801.774 100.36 802.08 99.88L803.36 101.14C802.974 101.78 802.414 102.293 801.68 102.68C800.947 103.053 800.094 103.24 799.12 103.24ZM799.12 94.06C798.747 94.06 798.4 94.1266 798.08 94.26C797.774 94.3933 797.507 94.58 797.28 94.82C797.067 95.06 796.9 95.3466 796.78 95.68C796.66 96.0133 796.6 96.38 796.6 96.78V96.92H801.44V96.72C801.44 95.92 801.234 95.28 800.82 94.8C800.407 94.3066 799.84 94.06 799.12 94.06ZM624.917 122.04H631.097C632.257 122.04 633.164 122.367 633.817 123.02C634.484 123.673 634.817 124.547 634.817 125.64C634.817 126.16 634.744 126.607 634.597 126.98C634.451 127.34 634.264 127.64 634.037 127.88C633.811 128.107 633.551 128.28 633.257 128.4C632.964 128.507 632.677 128.573 632.397 128.6V128.72C632.677 128.733 632.984 128.8 633.317 128.92C633.664 129.04 633.984 129.233 634.277 129.5C634.571 129.753 634.817 130.087 635.017 130.5C635.217 130.9 635.317 131.393 635.317 131.98C635.317 132.54 635.224 133.067 635.037 133.56C634.864 134.053 634.617 134.48 634.297 134.84C633.977 135.2 633.597 135.487 633.157 135.7C632.717 135.9 632.237 136 631.717 136H624.917V122.04ZM627.177 134.06H631.057C631.644 134.06 632.104 133.907 632.437 133.6C632.771 133.293 632.937 132.853 632.937 132.28V131.6C632.937 131.027 632.771 130.587 632.437 130.28C632.104 129.973 631.644 129.82 631.057 129.82H627.177V134.06ZM627.177 127.94H630.677C631.237 127.94 631.671 127.8 631.977 127.52C632.284 127.227 632.437 126.813 632.437 126.28V125.64C632.437 125.107 632.284 124.7 631.977 124.42C631.671 124.127 631.237 123.98 630.677 123.98H627.177V127.94ZM642.021 136.24C641.274 136.24 640.608 136.113 640.021 135.86C639.434 135.607 638.934 135.247 638.521 134.78C638.108 134.3 637.788 133.727 637.561 133.06C637.348 132.38 637.241 131.627 637.241 130.8C637.241 129.973 637.348 129.227 637.561 128.56C637.788 127.88 638.108 127.307 638.521 126.84C638.934 126.36 639.434 125.993 640.021 125.74C640.608 125.487 641.274 125.36 642.021 125.36C642.781 125.36 643.448 125.493 644.021 125.76C644.608 126.027 645.094 126.4 645.481 126.88C645.868 127.347 646.154 127.893 646.341 128.52C646.541 129.147 646.641 129.82 646.641 130.54V131.36H639.501V131.7C639.501 132.5 639.734 133.16 640.201 133.68C640.681 134.187 641.361 134.44 642.241 134.44C642.881 134.44 643.421 134.3 643.861 134.02C644.301 133.74 644.674 133.36 644.981 132.88L646.261 134.14C645.874 134.78 645.314 135.293 644.581 135.68C643.848 136.053 642.994 136.24 642.021 136.24ZM642.021 127.06C641.648 127.06 641.301 127.127 640.981 127.26C640.674 127.393 640.408 127.58 640.181 127.82C639.968 128.06 639.801 128.347 639.681 128.68C639.561 129.013 639.501 129.38 639.501 129.78V129.92H644.341V129.72C644.341 128.92 644.134 128.28 643.721 127.8C643.308 127.307 642.741 127.06 642.021 127.06ZM649.054 136V125.6H651.234V127.6H651.334C651.481 127.067 651.787 126.6 652.254 126.2C652.721 125.8 653.367 125.6 654.194 125.6H654.774V127.7H653.914C653.047 127.7 652.381 127.84 651.914 128.12C651.461 128.4 651.234 128.813 651.234 129.36V136H649.054ZM656.71 121.2H658.89V130.28H658.99L660.43 128.42L662.93 125.6H665.47L661.83 129.62L665.91 136H663.31L660.33 131.04L658.89 132.6V136H656.71V121.2ZM671.298 136.24C670.552 136.24 669.885 136.113 669.298 135.86C668.712 135.607 668.212 135.247 667.798 134.78C667.385 134.3 667.065 133.727 666.838 133.06C666.625 132.38 666.518 131.627 666.518 130.8C666.518 129.973 666.625 129.227 666.838 128.56C667.065 127.88 667.385 127.307 667.798 126.84C668.212 126.36 668.712 125.993 669.298 125.74C669.885 125.487 670.552 125.36 671.298 125.36C672.058 125.36 672.725 125.493 673.298 125.76C673.885 126.027 674.372 126.4 674.758 126.88C675.145 127.347 675.432 127.893 675.618 128.52C675.818 129.147 675.918 129.82 675.918 130.54V131.36H668.778V131.7C668.778 132.5 669.012 133.16 669.478 133.68C669.958 134.187 670.638 134.44 671.518 134.44C672.158 134.44 672.698 134.3 673.138 134.02C673.578 133.74 673.952 133.36 674.258 132.88L675.538 134.14C675.152 134.78 674.592 135.293 673.858 135.68C673.125 136.053 672.272 136.24 671.298 136.24ZM671.298 127.06C670.925 127.06 670.578 127.127 670.258 127.26C669.952 127.393 669.685 127.58 669.458 127.82C669.245 128.06 669.078 128.347 668.958 128.68C668.838 129.013 668.778 129.38 668.778 129.78V129.92H673.618V129.72C673.618 128.92 673.412 128.28 672.998 127.8C672.585 127.307 672.018 127.06 671.298 127.06ZM680.551 136C679.805 136 679.245 135.813 678.871 135.44C678.511 135.053 678.331 134.52 678.331 133.84V121.2H680.511V134.22H681.951V136H680.551ZM688.115 136.24C687.368 136.24 686.701 136.113 686.115 135.86C685.528 135.607 685.028 135.247 684.615 134.78C684.201 134.3 683.881 133.727 683.655 133.06C683.441 132.38 683.335 131.627 683.335 130.8C683.335 129.973 683.441 129.227 683.655 128.56C683.881 127.88 684.201 127.307 684.615 126.84C685.028 126.36 685.528 125.993 686.115 125.74C686.701 125.487 687.368 125.36 688.115 125.36C688.875 125.36 689.541 125.493 690.115 125.76C690.701 126.027 691.188 126.4 691.575 126.88C691.961 127.347 692.248 127.893 692.435 128.52C692.635 129.147 692.735 129.82 692.735 130.54V131.36H685.595V131.7C685.595 132.5 685.828 133.16 686.295 133.68C686.775 134.187 687.455 134.44 688.335 134.44C688.975 134.44 689.515 134.3 689.955 134.02C690.395 133.74 690.768 133.36 691.075 132.88L692.355 134.14C691.968 134.78 691.408 135.293 690.675 135.68C689.941 136.053 689.088 136.24 688.115 136.24ZM688.115 127.06C687.741 127.06 687.395 127.127 687.075 127.26C686.768 127.393 686.501 127.58 686.275 127.82C686.061 128.06 685.895 128.347 685.775 128.68C685.655 129.013 685.595 129.38 685.595 129.78V129.92H690.435V129.72C690.435 128.92 690.228 128.28 689.815 127.8C689.401 127.307 688.835 127.06 688.115 127.06ZM701.411 125.6H703.511L699.131 138.06C699.011 138.407 698.871 138.7 698.711 138.94C698.564 139.193 698.384 139.393 698.171 139.54C697.971 139.7 697.724 139.813 697.431 139.88C697.137 139.96 696.791 140 696.391 140H695.131V138.22H696.891L697.491 136.46L693.711 125.6H695.891L697.971 131.72L698.571 133.98H698.671L699.331 131.72L701.411 125.6ZM705.629 133.22C706.122 133.22 706.489 133.347 706.729 133.6C706.969 133.853 707.089 134.18 707.089 134.58V134.9C707.089 135.553 706.909 136.233 706.549 136.94C706.202 137.66 705.729 138.267 705.129 138.76H703.509C703.935 138.333 704.289 137.92 704.569 137.52C704.849 137.12 705.062 136.673 705.209 136.18C704.862 136.113 704.602 135.967 704.429 135.74C704.255 135.5 704.169 135.22 704.169 134.9V134.58C704.169 134.18 704.289 133.853 704.529 133.6C704.769 133.347 705.135 133.22 705.629 133.22ZM720.216 136.24C718.389 136.24 716.956 135.627 715.916 134.4C714.876 133.16 714.356 131.367 714.356 129.02C714.356 127.847 714.489 126.813 714.756 125.92C715.023 125.027 715.409 124.273 715.916 123.66C716.423 123.047 717.036 122.587 717.756 122.28C718.489 121.96 719.309 121.8 720.216 121.8C721.429 121.8 722.443 122.067 723.256 122.6C724.083 123.133 724.729 123.92 725.196 124.96L723.296 126C723.056 125.333 722.683 124.807 722.176 124.42C721.683 124.02 721.029 123.82 720.216 123.82C719.136 123.82 718.289 124.187 717.676 124.92C717.063 125.653 716.756 126.667 716.756 127.96V130.08C716.756 131.373 717.063 132.387 717.676 133.12C718.289 133.853 719.136 134.22 720.216 134.22C721.056 134.22 721.736 134.007 722.256 133.58C722.789 133.14 723.183 132.58 723.436 131.9L725.256 133C724.789 134.013 724.136 134.807 723.296 135.38C722.456 135.953 721.429 136.24 720.216 136.24ZM736.313 136L735.053 132.22H729.833L728.613 136H726.313L731.073 122.04H733.913L738.673 136H736.313ZM732.493 124.12H732.393L730.373 130.28H734.493L732.493 124.12ZM754.722 127.24C754.722 128.253 754.568 129.207 754.262 130.1C753.955 130.993 753.562 131.813 753.082 132.56C752.602 133.307 752.062 133.973 751.462 134.56C750.875 135.147 750.295 135.627 749.722 136H746.722C747.508 135.427 748.215 134.873 748.842 134.34C749.468 133.807 750.015 133.26 750.482 132.7C750.948 132.14 751.335 131.547 751.642 130.92C751.962 130.293 752.208 129.607 752.382 128.86L752.242 128.82C752.095 129.1 751.922 129.367 751.722 129.62C751.535 129.86 751.308 130.073 751.042 130.26C750.788 130.447 750.495 130.593 750.162 130.7C749.828 130.807 749.442 130.86 749.002 130.86C748.415 130.86 747.868 130.76 747.362 130.56C746.868 130.36 746.435 130.073 746.062 129.7C745.702 129.313 745.415 128.86 745.202 128.34C745.002 127.807 744.902 127.207 744.902 126.54C744.902 125.847 745.015 125.207 745.242 124.62C745.482 124.033 745.815 123.533 746.242 123.12C746.668 122.707 747.182 122.387 747.782 122.16C748.382 121.92 749.055 121.8 749.802 121.8C750.575 121.8 751.262 121.927 751.862 122.18C752.475 122.433 752.988 122.8 753.402 123.28C753.828 123.747 754.155 124.313 754.382 124.98C754.608 125.647 754.722 126.4 754.722 127.24ZM749.802 129.04C750.615 129.04 751.248 128.827 751.702 128.4C752.155 127.96 752.382 127.32 752.382 126.48V126.2C752.382 125.36 752.155 124.727 751.702 124.3C751.248 123.86 750.615 123.64 749.802 123.64C748.988 123.64 748.355 123.86 747.902 124.3C747.448 124.727 747.222 125.36 747.222 126.2V126.48C747.222 127.32 747.448 127.96 747.902 128.4C748.355 128.827 748.988 129.04 749.802 129.04ZM763.014 136V133.28H756.534V131.34L762.194 122.04H765.154V131.5H767.054V133.28H765.154V136H763.014ZM758.454 131.5H763.014V124.1H762.874L758.454 131.5ZM771.246 136L776.306 123.9H771.026V126.48H769.086V122.04H778.546V124L773.626 136H771.246ZM785.818 136.24C784.952 136.24 784.198 136.08 783.558 135.76C782.918 135.427 782.392 134.953 781.978 134.34C781.565 133.727 781.258 132.973 781.058 132.08C780.858 131.187 780.758 130.167 780.758 129.02C780.758 127.887 780.858 126.873 781.058 125.98C781.258 125.073 781.565 124.313 781.978 123.7C782.392 123.087 782.918 122.62 783.558 122.3C784.198 121.967 784.952 121.8 785.818 121.8C787.552 121.8 788.825 122.433 789.638 123.7C790.465 124.967 790.878 126.74 790.878 129.02C790.878 131.3 790.465 133.073 789.638 134.34C788.825 135.607 787.552 136.24 785.818 136.24ZM785.818 134.32C786.298 134.32 786.705 134.227 787.038 134.04C787.385 133.84 787.665 133.56 787.878 133.2C788.092 132.84 788.245 132.413 788.338 131.92C788.432 131.413 788.478 130.853 788.478 130.24V127.8C788.478 127.187 788.432 126.633 788.338 126.14C788.245 125.633 788.092 125.2 787.878 124.84C787.665 124.48 787.385 124.207 787.038 124.02C786.705 123.82 786.298 123.72 785.818 123.72C785.338 123.72 784.925 123.82 784.578 124.02C784.245 124.207 783.972 124.48 783.758 124.84C783.545 125.2 783.392 125.633 783.298 126.14C783.205 126.633 783.158 127.187 783.158 127.8V130.24C783.158 130.853 783.205 131.413 783.298 131.92C783.392 132.413 783.545 132.84 783.758 133.2C783.972 133.56 784.245 133.84 784.578 134.04C784.925 134.227 785.338 134.32 785.818 134.32ZM798.991 136V133.28H792.511V131.34L798.171 122.04H801.131V131.5H803.031V133.28H801.131V136H798.991ZM794.431 131.5H798.991V124.1H798.851L794.431 131.5Z" fill="white"/>
<path d="M1173.41 64.055C1173.41 63.095 1173.5 62.1684 1173.67 61.275C1173.86 60.3817 1174.11 59.555 1174.41 58.795C1174.73 58.0217 1175.11 57.3217 1175.53 56.695C1175.96 56.0684 1176.43 55.535 1176.93 55.095H1179.35C1178.81 55.6017 1178.31 56.1617 1177.87 56.775C1177.45 57.3884 1177.08 58.0484 1176.77 58.755C1176.47 59.4484 1176.23 60.1817 1176.05 60.955C1175.89 61.7284 1175.81 62.5217 1175.81 63.335V64.815C1175.81 65.6417 1175.89 66.4484 1176.05 67.235C1176.23 68.0084 1176.47 68.7484 1176.77 69.455C1177.09 70.1484 1177.47 70.8017 1177.89 71.415C1178.33 72.0284 1178.82 72.575 1179.35 73.055H1176.93C1176.44 72.6417 1175.98 72.1217 1175.55 71.495C1175.13 70.8684 1174.75 70.1684 1174.43 69.395C1174.11 68.6084 1173.86 67.7684 1173.67 66.875C1173.5 65.9684 1173.41 65.0284 1173.41 64.055ZM1189.45 58.615H1183.17L1182.85 63.295H1182.99C1183.14 63.0017 1183.3 62.7284 1183.47 62.475C1183.65 62.2217 1183.85 62.0084 1184.07 61.835C1184.3 61.6617 1184.56 61.5284 1184.85 61.435C1185.16 61.3284 1185.53 61.275 1185.95 61.275C1186.55 61.275 1187.11 61.375 1187.63 61.575C1188.15 61.775 1188.6 62.0684 1188.97 62.455C1189.36 62.8284 1189.66 63.2884 1189.87 63.835C1190.1 64.3817 1190.21 65.0017 1190.21 65.695C1190.21 66.4017 1190.1 67.0484 1189.87 67.635C1189.65 68.2217 1189.31 68.735 1188.87 69.175C1188.43 69.6017 1187.89 69.935 1187.25 70.175C1186.61 70.415 1185.88 70.535 1185.05 70.535C1184.41 70.535 1183.84 70.4617 1183.33 70.315C1182.83 70.1817 1182.38 69.995 1181.99 69.755C1181.61 69.515 1181.27 69.2417 1180.99 68.935C1180.71 68.615 1180.47 68.2817 1180.25 67.935L1182.17 66.455C1182.33 66.7217 1182.5 66.975 1182.67 67.215C1182.85 67.4417 1183.05 67.6417 1183.27 67.815C1183.51 67.9884 1183.77 68.1284 1184.05 68.235C1184.35 68.3284 1184.69 68.375 1185.07 68.375C1185.86 68.375 1186.45 68.155 1186.85 67.715C1187.27 67.275 1187.47 66.675 1187.47 65.915V65.755C1187.47 65.035 1187.27 64.4684 1186.85 64.055C1186.44 63.6417 1185.87 63.435 1185.13 63.435C1184.56 63.435 1184.09 63.5484 1183.73 63.775C1183.37 63.9884 1183.09 64.2217 1182.87 64.475L1180.71 64.175L1181.23 56.335H1189.45V58.615ZM1192.96 70.295V68.155H1196.8V58.235H1196.62L1193.58 61.835L1191.94 60.455L1195.4 56.335H1199.38V68.155H1202.58V70.295H1192.96ZM1209.14 70.535C1208.24 70.535 1207.47 70.375 1206.82 70.055C1206.16 69.7217 1205.62 69.2484 1205.2 68.635C1204.77 68.0217 1204.45 67.2684 1204.24 66.375C1204.04 65.4817 1203.94 64.4617 1203.94 63.315C1203.94 62.1817 1204.04 61.1684 1204.24 60.275C1204.45 59.3684 1204.77 58.6084 1205.2 57.995C1205.62 57.3817 1206.16 56.915 1206.82 56.595C1207.47 56.2617 1208.24 56.095 1209.14 56.095C1210.91 56.095 1212.22 56.7284 1213.06 57.995C1213.91 59.2617 1214.34 61.035 1214.34 63.315C1214.34 65.595 1213.91 67.3684 1213.06 68.635C1212.22 69.9017 1210.91 70.535 1209.14 70.535ZM1209.14 68.315C1210.03 68.315 1210.65 67.9817 1211 67.315C1211.36 66.635 1211.54 65.7217 1211.54 64.575V62.055C1211.54 60.9084 1211.36 60.0017 1211 59.335C1210.65 58.655 1210.03 58.315 1209.14 58.315C1208.24 58.315 1207.62 58.655 1207.26 59.335C1206.91 60.0017 1206.74 60.9084 1206.74 62.055V64.575C1206.74 65.7217 1206.91 66.635 1207.26 67.315C1207.62 67.9817 1208.24 68.315 1209.14 68.315ZM1220.87 64.055C1220.87 65.0284 1220.78 65.9684 1220.59 66.875C1220.42 67.7684 1220.17 68.6084 1219.85 69.395C1219.53 70.1684 1219.16 70.8684 1218.73 71.495C1218.3 72.1217 1217.84 72.6417 1217.35 73.055H1214.93C1215.46 72.575 1215.94 72.0284 1216.37 71.415C1216.81 70.8017 1217.18 70.1484 1217.49 69.455C1217.81 68.7484 1218.05 68.0084 1218.21 67.235C1218.38 66.4484 1218.47 65.6417 1218.47 64.815V63.335C1218.47 62.5217 1218.38 61.7284 1218.21 60.955C1218.05 60.1817 1217.82 59.4484 1217.51 58.755C1217.2 58.0484 1216.83 57.3884 1216.39 56.775C1215.96 56.1617 1215.48 55.6017 1214.93 55.095H1217.35C1217.86 55.535 1218.32 56.0684 1218.75 56.695C1219.18 57.3217 1219.54 58.0217 1219.85 58.795C1220.17 59.555 1220.42 60.3817 1220.59 61.275C1220.78 62.1684 1220.87 63.095 1220.87 64.055ZM1232.59 70.535C1231.78 70.535 1231.05 70.435 1230.41 70.235C1229.79 70.0217 1229.25 69.735 1228.81 69.375C1228.39 69.015 1228.06 68.5884 1227.83 68.095C1227.61 67.6017 1227.49 67.0617 1227.49 66.475C1227.49 65.5684 1227.74 64.835 1228.23 64.275C1228.74 63.7017 1229.41 63.3017 1230.25 63.075V62.915C1229.56 62.6617 1228.99 62.2684 1228.55 61.735C1228.13 61.2017 1227.91 60.5284 1227.91 59.715C1227.91 59.1817 1228.01 58.695 1228.21 58.255C1228.43 57.815 1228.73 57.435 1229.13 57.115C1229.53 56.795 1230.02 56.5484 1230.59 56.375C1231.18 56.1884 1231.85 56.095 1232.59 56.095C1233.34 56.095 1234 56.1884 1234.57 56.375C1235.16 56.5484 1235.65 56.795 1236.05 57.115C1236.45 57.435 1236.75 57.815 1236.95 58.255C1237.17 58.695 1237.27 59.1817 1237.27 59.715C1237.27 60.5284 1237.05 61.2017 1236.61 61.735C1236.19 62.2684 1235.63 62.6617 1234.93 62.915V63.075C1235.77 63.3017 1236.44 63.7017 1236.93 64.275C1237.44 64.835 1237.69 65.5684 1237.69 66.475C1237.69 67.0617 1237.58 67.6017 1237.35 68.095C1237.13 68.5884 1236.79 69.015 1236.35 69.375C1235.93 69.735 1235.39 70.0217 1234.75 70.235C1234.13 70.435 1233.41 70.535 1232.59 70.535ZM1232.59 68.475C1233.35 68.475 1233.93 68.3017 1234.33 67.955C1234.75 67.6084 1234.95 67.1217 1234.95 66.495V66.075C1234.95 65.4484 1234.75 64.9617 1234.33 64.615C1233.93 64.2684 1233.35 64.095 1232.59 64.095C1231.83 64.095 1231.25 64.2684 1230.83 64.615C1230.43 64.9617 1230.23 65.4484 1230.23 66.075V66.495C1230.23 67.1217 1230.43 67.6084 1230.83 67.955C1231.25 68.3017 1231.83 68.475 1232.59 68.475ZM1232.59 62.135C1233.3 62.135 1233.84 61.975 1234.21 61.655C1234.59 61.335 1234.77 60.8817 1234.77 60.295V59.975C1234.77 59.4017 1234.59 58.955 1234.21 58.635C1233.84 58.315 1233.3 58.155 1232.59 58.155C1231.89 58.155 1231.35 58.315 1230.97 58.635C1230.6 58.955 1230.41 59.4017 1230.41 59.975V60.295C1230.41 60.8817 1230.6 61.335 1230.97 61.655C1231.35 61.975 1231.89 62.135 1232.59 62.135ZM1245.55 70.295V67.595H1239.23V65.355L1244.79 56.335H1248.05V65.555H1249.87V67.595H1248.05V70.295H1245.55ZM1241.39 65.555H1245.55V58.895H1245.39L1241.39 65.555ZM1255.82 61.975C1256.62 61.975 1257.2 61.815 1257.58 61.495C1257.96 61.1617 1258.16 60.7417 1258.16 60.235V60.095C1258.16 59.5217 1257.97 59.075 1257.6 58.755C1257.24 58.4217 1256.74 58.255 1256.1 58.255C1255.48 58.255 1254.94 58.4017 1254.46 58.695C1253.99 58.9884 1253.58 59.4017 1253.24 59.935L1251.56 58.415C1251.8 58.095 1252.06 57.795 1252.34 57.515C1252.63 57.2217 1252.96 56.975 1253.34 56.775C1253.71 56.5617 1254.13 56.395 1254.6 56.275C1255.06 56.155 1255.59 56.095 1256.18 56.095C1256.88 56.095 1257.52 56.1817 1258.1 56.355C1258.68 56.515 1259.18 56.755 1259.6 57.075C1260.02 57.395 1260.35 57.7817 1260.58 58.235C1260.8 58.675 1260.92 59.175 1260.92 59.735C1260.92 60.1884 1260.84 60.595 1260.7 60.955C1260.56 61.315 1260.37 61.6284 1260.12 61.895C1259.88 62.1617 1259.59 62.3817 1259.26 62.555C1258.94 62.715 1258.6 62.835 1258.24 62.915V63.035C1258.64 63.115 1259.02 63.2417 1259.38 63.415C1259.74 63.5884 1260.04 63.8217 1260.3 64.115C1260.56 64.395 1260.77 64.7284 1260.92 65.115C1261.08 65.5017 1261.16 65.9417 1261.16 66.435C1261.16 67.0484 1261.03 67.6084 1260.78 68.115C1260.54 68.6217 1260.19 69.055 1259.74 69.415C1259.28 69.775 1258.74 70.055 1258.12 70.255C1257.49 70.4417 1256.79 70.535 1256.02 70.535C1255.34 70.535 1254.74 70.4617 1254.22 70.315C1253.7 70.1817 1253.24 69.995 1252.84 69.755C1252.45 69.515 1252.11 69.2417 1251.82 68.935C1251.52 68.615 1251.27 68.2817 1251.06 67.935L1253 66.455C1253.16 66.735 1253.33 66.995 1253.52 67.235C1253.7 67.4617 1253.92 67.6617 1254.16 67.835C1254.4 68.0084 1254.67 68.1417 1254.98 68.235C1255.28 68.3284 1255.63 68.375 1256.02 68.375C1256.79 68.375 1257.38 68.1884 1257.8 67.815C1258.21 67.4417 1258.42 66.9284 1258.42 66.275V66.135C1258.42 65.495 1258.19 65.0084 1257.74 64.675C1257.3 64.3417 1256.66 64.175 1255.82 64.175H1254.44V61.975H1255.82ZM1263.73 65.475V62.935H1269.45V65.475H1263.73ZM1272.44 70.295V68.155H1276.28V58.235H1276.1L1273.06 61.835L1271.42 60.455L1274.88 56.335H1278.86V68.155H1282.06V70.295H1272.44ZM1293.63 61.575C1293.63 62.575 1293.48 63.5217 1293.17 64.415C1292.88 65.295 1292.49 66.1084 1292.01 66.855C1291.53 67.5884 1290.99 68.2484 1290.39 68.835C1289.8 69.4084 1289.22 69.895 1288.63 70.295H1285.07C1285.88 69.7084 1286.62 69.1417 1287.27 68.595C1287.92 68.0484 1288.49 67.495 1288.97 66.935C1289.46 66.375 1289.86 65.795 1290.17 65.195C1290.49 64.5817 1290.73 63.9217 1290.89 63.215L1290.73 63.175C1290.6 63.4417 1290.44 63.7017 1290.25 63.955C1290.08 64.2084 1289.86 64.4284 1289.61 64.615C1289.36 64.8017 1289.06 64.955 1288.73 65.075C1288.4 65.1817 1288.01 65.235 1287.57 65.235C1286.98 65.235 1286.44 65.135 1285.95 64.935C1285.46 64.735 1285.02 64.4484 1284.65 64.075C1284.29 63.6884 1284 63.235 1283.79 62.715C1283.59 62.1817 1283.49 61.5817 1283.49 60.915C1283.49 60.2084 1283.61 59.5617 1283.85 58.975C1284.09 58.3884 1284.43 57.8817 1284.87 57.455C1285.31 57.0284 1285.84 56.695 1286.45 56.455C1287.08 56.215 1287.78 56.095 1288.55 56.095C1289.35 56.095 1290.06 56.2284 1290.69 56.495C1291.32 56.7484 1291.85 57.115 1292.29 57.595C1292.73 58.0617 1293.06 58.635 1293.29 59.315C1293.52 59.9817 1293.63 60.735 1293.63 61.575ZM1288.55 63.195C1289.3 63.195 1289.88 62.995 1290.29 62.595C1290.7 62.1817 1290.91 61.595 1290.91 60.835V60.535C1290.91 59.775 1290.7 59.195 1290.29 58.795C1289.88 58.3817 1289.3 58.175 1288.55 58.175C1287.82 58.175 1287.24 58.3817 1286.81 58.795C1286.4 59.195 1286.19 59.775 1286.19 60.535V60.835C1286.19 61.595 1286.4 62.1817 1286.81 62.595C1287.24 62.995 1287.82 63.195 1288.55 63.195ZM1305.62 61.575C1305.62 62.575 1305.47 63.5217 1305.16 64.415C1304.87 65.295 1304.48 66.1084 1304 66.855C1303.52 67.5884 1302.98 68.2484 1302.38 68.835C1301.79 69.4084 1301.21 69.895 1300.62 70.295H1297.06C1297.87 69.7084 1298.61 69.1417 1299.26 68.595C1299.91 68.0484 1300.48 67.495 1300.96 66.935C1301.45 66.375 1301.85 65.795 1302.16 65.195C1302.48 64.5817 1302.72 63.9217 1302.88 63.215L1302.72 63.175C1302.59 63.4417 1302.43 63.7017 1302.24 63.955C1302.07 64.2084 1301.85 64.4284 1301.6 64.615C1301.35 64.8017 1301.05 64.955 1300.72 65.075C1300.39 65.1817 1300 65.235 1299.56 65.235C1298.97 65.235 1298.43 65.135 1297.94 64.935C1297.45 64.735 1297.01 64.4484 1296.64 64.075C1296.28 63.6884 1295.99 63.235 1295.78 62.715C1295.58 62.1817 1295.48 61.5817 1295.48 60.915C1295.48 60.2084 1295.6 59.5617 1295.84 58.975C1296.08 58.3884 1296.42 57.8817 1296.86 57.455C1297.3 57.0284 1297.83 56.695 1298.44 56.455C1299.07 56.215 1299.77 56.095 1300.54 56.095C1301.34 56.095 1302.05 56.2284 1302.68 56.495C1303.31 56.7484 1303.84 57.115 1304.28 57.595C1304.72 58.0617 1305.05 58.635 1305.28 59.315C1305.51 59.9817 1305.62 60.735 1305.62 61.575ZM1300.54 63.195C1301.29 63.195 1301.87 62.995 1302.28 62.595C1302.69 62.1817 1302.9 61.595 1302.9 60.835V60.535C1302.9 59.775 1302.69 59.195 1302.28 58.795C1301.87 58.3817 1301.29 58.175 1300.54 58.175C1299.81 58.175 1299.23 58.3817 1298.8 58.795C1298.39 59.195 1298.18 59.775 1298.18 60.535V60.835C1298.18 61.595 1298.39 62.1817 1298.8 62.595C1299.23 62.995 1299.81 63.195 1300.54 63.195ZM1317.51 70.295H1307.83V67.855L1312.21 64.015C1312.96 63.3617 1313.51 62.775 1313.85 62.255C1314.2 61.7217 1314.37 61.1484 1314.37 60.535V60.275C1314.37 59.6617 1314.17 59.195 1313.77 58.875C1313.37 58.5417 1312.89 58.375 1312.31 58.375C1311.59 58.375 1311.05 58.5817 1310.67 58.995C1310.3 59.395 1310.03 59.8817 1309.87 60.455L1307.59 59.575C1307.74 59.1084 1307.95 58.6684 1308.21 58.255C1308.48 57.8284 1308.81 57.455 1309.21 57.135C1309.63 56.815 1310.11 56.5617 1310.65 56.375C1311.2 56.1884 1311.83 56.095 1312.53 56.095C1313.27 56.095 1313.92 56.2017 1314.49 56.415C1315.07 56.615 1315.55 56.9017 1315.93 57.275C1316.33 57.6484 1316.63 58.0884 1316.83 58.595C1317.05 59.1017 1317.15 59.655 1317.15 60.255C1317.15 60.8417 1317.06 61.375 1316.87 61.855C1316.69 62.335 1316.43 62.795 1316.11 63.235C1315.79 63.6617 1315.42 64.075 1314.99 64.475C1314.57 64.8617 1314.11 65.255 1313.63 65.655L1310.69 68.075H1317.51V70.295Z" fill="white"/>
<path d="M1172.41 72.675H1318.59V74.435H1172.41V72.675Z" fill="white"/>
<a href="tel:(510) 843-1992">
<rect fill="black" fill-opacity="0" x="0.414062" width="146.18" height="33"/>
</a>
</svg>
