<svg width="1438" height="103" viewBox="0 0 1438 103" fill="none" xmlns="http://www.w3.org/2000/svg">
<path d="M82.92 41.12C82.92 41.0933 82.8933 41.04 82.84 40.96C82.7867 40.9067 82.76 40.8667 82.76 40.84C82.76 40.8133 82.7867 40.7467 82.84 40.64C82.92 40.5333 82.9733 40.4533 83 40.4C83.0267 40.3733 83.12 40.2667 83.28 40.08C83.4667 39.92 83.5733 39.84 83.6 39.84C83.5733 39.84 83.5733 39.84 83.6 39.84C83.6 39.8667 83.64 39.92 83.72 40C83.7733 39.92 83.8133 39.84 83.84 39.76C83.8667 39.68 83.8933 39.5867 83.92 39.48C84.0267 39.4533 84.16 39.3733 84.32 39.24C84.4 39.1333 84.5333 38.96 84.72 38.72C84.9067 38.48 85.2133 38.1067 85.64 37.6C85.8 37.5733 85.9733 37.32 86.16 36.84C86.16 36.8133 86.16 36.7733 86.16 36.72C86.16 36.6667 86.1733 36.6 86.2 36.52C86.2267 36.5467 86.2667 36.64 86.32 36.8C86.48 36.7467 86.5733 36.6667 86.6 36.56C86.9467 36.2667 87.32 35.7467 87.72 35C88.0133 34.7067 88.2133 34.5467 88.32 34.52C88.3733 34.2 88.3733 34.04 88.32 34.04C88.4 34.0133 88.4667 33.92 88.52 33.76C88.6267 33.76 88.8533 33.52 89.2 33.04L89.36 32.84C89.5467 32.76 89.7867 32.5333 90.08 32.16C90.1333 32.1067 90.1867 32.0533 90.24 32C90.2933 31.9467 90.3733 31.8933 90.48 31.84C90.5067 31.7867 90.4933 31.7067 90.44 31.6C90.6 31.6 90.6533 31.6267 90.6 31.68H90.64C90.8 31.68 90.8933 31.4933 90.92 31.12C90.8933 31.12 90.8933 31.1067 90.92 31.08V31.12C90.92 31.12 90.9467 31.12 91 31.12C90.9733 31.12 91.0533 31.0267 91.24 30.84C91.2933 30.7867 91.3733 30.7067 91.48 30.6C91.5867 30.4933 91.6533 30.3733 91.68 30.24V30.08C91.7067 30.0267 91.7333 29.9733 91.76 29.92C91.8133 29.8667 91.8533 29.8133 91.88 29.76C92.0133 29.4933 92.1067 29.36 92.16 29.36C92.1333 29.3333 92.1067 29.2933 92.08 29.24C92.0533 29.1867 92.0267 29.1333 92 29.08C91.68 29.4533 91.52 29.68 91.52 29.76C91.52 29.84 91.5067 29.92 91.48 30C91.4267 30 91.36 29.9867 91.28 29.96C91.2267 29.9067 91.1733 29.88 91.12 29.88C90.7733 29.88 90.6933 30 90.88 30.24L90.68 30.32C90.4133 30.6667 90.16 30.9733 89.92 31.24C89.68 31.48 89.4533 31.7067 89.24 31.92L88.36 32.64C88.3333 32.6667 88.32 32.6933 88.32 32.72C88.32 32.7467 88.2133 32.8267 88 32.96C87.8933 33.0667 87.7733 33.2 87.64 33.36C87.5333 33.4933 87.4133 33.6533 87.28 33.84L86.36 34.84C86.2533 34.9467 86.1067 35.0667 85.92 35.2C85.7333 35.36 85.52 35.5467 85.28 35.76L84.92 36.16C84.92 36.1067 84.8933 36.0533 84.84 36C84.8667 35.8667 84.9467 35.7067 85.08 35.52C85.24 35.3333 85.4933 35.0533 85.84 34.68L87.72 32.6L88.68 31.8C88.9467 31.4533 89.4133 30.9067 90.08 30.16C90.2933 30.0533 90.4933 29.92 90.68 29.76L90.76 29.6C91.24 29.2267 91.64 28.8267 91.96 28.4L92.32 28.2C92.3733 28.12 92.4667 28.0267 92.6 27.92C92.76 27.7867 93 27.6133 93.32 27.4C94.0133 26.7333 94.3467 26.32 94.32 26.16C94.64 26 94.7867 25.72 94.76 25.32L94.84 25.6C95 25.6 95.1067 25.5067 95.16 25.32C95.2133 25.1333 95.2533 24.96 95.28 24.8L96.16 23.2L96.32 22.6C96.3733 22.5733 96.4133 22.4933 96.44 22.36C96.4667 22.2267 96.6133 21.96 96.88 21.56V21.44C96.88 21.36 96.88 21.28 96.88 21.2C96.9067 21.12 96.9333 21.04 96.96 20.96C97.0133 20.9333 97.0933 20.84 97.2 20.68C97.2533 20.6267 97.28 20.52 97.28 20.36L97.2 20.08V19.88C97.2 19.88 97.28 19.7867 97.44 19.6C97.4933 19.5467 97.4933 19.4933 97.44 19.44L97.8 18.8V18.64C97.8 18.5867 97.8 18.5067 97.8 18.4C97.8 18.2667 97.7867 18.12 97.76 17.96L97.84 17.84V17.28C97.92 16.9867 97.96 16.8933 97.96 17C97.96 16.7333 97.9467 16.56 97.92 16.48L97.32 15.28C97.2133 15.12 97.0533 15.04 96.84 15.04L96.68 15.08C96.68 15.0267 96.6933 14.9867 96.72 14.96C96.64 14.8267 96.5467 14.76 96.44 14.76H96.36C96.36 14.7867 96.3467 14.8 96.32 14.8H96.28C96.3067 14.8 96.32 14.8 96.32 14.8C96.32 14.7733 96.1867 14.72 95.92 14.64C95.76 14.5867 95.6133 14.56 95.48 14.56C95.4533 14.56 95.4533 14.5733 95.48 14.6C95.48 14.6533 95.4667 14.68 95.44 14.68C95.3867 14.68 95.3467 14.6667 95.32 14.64C95.32 14.6133 95.3067 14.6 95.28 14.6C95.2267 14.6 95.1733 14.6267 95.12 14.68C95.0933 14.7333 95.0667 14.76 95.04 14.76C94.9867 14.76 94.8933 14.7467 94.76 14.72C94.6267 14.6933 94.5333 14.68 94.48 14.68L93.6 14.8L92.76 14.88C92.6 14.9867 92.48 15.04 92.4 15.04C92.3467 15.04 92.1733 15.0933 91.88 15.2C91.64 15.3067 91.4667 15.36 91.36 15.36C91.3067 15.36 91.04 15.44 90.56 15.6L90.44 15.76C88.92 16.2933 87.5733 16.8933 86.4 17.56C86.2933 17.5867 86.1733 17.64 86.04 17.72C85.9333 17.7733 85.7867 17.8267 85.6 17.88L82.84 19.2C82.2267 19.5733 81.9733 19.76 82.08 19.76H82C82 19.7333 81.9733 19.72 81.92 19.72C81.9733 19.72 81.9067 19.76 81.72 19.84C81.5333 19.92 81.32 20.0933 81.08 20.36C80.8133 20.36 80.6667 20.4133 80.64 20.52C80.5867 20.52 80.5867 20.4933 80.64 20.44C80.64 20.4133 80.6267 20.4 80.6 20.4C80.5733 20.4 80.4533 20.5067 80.24 20.72C80.0533 20.9067 79.9467 21 79.92 21C79.8933 21 79.8667 20.9867 79.84 20.96H79.8C79.8 20.96 79.6267 21.0267 79.28 21.16C79.2 21.1867 79.16 21.2533 79.16 21.36L78.32 21.84C78.3467 21.84 78.1733 21.96 77.8 22.2L76.8 22.68L75.44 23.4C75.4133 23.4 75.4 23.44 75.4 23.52C75.4 23.4933 75.3733 23.48 75.32 23.48C75.1333 23.48 74.9333 23.5733 74.72 23.76C74.6667 23.76 74.6133 23.7733 74.56 23.8C74.3733 23.9067 74.12 24.0667 73.8 24.28C73.7733 24.28 73.5867 24.4133 73.24 24.68C73.1867 24.6267 73.12 24.6 73.04 24.6C73.0133 24.6 72.96 24.6267 72.88 24.68C72.8267 24.7333 72.7867 24.76 72.76 24.76C72.7067 24.76 72.68 24.7467 72.68 24.72C72.7067 24.6933 72.7067 24.68 72.68 24.68C72.4933 24.68 72.32 24.84 72.16 25.16C71.9467 25.16 71.7333 25.24 71.52 25.4C71.3333 25.5333 71.2133 25.6 71.16 25.6C71.1333 25.6 71.0133 25.68 70.8 25.84C70.6933 25.8667 70.56 25.9067 70.4 25.96C70.24 26.0133 70.0533 26.08 69.84 26.16C69.7867 26.1867 69.68 26.2667 69.52 26.4C69.36 26.5333 69.2533 26.6 69.2 26.6H69.16C69.1867 26.5733 69.1733 26.56 69.12 26.56C69.0933 26.56 69.0533 26.5867 69 26.64C68.9733 26.6933 68.9467 26.72 68.92 26.72C68.8667 26.72 68.6133 26.7867 68.16 26.92L68.04 26.84C67.7733 27.0267 67.6267 27.12 67.6 27.12C67.5733 27.12 67.5467 27.1067 67.52 27.08C67.4933 27.0533 67.4533 27.04 67.4 27.04C67.3467 27.04 67.2533 27.08 67.12 27.16C67.0133 27.24 66.9333 27.28 66.88 27.28H66.84C66.84 27.2533 66.8267 27.24 66.8 27.24C66.7733 27.24 66.76 27.2667 66.76 27.32C66.7867 27.3467 66.7733 27.36 66.72 27.36C66.6933 27.36 66.6533 27.3467 66.6 27.32C66.5733 27.2933 66.5467 27.28 66.52 27.28C66.4667 27.28 66.44 27.3067 66.44 27.36C66.4667 27.3867 66.4667 27.4 66.44 27.4C66.3867 27.4 66.3733 27.3867 66.4 27.36H66.36C66.2 27.36 66.1467 27.3733 66.2 27.4L66.12 27.48C66.0133 27.48 65.8667 27.4667 65.68 27.44C65.52 27.4133 65.4267 27.4 65.4 27.4C65.3733 27.4 65.3467 27.4267 65.32 27.48C65.2933 27.5067 65.2667 27.52 65.24 27.52C65.1867 27.52 65.0267 27.48 64.76 27.4C64.4933 27.32 64.3467 27.28 64.32 27.28C64.3467 27.28 64.28 27.32 64.12 27.4L63.44 27.04C63.3067 26.96 63.24 26.9067 63.24 26.88V26.92H63.2C63.12 26.92 62.8667 26.6267 62.44 26.04V25.76C62.4667 25.7333 62.48 25.6933 62.48 25.64C62.48 25.32 62.56 24.88 62.72 24.32C62.6667 24.24 62.84 23.8667 63.24 23.2C63.3733 23.0933 63.5067 22.9733 63.64 22.84C63.7733 22.68 63.9067 22.4933 64.04 22.28C64.3333 22.0133 64.5733 21.76 64.76 21.52C64.84 21.44 64.9867 21.36 65.2 21.28L65.28 21.12C65.4133 20.9867 65.5867 20.84 65.8 20.68C66.04 20.4933 66.3067 20.2933 66.6 20.08C66.6533 20.0533 66.7333 19.9867 66.84 19.88C66.9467 19.7733 67.0933 19.6933 67.28 19.64C67.4667 19.3733 67.6133 19.24 67.72 19.24H67.76C67.76 19.2667 67.7733 19.28 67.8 19.28C67.8 19.28 67.8133 19.2533 67.84 19.2C67.8933 19.1467 67.9867 19.12 68.12 19.12L68.24 19.04C68.2933 19.04 68.32 19.0267 68.32 19H68.36L68.76 18.72V19L68.04 19.52L67.28 19.92L66.28 20.72C66.1467 20.9067 65.8933 21.1067 65.52 21.32C65.4667 21.5067 65.2267 21.76 64.8 22.08C64.8 22.1067 64.8 22.1467 64.8 22.2C64.8 22.2533 64.7867 22.3067 64.76 22.36C64.76 22.36 64.7467 22.36 64.72 22.36C64.72 22.36 64.7067 22.3467 64.68 22.32C64.5733 22.4267 64.4933 22.5867 64.44 22.8C64.3867 22.7467 64.3467 22.72 64.32 22.72C64.2933 22.7733 64.2533 22.8533 64.2 22.96C64.1733 23.0667 64.1067 23.1867 64 23.32L63.72 23.44V23.52C63.72 23.76 63.5733 23.96 63.28 24.12C63.28 24.1467 63.28 24.16 63.28 24.16C63.3067 24.16 63.32 24.1733 63.32 24.2C63.32 24.3067 63.2667 24.4533 63.16 24.64C63.0533 24.8 63 24.9067 63 24.96C63 24.9867 63.0133 25.04 63.04 25.12C63.0933 25.2 63.12 25.2667 63.12 25.32C63.12 25.3467 63.12 25.3867 63.12 25.44C63.12 25.4933 63.1067 25.56 63.08 25.64C63.1067 25.72 63.16 25.8 63.24 25.88C63.32 25.9333 63.4133 25.9867 63.52 26.04C63.68 26.12 63.7733 26.1733 63.8 26.2C63.8 26.2 63.8133 26.2 63.84 26.2C63.8667 26.2 63.88 26.2267 63.88 26.28C63.88 26.3333 63.8933 26.36 63.92 26.36C63.9733 26.36 64.0133 26.3333 64.04 26.28C64.0667 26.2 64.1067 26.16 64.16 26.16C64.1867 26.16 64.2 26.1733 64.2 26.2H64.28C64.3333 26.2 64.36 26.16 64.36 26.08C64.3867 26.1067 64.4133 26.1333 64.44 26.16C64.4667 26.1867 64.5067 26.2267 64.56 26.28H64.64C64.72 26.28 64.8 26.2667 64.88 26.24C65.0133 26.1867 65.1333 26.1867 65.24 26.24L65.88 26.36C65.9333 26.36 66.0267 26.32 66.16 26.24C66.2933 26.16 66.44 26.12 66.6 26.12H66.76C66.7867 26.1467 66.84 26.16 66.92 26.16L67 26.08C67.08 26.0533 67.1867 26.0133 67.32 25.96C67.4533 25.88 67.5333 25.84 67.56 25.84C67.5867 25.84 67.6267 25.8533 67.68 25.88C67.7333 25.9067 67.7733 25.92 67.8 25.92C67.72 25.92 67.7867 25.88 68 25.8C68.24 25.6933 68.56 25.6 68.96 25.52C68.9067 25.4667 68.92 25.44 69 25.44H69.12C69.1467 25.4667 69.2 25.48 69.28 25.48C69.3067 25.48 69.32 25.4667 69.32 25.44C69.32 25.4133 69.3333 25.4 69.36 25.4H69.44C69.4133 25.4267 69.4267 25.44 69.48 25.44C69.5067 25.44 69.5467 25.4133 69.6 25.36C69.6533 25.28 69.6933 25.24 69.72 25.24C69.7467 25.24 69.76 25.2533 69.76 25.28H69.84C69.8667 25.28 69.8933 25.2667 69.92 25.24C69.9467 25.1867 69.9733 25.16 70 25.16H70.08C70.1067 25.1867 70.1333 25.2 70.16 25.2C70.2933 25.1467 70.4667 25.0667 70.68 24.96C70.8933 24.8267 71.1467 24.68 71.44 24.52C71.4933 24.5467 71.5733 24.5467 71.68 24.52C71.7867 24.44 71.9333 24.36 72.12 24.28C72.3067 24.2 72.64 24.0667 73.12 23.88C73.2533 23.8 73.4667 23.6533 73.76 23.44C74.0533 23.2267 74.2267 23.12 74.28 23.12C74.3067 23.12 74.3067 23.1333 74.28 23.16C74.2533 23.1867 74.2667 23.2 74.32 23.2C74.5867 23.2 74.8267 23.0533 75.04 22.76C75.0933 22.7333 75.1867 22.6667 75.32 22.56C75.4533 22.4533 75.5467 22.4 75.6 22.4C75.6267 22.4 75.64 22.4133 75.64 22.44C75.6667 22.4667 75.6933 22.48 75.72 22.48C75.7467 22.48 75.8267 22.4267 75.96 22.32C76.0933 22.2133 76.1733 22.16 76.2 22.16H76.24C76.24 22.1867 76.2533 22.2 76.28 22.2C76.44 22.2 76.7333 22 77.16 21.6C77.3467 21.4133 77.4267 21.32 77.4 21.32C77.4533 21.32 77.4667 21.3333 77.44 21.36H77.52C77.6533 21.36 77.7733 21.32 77.88 21.24C78.68 20.76 79.0667 20.52 79.04 20.52H79.12C79.12 20.5467 79.1333 20.56 79.16 20.56C79.0533 20.56 79.4133 20.3467 80.24 19.92C80.3467 19.92 80.5333 19.8133 80.8 19.6C80.8267 19.6 80.8667 19.5867 80.92 19.56C80.9733 19.5333 81.12 19.4533 81.36 19.32C81.6267 19.16 81.76 19.0533 81.76 19H81.96C81.9067 19 81.9067 19.0267 81.96 19.08C82.1467 18.9467 82.3733 18.7867 82.64 18.6C82.9333 18.4133 83.2533 18.2133 83.6 18H83.64C83.6667 18 83.7867 17.9467 84 17.84L84.48 17.6C84.56 17.5467 84.6267 17.44 84.68 17.28L84.8 17.4C84.8533 17.3467 84.96 17.28 85.12 17.2C85.28 17.0933 85.5467 16.96 85.92 16.8L86.12 16.6C86.2267 16.5733 86.3333 16.5333 86.44 16.48C86.5733 16.4267 86.7067 16.3733 86.84 16.32L87.56 15.76C87.6933 15.7333 87.8667 15.6667 88.08 15.56C88.32 15.4533 88.6667 15.28 89.12 15.04C89.2267 15.04 89.3733 15 89.56 14.92C90.0133 14.6533 90.2267 14.52 90.2 14.52C90.2267 14.52 90.24 14.5333 90.24 14.56H90.28C90.36 14.56 90.64 14.4667 91.12 14.28C91.6533 14.0667 91.9467 13.92 92 13.84C92.0533 13.8933 92.12 13.92 92.2 13.92C92.2267 13.92 92.2533 13.9067 92.28 13.88C92.3333 13.8267 92.3733 13.8 92.4 13.8C92.4267 13.8 92.4667 13.8267 92.52 13.88C92.5733 13.88 92.6133 13.8267 92.64 13.72C92.6667 13.7467 92.7333 13.76 92.84 13.76C92.8933 13.76 93 13.72 93.16 13.64C93.3467 13.5333 93.4533 13.48 93.48 13.48H93.68C93.7333 13.5067 93.7867 13.52 93.84 13.52C94.2667 13.52 94.5867 13.4133 94.8 13.2C94.8267 13.2267 94.9067 13.24 95.04 13.24C95.0667 13.24 95.1333 13.24 95.24 13.24C95.3733 13.24 95.56 13.2533 95.8 13.28C96.0667 13.3067 96.2533 13.32 96.36 13.32C96.4933 13.32 96.5733 13.32 96.6 13.32C96.52 13.32 96.56 13.2933 96.72 13.24C96.6933 13.2667 96.68 13.3067 96.68 13.36C96.68 13.4667 96.76 13.56 96.92 13.64C97.08 13.4 97.2133 13.28 97.32 13.28C97.48 13.28 97.8933 13.4267 98.56 13.72C98.56 13.72 98.5733 13.76 98.6 13.84C98.6533 13.8933 98.7067 13.92 98.76 13.92H98.8C98.8 13.8933 98.8133 13.88 98.84 13.88C99 13.88 99.1333 14.1333 99.24 14.64C99.3467 14.6933 99.44 14.72 99.52 14.72C99.5467 14.7733 99.5867 14.8533 99.64 14.96C99.72 15.0667 99.8133 15.1867 99.92 15.32C99.92 15.3467 99.92 15.4 99.92 15.48C99.9467 15.5333 99.9733 15.6 100 15.68C100.053 15.8667 100.093 16.0267 100.12 16.16C100.147 16.2933 100.173 16.4267 100.2 16.56V17C100.2 17.0267 100.213 17.08 100.24 17.16C100.293 17.2133 100.32 17.2533 100.32 17.28C100.32 17.3067 100.293 17.36 100.24 17.44C100.213 17.4933 100.2 17.5333 100.2 17.56C100.227 17.64 100.24 17.8133 100.24 18.08L100.12 18.24C100.093 18.4 100.053 18.5867 100 18.8C99.9467 19.0133 99.92 19.2267 99.92 19.44C99.76 19.4933 99.6667 19.5733 99.64 19.68C99.5867 19.9467 99.52 20.0933 99.44 20.12C99.36 20.12 99.3333 20.3067 99.36 20.68C99.2 20.84 99.0533 21.04 98.92 21.28C98.8933 21.52 98.7733 21.84 98.56 22.24L98.6 22.4L98.28 22.64C98.28 22.64 98.3067 22.76 98.36 23C98.36 23.0267 98.4 23.04 98.48 23.04C98.5867 23.04 98.68 22.9333 98.76 22.72C98.6533 22.72 98.8267 22.6533 99.28 22.52C99.4933 22.4667 99.5867 22.4267 99.56 22.4C99.56 22.3467 99.6533 22.28 99.84 22.2C100.027 22.0667 100.2 21.9467 100.36 21.84C100.52 21.7067 100.667 21.6 100.8 21.52C100.88 21.52 100.987 21.48 101.12 21.4C101.253 21.2933 101.44 21.1733 101.68 21.04L101.76 20.96L102.24 20.64C102.32 20.6133 102.413 20.5867 102.52 20.56C102.653 20.5067 102.8 20.44 102.96 20.36C103.227 20.1467 103.427 19.9867 103.56 19.88C103.693 19.7733 103.76 19.72 103.76 19.72C103.787 19.72 103.8 19.7333 103.8 19.76H103.88C103.8 19.76 104.027 19.6133 104.56 19.32C104.907 19.2133 105.427 18.9467 106.12 18.52C106.093 18.6 106.107 18.64 106.16 18.64C106.293 18.64 106.547 18.5333 106.92 18.32C107.133 18.1867 107.293 18.1467 107.4 18.2C107.427 18.2 107.453 18.1867 107.48 18.16C107.507 18.1333 107.573 18.1333 107.68 18.16L108.12 17.8C108.12 17.8533 108.147 17.88 108.2 17.88H108.36C108.493 17.88 108.613 17.84 108.72 17.76C108.853 17.68 108.973 17.6267 109.08 17.6H109.2C109.227 17.6267 109.267 17.64 109.32 17.64H110.56C110.587 17.64 110.613 17.6267 110.64 17.6C110.693 17.5467 110.733 17.52 110.76 17.52C110.787 17.52 110.787 17.5467 110.76 17.6C110.76 17.6267 110.787 17.64 110.84 17.64L111.28 17.52C111.387 17.52 111.747 17.7333 112.36 18.16L112.48 18.08L112.84 18.64C113 18.6933 113.093 18.72 113.12 18.72V19C113.147 19.08 113.16 19.16 113.16 19.24C113.16 19.1867 113.067 19.2933 112.88 19.56V19.84C112.853 19.8667 112.827 19.8933 112.8 19.92C112.773 19.9467 112.747 19.9867 112.72 20.04C112.72 20.1467 112.72 20.2667 112.72 20.4C112.72 20.5333 112.707 20.6933 112.68 20.88L112.24 22L111.2 23.64C111.147 23.6933 111.067 23.7733 110.96 23.88C110.88 23.96 110.867 24.08 110.92 24.24C110.68 24.3467 110.453 24.5733 110.24 24.92L110.28 25.36L110.4 25.24C110.453 25.1867 110.533 25.1333 110.64 25.08C110.773 25 110.907 24.9067 111.04 24.8C111.067 24.7467 111.147 24.6533 111.28 24.52L112.44 23.8C112.893 23.56 113.067 23.44 112.96 23.44H113.04C113.04 23.4667 113.053 23.48 113.08 23.48C113.107 23.48 113.147 23.4533 113.2 23.4C113.28 23.3467 113.333 23.32 113.36 23.32C113.387 23.32 113.4 23.3333 113.4 23.36H113.48C113.507 23.36 113.533 23.3467 113.56 23.32C113.613 23.2933 113.653 23.28 113.68 23.28C113.707 23.28 113.893 23.2133 114.24 23.08C114.587 22.9467 114.773 22.88 114.8 22.88C114.827 22.88 114.88 22.9067 114.96 22.96C115.04 22.9867 115.107 23 115.16 23C115.187 23 115.267 22.9867 115.4 22.96C115.533 22.9333 115.627 22.92 115.68 22.92C115.92 22.92 116.213 23.08 116.56 23.4C116.613 23.48 116.693 23.5867 116.8 23.72C116.933 23.8267 117.067 23.9467 117.2 24.08C117.227 24.1867 117.267 24.28 117.32 24.36C117.373 24.44 117.427 24.52 117.48 24.6L117.84 26.08C117.84 26.1067 117.867 26.2 117.92 26.36C118 26.4933 118.04 26.5733 118.04 26.6C118.04 26.6 117.987 26.6933 117.88 26.88L117.8 26.8L117.72 26.84L117.64 26.76C117.507 26.8133 117.44 26.9067 117.44 27.04C117.44 27.0667 117.453 27.12 117.48 27.2C117.533 27.28 117.56 27.3467 117.56 27.4V28.24C117.613 28.32 117.667 28.4267 117.72 28.56C117.773 28.6667 117.827 28.8133 117.88 29C117.907 29.1067 117.933 29.24 117.96 29.4C117.987 29.5333 118.027 29.6933 118.08 29.88C118.16 29.96 118.253 30.0667 118.36 30.2C118.493 30.3333 118.627 30.5067 118.76 30.72C118.893 30.9333 119.04 31.08 119.2 31.16H119.32C119.373 31.16 119.413 31.1467 119.44 31.12C119.493 31.0933 119.547 31.08 119.6 31.08L119.72 31.16H120.2C120.36 31.16 120.44 31.2533 120.44 31.44C120.44 31.6 120.347 31.7333 120.16 31.84C119.973 31.9467 119.84 32 119.76 32C119.733 32 119.573 31.8933 119.28 31.68C119.013 31.44 118.84 31.32 118.76 31.32C118.68 31.32 118.667 31.3467 118.72 31.4C118.693 31.3733 118.68 31.3067 118.68 31.2C118.6 31.1733 118.347 30.8267 117.92 30.16L117.4 29.6L117.16 28.88L116.84 28.6C116.893 28.5467 116.893 28.4933 116.84 28.44C116.787 28.3867 116.72 28.2267 116.64 27.96L116.52 27.6L116 26.92L115.56 26.04C115.56 26.04 115.52 25.9467 115.44 25.76C115.387 25.5467 115.293 25.3467 115.16 25.16C115.027 24.9733 114.88 24.88 114.72 24.88C114.667 24.88 114.64 24.8933 114.64 24.92H114.6C114.68 24.92 114.547 24.8267 114.2 24.64C114.173 24.5867 114.053 24.5467 113.84 24.52L113.68 24.32L113.56 24.56L113.28 24.44C113.227 24.44 113.173 24.4667 113.12 24.52C113.093 24.5467 113.067 24.56 113.04 24.56C113.013 24.56 113 24.5467 113 24.52H112.96C112.933 24.52 112.893 24.56 112.84 24.64C112.787 24.72 112.733 24.76 112.68 24.76C112.6 24.76 112.56 24.7333 112.56 24.68L112.08 24.96L111.92 24.92L110.88 25.56H110.8C110.8 25.5333 110.787 25.52 110.76 25.52C110.813 25.52 110.533 25.7867 109.92 26.32C109.653 26.4533 109.467 26.5867 109.36 26.72C109.2 26.8533 109 27.0267 108.76 27.24C108.52 27.4267 108.227 27.6533 107.88 27.92C107.613 28.1333 107.427 28.3067 107.32 28.44C107.24 28.5733 107.133 28.7333 107 28.92C106.973 28.92 106.92 28.9867 106.84 29.12C106.76 29.2533 106.68 29.3733 106.6 29.48C106.627 29.4533 106.6 29.44 106.52 29.44C106.6 29.44 106.56 29.4667 106.4 29.52L105.96 30.12C105.907 30.1467 105.827 30.1867 105.72 30.24C105.613 30.2667 105.467 30.3333 105.28 30.44C105.2 30.36 105.08 30.32 104.92 30.32L104.84 30.04C104.84 29.72 104.933 29.56 105.12 29.56C105.147 29.56 105.147 29.5733 105.12 29.6C105.12 29.6267 105.147 29.64 105.2 29.64L105.76 29.12L106.16 28.64C106.213 28.6133 106.267 28.5733 106.32 28.52C106.4 28.4667 106.493 28.4 106.6 28.32C106.653 28.32 106.693 28.3067 106.72 28.28C106.827 28.1733 106.933 28.04 107.04 27.88C107.173 27.72 107.32 27.5333 107.48 27.32C107.48 27.24 107.493 27.1733 107.52 27.12C107.787 26.8 107.947 26.5333 108 26.32L108.4 25.84L108.64 25.2L109.12 24.44L109.44 23.8C109.6 23.4267 109.76 23 109.92 22.52C110.107 22.04 110.293 21.4933 110.48 20.88C110.48 20.8 110.493 20.7467 110.52 20.72C110.52 20.5333 110.507 20.4667 110.48 20.52C110.48 20.4133 110.467 20.3333 110.44 20.28C110.44 20.2 110.427 20.1333 110.4 20.08V19.84C110.373 19.76 110.333 19.6667 110.28 19.56C110.227 19.4533 110.173 19.3333 110.12 19.2C110.12 19.2 110.04 19.1733 109.88 19.12C109.88 19.12 109.853 19.0933 109.8 19.04C109.747 18.96 109.707 18.92 109.68 18.92H109.6C109.6 18.9467 109.587 18.96 109.56 18.96C109.56 18.96 109.467 18.9067 109.28 18.8C109.253 18.8 109.16 18.84 109 18.92C108.84 19 108.747 19.04 108.72 19.04C108.667 19.04 108.653 19.0267 108.68 19H108.6C108.573 19 108.52 19.0267 108.44 19.08C108.36 19.1333 108.293 19.16 108.24 19.16L108.16 19L107.6 19.12C107.413 19.1733 107.28 19.2267 107.2 19.28C107.12 19.3067 107.067 19.32 107.04 19.32C107.013 19.32 107 19.3067 107 19.28H106.96C106.907 19.28 106.84 19.32 106.76 19.4L106.08 19.64C105.867 19.5333 105.707 19.48 105.6 19.48C105.547 19.48 105.467 19.5333 105.36 19.64C105.333 19.72 105.267 19.8 105.16 19.88C105.053 19.9333 104.973 20 104.92 20.08C104.893 20.08 104.853 20.0667 104.8 20.04C104.747 20.0133 104.693 20 104.64 20C104.587 20.0533 104.573 20.12 104.6 20.2H104.52C104.333 20.2 104.12 20.28 103.88 20.44C103.667 20.6 103.293 20.7867 102.76 21C102.573 21.1067 102.307 21.28 101.96 21.52C101.64 21.76 101.467 21.88 101.44 21.88C101.387 21.88 101.36 21.8667 101.36 21.84H101.28C101.253 21.84 101.013 22.0267 100.56 22.4C100.507 22.4267 100.44 22.4533 100.36 22.48C100.28 22.5067 100.173 22.5333 100.04 22.56C99.96 22.8533 99.5333 23.1067 98.76 23.32C98.7067 23.48 98.4933 23.6533 98.12 23.84C98.12 23.8667 98.0933 23.9333 98.04 24.04C97.6933 24.1467 97.4267 24.3333 97.24 24.6C97.24 24.7067 97.1733 24.84 97.04 25C96.7733 25.2667 96.6133 25.5467 96.56 25.84C96.2933 26.2667 96.1733 26.4667 96.2 26.44C96.2267 26.4667 96.2267 26.48 96.2 26.48V26.44C96.1733 26.44 96.1333 26.4267 96.08 26.4L95.88 26.64C95.88 26.6933 95.8667 26.8 95.84 26.96C95.8133 27.0933 95.8 27.1867 95.8 27.24L95.64 27.12C95.6133 27.12 95.5867 27.1067 95.56 27.08L95.32 27.48C95.2933 27.48 95.2533 27.52 95.2 27.6C94.96 27.7067 94.8533 27.8933 94.88 28.16L94.4 28.6C94.3733 28.6267 94.3467 28.6933 94.32 28.8C94.2933 28.88 94.2533 29 94.2 29.16C94.1467 29.1867 94.08 29.2267 94 29.28C93.9467 29.3333 93.8667 29.3867 93.76 29.44L93.6 29.88C93.4933 29.88 93.3467 30.0133 93.16 30.28C93.1067 30.3333 93.04 30.4 92.96 30.48C92.9067 30.56 92.8533 30.68 92.8 30.84C92.24 31.08 91.92 31.48 91.84 32.04C91.6533 32.0667 91.4933 32.1867 91.36 32.4C91.36 32.48 91.32 32.6267 91.24 32.84C91.1333 32.8933 91.0133 32.9733 90.88 33.08C90.7733 33.16 90.64 33.2667 90.48 33.4L90.12 33.88C90.0667 33.9333 90 34 89.92 34.08C89.8667 34.1333 89.8133 34.1733 89.76 34.2C89.68 34.3067 89.6667 34.3867 89.72 34.44C89.6667 34.4667 89.6 34.4933 89.52 34.52C89.44 34.5467 89.3467 34.5867 89.24 34.64L89.12 35.04C89.12 35.12 89.04 35.1867 88.88 35.24C88.72 35.56 88.5867 35.72 88.48 35.72C88.4267 35.72 88.3867 35.7067 88.36 35.68C88.2267 35.9467 88.0267 36.2533 87.76 36.6C87.7333 36.6267 87.72 36.6667 87.72 36.72C87.5867 36.72 87.48 36.76 87.4 36.84C87.32 36.9467 87.2533 37 87.2 37H87.16C87.16 36.9733 87.1467 36.96 87.12 36.96C87.12 36.96 87.0933 37 87.04 37.08C86.9867 37.16 86.9067 37.2933 86.8 37.48L86.6 37.8C86.44 37.8533 86.3467 37.9333 86.32 38.04C86.16 38.0933 86.0267 38.2 85.92 38.36C85.84 38.52 85.7867 38.6 85.76 38.6H85.68C85.6533 38.5733 85.6267 38.56 85.6 38.56C85.4933 38.56 85.4 38.6667 85.32 38.88C85.1333 38.96 85.0133 39.0667 84.96 39.2L84.24 39.8C83.9467 39.9333 83.7467 40.08 83.64 40.24V40.28C83.64 40.36 83.6 40.4667 83.52 40.6C83.4667 40.7333 83.2667 40.9067 82.92 41.12ZM68.6 19.48L68.44 19.32L68.48 19.24L68.64 19.4L68.6 19.48ZM63.76 26.24H63.8C63.8 26.24 63.7867 26.24 63.76 26.24ZM82.12 41.64L82.24 41.24C82.2933 41.2133 82.36 41.2 82.44 41.2C82.5733 41.2 82.64 41.32 82.64 41.56C82.3467 41.6667 82.1733 41.6933 82.12 41.64ZM124.154 35.32C124.18 35.32 124.154 35.28 124.074 35.2C124.02 35.2533 123.9 35.28 123.714 35.28C123.66 35.28 123.58 35.2533 123.474 35.2C123.394 35.1733 123.34 35.16 123.314 35.16C123.287 35.16 123.22 35.1733 123.114 35.2C123.034 35.2267 122.967 35.24 122.914 35.24C122.887 35.24 122.807 35.2133 122.674 35.16C122.54 35.1333 122.447 35.12 122.394 35.12C122.367 34.7733 122.06 34.64 121.474 34.72V34.64C121.474 34.4533 121.434 34.3067 121.354 34.2C121.274 34.0933 121.207 33.92 121.154 33.68C121.127 33.6533 121.074 33.6 120.994 33.52C120.94 33.4133 120.914 33.2133 120.914 32.92C120.914 32.92 120.94 32.8667 120.994 32.76C121.02 32.7333 120.994 32.6667 120.914 32.56C120.94 32.5333 120.994 32.32 121.074 31.92C121.1 31.7867 121.114 31.68 121.114 31.6C121.14 31.52 121.154 31.4533 121.154 31.4C120.994 31.2667 120.914 31.1467 120.914 31.04L121.034 30.76C121.06 30.7867 121.154 30.8 121.314 30.8H121.474C121.527 30.72 121.58 30.64 121.634 30.56C121.714 30.4533 121.807 30.3467 121.914 30.24C122.074 30.24 122.22 30.0933 122.354 29.8L122.314 29.64C122.34 29.5867 122.367 29.5467 122.394 29.52C122.394 29.52 122.407 29.52 122.434 29.52C122.434 29.52 122.42 29.52 122.394 29.52C122.42 29.52 122.46 29.5333 122.514 29.56C122.54 29.5333 122.594 29.48 122.674 29.4C122.754 29.32 122.887 29.2133 123.074 29.08C123.154 28.9733 123.287 28.84 123.474 28.68C123.794 28.4667 123.967 28.36 123.994 28.36C124.047 28.36 124.167 28.28 124.354 28.12C124.407 28.1467 124.447 28.1733 124.474 28.2C124.5 28.2 124.514 28.2 124.514 28.2C124.567 28.2 124.78 28.1067 125.154 27.92C125.127 28.0267 125.154 28.08 125.234 28.08H125.514C125.647 28 125.714 27.96 125.714 27.96C125.98 27.96 126.3 28.1067 126.674 28.4C126.7 28.4267 126.74 28.44 126.794 28.44V29.08C126.74 29.08 126.687 29.0533 126.634 29L126.474 29.36C126.58 29.52 126.634 29.6 126.634 29.6C126.58 29.6267 126.447 29.8533 126.234 30.28V30.6C126.127 30.6 126.034 30.6133 125.954 30.64C125.527 30.9333 125.287 31.08 125.234 31.08H125.154C125.127 31.0533 125.1 31.04 125.074 31.04C124.967 31.04 124.82 31.0933 124.634 31.2C124.607 31.2267 124.567 31.28 124.514 31.36C124.46 31.4133 124.394 31.44 124.314 31.44H124.274C124.274 31.4133 124.26 31.4 124.234 31.4C124.18 31.4 124.034 31.4533 123.794 31.56C123.58 31.64 123.46 31.68 123.434 31.68H123.354C123.327 31.6533 123.3 31.64 123.274 31.64L123.154 31.76H122.914C122.807 31.76 122.727 31.7333 122.674 31.68H122.154C122.154 31.7867 122.114 31.9467 122.034 32.16C121.98 32.3733 121.954 32.4933 121.954 32.52C121.954 32.6 122.047 32.7867 122.234 33.08C122.26 33.1067 122.314 33.1733 122.394 33.28C122.474 33.36 122.594 33.4667 122.754 33.6C122.807 33.7067 122.887 33.8133 122.994 33.92C123.047 33.9467 123.1 33.96 123.154 33.96C123.207 33.96 123.274 33.9733 123.354 34L123.474 34.16C123.554 34.1067 123.674 34.1067 123.834 34.16L124.034 34.28C124.167 34.28 124.234 34.28 124.234 34.28C124.234 34.2533 124.234 34.24 124.234 34.24C124.26 34.2667 124.26 34.28 124.234 34.28C124.26 34.3067 124.287 34.32 124.314 34.32C124.34 34.32 124.367 34.3067 124.394 34.28C124.447 34.2267 124.487 34.2 124.514 34.2H124.594C124.594 34.2267 124.607 34.24 124.634 34.24C124.714 34.24 124.807 34.1867 124.914 34.08C124.994 34.1067 125.074 34.1067 125.154 34.08L125.194 34.12V34.24C125.14 34.2667 125.074 34.3067 124.994 34.36C124.914 34.4133 124.807 34.4667 124.674 34.52V34.68C124.674 34.7067 124.727 34.72 124.834 34.72C125.287 34.72 125.647 34.5867 125.914 34.32C125.967 34.3467 126.007 34.3733 126.034 34.4C126.06 34.4 126.074 34.4 126.074 34.4C126.127 34.4 126.154 34.3733 126.154 34.32H126.354C126.407 34.2933 126.487 34.2267 126.594 34.12C126.7 33.9867 126.807 33.92 126.914 33.92L127.074 33.96L127.194 33.64L127.314 33.72C127.367 33.6667 127.487 33.64 127.674 33.64C127.674 33.64 127.674 33.6267 127.674 33.6C127.674 33.5733 127.687 33.5467 127.714 33.52C127.98 33.4667 128.314 33.24 128.714 32.84H128.874L129.474 32.36C129.474 32.3067 129.514 32.2267 129.594 32.12C129.62 32.12 129.66 32.1467 129.714 32.2L130.074 31.72C130.154 31.72 130.247 31.68 130.354 31.6L130.474 31.72L130.194 32.08C130.034 32.1867 129.834 32.3467 129.594 32.56C129.354 32.7733 129.087 33.0267 128.794 33.32C128.607 33.32 128.5 33.3733 128.474 33.48C128.234 33.5867 128.074 33.7067 127.994 33.84L127.874 33.72C127.847 33.7467 127.767 33.8133 127.634 33.92C127.527 34 127.34 34.1067 127.074 34.24C127.02 34.2933 126.94 34.3733 126.834 34.48C126.727 34.56 126.62 34.6 126.514 34.6C126.46 34.6 126.447 34.5867 126.474 34.56H126.434C126.327 34.56 126.22 34.6 126.114 34.68C126.007 34.76 125.954 34.8267 125.954 34.88C125.927 34.88 125.887 34.8533 125.834 34.8C125.487 34.9867 125.287 35.08 125.234 35.08H125.154L125.114 35.04L124.514 35.2C124.514 35.2 124.514 35.1867 124.514 35.16C124.514 35.1333 124.5 35.1067 124.474 35.08L124.354 35.24C124.327 35.24 124.287 35.2533 124.234 35.28C124.207 35.3067 124.18 35.32 124.154 35.32ZM123.194 31.28C123.167 31.2 123.194 31.16 123.274 31.16C123.3 31.16 123.314 31.1733 123.314 31.2H123.394C123.42 31.2 123.474 31.16 123.554 31.08C123.66 31 123.727 30.96 123.754 30.96C123.78 30.96 123.82 30.9733 123.874 31C123.927 31.0267 123.967 31.04 123.994 31.04C123.94 31.04 124.007 30.9467 124.194 30.76L124.314 30.84C124.927 30.44 125.234 30.0933 125.234 29.8C125.234 29.4533 125.06 29.24 124.714 29.16C124.394 29.08 124.087 29 123.794 28.92C123.74 28.9733 123.687 29 123.634 29C123.5 29.2133 123.354 29.3733 123.194 29.48C123.14 29.48 122.98 29.6133 122.714 29.88C122.714 29.9067 122.634 30.0267 122.474 30.24C122.42 30.4267 122.367 30.5733 122.314 30.68C122.287 30.7867 122.274 30.8667 122.274 30.92C122.38 31.1067 122.487 31.2 122.594 31.2H122.634C122.66 31.1733 122.687 31.16 122.714 31.16C122.847 31.16 123.007 31.2 123.194 31.28ZM130.634 31.52V31.44C130.634 31.28 130.714 31.1867 130.874 31.16C130.847 31.2667 130.767 31.3867 130.634 31.52ZM127.271 36.64C127.191 36.6133 127.111 36.5067 127.031 36.32C127.005 36.2667 127.018 36.1467 127.071 35.96C127.071 35.9333 127.045 35.8933 126.991 35.84C127.045 35.7867 127.098 35.72 127.151 35.64C127.178 35.5867 127.218 35.5067 127.271 35.4C127.298 35.4 127.338 35.4267 127.391 35.48C127.445 35.4267 127.605 35.36 127.871 35.28C127.818 35.2267 127.818 35.2 127.871 35.2C127.898 35.2267 127.965 35.24 128.071 35.24C128.098 35.24 128.165 35.2 128.271 35.12C128.351 35.0667 128.418 35.04 128.471 35.04H128.591C128.698 35.04 128.725 35.0133 128.671 34.96C128.751 34.9067 128.845 34.8533 128.951 34.8C129.058 34.7467 129.165 34.6933 129.271 34.64H129.391L129.471 34.52H129.511C129.645 34.52 129.791 34.48 129.951 34.4C130.138 34.32 130.245 34.28 130.271 34.28C130.298 34.28 130.351 34.32 130.431 34.4L130.511 34.32C130.645 34.2667 130.765 34.1467 130.871 33.96C131.031 34.0133 131.138 34.0267 131.191 34C131.165 34 131.311 33.9333 131.631 33.8C131.685 33.8 131.778 33.76 131.911 33.68C132.045 33.6 132.298 33.4533 132.671 33.24L132.311 32.36C132.311 32.3067 132.298 32.2667 132.271 32.24C132.351 32.16 132.365 32.0667 132.311 31.96C132.285 31.88 132.218 31.8133 132.111 31.76L132.151 31.72C131.991 31.5067 131.925 31.32 131.951 31.16C131.925 31.1067 131.845 31.1067 131.711 31.16L131.591 31C131.591 30.9733 131.645 30.8667 131.751 30.68C131.671 30.6 131.591 30.56 131.511 30.56L131.351 30.24C131.351 30.1867 131.391 30.1067 131.471 30C131.391 29.9733 131.338 29.9067 131.311 29.8L131.391 29.12C131.418 29.0667 131.445 28.9867 131.471 28.88C131.498 28.7467 131.551 28.5733 131.631 28.36L132.311 27.32C132.311 27.32 132.458 27.1733 132.751 26.88C133.285 26.3733 133.618 26.12 133.751 26.12V26.16H133.791C133.818 26.16 133.831 26.1467 133.831 26.12C134.045 26.0667 134.205 25.9867 134.311 25.88C134.445 25.7733 134.605 25.6533 134.791 25.52H134.871C134.978 25.52 135.031 25.48 135.031 25.4L135.151 25.44L135.231 25.36C135.231 25.3867 135.245 25.4133 135.271 25.44C135.298 25.4133 135.311 25.3867 135.311 25.36C135.311 25.3333 135.325 25.3067 135.351 25.28C135.325 25.28 135.325 25.2667 135.351 25.24V25.28C135.351 25.3067 135.365 25.3067 135.391 25.28H135.671C135.671 25.28 135.698 25.2 135.751 25.04C135.751 25.0667 135.765 25.0933 135.791 25.12C135.791 25.12 135.845 25.0933 135.951 25.04C136.085 24.96 136.205 24.92 136.311 24.92C136.418 24.92 136.471 24.9467 136.471 25C136.498 25.0533 136.565 25.08 136.671 25.08H136.711C136.685 25.0533 136.698 25.04 136.751 25.04C136.885 25.04 137.058 25.1333 137.271 25.32C137.511 25.48 137.645 25.5867 137.671 25.64L137.591 25.92L137.191 26.04C137.138 26.0133 137.031 26 136.871 26C136.818 25.8133 136.738 25.72 136.631 25.72C136.605 25.7467 136.565 25.76 136.511 25.76C136.458 25.76 136.405 25.7733 136.351 25.8C136.271 25.8 136.191 25.7467 136.111 25.64C136.085 25.64 136.058 25.6267 136.031 25.6C135.925 25.76 135.778 25.8533 135.591 25.88L135.351 25.76C135.325 25.76 135.218 25.8 135.031 25.88C134.871 25.96 134.778 25.9867 134.751 25.96C134.698 26.1467 134.525 26.3333 134.231 26.52L133.791 27.36C133.418 27.4933 133.231 27.7067 133.231 28C133.231 28.1067 133.271 28.24 133.351 28.4C133.351 28.4 133.325 28.48 133.271 28.64C133.245 28.64 133.191 28.6667 133.111 28.72C133.031 28.7733 132.991 28.8533 132.991 28.96C132.991 29.12 133.045 29.1733 133.151 29.12C133.205 29.1467 133.245 29.3067 133.271 29.6C133.271 29.6533 133.245 29.7067 133.191 29.76C133.218 29.7867 133.258 29.8267 133.311 29.88C133.365 29.9333 133.431 30.0267 133.511 30.16C133.565 30.2133 133.565 30.28 133.511 30.36C133.538 30.36 133.565 30.4267 133.591 30.56H133.751C133.885 30.72 133.965 30.9467 133.991 31.24C134.178 31.4533 134.285 31.64 134.311 31.8V32.16C134.258 32.16 134.218 32.1733 134.191 32.2L134.311 32.4C134.418 32.32 134.525 32.24 134.631 32.16C134.738 32.08 134.858 32.0133 134.991 31.96C135.018 31.96 135.058 31.9867 135.111 32.04C135.138 32.0133 135.165 31.9867 135.191 31.96C135.245 31.9067 135.285 31.84 135.311 31.76C135.498 31.7067 135.831 31.48 136.311 31.08L136.431 31.12C136.645 31.04 136.911 30.76 137.231 30.28C137.338 30.28 137.405 30.2933 137.431 30.32C137.431 30.24 137.498 30.16 137.631 30.08C137.711 30.08 137.778 30.0933 137.831 30.12L137.871 30.44C137.871 30.4667 137.805 30.5067 137.671 30.56C137.565 30.5867 137.351 30.7467 137.031 31.04C136.978 31.0933 136.765 31.2267 136.391 31.44L136.271 31.6C136.191 31.6533 136.085 31.7333 135.951 31.84C135.845 31.92 135.711 32.0133 135.551 32.12C135.445 32.1467 135.311 32.2133 135.151 32.32C135.018 32.4 134.858 32.5067 134.671 32.64C134.698 32.6667 134.711 32.6933 134.711 32.72C134.711 32.7467 134.685 32.7867 134.631 32.84C134.578 32.84 134.551 32.8133 134.551 32.76C134.525 32.7867 134.485 32.8267 134.431 32.88C134.378 32.9333 134.351 33 134.351 33.08C134.351 33.1867 134.351 33.2667 134.351 33.32C134.378 33.3467 134.391 33.36 134.391 33.36L134.271 34.12C134.245 34.3067 134.085 34.52 133.791 34.76C133.498 35 133.325 35.16 133.271 35.24C133.218 35.3733 133.151 35.4533 133.071 35.48H132.991C132.991 35.4533 132.978 35.44 132.951 35.44C132.898 35.4667 132.751 35.5867 132.511 35.8C132.271 36.0133 132.125 36.12 132.071 36.12H132.031C132.031 36.0933 132.018 36.08 131.991 36.08C131.858 36.1067 131.685 36.2267 131.471 36.44L131.351 36.36C131.351 36.4133 131.098 36.4533 130.591 36.48C130.538 36.48 130.431 36.4267 130.271 36.32C130.138 36.24 130.071 36.1867 130.071 36.16V35.88C130.098 35.8 130.258 35.6933 130.551 35.56C130.578 35.56 130.605 35.5733 130.631 35.6C130.658 35.6533 130.698 35.68 130.751 35.68L131.551 35.8H131.671C131.698 35.8 131.711 35.7867 131.711 35.76C131.711 35.7333 131.738 35.7067 131.791 35.68C131.871 35.68 132.191 35.44 132.751 34.96C132.778 34.9067 132.791 34.8267 132.791 34.72C132.791 34.7467 132.805 34.7733 132.831 34.8C132.991 34.7467 133.058 34.64 133.031 34.48C133.031 34.32 133.045 34.2267 133.071 34.2C133.045 34.12 133.018 34.0933 132.991 34.12C132.991 34.0933 133.018 34.0267 133.071 33.92L133.031 33.72C132.951 33.6133 132.885 33.5867 132.831 33.64C132.805 33.64 132.791 33.6533 132.791 33.68C132.791 33.7067 132.765 33.72 132.711 33.72C132.685 33.72 132.658 33.7067 132.631 33.68C132.605 33.6267 132.565 33.6267 132.511 33.68C132.405 33.7333 132.311 33.84 132.231 34C132.151 34.1333 132.005 34.24 131.791 34.32L131.751 34.28H131.671C131.698 34.28 131.685 34.3067 131.631 34.36C131.605 34.36 131.578 34.36 131.551 34.36C131.525 34.3333 131.485 34.3067 131.431 34.28C131.485 34.3067 131.485 34.3867 131.431 34.52L131.351 34.44L131.111 34.64L130.711 34.92C130.711 34.8933 130.671 34.8667 130.591 34.84C130.511 34.92 130.431 34.9733 130.351 35H130.271C130.245 34.9733 130.218 34.96 130.191 34.96L130.031 35.08C129.898 35.08 129.791 35.12 129.711 35.2C129.845 35.2533 129.791 35.2933 129.551 35.32C129.551 35.2933 129.538 35.28 129.511 35.28H129.471C129.231 35.28 129.218 35.36 129.431 35.52L129.311 35.56C129.311 35.5867 129.325 35.6133 129.351 35.64C129.351 35.6667 129.338 35.6933 129.311 35.72L129.431 35.8V35.92C129.271 35.9467 129.125 35.9733 128.991 36C128.831 36.0267 128.711 36.08 128.631 36.16L128.391 36.36L127.271 36.64ZM139.397 36.2C138.571 35.5867 138.104 34.8 137.997 33.84C137.971 33.8133 137.944 33.7867 137.917 33.76C137.917 33.7333 137.891 33.7067 137.837 33.68C137.837 33.5733 137.824 33.4667 137.797 33.36C137.797 33.2533 137.784 33.1467 137.757 33.04C137.651 32.64 137.571 31.96 137.517 31C137.517 30.9733 137.504 30.9067 137.477 30.8C137.451 30.6667 137.437 30.5733 137.437 30.52L137.477 30.48C137.531 30.3467 137.517 30.2533 137.437 30.2L137.597 30C137.597 30 137.571 29.9733 137.517 29.92C137.597 29.7067 137.637 29.5067 137.637 29.32C137.637 29.2667 137.597 29.2133 137.517 29.16C137.464 29.08 137.437 29.04 137.437 29.04C137.384 29.04 137.357 29.0667 137.357 29.12C137.251 29.0133 137.117 28.96 136.957 28.96C136.931 28.96 136.891 28.9733 136.837 29C136.784 29.0267 136.744 29.04 136.717 29.04C136.691 29.04 136.651 29.0267 136.597 29C136.544 28.9733 136.504 28.96 136.477 28.96C136.451 28.96 136.437 28.9733 136.437 29C136.437 29.0267 136.424 29.04 136.397 29.04C136.344 29.04 136.264 28.9467 136.157 28.76C136.024 28.8667 135.904 28.92 135.797 28.92C135.717 28.92 135.531 28.8267 135.237 28.64C135.291 28.56 135.371 28.52 135.477 28.52C135.584 28.52 135.664 28.5467 135.717 28.6L135.837 28.44C135.997 28.6 136.117 28.68 136.197 28.68C136.251 28.68 136.331 28.6267 136.437 28.52H136.557V28.72H137.717L137.917 28.32C137.864 28.2133 137.837 28.1333 137.837 28.08C137.837 27.8933 137.917 27.6533 138.077 27.36C138.237 27.04 138.317 26.8 138.317 26.64C138.477 26.5333 138.544 26.4267 138.517 26.32C138.517 26.32 138.491 26.24 138.437 26.08C138.517 26 138.557 25.92 138.557 25.84L138.637 25.92C138.637 25.92 138.664 25.8267 138.717 25.64L138.917 25.36C138.917 25.2 138.997 25.04 139.157 24.88C139.184 24.7467 139.224 24.6 139.277 24.44C139.331 24.2533 139.424 24.0667 139.557 23.88L140.197 22.96C140.197 22.9333 140.171 22.8933 140.117 22.84C140.251 22.4133 140.411 22.12 140.597 21.96L141.037 21.6V21.48C141.251 21.2667 141.371 21.12 141.397 21.04C141.451 20.9333 141.531 20.8133 141.637 20.68C141.744 20.52 141.957 20.28 142.277 19.96C142.331 19.9333 142.397 19.8933 142.477 19.84C142.584 19.76 142.691 19.6667 142.797 19.56L142.877 19.28C143.011 19.2267 143.131 19.1467 143.237 19.04C143.317 18.9333 143.597 18.64 144.077 18.16C144.077 18.16 144.091 18.16 144.117 18.16C144.144 18.16 144.171 18.1467 144.197 18.12C144.357 17.9067 144.597 17.7467 144.917 17.64C144.917 17.64 144.944 17.6133 144.997 17.56C145.077 17.5067 145.157 17.3867 145.237 17.2C145.477 17.0933 145.597 17.04 145.597 17.04H145.677C145.677 17.0667 145.691 17.08 145.717 17.08C145.691 17.08 145.771 16.96 145.957 16.72C146.224 16.5867 146.424 16.52 146.557 16.52C146.664 16.44 146.797 16.3467 146.957 16.24C147.117 16.1067 147.291 15.9467 147.477 15.76C147.504 15.76 147.544 15.76 147.597 15.76C147.651 15.76 147.704 15.7467 147.757 15.72C147.784 15.6667 147.891 15.5733 148.077 15.44C148.131 15.44 148.211 15.4267 148.317 15.4C148.451 15.3733 148.651 15.2933 148.917 15.16C149.211 15 149.371 14.92 149.397 14.92H149.437C149.411 14.9467 149.424 14.96 149.477 14.96C149.504 14.96 149.517 14.9333 149.517 14.88H149.877L149.997 14.72C150.211 14.6933 150.384 14.68 150.517 14.68C150.651 14.68 150.771 14.6667 150.877 14.64C150.957 14.6133 151.064 14.5733 151.197 14.52C151.331 14.44 151.411 14.4 151.437 14.4C151.464 14.4 151.477 14.4133 151.477 14.44C151.477 14.4667 151.491 14.48 151.517 14.48C151.544 14.48 151.664 14.4533 151.877 14.4C152.091 14.3467 152.224 14.32 152.277 14.32C152.304 14.32 152.331 14.3333 152.357 14.36C152.384 14.3867 152.424 14.4 152.477 14.4C152.504 14.4 152.531 14.3867 152.557 14.36C152.584 14.3333 152.611 14.32 152.637 14.32C152.691 14.32 152.731 14.3333 152.757 14.36C152.811 14.3867 152.851 14.4 152.877 14.4C152.904 14.4 152.931 14.3867 152.957 14.36H153.037C153.091 14.36 153.144 14.3867 153.197 14.44C153.277 14.4667 153.344 14.48 153.397 14.48C153.477 14.48 153.491 14.4533 153.437 14.4C153.624 14.4 153.811 14.44 153.997 14.52C154.211 14.6 154.317 14.64 154.317 14.64C154.291 14.6133 154.331 14.5867 154.437 14.56C154.571 14.6933 154.651 14.76 154.677 14.76C154.704 14.76 154.731 14.7467 154.757 14.72C154.784 14.6933 154.811 14.68 154.837 14.68L154.957 14.8H155.237C155.264 14.9067 155.291 14.96 155.317 14.96H155.637C155.611 15.12 155.651 15.2 155.757 15.2C155.811 15.2 155.824 15.1867 155.797 15.16H155.837C155.891 15.16 155.944 15.2133 155.997 15.32C156.051 15.4 156.091 15.44 156.117 15.44C156.117 15.4133 156.184 15.3867 156.317 15.36L156.477 15.56C156.717 15.5867 156.877 15.7467 156.957 16.04C157.037 16.3067 157.117 16.4533 157.197 16.48C157.197 16.8533 157.291 17.0533 157.477 17.08V17.48C157.424 17.5333 157.397 17.6133 157.397 17.72C157.237 17.72 157.131 17.52 157.077 17.12L156.837 17C156.837 16.8933 156.717 16.5867 156.477 16.08C156.051 16 155.824 15.8667 155.797 15.68C155.744 15.7067 155.691 15.72 155.637 15.72H155.597C155.597 15.72 155.611 15.72 155.637 15.72C155.637 15.6667 155.517 15.6267 155.277 15.6C155.091 15.52 154.864 15.48 154.597 15.48C154.571 15.48 154.504 15.52 154.397 15.6C154.317 15.68 154.264 15.72 154.237 15.72H153.997V15.6C153.944 15.5467 153.904 15.52 153.877 15.52C153.851 15.52 153.837 15.5333 153.837 15.56C153.837 15.5867 153.824 15.6 153.797 15.6C153.744 15.6 153.651 15.5733 153.517 15.52C153.411 15.44 153.344 15.4 153.317 15.4L152.757 15.44L152.397 15.84C152.371 15.84 152.331 15.8267 152.277 15.8C152.224 15.7467 152.184 15.72 152.157 15.72C152.184 15.7467 152.144 15.7733 152.037 15.8L151.797 15.56C151.504 15.8267 151.304 15.96 151.197 15.96H151.157C151.157 15.9333 151.144 15.92 151.117 15.92C151.091 15.92 151.011 16 150.877 16.16C150.744 16.2933 150.557 16.36 150.317 16.36C150.157 16.36 150.011 16.2933 149.877 16.16L148.997 17.16C148.971 17.1867 148.917 17.2 148.837 17.2C148.811 17.2 148.797 17.1867 148.797 17.16H148.757C148.731 17.16 148.691 17.1867 148.637 17.24C148.611 17.2667 148.531 17.28 148.397 17.28C148.371 17.28 148.331 17.32 148.277 17.4C148.224 17.4533 148.184 17.48 148.157 17.48C148.131 17.48 148.117 17.4667 148.117 17.44H148.037C148.011 17.44 147.917 17.4933 147.757 17.6C147.597 17.7067 147.504 17.76 147.477 17.76H147.317C147.317 17.84 147.304 17.9067 147.277 17.96L146.877 18.28V18.52C146.611 18.7067 146.397 18.8 146.237 18.8H146.197C146.197 18.7733 146.184 18.76 146.157 18.76C146.051 18.76 145.811 18.9467 145.437 19.32V19.4C145.437 19.4267 145.384 19.48 145.277 19.56C145.197 19.64 144.931 19.8 144.477 20.04C144.451 20.0933 144.371 20.1467 144.237 20.2C144.131 20.2533 144.011 20.3467 143.877 20.48C143.744 20.48 143.584 20.6133 143.397 20.88C143.371 20.96 143.251 21.0267 143.037 21.08C142.904 21.1867 142.757 21.3333 142.597 21.52C142.437 21.68 142.277 21.8667 142.117 22.08C142.064 22.2933 141.891 22.48 141.597 22.64C141.597 22.6667 141.584 22.68 141.557 22.68C141.531 22.68 141.411 22.7867 141.197 23C141.117 23.1067 141.064 23.2267 141.037 23.36C141.037 23.4667 141.024 23.5467 140.997 23.6C140.997 23.6267 140.971 23.7333 140.917 23.92C140.864 24.1067 140.744 24.2133 140.557 24.24L140.397 24.48C140.131 24.64 139.971 24.84 139.917 25.08C139.837 25.08 139.757 25.1867 139.677 25.4C139.677 25.4267 139.704 25.4667 139.757 25.52C139.731 25.6267 139.637 25.6933 139.477 25.72C139.477 25.72 139.504 25.8 139.557 25.96C139.531 26.0133 139.504 26.0933 139.477 26.2C139.451 26.28 139.411 26.3867 139.357 26.52C139.357 26.52 139.357 26.5467 139.357 26.6C139.357 26.6533 139.344 26.7333 139.317 26.84L139.077 27.04C139.077 27.12 138.957 27.3867 138.717 27.84C138.744 27.9467 138.771 27.9867 138.797 27.96L138.637 28.28V28.52C138.851 28.44 139.011 28.4 139.117 28.4C139.517 28.4 139.704 28.3867 139.677 28.36L139.957 28.44H140.157L140.877 28.12C141.011 28.0133 141.077 27.96 141.077 27.96C141.157 27.96 141.237 27.88 141.317 27.72C141.504 27.3733 141.717 27.0533 141.957 26.76V26.56C142.037 26.48 142.117 26.32 142.197 26.08L142.397 25.92C142.397 25.84 142.437 25.72 142.517 25.56C142.517 25.5333 142.771 25.32 143.277 24.92L143.437 24.6C143.544 24.5733 143.651 24.4667 143.757 24.28C143.757 24.28 143.784 24.3067 143.837 24.36C144.184 24.1467 144.331 24.04 144.277 24.04C144.304 24.04 144.384 24.0667 144.517 24.12C144.651 24.1733 144.731 24.2 144.757 24.2C144.784 24.2 144.811 24.1867 144.837 24.16C144.891 24.1333 144.944 24.12 144.997 24.12C145.317 24.12 145.571 24.44 145.757 25.08L145.917 25.96C145.944 26.04 145.957 26.2 145.957 26.44C146.064 26.5467 146.197 26.6 146.357 26.6H146.477C146.557 26.4933 146.704 26.4133 146.917 26.36C146.944 26.36 146.984 26.3333 147.037 26.28C147.117 26.2 147.171 26.16 147.197 26.16C147.224 26.16 147.237 26.1733 147.237 26.2H147.317C147.344 26.2 147.357 26.1867 147.357 26.16C147.357 26.1333 147.411 26.1067 147.517 26.08C147.597 26.08 147.677 26.0667 147.757 26.04C147.997 25.9333 148.117 25.88 148.117 25.88H148.157C148.184 25.9067 148.211 25.92 148.237 25.92C148.264 25.92 148.371 25.8533 148.557 25.72C148.771 25.56 148.891 25.48 148.917 25.48H148.957C148.957 25.5067 148.971 25.52 148.997 25.52L149.837 24.92C150.344 24.6533 150.664 24.52 150.797 24.52C150.797 24.52 150.824 24.5467 150.877 24.6C150.931 24.6267 150.971 24.64 150.997 24.64C151.024 24.64 151.117 24.5867 151.277 24.48C151.437 24.3467 151.544 24.2667 151.597 24.24C151.971 24.08 152.131 23.9733 152.077 23.92C152.264 23.9467 152.651 23.7067 153.237 23.2C153.851 22.6667 154.171 22.4 154.197 22.4C154.224 22.4 154.237 22.4133 154.237 22.44C154.264 22.4667 154.291 22.48 154.317 22.48C154.371 22.48 154.584 22.2533 154.957 21.8C155.064 21.7733 155.184 21.72 155.317 21.64C155.451 21.5333 155.624 21.32 155.837 21L156.117 20.76C156.117 20.68 156.131 20.6 156.157 20.52C156.184 20.52 156.224 20.4933 156.277 20.44V20.24C156.331 20.24 156.384 20.2133 156.437 20.16C156.651 19.92 156.811 19.5867 156.917 19.16C156.944 19.1333 156.971 19.1067 156.997 19.08C157.051 19.0533 157.091 19.0133 157.117 18.96C157.117 18.8267 157.104 18.72 157.077 18.64C157.184 18.5867 157.237 18.4533 157.237 18.24C157.237 18.0267 157.291 17.8933 157.397 17.84H157.557L157.637 18.2C157.637 18.2267 157.624 18.2533 157.597 18.28V18.32L157.357 18.92C157.277 19 157.224 19.08 157.197 19.16C157.197 19.2133 157.237 19.24 157.317 19.24C157.291 19.3733 157.264 19.44 157.237 19.44C157.211 19.44 157.157 19.4933 157.077 19.6C157.024 19.7067 156.891 20 156.677 20.48C156.651 20.5867 156.597 20.68 156.517 20.76C156.464 20.84 156.411 20.9333 156.357 21.04C156.331 21.0667 156.251 21.1333 156.117 21.24C155.984 21.3467 155.931 21.44 155.957 21.52C155.877 21.5733 155.784 21.6667 155.677 21.8C155.571 21.9067 155.451 22.0267 155.317 22.16C155.291 22.16 155.251 22.1333 155.197 22.08C155.011 22.1067 154.917 22.24 154.917 22.48C154.891 22.48 154.864 22.4667 154.837 22.44C154.811 22.4933 154.704 22.6267 154.517 22.84C154.331 23.0533 154.184 23.16 154.077 23.16C154.024 23.1333 153.984 23.12 153.957 23.12C153.931 23.2 153.811 23.3467 153.597 23.56L152.997 23.84C152.971 23.84 152.957 23.8667 152.957 23.92C152.797 23.9467 152.544 24.0267 152.197 24.16C152.171 24.2667 151.891 24.4133 151.357 24.6C151.304 24.68 151.211 24.7867 151.077 24.92C150.971 25.0267 150.811 25.08 150.597 25.08C150.571 25.08 150.544 25.0667 150.517 25.04H150.397C150.211 25.12 150.077 25.24 149.997 25.4C149.944 25.5333 149.691 25.64 149.237 25.72C148.997 25.96 148.837 26.08 148.757 26.08C148.731 26.08 148.717 26.0667 148.717 26.04H148.677C148.704 26.04 148.571 26.12 148.277 26.28C148.197 26.28 148.117 26.2933 148.037 26.32C147.584 26.5067 147.371 26.6 147.397 26.6C147.371 26.6 147.357 26.5867 147.357 26.56C147.384 26.5333 147.371 26.52 147.317 26.52C147.291 26.52 147.197 26.5733 147.037 26.68C146.904 26.76 146.824 26.8 146.797 26.8H146.757C146.757 26.7733 146.744 26.76 146.717 26.76C146.611 26.76 146.491 26.84 146.357 27C146.224 27.1333 146.157 27.2133 146.157 27.24C146.024 27.24 145.944 27.1867 145.917 27.08C145.704 27.2133 145.584 27.3467 145.557 27.48C145.531 27.5867 145.504 27.7067 145.477 27.84C145.397 28.0267 145.304 28.2267 145.197 28.44C145.091 28.6267 144.931 28.8267 144.717 29.04L143.957 29.8C143.717 29.88 143.557 30.0267 143.477 30.24L142.957 30.64C142.957 30.64 142.931 30.6133 142.877 30.56C142.531 30.8 142.357 30.92 142.357 30.92C142.331 30.8933 142.304 30.88 142.277 30.88L141.957 31.24C141.957 31.3733 143.184 31.7867 145.637 32.48C145.717 32.5067 145.851 32.5467 146.037 32.6C146.251 32.6533 146.584 32.68 147.037 32.68C147.197 32.7333 147.237 32.76 147.157 32.76C147.211 32.76 147.237 32.7467 147.237 32.72C147.397 32.72 147.571 32.68 147.757 32.6C147.811 32.6 147.837 32.6133 147.837 32.64C147.837 32.6667 147.851 32.68 147.877 32.68H147.957L148.197 32.6V32.64C148.704 32.5333 148.997 32.3733 149.077 32.16C149.104 32.0533 149.157 32.0133 149.237 32.04C149.291 32.1467 149.304 32.24 149.277 32.32C149.144 32.72 148.851 32.9333 148.397 32.96L148.197 33.08C147.957 33.16 147.837 33.2133 147.837 33.24C147.864 33.24 147.877 33.24 147.877 33.24C147.877 33.24 147.864 33.24 147.837 33.24C147.811 33.2133 147.771 33.2 147.717 33.2C147.664 33.1733 147.611 33.16 147.557 33.16C147.531 33.16 147.477 33.2 147.397 33.28C147.317 33.3333 147.224 33.36 147.117 33.36H146.917C146.864 33.3867 146.811 33.4 146.757 33.4L146.477 33.32C146.451 33.32 146.397 33.3333 146.317 33.36C146.264 33.3867 146.211 33.4 146.157 33.4C146.131 33.4 146.091 33.3867 146.037 33.36C145.984 33.3333 145.944 33.32 145.917 33.32C145.891 33.32 145.851 33.3333 145.797 33.36C145.771 33.3867 145.744 33.4 145.717 33.4C145.611 33.4 145.504 33.3467 145.397 33.24C145.291 33.3467 145.197 33.4 145.117 33.4C145.091 33.4 145.024 33.3733 144.917 33.32C144.837 33.2667 144.771 33.24 144.717 33.24C144.691 33.24 144.651 33.2533 144.597 33.28C144.571 33.3067 144.544 33.32 144.517 33.32C144.411 33.32 144.277 33.24 144.117 33.08C144.091 33.08 144.037 33.0667 143.957 33.04C143.877 33.0133 143.811 33 143.757 33C143.731 33 143.691 33.0133 143.637 33.04C143.611 33.0667 143.584 33.08 143.557 33.08C143.531 33.08 143.464 33.04 143.357 32.96C143.251 32.8533 143.184 32.8 143.157 32.8C143.131 32.8 143.104 32.8133 143.077 32.84H142.997C142.944 32.84 142.851 32.8533 142.717 32.88C142.584 32.9067 142.504 32.9467 142.477 33C142.451 32.84 142.384 32.76 142.277 32.76H141.717C141.664 32.76 141.611 32.7467 141.557 32.72C141.531 32.6933 141.411 32.6533 141.197 32.6C141.144 32.52 141.077 32.4533 140.997 32.4C140.944 32.1067 140.891 31.96 140.837 31.96C140.811 31.96 140.757 31.9733 140.677 32C140.624 32 140.531 32.0133 140.397 32.04C140.344 32.1467 140.264 32.2933 140.157 32.48C140.077 32.64 139.984 32.8267 139.877 33.04C139.851 33.0667 139.864 33.1733 139.917 33.36L139.797 33.52V33.6C139.797 33.76 139.717 33.88 139.557 33.96C139.557 33.96 139.571 34 139.597 34.08C139.624 34.16 139.664 34.28 139.717 34.44C139.771 34.5733 139.771 34.68 139.717 34.76C139.664 34.92 139.637 35 139.637 35C139.637 35.0533 139.664 35.08 139.717 35.08C139.771 35.1067 139.797 35.1867 139.797 35.32C139.797 35.3733 139.771 35.4533 139.717 35.56C139.691 35.6667 139.651 35.88 139.597 36.2H139.397ZM143.637 27.32H143.797C143.824 27.32 143.864 27.3067 143.917 27.28C143.997 27.2267 144.051 27.2 144.077 27.2C144.104 27.2 144.117 27.2133 144.117 27.24H144.197C144.197 27.24 144.304 27.1867 144.517 27.08L144.837 26.68C144.917 26.5467 144.957 26.44 144.957 26.36C144.957 26.2533 144.904 26.16 144.797 26.08C144.691 26.16 144.584 26.2267 144.477 26.28C144.371 26.3333 144.264 26.3867 144.157 26.44C144.051 26.4933 143.917 26.6 143.757 26.76C143.624 26.92 143.557 27.04 143.557 27.12C143.557 27.2 143.584 27.2667 143.637 27.32ZM140.837 31.04H141.037L141.437 30.84L141.677 30.48C141.731 30.48 141.917 30.4 142.237 30.24C142.584 30.08 142.757 29.9867 142.757 29.96C142.757 29.88 142.797 29.8267 142.877 29.8C142.957 29.7467 143.037 29.6933 143.117 29.64C143.197 29.56 143.264 29.4533 143.317 29.32C143.424 29.32 143.504 29.2533 143.557 29.12C143.611 28.96 143.704 28.7733 143.837 28.56L144.277 28.08C144.277 27.8133 144.264 27.6933 144.237 27.72C144.104 27.8533 144.011 27.92 143.957 27.92C143.744 27.92 143.637 27.92 143.637 27.92C143.611 27.9733 143.571 28 143.517 28C143.491 28 143.424 27.9867 143.317 27.96C143.237 27.9067 143.184 27.88 143.157 27.88C143.157 27.88 143.091 27.9867 142.957 28.2C142.771 28.2 142.651 28.2533 142.597 28.36C142.571 28.44 142.517 28.5067 142.437 28.56C142.411 28.72 142.331 28.8 142.197 28.8C142.171 28.8 142.144 28.7867 142.117 28.76C142.091 28.7067 142.064 28.68 142.037 28.68C141.957 28.68 141.904 28.6933 141.877 28.72C141.877 28.7467 141.877 28.7733 141.877 28.8C141.904 28.8267 141.904 28.96 141.877 29.2C141.877 29.2 141.877 29.2133 141.877 29.24C141.904 29.24 141.917 29.2533 141.917 29.28C141.917 29.36 141.851 29.4533 141.717 29.56C141.611 29.6667 141.557 29.7467 141.557 29.8C141.424 30.1467 141.304 30.3067 141.197 30.28L141.037 30.24C141.117 30.48 141.171 30.6 141.197 30.6C141.197 30.6 141.197 30.5867 141.197 30.56C141.197 30.5867 141.197 30.6 141.197 30.6C141.171 30.6533 141.144 30.6933 141.117 30.72C140.984 30.72 140.891 30.7467 140.837 30.8V31.04ZM139.237 35.32C139.237 35.24 139.251 35.12 139.277 34.96C139.304 34.7733 139.317 34.64 139.317 34.56L139.277 34.24C139.304 34.24 139.331 34.2267 139.357 34.2C139.464 34.0667 139.491 33.9333 139.437 33.8C139.437 33.7733 139.451 33.76 139.477 33.76C139.531 33.5467 139.504 33.4 139.397 33.32C139.477 33.1867 139.504 33.0933 139.477 33.04C139.451 33.0133 139.437 32.9867 139.437 32.96L139.597 32.68V32.44C139.597 32.44 139.624 32.4133 139.677 32.36C139.651 32.3867 139.637 32.32 139.637 32.16C139.717 32.1067 139.797 32.0267 139.877 31.92C139.851 31.8667 139.837 31.7867 139.837 31.68C139.837 31.5733 139.824 31.4667 139.797 31.36C139.877 31.2533 139.957 31.04 140.037 30.72C140.011 30.64 140.011 30.52 140.037 30.36C140.117 30.2267 140.224 30.16 140.357 30.16C140.357 29.9467 140.344 29.8 140.317 29.72L140.437 29.32C140.704 28.8933 140.837 28.7333 140.837 28.84C140.837 28.76 140.784 28.7067 140.677 28.68H140.557C140.531 28.68 140.464 28.7067 140.357 28.76C140.277 28.8133 140.224 28.84 140.197 28.84H139.757C139.491 28.84 139.331 28.8533 139.277 28.88C139.251 28.88 139.224 28.8933 139.197 28.92H139.117C139.091 28.92 139.077 28.92 139.077 28.92C139.104 28.8933 139.091 28.8667 139.037 28.84C138.797 28.92 138.651 28.96 138.597 28.96H138.517C138.491 29.0933 138.437 29.2667 138.357 29.48C138.277 29.6933 138.211 29.8933 138.157 30.08C138.211 30.1333 138.211 30.2267 138.157 30.36C138.237 30.44 138.237 30.5333 138.157 30.64V30.68C138.264 30.8933 138.317 31.0667 138.317 31.2C138.317 31.36 138.264 31.5333 138.157 31.72C138.131 31.7467 138.077 31.76 137.997 31.76V32L138.077 32.28V32.84C138.211 32.84 138.291 32.8533 138.317 32.88C138.291 32.9867 138.264 33.1067 138.237 33.24C138.237 33.3467 138.237 33.44 138.237 33.52C138.237 33.8667 138.344 34.1067 138.557 34.24C138.584 34.32 138.611 34.4133 138.637 34.52C138.691 34.6 138.784 34.6667 138.917 34.72C138.917 34.8 138.931 34.9067 138.957 35.04C138.984 35.1733 139.077 35.2667 139.237 35.32ZM151.738 35.16C151.658 35.16 151.591 35.0933 151.538 34.96C151.511 34.9867 151.498 35.0133 151.498 35.04H151.258L151.138 34.8C151.111 34.8267 151.098 34.8533 151.098 34.88C151.071 34.88 151.031 34.8533 150.978 34.8L150.858 34.88C150.725 34.7467 150.578 34.5733 150.418 34.36C150.285 34.12 150.205 33.88 150.178 33.64C150.151 33.6133 150.098 33.6 150.018 33.6V33.28C150.125 33.2533 150.191 33.04 150.218 32.64L150.338 32.48V32.28L150.258 32.2L150.418 32.08L150.858 30.84L151.258 30.4V30.28C151.578 30.0667 151.778 29.84 151.858 29.6C151.965 29.6 152.018 29.5467 152.018 29.44C152.365 29.3333 152.498 29.16 152.418 28.92C152.471 28.8933 152.498 28.88 152.498 28.88C152.525 28.88 152.538 28.88 152.538 28.88C152.565 28.88 152.618 28.9067 152.698 28.96C152.778 28.9867 152.831 29 152.858 29C152.911 29 152.951 28.9867 152.978 28.96C153.031 28.9333 153.071 28.92 153.098 28.92C153.205 29.0267 153.271 29.08 153.298 29.08C153.431 29.08 153.565 29.0267 153.698 28.92C153.698 28.9467 153.711 28.9867 153.738 29.04C153.765 29.0933 153.778 29.1333 153.778 29.16C153.778 29.2933 153.725 29.4133 153.618 29.52L153.738 29.68C153.738 29.8667 153.578 30.16 153.258 30.56C152.938 30.9067 152.711 31.1067 152.578 31.16C152.551 31.1867 152.525 31.24 152.498 31.32C152.471 31.3733 152.431 31.4267 152.378 31.48H152.298L152.218 31.4L151.818 31.92C151.818 32.0267 151.711 32.2267 151.498 32.52C151.418 32.5467 151.351 32.56 151.298 32.56C151.271 32.5333 151.258 32.5333 151.258 32.56V32.84C151.391 33.08 151.445 33.24 151.418 33.32C151.338 33.48 151.298 33.5733 151.298 33.6C151.298 33.5733 151.378 33.68 151.538 33.92C151.511 33.9467 151.498 34.04 151.498 34.2C151.711 34.2267 151.991 34.3467 152.338 34.56H152.498C152.605 34.56 152.671 34.5467 152.698 34.52C152.751 34.4667 152.778 34.44 152.778 34.44C152.805 34.44 152.818 34.4533 152.818 34.48H152.858C152.885 34.48 152.951 34.4267 153.058 34.32C153.165 34.2133 153.231 34.16 153.258 34.16C153.285 34.16 153.298 34.1733 153.298 34.2C153.298 34.2267 153.311 34.24 153.338 34.24C153.365 34.24 153.418 34.2267 153.498 34.2C153.578 34.1733 153.645 34.16 153.698 34.16V34.04C153.671 34.0133 153.671 34 153.698 34V34.04C153.725 34.0667 153.818 34.1067 153.978 34.16L153.938 34C154.018 33.9733 154.085 33.8933 154.138 33.76C154.271 33.76 154.391 33.7467 154.498 33.72C154.631 33.6667 154.698 33.6 154.698 33.52H155.018C155.018 33.5733 155.045 33.6 155.098 33.6C155.365 33.6 155.511 33.4267 155.538 33.08L155.778 32.84C155.778 32.84 155.805 32.8667 155.858 32.92C155.965 32.8133 156.058 32.76 156.138 32.76C156.165 32.76 156.178 32.7733 156.178 32.8C156.205 32.8267 156.245 32.84 156.298 32.84C156.378 32.84 156.458 32.8 156.538 32.72C156.618 32.64 156.658 32.5867 156.658 32.56C156.711 32.5067 156.778 32.4533 156.858 32.4C156.938 32.3467 157.005 32.2667 157.058 32.16L157.298 32.28C157.271 32.2533 157.551 32.0133 158.138 31.56C158.405 31.4533 158.538 31.3733 158.538 31.32C158.645 31.32 158.751 31.28 158.858 31.2V31.08L159.418 30.8V31.04H159.218C159.191 31.0667 159.178 31.1467 159.178 31.28L158.258 32C158.205 32 158.191 31.9867 158.218 31.96H158.178C158.205 31.96 158.085 32.0933 157.818 32.36C157.765 32.4133 157.658 32.44 157.498 32.44C157.151 32.76 157.018 32.9067 157.098 32.88C157.071 32.8533 157.045 32.84 157.018 32.84C156.991 32.8667 156.978 32.92 156.978 33H156.938C156.831 33 156.671 33.1067 156.458 33.32C156.431 33.32 156.391 33.32 156.338 33.32C156.285 33.32 156.231 33.3333 156.178 33.36C156.071 33.44 155.938 33.5467 155.778 33.68C155.645 33.7867 155.485 33.92 155.298 34.08H155.058C154.871 34.24 154.738 34.32 154.658 34.32H154.538C154.511 34.2933 154.485 34.28 154.458 34.28C154.431 34.28 154.325 34.3333 154.138 34.44C153.978 34.5467 153.871 34.6 153.818 34.6H153.778C153.778 34.5733 153.765 34.56 153.738 34.56C153.711 34.56 153.605 34.6133 153.418 34.72C153.258 34.8 153.165 34.84 153.138 34.84H153.098C153.098 34.8133 153.071 34.8 153.018 34.8C152.991 34.8 152.951 34.8133 152.898 34.84C152.871 34.8667 152.805 34.8933 152.698 34.92C152.431 35.0533 152.351 35.12 152.458 35.12C152.431 35.12 152.351 35.1067 152.218 35.08C152.085 35.0533 151.991 35.04 151.938 35.04L151.738 35.16ZM159.738 30.72C159.711 30.72 159.685 30.7067 159.658 30.68C159.658 30.6267 159.645 30.6 159.618 30.6L160.178 30C160.285 30 160.338 30.0267 160.338 30.08C160.338 30.1867 160.245 30.32 160.058 30.48C159.898 30.6133 159.791 30.6933 159.738 30.72ZM154.498 27.52C154.285 27.52 153.991 27.3733 153.618 27.08C153.298 26.76 153.138 26.5067 153.138 26.32C153.458 26.1867 153.805 26.04 154.178 25.88C154.578 25.6933 154.991 25.4933 155.418 25.28H155.458C155.351 25.5733 155.205 25.8133 155.018 26L155.098 26.28V26.52L154.898 26.76C154.898 27.2667 154.765 27.52 154.498 27.52ZM161.693 35.32C161.719 35.32 161.693 35.28 161.613 35.2C161.559 35.2533 161.439 35.28 161.253 35.28C161.199 35.28 161.119 35.2533 161.013 35.2C160.933 35.1733 160.879 35.16 160.853 35.16C160.826 35.16 160.759 35.1733 160.653 35.2C160.573 35.2267 160.506 35.24 160.453 35.24C160.426 35.24 160.346 35.2133 160.213 35.16C160.079 35.1333 159.986 35.12 159.933 35.12C159.906 34.7733 159.599 34.64 159.013 34.72V34.64C159.013 34.4533 158.973 34.3067 158.893 34.2C158.813 34.0933 158.746 33.92 158.693 33.68C158.666 33.6533 158.613 33.6 158.533 33.52C158.479 33.4133 158.453 33.2133 158.453 32.92C158.453 32.92 158.479 32.8667 158.533 32.76C158.559 32.7333 158.533 32.6667 158.453 32.56C158.479 32.5333 158.533 32.32 158.613 31.92C158.639 31.7867 158.653 31.68 158.653 31.6C158.679 31.52 158.693 31.4533 158.693 31.4C158.533 31.2667 158.453 31.1467 158.453 31.04L158.573 30.76C158.599 30.7867 158.693 30.8 158.853 30.8H159.013C159.066 30.72 159.119 30.64 159.173 30.56C159.253 30.4533 159.346 30.3467 159.453 30.24C159.613 30.24 159.759 30.0933 159.893 29.8L159.853 29.64C159.879 29.5867 159.906 29.5467 159.933 29.52C159.933 29.52 159.946 29.52 159.973 29.52C159.973 29.52 159.959 29.52 159.933 29.52C159.959 29.52 159.999 29.5333 160.053 29.56C160.079 29.5333 160.133 29.48 160.213 29.4C160.293 29.32 160.426 29.2133 160.613 29.08C160.693 28.9733 160.826 28.84 161.013 28.68C161.333 28.4667 161.506 28.36 161.533 28.36C161.586 28.36 161.706 28.28 161.893 28.12C161.946 28.1467 161.986 28.1733 162.013 28.2C162.039 28.2 162.053 28.2 162.053 28.2C162.106 28.2 162.319 28.1067 162.693 27.92C162.666 28.0267 162.693 28.08 162.773 28.08H163.053C163.186 28 163.253 27.96 163.253 27.96C163.519 27.96 163.839 28.1067 164.213 28.4C164.239 28.4267 164.279 28.44 164.333 28.44V29.08C164.279 29.08 164.226 29.0533 164.173 29L164.013 29.36C164.119 29.52 164.173 29.6 164.173 29.6C164.119 29.6267 163.986 29.8533 163.773 30.28V30.6C163.666 30.6 163.573 30.6133 163.493 30.64C163.066 30.9333 162.826 31.08 162.773 31.08H162.693C162.666 31.0533 162.639 31.04 162.613 31.04C162.506 31.04 162.359 31.0933 162.173 31.2C162.146 31.2267 162.106 31.28 162.053 31.36C161.999 31.4133 161.933 31.44 161.853 31.44H161.813C161.813 31.4133 161.799 31.4 161.773 31.4C161.719 31.4 161.573 31.4533 161.333 31.56C161.119 31.64 160.999 31.68 160.973 31.68H160.893C160.866 31.6533 160.839 31.64 160.813 31.64L160.693 31.76H160.453C160.346 31.76 160.266 31.7333 160.213 31.68H159.693C159.693 31.7867 159.653 31.9467 159.573 32.16C159.519 32.3733 159.493 32.4933 159.493 32.52C159.493 32.6 159.586 32.7867 159.773 33.08C159.799 33.1067 159.853 33.1733 159.933 33.28C160.013 33.36 160.133 33.4667 160.293 33.6C160.346 33.7067 160.426 33.8133 160.533 33.92C160.586 33.9467 160.639 33.96 160.693 33.96C160.746 33.96 160.813 33.9733 160.893 34L161.013 34.16C161.093 34.1067 161.213 34.1067 161.373 34.16L161.573 34.28C161.706 34.28 161.773 34.28 161.773 34.28C161.773 34.2533 161.773 34.24 161.773 34.24C161.799 34.2667 161.799 34.28 161.773 34.28C161.799 34.3067 161.826 34.32 161.853 34.32C161.879 34.32 161.906 34.3067 161.933 34.28C161.986 34.2267 162.026 34.2 162.053 34.2H162.133C162.133 34.2267 162.146 34.24 162.173 34.24C162.253 34.24 162.346 34.1867 162.453 34.08C162.533 34.1067 162.613 34.1067 162.693 34.08L162.733 34.12V34.24C162.679 34.2667 162.613 34.3067 162.533 34.36C162.453 34.4133 162.346 34.4667 162.213 34.52V34.68C162.213 34.7067 162.266 34.72 162.373 34.72C162.826 34.72 163.186 34.5867 163.453 34.32C163.506 34.3467 163.546 34.3733 163.573 34.4C163.599 34.4 163.613 34.4 163.613 34.4C163.666 34.4 163.693 34.3733 163.693 34.32H163.893C163.946 34.2933 164.026 34.2267 164.133 34.12C164.239 33.9867 164.346 33.92 164.453 33.92L164.613 33.96L164.733 33.64L164.853 33.72C164.906 33.6667 165.026 33.64 165.213 33.64C165.213 33.64 165.213 33.6267 165.213 33.6C165.213 33.5733 165.226 33.5467 165.253 33.52C165.519 33.4667 165.853 33.24 166.253 32.84H166.413L167.013 32.36C167.013 32.3067 167.053 32.2267 167.133 32.12C167.159 32.12 167.199 32.1467 167.253 32.2L167.613 31.72C167.693 31.72 167.786 31.68 167.893 31.6L168.013 31.72L167.733 32.08C167.573 32.1867 167.373 32.3467 167.133 32.56C166.893 32.7733 166.626 33.0267 166.333 33.32C166.146 33.32 166.039 33.3733 166.013 33.48C165.773 33.5867 165.613 33.7067 165.533 33.84L165.413 33.72C165.386 33.7467 165.306 33.8133 165.173 33.92C165.066 34 164.879 34.1067 164.613 34.24C164.559 34.2933 164.479 34.3733 164.373 34.48C164.266 34.56 164.159 34.6 164.053 34.6C163.999 34.6 163.986 34.5867 164.013 34.56H163.973C163.866 34.56 163.759 34.6 163.653 34.68C163.546 34.76 163.493 34.8267 163.493 34.88C163.466 34.88 163.426 34.8533 163.373 34.8C163.026 34.9867 162.826 35.08 162.773 35.08H162.693L162.653 35.04L162.053 35.2C162.053 35.2 162.053 35.1867 162.053 35.16C162.053 35.1333 162.039 35.1067 162.013 35.08L161.893 35.24C161.866 35.24 161.826 35.2533 161.773 35.28C161.746 35.3067 161.719 35.32 161.693 35.32ZM160.733 31.28C160.706 31.2 160.733 31.16 160.813 31.16C160.839 31.16 160.853 31.1733 160.853 31.2H160.933C160.959 31.2 161.013 31.16 161.093 31.08C161.199 31 161.266 30.96 161.293 30.96C161.319 30.96 161.359 30.9733 161.413 31C161.466 31.0267 161.506 31.04 161.533 31.04C161.479 31.04 161.546 30.9467 161.733 30.76L161.853 30.84C162.466 30.44 162.773 30.0933 162.773 29.8C162.773 29.4533 162.599 29.24 162.253 29.16C161.933 29.08 161.626 29 161.333 28.92C161.279 28.9733 161.226 29 161.173 29C161.039 29.2133 160.893 29.3733 160.733 29.48C160.679 29.48 160.519 29.6133 160.253 29.88C160.253 29.9067 160.173 30.0267 160.013 30.24C159.959 30.4267 159.906 30.5733 159.853 30.68C159.826 30.7867 159.813 30.8667 159.813 30.92C159.919 31.1067 160.026 31.2 160.133 31.2H160.173C160.199 31.1733 160.226 31.16 160.253 31.16C160.386 31.16 160.546 31.2 160.733 31.28ZM168.173 31.52V31.44C168.173 31.28 168.253 31.1867 168.413 31.16C168.386 31.2667 168.306 31.3867 168.173 31.52ZM170.014 21.48C169.827 21.5067 169.734 21.4533 169.734 21.32C169.734 21.24 169.747 21.1733 169.774 21.12C169.801 21.04 170.121 20.6533 170.734 19.96L170.974 19.8C170.974 19.6933 170.987 19.6133 171.014 19.56C171.387 19 171.587 18.52 171.614 18.12C171.374 18.2267 171.121 18.28 170.854 18.28C170.641 18.28 170.467 18.1733 170.334 17.96L170.094 17.68C169.961 17.5467 169.961 17.3733 170.094 17.16C170.227 16.9733 170.387 16.64 170.574 16.16C170.707 16.0267 170.934 15.9067 171.254 15.8C171.334 15.8 171.401 15.7733 171.454 15.72C171.534 15.64 171.667 15.6267 171.854 15.68C172.041 15.7867 172.187 15.84 172.294 15.84C172.427 15.7867 172.641 15.7867 172.934 15.84L173.094 16.08C173.094 16.16 173.147 16.2667 173.254 16.4C173.361 16.5333 173.401 16.64 173.374 16.72C173.427 16.8533 173.427 16.96 173.374 17.04C173.374 17.1467 173.321 17.1867 173.214 17.16C173.027 17.2667 173.014 17.4 173.174 17.56C173.174 17.6133 173.134 17.7067 173.054 17.84C173.001 17.8667 172.974 17.9467 172.974 18.08C172.974 18.2133 172.961 18.3067 172.934 18.36C172.827 18.5467 172.694 18.7333 172.534 18.92C172.401 19.1067 172.241 19.3067 172.054 19.52C171.921 19.6533 171.854 19.8 171.854 19.96C171.614 20.1733 171.387 20.4 171.174 20.64C170.721 21.0933 170.467 21.2933 170.414 21.24C170.361 21.3467 170.294 21.3867 170.214 21.36C170.134 21.3333 170.067 21.3733 170.014 21.48ZM172.974 36.64C172.894 36.6133 172.814 36.5067 172.734 36.32C172.708 36.2667 172.721 36.1467 172.774 35.96C172.774 35.9333 172.748 35.8933 172.694 35.84C172.748 35.7867 172.801 35.72 172.854 35.64C172.881 35.5867 172.921 35.5067 172.974 35.4C173.001 35.4 173.041 35.4267 173.094 35.48C173.148 35.4267 173.308 35.36 173.574 35.28C173.521 35.2267 173.521 35.2 173.574 35.2C173.601 35.2267 173.668 35.24 173.774 35.24C173.801 35.24 173.868 35.2 173.974 35.12C174.054 35.0667 174.121 35.04 174.174 35.04H174.294C174.401 35.04 174.428 35.0133 174.374 34.96C174.454 34.9067 174.548 34.8533 174.654 34.8C174.761 34.7467 174.868 34.6933 174.974 34.64H175.094L175.174 34.52H175.214C175.348 34.52 175.494 34.48 175.654 34.4C175.841 34.32 175.948 34.28 175.974 34.28C176.001 34.28 176.054 34.32 176.134 34.4L176.214 34.32C176.348 34.2667 176.468 34.1467 176.574 33.96C176.734 34.0133 176.841 34.0267 176.894 34C176.868 34 177.014 33.9333 177.334 33.8C177.388 33.8 177.481 33.76 177.614 33.68C177.748 33.6 178.001 33.4533 178.374 33.24L178.014 32.36C178.014 32.3067 178.001 32.2667 177.974 32.24C178.054 32.16 178.068 32.0667 178.014 31.96C177.988 31.88 177.921 31.8133 177.814 31.76L177.854 31.72C177.694 31.5067 177.628 31.32 177.654 31.16C177.628 31.1067 177.548 31.1067 177.414 31.16L177.294 31C177.294 30.9733 177.348 30.8667 177.454 30.68C177.374 30.6 177.294 30.56 177.214 30.56L177.054 30.24C177.054 30.1867 177.094 30.1067 177.174 30C177.094 29.9733 177.041 29.9067 177.014 29.8L177.094 29.12C177.121 29.0667 177.148 28.9867 177.174 28.88C177.201 28.7467 177.254 28.5733 177.334 28.36L178.014 27.32C178.014 27.32 178.161 27.1733 178.454 26.88C178.988 26.3733 179.321 26.12 179.454 26.12V26.16H179.494C179.521 26.16 179.534 26.1467 179.534 26.12C179.748 26.0667 179.908 25.9867 180.014 25.88C180.148 25.7733 180.308 25.6533 180.494 25.52H180.574C180.681 25.52 180.734 25.48 180.734 25.4L180.854 25.44L180.934 25.36C180.934 25.3867 180.948 25.4133 180.974 25.44C181.001 25.4133 181.014 25.3867 181.014 25.36C181.014 25.3333 181.028 25.3067 181.054 25.28C181.028 25.28 181.028 25.2667 181.054 25.24V25.28C181.054 25.3067 181.068 25.3067 181.094 25.28H181.374C181.374 25.28 181.401 25.2 181.454 25.04C181.454 25.0667 181.468 25.0933 181.494 25.12C181.494 25.12 181.548 25.0933 181.654 25.04C181.788 24.96 181.908 24.92 182.014 24.92C182.121 24.92 182.174 24.9467 182.174 25C182.201 25.0533 182.268 25.08 182.374 25.08H182.414C182.388 25.0533 182.401 25.04 182.454 25.04C182.588 25.04 182.761 25.1333 182.974 25.32C183.214 25.48 183.348 25.5867 183.374 25.64L183.294 25.92L182.894 26.04C182.841 26.0133 182.734 26 182.574 26C182.521 25.8133 182.441 25.72 182.334 25.72C182.308 25.7467 182.268 25.76 182.214 25.76C182.161 25.76 182.108 25.7733 182.054 25.8C181.974 25.8 181.894 25.7467 181.814 25.64C181.788 25.64 181.761 25.6267 181.734 25.6C181.628 25.76 181.481 25.8533 181.294 25.88L181.054 25.76C181.028 25.76 180.921 25.8 180.734 25.88C180.574 25.96 180.481 25.9867 180.454 25.96C180.401 26.1467 180.228 26.3333 179.934 26.52L179.494 27.36C179.121 27.4933 178.934 27.7067 178.934 28C178.934 28.1067 178.974 28.24 179.054 28.4C179.054 28.4 179.028 28.48 178.974 28.64C178.948 28.64 178.894 28.6667 178.814 28.72C178.734 28.7733 178.694 28.8533 178.694 28.96C178.694 29.12 178.748 29.1733 178.854 29.12C178.908 29.1467 178.948 29.3067 178.974 29.6C178.974 29.6533 178.948 29.7067 178.894 29.76C178.921 29.7867 178.961 29.8267 179.014 29.88C179.068 29.9333 179.134 30.0267 179.214 30.16C179.268 30.2133 179.268 30.28 179.214 30.36C179.241 30.36 179.268 30.4267 179.294 30.56H179.454C179.588 30.72 179.668 30.9467 179.694 31.24C179.881 31.4533 179.988 31.64 180.014 31.8V32.16C179.961 32.16 179.921 32.1733 179.894 32.2L180.014 32.4C180.121 32.32 180.228 32.24 180.334 32.16C180.441 32.08 180.561 32.0133 180.694 31.96C180.721 31.96 180.761 31.9867 180.814 32.04C180.841 32.0133 180.868 31.9867 180.894 31.96C180.948 31.9067 180.988 31.84 181.014 31.76C181.201 31.7067 181.534 31.48 182.014 31.08L182.134 31.12C182.348 31.04 182.614 30.76 182.934 30.28C183.041 30.28 183.108 30.2933 183.134 30.32C183.134 30.24 183.201 30.16 183.334 30.08C183.414 30.08 183.481 30.0933 183.534 30.12L183.574 30.44C183.574 30.4667 183.508 30.5067 183.374 30.56C183.268 30.5867 183.054 30.7467 182.734 31.04C182.681 31.0933 182.468 31.2267 182.094 31.44L181.974 31.6C181.894 31.6533 181.788 31.7333 181.654 31.84C181.548 31.92 181.414 32.0133 181.254 32.12C181.148 32.1467 181.014 32.2133 180.854 32.32C180.721 32.4 180.561 32.5067 180.374 32.64C180.401 32.6667 180.414 32.6933 180.414 32.72C180.414 32.7467 180.388 32.7867 180.334 32.84C180.281 32.84 180.254 32.8133 180.254 32.76C180.228 32.7867 180.188 32.8267 180.134 32.88C180.081 32.9333 180.054 33 180.054 33.08C180.054 33.1867 180.054 33.2667 180.054 33.32C180.081 33.3467 180.094 33.36 180.094 33.36L179.974 34.12C179.948 34.3067 179.788 34.52 179.494 34.76C179.201 35 179.028 35.16 178.974 35.24C178.921 35.3733 178.854 35.4533 178.774 35.48H178.694C178.694 35.4533 178.681 35.44 178.654 35.44C178.601 35.4667 178.454 35.5867 178.214 35.8C177.974 36.0133 177.828 36.12 177.774 36.12H177.734C177.734 36.0933 177.721 36.08 177.694 36.08C177.561 36.1067 177.388 36.2267 177.174 36.44L177.054 36.36C177.054 36.4133 176.801 36.4533 176.294 36.48C176.241 36.48 176.134 36.4267 175.974 36.32C175.841 36.24 175.774 36.1867 175.774 36.16V35.88C175.801 35.8 175.961 35.6933 176.254 35.56C176.281 35.56 176.308 35.5733 176.334 35.6C176.361 35.6533 176.401 35.68 176.454 35.68L177.254 35.8H177.374C177.401 35.8 177.414 35.7867 177.414 35.76C177.414 35.7333 177.441 35.7067 177.494 35.68C177.574 35.68 177.894 35.44 178.454 34.96C178.481 34.9067 178.494 34.8267 178.494 34.72C178.494 34.7467 178.508 34.7733 178.534 34.8C178.694 34.7467 178.761 34.64 178.734 34.48C178.734 34.32 178.748 34.2267 178.774 34.2C178.748 34.12 178.721 34.0933 178.694 34.12C178.694 34.0933 178.721 34.0267 178.774 33.92L178.734 33.72C178.654 33.6133 178.588 33.5867 178.534 33.64C178.508 33.64 178.494 33.6533 178.494 33.68C178.494 33.7067 178.468 33.72 178.414 33.72C178.388 33.72 178.361 33.7067 178.334 33.68C178.308 33.6267 178.268 33.6267 178.214 33.68C178.108 33.7333 178.014 33.84 177.934 34C177.854 34.1333 177.708 34.24 177.494 34.32L177.454 34.28H177.374C177.401 34.28 177.388 34.3067 177.334 34.36C177.308 34.36 177.281 34.36 177.254 34.36C177.228 34.3333 177.188 34.3067 177.134 34.28C177.188 34.3067 177.188 34.3867 177.134 34.52L177.054 34.44L176.814 34.64L176.414 34.92C176.414 34.8933 176.374 34.8667 176.294 34.84C176.214 34.92 176.134 34.9733 176.054 35H175.974C175.948 34.9733 175.921 34.96 175.894 34.96L175.734 35.08C175.601 35.08 175.494 35.12 175.414 35.2C175.548 35.2533 175.494 35.2933 175.254 35.32C175.254 35.2933 175.241 35.28 175.214 35.28H175.174C174.934 35.28 174.921 35.36 175.134 35.52L175.014 35.56C175.014 35.5867 175.028 35.6133 175.054 35.64C175.054 35.6667 175.041 35.6933 175.014 35.72L175.134 35.8V35.92C174.974 35.9467 174.828 35.9733 174.694 36C174.534 36.0267 174.414 36.08 174.334 36.16L174.094 36.36L172.974 36.64Z" fill="black"/>
<path d="M47.5633 73.6C47.5633 75.5 47.6799 77.6333 47.9133 80C45.6466 79.9 41.8299 79.85 36.4633 79.85C30.0633 79.85 25.2299 79.9 21.9633 80V79C23.1633 78.9333 24.0299 78.8 24.5633 78.6C25.1299 78.4 25.5133 78.0167 25.7133 77.45C25.9133 76.8833 26.0133 75.9667 26.0133 74.7V49.9C26.0133 48.6333 25.9133 47.7167 25.7133 47.15C25.5133 46.5833 25.1299 46.2 24.5633 46C24.0299 45.8 23.1633 45.6667 21.9633 45.6V44.6C25.2299 44.7 30.0633 44.75 36.4633 44.75C41.3633 44.75 44.8466 44.7 46.9133 44.6C46.6799 46.8 46.5633 48.7667 46.5633 50.5C46.5633 51.8 46.6133 52.8333 46.7133 53.6H45.5633C45.3299 51.4333 45.0299 49.8333 44.6633 48.8C44.2966 47.7333 43.6799 46.9667 42.8133 46.5C41.9466 46 40.6299 45.75 38.8633 45.75H34.7133C33.5133 45.75 32.6299 45.85 32.0633 46.05C31.5299 46.2167 31.1633 46.5833 30.9633 47.15C30.7633 47.7167 30.6633 48.6333 30.6633 49.9V61.7H33.9633C35.1299 61.7 36.0299 61.4333 36.6633 60.9C37.2966 60.3333 37.7133 59.6833 37.9133 58.95C38.1466 58.1833 38.3299 57.2333 38.4633 56.1L38.6133 55.1H39.7633C39.6633 56.5 39.6133 58.0667 39.6133 59.8V62.2C39.6133 63.9 39.7133 66.2667 39.9133 69.3H38.7633C38.7299 69.0667 38.6299 68.2667 38.4633 66.9C38.2966 65.5 37.8299 64.45 37.0633 63.75C36.3299 63.05 35.2966 62.7 33.9633 62.7H30.6633V74.7C30.6633 75.9667 30.7633 76.8833 30.9633 77.45C31.1633 78.0167 31.5299 78.4 32.0633 78.6C32.6299 78.7667 33.5133 78.85 34.7133 78.85H38.3633C40.4299 78.85 41.9966 78.5833 43.0633 78.05C44.1633 77.4833 44.9633 76.6 45.4633 75.4C45.9633 74.1667 46.3299 72.3667 46.5633 70H47.7133C47.6133 70.9 47.5633 72.1 47.5633 73.6ZM79.932 44.6C79.6987 46.9667 79.582 49.1 79.582 51C79.582 52.6667 79.632 54.0333 79.732 55.1H78.582C78.3154 52.5333 77.982 50.6333 77.582 49.4C77.182 48.1333 76.482 47.2167 75.482 46.65C74.482 46.05 72.9487 45.75 70.882 45.75H68.182V74.2C68.182 75.6 68.3154 76.6167 68.582 77.25C68.8487 77.8833 69.3154 78.3167 69.982 78.55C70.6487 78.7833 71.732 78.9333 73.232 79V80C71.4987 79.9 69.0487 79.85 65.882 79.85C62.5487 79.85 60.082 79.9 58.482 80V79C59.982 78.9333 61.0654 78.7833 61.732 78.55C62.3987 78.3167 62.8654 77.8833 63.132 77.25C63.3987 76.6167 63.532 75.6 63.532 74.2V45.75H60.832C58.7654 45.75 57.232 46.05 56.232 46.65C55.232 47.2167 54.532 48.1333 54.132 49.4C53.732 50.6333 53.3987 52.5333 53.132 55.1H51.982C52.082 54.0333 52.132 52.6667 52.132 51C52.132 49.1 52.0154 46.9667 51.782 44.6C54.5487 44.7 59.2487 44.75 65.882 44.75C72.482 44.75 77.1654 44.7 79.932 44.6ZM117.137 45.6C115.937 45.6667 115.053 45.8 114.487 46C113.953 46.2 113.587 46.5833 113.387 47.15C113.187 47.7167 113.087 48.6333 113.087 49.9V74.7C113.087 75.9667 113.187 76.8833 113.387 77.45C113.587 78.0167 113.953 78.4 114.487 78.6C115.053 78.8 115.937 78.9333 117.137 79V80C115.737 79.9 113.603 79.85 110.737 79.85C108.037 79.85 105.92 79.9 104.387 80V79C105.587 78.9333 106.453 78.8 106.987 78.6C107.553 78.4 107.937 78.0167 108.137 77.45C108.337 76.8833 108.437 75.9667 108.437 74.7V62.7H92.1867V74.7C92.1867 75.9667 92.2867 76.8833 92.4867 77.45C92.6867 78.0167 93.0534 78.4 93.5867 78.6C94.1534 78.8 95.0367 78.9333 96.2367 79V80C94.7034 79.9 92.5867 79.85 89.8867 79.85C87.0201 79.85 84.8867 79.9 83.4867 80V79C84.6867 78.9333 85.5534 78.8 86.0867 78.6C86.6534 78.4 87.0367 78.0167 87.2367 77.45C87.4367 76.8833 87.5367 75.9667 87.5367 74.7V49.9C87.5367 48.6333 87.4367 47.7167 87.2367 47.15C87.0367 46.5833 86.6534 46.2 86.0867 46C85.5534 45.8 84.6867 45.6667 83.4867 45.6V44.6C84.8867 44.7 87.0201 44.75 89.8867 44.75C92.5534 44.75 94.6701 44.7 96.2367 44.6V45.6C95.0367 45.6667 94.1534 45.8 93.5867 46C93.0534 46.2 92.6867 46.5833 92.4867 47.15C92.2867 47.7167 92.1867 48.6333 92.1867 49.9V61.7H108.437V49.9C108.437 48.6333 108.337 47.7167 108.137 47.15C107.937 46.5833 107.553 46.2 106.987 46C106.453 45.8 105.587 45.6667 104.387 45.6V44.6C105.92 44.7 108.037 44.75 110.737 44.75C113.603 44.75 115.737 44.7 117.137 44.6V45.6ZM134.079 45.6C132.879 45.6667 131.995 45.8 131.429 46C130.895 46.2 130.529 46.5833 130.329 47.15C130.129 47.7167 130.029 48.6333 130.029 49.9V74.7C130.029 75.9667 130.129 76.8833 130.329 77.45C130.529 78.0167 130.895 78.4 131.429 78.6C131.995 78.8 132.879 78.9333 134.079 79V80C132.545 79.9 130.429 79.85 127.729 79.85C124.862 79.85 122.729 79.9 121.329 80V79C122.529 78.9333 123.395 78.8 123.929 78.6C124.495 78.4 124.879 78.0167 125.079 77.45C125.279 76.8833 125.379 75.9667 125.379 74.7V49.9C125.379 48.6333 125.279 47.7167 125.079 47.15C124.879 46.5833 124.495 46.2 123.929 46C123.395 45.8 122.529 45.6667 121.329 45.6V44.6C122.729 44.7 124.862 44.75 127.729 44.75C130.395 44.75 132.512 44.7 134.079 44.6V45.6ZM154.331 43.9C157.498 43.9 160.265 44.6167 162.631 46.05C165.031 47.4833 166.881 49.5667 168.181 52.3C169.515 55 170.181 58.2333 170.181 62C170.181 65.6667 169.498 68.9167 168.131 71.75C166.798 74.5833 164.915 76.7833 162.481 78.35C160.081 79.9167 157.348 80.7 154.281 80.7C151.115 80.7 148.331 79.9833 145.931 78.55C143.565 77.1167 141.715 75.05 140.381 72.35C139.081 69.6167 138.431 66.3667 138.431 62.6C138.431 58.9333 139.098 55.6833 140.431 52.85C141.798 50.0167 143.681 47.8167 146.081 46.25C148.515 44.6833 151.265 43.9 154.331 43.9ZM154.131 44.8C151.998 44.8 150.115 45.55 148.481 47.05C146.881 48.5167 145.631 50.5833 144.731 53.25C143.865 55.9167 143.431 58.9667 143.431 62.4C143.431 65.8667 143.915 68.9167 144.881 71.55C145.881 74.1833 147.215 76.2167 148.881 77.65C150.548 79.0833 152.415 79.8 154.481 79.8C156.615 79.8 158.481 79.0667 160.081 77.6C161.715 76.1 162.965 74.0167 163.831 71.35C164.731 68.6833 165.181 65.6333 165.181 62.2C165.181 58.7333 164.681 55.6833 163.681 53.05C162.715 50.4167 161.398 48.3833 159.731 46.95C158.065 45.5167 156.198 44.8 154.131 44.8ZM183.251 65.7V74.7C183.251 75.9667 183.385 76.8833 183.651 77.45C183.918 78.0167 184.385 78.4 185.051 78.6C185.718 78.8 186.801 78.9333 188.301 79V80C186.568 79.9 184.118 79.85 180.951 79.85C178.085 79.85 175.951 79.9 174.551 80V79C175.751 78.9333 176.618 78.8 177.151 78.6C177.718 78.4 178.101 78.0167 178.301 77.45C178.501 76.8833 178.601 75.9667 178.601 74.7V49.9C178.601 48.6333 178.501 47.7167 178.301 47.15C178.101 46.5833 177.718 46.2 177.151 46C176.618 45.8 175.751 45.6667 174.551 45.6V44.6C175.951 44.7 177.985 44.75 180.651 44.75L186.051 44.7C186.685 44.6667 187.401 44.65 188.201 44.65C192.101 44.65 195.085 45.55 197.151 47.35C199.218 49.1167 200.251 51.5 200.251 54.5C200.251 56.3333 199.835 58.1 199.001 59.8C198.201 61.4667 196.818 62.8667 194.851 64C192.918 65.1333 190.335 65.7 187.101 65.7H183.251ZM186.951 45.6C185.918 45.6 185.135 45.7167 184.601 45.95C184.101 46.1833 183.751 46.6 183.551 47.2C183.351 47.8 183.251 48.7 183.251 49.9V64.7H186.601C189.868 64.7 192.118 63.8333 193.351 62.1C194.618 60.3333 195.251 57.9833 195.251 55.05C195.251 51.8167 194.601 49.4333 193.301 47.9C192.035 46.3667 189.918 45.6 186.951 45.6ZM216.549 45.6C215.349 45.6667 214.466 45.8 213.899 46C213.366 46.2 212.999 46.5833 212.799 47.15C212.599 47.7167 212.499 48.6333 212.499 49.9V74.7C212.499 75.9667 212.599 76.8833 212.799 77.45C212.999 78.0167 213.366 78.4 213.899 78.6C214.466 78.8 215.349 78.9333 216.549 79V80C215.016 79.9 212.899 79.85 210.199 79.85C207.333 79.85 205.199 79.9 203.799 80V79C204.999 78.9333 205.866 78.8 206.399 78.6C206.966 78.4 207.349 78.0167 207.549 77.45C207.749 76.8833 207.849 75.9667 207.849 74.7V49.9C207.849 48.6333 207.749 47.7167 207.549 47.15C207.349 46.5833 206.966 46.2 206.399 46C205.866 45.8 204.999 45.6667 203.799 45.6V44.6C205.199 44.7 207.333 44.75 210.199 44.75C212.866 44.75 214.983 44.7 216.549 44.6V45.6ZM246.993 75.8C247.793 77.8667 248.943 78.9333 250.443 79V80C249.109 79.9 247.326 79.85 245.093 79.85C242.226 79.85 240.093 79.9 238.693 80V79C239.959 78.9333 240.859 78.7833 241.393 78.55C241.959 78.2833 242.243 77.8167 242.243 77.15C242.243 76.5833 242.043 75.8 241.643 74.8L238.593 66.6H226.493L224.443 71.9C223.776 73.7 223.443 75.0667 223.443 76C223.443 77.0333 223.793 77.7833 224.493 78.25C225.226 78.7167 226.326 78.9667 227.793 79V80C225.893 79.9 223.976 79.85 222.043 79.85C220.543 79.85 219.293 79.9 218.293 80V79C219.959 78.6 221.276 77.15 222.243 74.65L233.993 44.35H234.793L246.993 75.8ZM238.193 65.6L232.593 50.65L226.893 65.6H238.193Z" fill="black"/>
<path d="M51.1451 96.3C50.9304 96.6173 50.7157 96.846 50.5011 96.986C50.2864 97.126 50.0017 97.196 49.6471 97.196C49.2644 97.196 48.9471 97.084 48.6951 96.86C48.4524 96.636 48.2704 96.244 48.1491 95.684L47.8411 94.284C47.7291 93.7987 47.6217 93.4253 47.5191 93.164C47.4257 92.9027 47.2811 92.6927 47.0851 92.534C46.8891 92.3753 46.6137 92.296 46.2591 92.296H44.9291V95.516C44.9291 95.8707 44.9571 96.1273 45.0131 96.286C45.0691 96.4447 45.1717 96.552 45.3211 96.608C45.4797 96.664 45.7271 96.7013 46.0631 96.72V97C45.6337 96.972 45.0411 96.958 44.2851 96.958C43.4824 96.958 42.8851 96.972 42.4931 97V96.72C42.8291 96.7013 43.0717 96.664 43.2211 96.608C43.3797 96.552 43.4871 96.4447 43.5431 96.286C43.5991 96.1273 43.6271 95.8707 43.6271 95.516V88.572C43.6271 88.2173 43.5991 87.9607 43.5431 87.802C43.4871 87.6433 43.3797 87.536 43.2211 87.48C43.0717 87.424 42.8291 87.3867 42.4931 87.368V87.088C42.8851 87.116 43.4544 87.13 44.2011 87.13L45.7131 87.116C45.8904 87.1067 46.0911 87.102 46.3151 87.102C47.3977 87.102 48.2284 87.3307 48.8071 87.788C49.3951 88.236 49.6891 88.8193 49.6891 89.538C49.6891 89.902 49.6004 90.2707 49.4231 90.644C49.2551 91.008 48.9657 91.3393 48.5551 91.638C48.1537 91.9273 47.6264 92.1233 46.9731 92.226L47.1411 92.254C47.7571 92.3567 48.2051 92.5433 48.4851 92.814C48.7651 93.0847 48.9704 93.514 49.1011 94.102L49.4511 95.53C49.5444 95.9593 49.6424 96.258 49.7451 96.426C49.8477 96.594 49.9877 96.678 50.1651 96.678C50.3237 96.678 50.4544 96.636 50.5571 96.552C50.6691 96.468 50.7951 96.3327 50.9351 96.146L51.1451 96.3ZM45.9651 87.368C45.6757 87.368 45.4564 87.4007 45.3071 87.466C45.1671 87.5313 45.0691 87.648 45.0131 87.816C44.9571 87.984 44.9291 88.236 44.9291 88.572V92.016H45.8671C46.7911 92.016 47.4257 91.8107 47.7711 91.4C48.1164 90.9893 48.2891 90.42 48.2891 89.692C48.2891 88.9267 48.1071 88.348 47.7431 87.956C47.3791 87.564 46.7864 87.368 45.9651 87.368ZM67.6992 95.208C67.6992 95.74 67.7319 96.3373 67.7972 97C67.1625 96.972 66.0939 96.958 64.5912 96.958C62.7992 96.958 61.4459 96.972 60.5312 97V96.72C60.8672 96.7013 61.1099 96.664 61.2592 96.608C61.4179 96.552 61.5252 96.4447 61.5812 96.286C61.6372 96.1273 61.6652 95.8707 61.6652 95.516V88.572C61.6652 88.2173 61.6372 87.9607 61.5812 87.802C61.5252 87.6433 61.4179 87.536 61.2592 87.48C61.1099 87.424 60.8672 87.3867 60.5312 87.368V87.088C61.4459 87.116 62.7992 87.13 64.5912 87.13C65.9632 87.13 66.9385 87.116 67.5172 87.088C67.4519 87.704 67.4192 88.2547 67.4192 88.74C67.4192 89.104 67.4332 89.3933 67.4612 89.608H67.1392C67.0739 89.0013 66.9899 88.5533 66.8872 88.264C66.7845 87.9653 66.6119 87.7507 66.3692 87.62C66.1265 87.48 65.7579 87.41 65.2632 87.41H64.1012C63.7652 87.41 63.5179 87.438 63.3592 87.494C63.2099 87.5407 63.1072 87.6433 63.0512 87.802C62.9952 87.9607 62.9672 88.2173 62.9672 88.572V91.876H63.8912C64.2179 91.876 64.4699 91.8013 64.6472 91.652C64.8245 91.4933 64.9412 91.3113 64.9972 91.106C65.0625 90.8913 65.1139 90.6253 65.1512 90.308L65.1932 90.028H65.5152C65.4872 90.42 65.4732 90.8587 65.4732 91.344V92.016C65.4732 92.492 65.5012 93.1547 65.5572 94.004H65.2352C65.2259 93.9387 65.1979 93.7147 65.1512 93.332C65.1045 92.94 64.9739 92.646 64.7592 92.45C64.5539 92.254 64.2645 92.156 63.8912 92.156H62.9672V95.516C62.9672 95.8707 62.9952 96.1273 63.0512 96.286C63.1072 96.4447 63.2099 96.552 63.3592 96.608C63.5179 96.6547 63.7652 96.678 64.1012 96.678H65.1232C65.7019 96.678 66.1405 96.6033 66.4392 96.454C66.7472 96.2953 66.9712 96.048 67.1112 95.712C67.2512 95.3667 67.3539 94.8627 67.4192 94.2H67.7412C67.7132 94.452 67.6992 94.788 67.6992 95.208ZM81.0184 86.934C81.4291 86.934 81.7511 86.9807 81.9844 87.074C82.2271 87.158 82.4744 87.284 82.7264 87.452C82.9318 87.5827 83.0904 87.648 83.2024 87.648C83.2864 87.648 83.3518 87.6013 83.3984 87.508C83.4451 87.4053 83.4824 87.2467 83.5104 87.032H83.8324C83.7858 87.5733 83.7624 88.5253 83.7624 89.888H83.4404C83.3844 89.132 83.1651 88.4973 82.7824 87.984C82.4091 87.4613 81.8631 87.2 81.1444 87.2C80.6404 87.2 80.2298 87.354 79.9124 87.662C79.5951 87.9607 79.4364 88.348 79.4364 88.824C79.4364 89.1787 79.5158 89.4867 79.6744 89.748C79.8424 90.0093 80.0524 90.2333 80.3044 90.42C80.5564 90.6067 80.9158 90.8447 81.3824 91.134L81.7884 91.386C82.3764 91.75 82.8384 92.072 83.1744 92.352C83.5198 92.6227 83.7951 92.9353 84.0004 93.29C84.2058 93.6447 84.3084 94.06 84.3084 94.536C84.3084 95.3853 84.0284 96.0433 83.4684 96.51C82.9084 96.9673 82.1991 97.196 81.3404 97.196C80.8924 97.196 80.5238 97.1493 80.2344 97.056C79.9544 96.9627 79.6838 96.8367 79.4224 96.678C79.2171 96.5473 79.0584 96.482 78.9464 96.482C78.8624 96.482 78.7971 96.5333 78.7504 96.636C78.7038 96.7293 78.6664 96.8833 78.6384 97.098H78.3164C78.3538 96.5847 78.3724 95.4647 78.3724 93.738H78.6944C78.7598 94.6807 78.9931 95.446 79.3944 96.034C79.7958 96.622 80.4118 96.916 81.2424 96.916C81.7464 96.916 82.1758 96.762 82.5304 96.454C82.8851 96.1367 83.0624 95.67 83.0624 95.054C83.0624 94.5313 82.8851 94.088 82.5304 93.724C82.1851 93.36 81.6344 92.9493 80.8784 92.492C80.3278 92.156 79.8798 91.8573 79.5344 91.596C79.1984 91.3347 78.9231 91.022 78.7084 90.658C78.4938 90.2847 78.3864 89.8507 78.3864 89.356C78.3864 88.572 78.6384 87.9747 79.1424 87.564C79.6464 87.144 80.2718 86.934 81.0184 86.934ZM102.243 87.088C102.178 87.7507 102.145 88.348 102.145 88.88C102.145 89.3467 102.159 89.7293 102.187 90.028H101.865C101.79 89.3093 101.697 88.7773 101.585 88.432C101.473 88.0773 101.277 87.8207 100.997 87.662C100.717 87.494 100.288 87.41 99.709 87.41H98.953V95.376C98.953 95.768 98.9903 96.0527 99.065 96.23C99.1397 96.4073 99.2703 96.5287 99.457 96.594C99.6437 96.6593 99.947 96.7013 100.367 96.72V97C99.8817 96.972 99.1957 96.958 98.309 96.958C97.3757 96.958 96.685 96.972 96.237 97V96.72C96.657 96.7013 96.9603 96.6593 97.147 96.594C97.3337 96.5287 97.4643 96.4073 97.539 96.23C97.6137 96.0527 97.651 95.768 97.651 95.376V87.41H96.895C96.3163 87.41 95.887 87.494 95.607 87.662C95.327 87.8207 95.131 88.0773 95.019 88.432C94.907 88.7773 94.8137 89.3093 94.739 90.028H94.417C94.445 89.7293 94.459 89.3467 94.459 88.88C94.459 88.348 94.4263 87.7507 94.361 87.088C95.1357 87.116 96.4517 87.13 98.309 87.13C100.157 87.13 101.468 87.116 102.243 87.088ZM118.892 95.824C119.116 96.4027 119.438 96.7013 119.858 96.72V97C119.485 96.972 118.985 96.958 118.36 96.958C117.557 96.958 116.96 96.972 116.568 97V96.72C116.923 96.7013 117.175 96.6593 117.324 96.594C117.483 96.5193 117.562 96.3887 117.562 96.202C117.562 96.0433 117.506 95.824 117.394 95.544L116.54 93.248H113.152L112.578 94.732C112.391 95.236 112.298 95.6187 112.298 95.88C112.298 96.1693 112.396 96.3793 112.592 96.51C112.797 96.6407 113.105 96.7107 113.516 96.72V97C112.984 96.972 112.447 96.958 111.906 96.958C111.486 96.958 111.136 96.972 110.856 97V96.72C111.323 96.608 111.691 96.202 111.962 95.502L115.252 87.018H115.476L118.892 95.824ZM116.428 92.968L114.86 88.782L113.264 92.968H116.428ZM137.902 87.368C137.576 87.3867 137.333 87.438 137.174 87.522C137.016 87.5967 136.908 87.7273 136.852 87.914C136.796 88.0913 136.768 88.3573 136.768 88.712V92.926C136.768 93.598 136.722 94.1767 136.628 94.662C136.544 95.138 136.4 95.5487 136.194 95.894C135.961 96.2953 135.616 96.6127 135.158 96.846C134.71 97.0793 134.202 97.196 133.632 97.196C132.606 97.196 131.822 96.944 131.28 96.44C130.87 96.0573 130.594 95.6233 130.454 95.138C130.314 94.6527 130.244 93.9293 130.244 92.968V88.572C130.244 88.2173 130.216 87.9607 130.16 87.802C130.104 87.6433 129.997 87.536 129.838 87.48C129.689 87.424 129.446 87.3867 129.11 87.368V87.088C129.502 87.116 130.1 87.13 130.902 87.13C131.658 87.13 132.251 87.116 132.68 87.088V87.368C132.344 87.3867 132.097 87.424 131.938 87.48C131.789 87.536 131.686 87.6433 131.63 87.802C131.574 87.9607 131.546 88.2173 131.546 88.572V93.206C131.546 93.9527 131.598 94.5733 131.7 95.068C131.803 95.5627 132.013 95.9593 132.33 96.258C132.657 96.5567 133.133 96.706 133.758 96.706C134.748 96.706 135.443 96.3887 135.844 95.754C136.246 95.1193 136.446 94.228 136.446 93.08V88.712C136.446 88.208 136.353 87.8627 136.166 87.676C135.989 87.4893 135.658 87.3867 135.172 87.368V87.088C135.508 87.116 135.984 87.13 136.6 87.13C137.16 87.13 137.594 87.116 137.902 87.088V87.368ZM156.475 96.3C156.261 96.6173 156.046 96.846 155.831 96.986C155.617 97.126 155.332 97.196 154.977 97.196C154.595 97.196 154.277 97.084 154.025 96.86C153.783 96.636 153.601 96.244 153.479 95.684L153.171 94.284C153.059 93.7987 152.952 93.4253 152.849 93.164C152.756 92.9027 152.611 92.6927 152.415 92.534C152.219 92.3753 151.944 92.296 151.589 92.296H150.259V95.516C150.259 95.8707 150.287 96.1273 150.343 96.286C150.399 96.4447 150.502 96.552 150.651 96.608C150.81 96.664 151.057 96.7013 151.393 96.72V97C150.964 96.972 150.371 96.958 149.615 96.958C148.813 96.958 148.215 96.972 147.823 97V96.72C148.159 96.7013 148.402 96.664 148.551 96.608C148.71 96.552 148.817 96.4447 148.873 96.286C148.929 96.1273 148.957 95.8707 148.957 95.516V88.572C148.957 88.2173 148.929 87.9607 148.873 87.802C148.817 87.6433 148.71 87.536 148.551 87.48C148.402 87.424 148.159 87.3867 147.823 87.368V87.088C148.215 87.116 148.785 87.13 149.531 87.13L151.043 87.116C151.221 87.1067 151.421 87.102 151.645 87.102C152.728 87.102 153.559 87.3307 154.137 87.788C154.725 88.236 155.019 88.8193 155.019 89.538C155.019 89.902 154.931 90.2707 154.753 90.644C154.585 91.008 154.296 91.3393 153.885 91.638C153.484 91.9273 152.957 92.1233 152.303 92.226L152.471 92.254C153.087 92.3567 153.535 92.5433 153.815 92.814C154.095 93.0847 154.301 93.514 154.431 94.102L154.781 95.53C154.875 95.9593 154.973 96.258 155.075 96.426C155.178 96.594 155.318 96.678 155.495 96.678C155.654 96.678 155.785 96.636 155.887 96.552C155.999 96.468 156.125 96.3327 156.265 96.146L156.475 96.3ZM151.295 87.368C151.006 87.368 150.787 87.4007 150.637 87.466C150.497 87.5313 150.399 87.648 150.343 87.816C150.287 87.984 150.259 88.236 150.259 88.572V92.016H151.197C152.121 92.016 152.756 91.8107 153.101 91.4C153.447 90.9893 153.619 90.42 153.619 89.692C153.619 88.9267 153.437 88.348 153.073 87.956C152.709 87.564 152.117 87.368 151.295 87.368ZM173.212 95.824C173.436 96.4027 173.758 96.7013 174.178 96.72V97C173.804 96.972 173.305 96.958 172.68 96.958C171.877 96.958 171.28 96.972 170.888 97V96.72C171.242 96.7013 171.494 96.6593 171.644 96.594C171.802 96.5193 171.882 96.3887 171.882 96.202C171.882 96.0433 171.826 95.824 171.714 95.544L170.86 93.248H167.472L166.898 94.732C166.711 95.236 166.618 95.6187 166.618 95.88C166.618 96.1693 166.716 96.3793 166.912 96.51C167.117 96.6407 167.425 96.7107 167.836 96.72V97C167.304 96.972 166.767 96.958 166.226 96.958C165.806 96.958 165.456 96.972 165.176 97V96.72C165.642 96.608 166.011 96.202 166.282 95.502L169.572 87.018H169.796L173.212 95.824ZM170.748 92.968L169.18 88.782L167.584 92.968H170.748ZM192.222 87.368C191.895 87.3867 191.653 87.438 191.494 87.522C191.335 87.5967 191.228 87.7273 191.172 87.914C191.116 88.0913 191.088 88.3573 191.088 88.712V92.926C191.088 93.598 191.041 94.1767 190.948 94.662C190.864 95.138 190.719 95.5487 190.514 95.894C190.281 96.2953 189.935 96.6127 189.478 96.846C189.03 97.0793 188.521 97.196 187.952 97.196C186.925 97.196 186.141 96.944 185.6 96.44C185.189 96.0573 184.914 95.6233 184.774 95.138C184.634 94.6527 184.564 93.9293 184.564 92.968V88.572C184.564 88.2173 184.536 87.9607 184.48 87.802C184.424 87.6433 184.317 87.536 184.158 87.48C184.009 87.424 183.766 87.3867 183.43 87.368V87.088C183.822 87.116 184.419 87.13 185.222 87.13C185.978 87.13 186.571 87.116 187 87.088V87.368C186.664 87.3867 186.417 87.424 186.258 87.48C186.109 87.536 186.006 87.6433 185.95 87.802C185.894 87.9607 185.866 88.2173 185.866 88.572V93.206C185.866 93.9527 185.917 94.5733 186.02 95.068C186.123 95.5627 186.333 95.9593 186.65 96.258C186.977 96.5567 187.453 96.706 188.078 96.706C189.067 96.706 189.763 96.3887 190.164 95.754C190.565 95.1193 190.766 94.228 190.766 93.08V88.712C190.766 88.208 190.673 87.8627 190.486 87.676C190.309 87.4893 189.977 87.3867 189.492 87.368V87.088C189.828 87.116 190.304 87.13 190.92 87.13C191.48 87.13 191.914 87.116 192.222 87.088V87.368ZM210.935 87.368C210.608 87.3867 210.366 87.438 210.207 87.522C210.048 87.5967 209.941 87.7273 209.885 87.914C209.829 88.0913 209.801 88.3573 209.801 88.712V97.07H209.479L203.599 87.984V95.376C203.599 95.74 203.627 96.0107 203.683 96.188C203.748 96.3653 203.87 96.496 204.047 96.58C204.224 96.6547 204.5 96.7013 204.873 96.72V97C204.537 96.972 204.061 96.958 203.445 96.958C202.885 96.958 202.451 96.972 202.143 97V96.72C202.47 96.7013 202.712 96.6547 202.871 96.58C203.03 96.496 203.137 96.3653 203.193 96.188C203.249 96.0013 203.277 95.7307 203.277 95.376V88.572C203.277 88.2173 203.249 87.9607 203.193 87.802C203.137 87.6433 203.03 87.536 202.871 87.48C202.722 87.424 202.479 87.3867 202.143 87.368V87.088C202.451 87.116 202.885 87.13 203.445 87.13C203.865 87.13 204.229 87.116 204.537 87.088L209.479 94.704V88.712C209.479 88.348 209.446 88.0773 209.381 87.9C209.325 87.7227 209.208 87.5967 209.031 87.522C208.854 87.438 208.578 87.3867 208.205 87.368V87.088C208.541 87.116 209.017 87.13 209.633 87.13C210.193 87.13 210.627 87.116 210.935 87.088V87.368ZM228.688 87.088C228.622 87.7507 228.59 88.348 228.59 88.88C228.59 89.3467 228.604 89.7293 228.632 90.028H228.31C228.235 89.3093 228.142 88.7773 228.03 88.432C227.918 88.0773 227.722 87.8207 227.442 87.662C227.162 87.494 226.732 87.41 226.154 87.41H225.398V95.376C225.398 95.768 225.435 96.0527 225.51 96.23C225.584 96.4073 225.715 96.5287 225.902 96.594C226.088 96.6593 226.392 96.7013 226.812 96.72V97C226.326 96.972 225.64 96.958 224.754 96.958C223.82 96.958 223.13 96.972 222.682 97V96.72C223.102 96.7013 223.405 96.6593 223.592 96.594C223.778 96.5287 223.909 96.4073 223.984 96.23C224.058 96.0527 224.096 95.768 224.096 95.376V87.41H223.34C222.761 87.41 222.332 87.494 222.052 87.662C221.772 87.8207 221.576 88.0773 221.464 88.432C221.352 88.7773 221.258 89.3093 221.184 90.028H220.862C220.89 89.7293 220.904 89.3467 220.904 88.88C220.904 88.348 220.871 87.7507 220.806 87.088C221.58 87.116 222.896 87.13 224.754 87.13C226.602 87.13 227.913 87.116 228.688 87.088Z" fill="black"/>
<path d="M289 88H1441" stroke="#DC592C" stroke-width="7" stroke-linecap="round"/>
<path d="M289 61H1441" stroke="#DCC72C" stroke-width="7" stroke-linecap="round"/>
<path d="M289 35H1441" stroke="#20A14C" stroke-width="7" stroke-linecap="round"/>
</svg>
