<?xml version="1.0" encoding="UTF-8"?>
<svg id="Layer_1" data-name="Layer 1" xmlns="http://www.w3.org/2000/svg" viewBox="0 0 799.99 800">
  <defs>
    <style>
      .cls-1 {
        fill: #fff;
        stroke-width: 0px;
      }
    </style>
  </defs>
  <path class="cls-1" d="m789.08,342.01l-89.09-80.99V33.33c0-18.41-14.92-33.33-33.33-33.33h-133.33c-18.41,0-33.33,14.92-33.33,33.33v45.87L425.89,11.83l-3.47-3.15c-2.38-2.17-5-3.93-7.77-5.28-.12-.06-.25-.1-.37-.16-9.02-4.28-19.54-4.28-28.56,0-.12.06-.25.1-.38.16-2.77,1.35-5.39,3.12-7.77,5.28l-3.42,3.11L10.91,342.01c-13.62,12.38-14.63,33.47-2.24,47.09,12.38,13.62,33.47,14.63,47.09,2.24l10.91-9.92v385.25c0,18.41,14.92,33.33,33.33,33.33h599.99c18.41,0,33.33-14.92,33.33-33.33v-385.25l10.91,9.92c13.62,12.38,34.7,11.38,47.09-2.24,12.38-13.62,11.38-34.7-2.24-47.09Zm-222.42-275.34h66.67v133.75l-66.67-60.61v-73.14Zm-233.33,666.67v-233.33c0-18.42,14.91-33.33,33.33-33.33h66.67c18.42,0,33.33,14.91,33.33,33.33v233.33h-133.33Zm333.33,0h-133.33v-233.33c0-55.24-44.76-100-100-100h-66.67c-55.24,0-100,44.76-100,100v233.33h-133.33v-412.52L400,78.39l110.74,100.67c.06.05.11.11.17.17l76.68,69.7,79.08,71.89v412.52h0Z"/>
</svg>