<svg width="1558" height="472" viewBox="0 0 1558 472" fill="none" xmlns="http://www.w3.org/2000/svg">
<rect x="56.5" width="1440" height="472" fill="#DCC72C"/>
<path d="M76.85 18.1H93.8C96.7 18.1 98.95 18.9167 100.55 20.55C102.183 22.1833 103 24.35 103 27.05C103 28.3833 102.817 29.5167 102.45 30.45C102.117 31.3833 101.65 32.15 101.05 32.75C100.483 33.35 99.8 33.8 99 34.1C98.2333 34.3667 97.4 34.5167 96.5 34.55V34.85C97.3333 34.85 98.2 35 99.1 35.3C100.033 35.6 100.883 36.0833 101.65 36.75C102.417 37.3833 103.05 38.2167 103.55 39.25C104.083 40.2833 104.35 41.55 104.35 43.05C104.35 44.4167 104.117 45.7167 103.65 46.95C103.217 48.15 102.6 49.2 101.8 50.1C101 51 100.05 51.7167 98.95 52.25C97.85 52.75 96.65 53 95.35 53H76.85V18.1ZM84.45 46.6H93.2C94.2 46.6 94.9833 46.3333 95.55 45.8C96.15 45.2333 96.45 44.45 96.45 43.45V41.75C96.45 40.75 96.15 39.9833 95.55 39.45C94.9833 38.8833 94.2 38.6 93.2 38.6H84.45V46.6ZM84.45 32.4H92C93 32.4 93.7833 32.1167 94.35 31.55C94.9167 30.9833 95.2 30.2 95.2 29.2V27.7C95.2 26.7 94.9167 25.9167 94.35 25.35C93.7833 24.7833 93 24.5 92 24.5H84.45V32.4ZM110.2 53V18.1H133.95V24.85H117.8V32H131.65V38.7H117.8V46.25H133.95V53H110.2ZM140.571 53V18.1H164.321V24.85H148.171V32H162.021V38.7H148.171V46.25H164.321V53H140.571ZM170.942 53V18.1H194.092V24.85H178.542V32H191.792V38.7H178.542V53H170.942ZM199.109 44.55C200.609 44.55 201.709 44.9333 202.409 45.7C203.143 46.4333 203.509 47.3833 203.509 48.55V49.55C203.509 51.5833 203.009 53.5833 202.009 55.55C201.043 57.5167 199.759 59.1167 198.159 60.35H193.159C194.326 59.25 195.326 58.15 196.159 57.05C196.993 55.9833 197.626 54.7833 198.059 53.45C196.893 53.25 196.043 52.8 195.509 52.1C194.976 51.3667 194.709 50.5167 194.709 49.55V48.55C194.709 47.3833 195.059 46.4333 195.759 45.7C196.493 44.9333 197.609 44.55 199.109 44.55ZM222.504 53V18.1H230.104V46.25H243.404V53H222.504ZM271.348 53L268.848 44.7H257.198L254.698 53H246.998L258.498 18.1H267.898L279.248 53H271.348ZM263.098 25H262.848L258.998 38.25H266.998L263.098 25ZM310.177 30.1H310.027L307.477 35.2L300.677 47.55L294.027 35.25L291.377 29.75H291.227V53H284.077V18.1H292.127L300.677 34.45H300.777L309.227 18.1H317.327V53H310.177V30.1ZM325.043 18.1H341.993C344.893 18.1 347.143 18.9167 348.743 20.55C350.377 22.1833 351.193 24.35 351.193 27.05C351.193 28.3833 351.01 29.5167 350.643 30.45C350.31 31.3833 349.843 32.15 349.243 32.75C348.677 33.35 347.993 33.8 347.193 34.1C346.427 34.3667 345.593 34.5167 344.693 34.55V34.85C345.527 34.85 346.393 35 347.293 35.3C348.227 35.6 349.077 36.0833 349.843 36.75C350.61 37.3833 351.243 38.2167 351.743 39.25C352.277 40.2833 352.543 41.55 352.543 43.05C352.543 44.4167 352.31 45.7167 351.843 46.95C351.41 48.15 350.793 49.2 349.993 50.1C349.193 51 348.243 51.7167 347.143 52.25C346.043 52.75 344.843 53 343.543 53H325.043V18.1ZM332.643 46.6H341.393C342.393 46.6 343.177 46.3333 343.743 45.8C344.343 45.2333 344.643 44.45 344.643 43.45V41.75C344.643 40.75 344.343 39.9833 343.743 39.45C343.177 38.8833 342.393 38.6 341.393 38.6H332.643V46.6ZM332.643 32.4H340.193C341.193 32.4 341.977 32.1167 342.543 31.55C343.11 30.9833 343.393 30.2 343.393 29.2V27.7C343.393 26.7 343.11 25.9167 342.543 25.35C341.977 24.7833 341.193 24.5 340.193 24.5H332.643V32.4ZM361.561 44.55C363.061 44.55 364.161 44.9333 364.861 45.7C365.594 46.4333 365.961 47.3833 365.961 48.55V49.55C365.961 51.5833 365.461 53.5833 364.461 55.55C363.494 57.5167 362.211 59.1167 360.611 60.35H355.611C356.777 59.25 357.777 58.15 358.611 57.05C359.444 55.9833 360.077 54.7833 360.511 53.45C359.344 53.25 358.494 52.8 357.961 52.1C357.427 51.3667 357.161 50.5167 357.161 49.55V48.55C357.161 47.3833 357.511 46.4333 358.211 45.7C358.944 44.9333 360.061 44.55 361.561 44.55ZM406.455 53L403.955 44.7H392.305L389.805 53H382.105L393.605 18.1H403.005L414.355 53H406.455ZM398.205 25H397.955L394.105 38.25H402.105L398.205 25ZM429.834 36.5L426.484 29.5H426.334V53H419.184V18.1H427.484L437.034 34.6L440.384 41.6H440.534V18.1H447.684V53H439.384L429.834 36.5ZM455.366 18.1H468.516C470.816 18.1 472.916 18.4667 474.816 19.2C476.716 19.9333 478.332 21.0333 479.666 22.5C480.999 23.9333 482.032 25.75 482.766 27.95C483.499 30.1167 483.866 32.65 483.866 35.55C483.866 38.45 483.499 41 482.766 43.2C482.032 45.3667 480.999 47.1833 479.666 48.65C478.332 50.0833 476.716 51.1667 474.816 51.9C472.916 52.6333 470.816 53 468.516 53H455.366V18.1ZM468.516 46.25C470.782 46.25 472.566 45.6167 473.866 44.35C475.166 43.0833 475.816 41.05 475.816 38.25V32.85C475.816 30.05 475.166 28.0167 473.866 26.75C472.566 25.4833 470.782 24.85 468.516 24.85H462.966V46.25H468.516ZM502.045 53V18.1H518.545C520.179 18.1 521.645 18.3833 522.945 18.95C524.245 19.4833 525.345 20.2333 526.245 21.2C527.179 22.1667 527.895 23.35 528.395 24.75C528.895 26.1167 529.145 27.6167 529.145 29.25C529.145 30.9167 528.895 32.4333 528.395 33.8C527.895 35.1667 527.179 36.3333 526.245 37.3C525.345 38.2667 524.245 39.0333 522.945 39.6C521.645 40.1333 520.179 40.4 518.545 40.4H509.645V53H502.045ZM509.645 33.8H517.645C518.779 33.8 519.662 33.5167 520.295 32.95C520.962 32.35 521.295 31.4833 521.295 30.35V28.15C521.295 27.0167 520.962 26.1667 520.295 25.6C519.662 25 518.779 24.7 517.645 24.7H509.645V33.8ZM548.858 53.6C546.558 53.6 544.458 53.2167 542.558 52.45C540.658 51.6833 539.041 50.55 537.708 49.05C536.374 47.5167 535.341 45.6333 534.608 43.4C533.874 41.1333 533.508 38.5167 533.508 35.55C533.508 32.5833 533.874 29.9833 534.608 27.75C535.341 25.4833 536.374 23.6 537.708 22.1C539.041 20.5667 540.658 19.4167 542.558 18.65C544.458 17.8833 546.558 17.5 548.858 17.5C551.158 17.5 553.258 17.8833 555.158 18.65C557.058 19.4167 558.674 20.5667 560.008 22.1C561.341 23.6 562.374 25.4833 563.108 27.75C563.841 29.9833 564.208 32.5833 564.208 35.55C564.208 38.5167 563.841 41.1333 563.108 43.4C562.374 45.6333 561.341 47.5167 560.008 49.05C558.674 50.55 557.058 51.6833 555.158 52.45C553.258 53.2167 551.158 53.6 548.858 53.6ZM548.858 46.85C551.158 46.85 552.941 46.1 554.208 44.6C555.508 43.1 556.158 40.95 556.158 38.15V32.95C556.158 30.15 555.508 28 554.208 26.5C552.941 25 551.158 24.25 548.858 24.25C546.558 24.25 544.758 25 543.458 26.5C542.191 28 541.558 30.15 541.558 32.95V38.15C541.558 40.95 542.191 43.1 543.458 44.6C544.758 46.1 546.558 46.85 548.858 46.85ZM577.751 18.1V39.5C577.751 41.9667 578.235 43.8167 579.201 45.05C580.168 46.25 581.785 46.85 584.051 46.85C586.318 46.85 587.935 46.25 588.901 45.05C589.868 43.8167 590.351 41.9667 590.351 39.5V18.1H597.751V38.7C597.751 41.2667 597.501 43.5 597.001 45.4C596.535 47.2667 595.751 48.8167 594.651 50.05C593.551 51.25 592.135 52.15 590.401 52.75C588.668 53.3167 586.551 53.6 584.051 53.6C581.551 53.6 579.435 53.3167 577.701 52.75C575.968 52.15 574.551 51.25 573.451 50.05C572.351 48.8167 571.551 47.2667 571.051 45.4C570.585 43.5 570.351 41.2667 570.351 38.7V18.1H577.751ZM605.268 53V18.1H612.868V46.25H626.168V53H605.268ZM642.621 24.85V53H635.021V24.85H625.571V18.1H652.071V24.85H642.621ZM664.87 53H657.27V18.1H673.82C675.42 18.1 676.87 18.3667 678.17 18.9C679.47 19.4333 680.57 20.2 681.47 21.2C682.403 22.1667 683.12 23.3333 683.62 24.7C684.12 26.0667 684.37 27.5833 684.37 29.25C684.37 31.6167 683.837 33.6833 682.77 35.45C681.737 37.2167 680.153 38.5 678.02 39.3L684.87 53H676.42L670.32 40.2H664.87V53ZM672.87 33.8C674.003 33.8 674.887 33.5167 675.52 32.95C676.187 32.35 676.52 31.4833 676.52 30.35V28.15C676.52 27.0167 676.187 26.1667 675.52 25.6C674.887 25 674.003 24.7 672.87 24.7H664.87V33.8H672.87ZM697.509 53V39.35L685.559 18.1H694.059L701.559 32H701.659L708.859 18.1H717.109L705.159 39.3V53H697.509Z" fill="white"/>
<path d="M233.852 138.056L230.576 142.016V149H225.104V123.872H230.576V135.824H230.792L234.356 130.964L240.008 123.872H246.2L237.74 134.204L246.956 149H240.512L233.852 138.056ZM252.546 128.084C251.466 128.084 250.674 127.844 250.17 127.364C249.69 126.86 249.45 126.224 249.45 125.456V124.664C249.45 123.896 249.69 123.272 250.17 122.792C250.674 122.288 251.466 122.036 252.546 122.036C253.626 122.036 254.406 122.288 254.886 122.792C255.39 123.272 255.642 123.896 255.642 124.664V125.456C255.642 126.224 255.39 126.86 254.886 127.364C254.406 127.844 253.626 128.084 252.546 128.084ZM249.882 130.1H255.21V149H249.882V130.1ZM266.807 149C264.959 149 263.555 148.532 262.595 147.596C261.659 146.66 261.191 145.292 261.191 143.492V134.24H258.527V130.1H259.859C260.579 130.1 261.071 129.932 261.335 129.596C261.599 129.236 261.731 128.732 261.731 128.084V124.988H266.519V130.1H270.263V134.24H266.519V144.86H269.975V149H266.807ZM274.9 134.24H272.236V130.1H274.9V127.868C274.9 126.044 275.38 124.676 276.34 123.764C277.3 122.828 278.704 122.36 280.552 122.36H284.008V126.5H280.228V130.1H284.008V134.24H280.228V149H274.9V134.24ZM294.5 149.432C293.108 149.432 291.86 149.204 290.756 148.748C289.676 148.292 288.752 147.632 287.984 146.768C287.24 145.904 286.664 144.86 286.256 143.636C285.848 142.412 285.644 141.044 285.644 139.532C285.644 138.02 285.848 136.652 286.256 135.428C286.664 134.204 287.24 133.172 287.984 132.332C288.752 131.468 289.676 130.808 290.756 130.352C291.86 129.896 293.108 129.668 294.5 129.668C295.892 129.668 297.128 129.896 298.208 130.352C299.312 130.808 300.236 131.468 300.98 132.332C301.748 133.172 302.336 134.204 302.744 135.428C303.152 136.652 303.356 138.02 303.356 139.532C303.356 141.044 303.152 142.412 302.744 143.636C302.336 144.86 301.748 145.904 300.98 146.768C300.236 147.632 299.312 148.292 298.208 148.748C297.128 149.204 295.892 149.432 294.5 149.432ZM294.5 145.22C295.556 145.22 296.372 144.896 296.948 144.248C297.524 143.6 297.812 142.676 297.812 141.476V137.624C297.812 136.424 297.524 135.5 296.948 134.852C296.372 134.204 295.556 133.88 294.5 133.88C293.444 133.88 292.628 134.204 292.052 134.852C291.476 135.5 291.188 136.424 291.188 137.624V141.476C291.188 142.676 291.476 143.6 292.052 144.248C292.628 144.896 293.444 145.22 294.5 145.22Z" fill="white"/>
<path d="M696.321 123.872H705.789C707.445 123.872 708.957 124.136 710.325 124.664C711.693 125.192 712.857 125.984 713.817 127.04C714.777 128.072 715.521 129.38 716.049 130.964C716.577 132.524 716.841 134.348 716.841 136.436C716.841 138.524 716.577 140.36 716.049 141.944C715.521 143.504 714.777 144.812 713.817 145.868C712.857 146.9 711.693 147.68 710.325 148.208C708.957 148.736 707.445 149 705.789 149H696.321V123.872ZM705.789 144.14C707.421 144.14 708.705 143.684 709.641 142.772C710.577 141.86 711.045 140.396 711.045 138.38V134.492C711.045 132.476 710.577 131.012 709.641 130.1C708.705 129.188 707.421 128.732 705.789 128.732H701.793V144.14H705.789ZM728.802 149.432C727.41 149.432 726.162 149.204 725.058 148.748C723.978 148.292 723.054 147.632 722.286 146.768C721.542 145.904 720.966 144.86 720.558 143.636C720.15 142.412 719.946 141.044 719.946 139.532C719.946 138.02 720.15 136.652 720.558 135.428C720.966 134.204 721.542 133.172 722.286 132.332C723.054 131.468 723.978 130.808 725.058 130.352C726.162 129.896 727.41 129.668 728.802 129.668C730.194 129.668 731.43 129.896 732.51 130.352C733.614 130.808 734.538 131.468 735.282 132.332C736.05 133.172 736.638 134.204 737.046 135.428C737.454 136.652 737.658 138.02 737.658 139.532C737.658 141.044 737.454 142.412 737.046 143.636C736.638 144.86 736.05 145.904 735.282 146.768C734.538 147.632 733.614 148.292 732.51 148.748C731.43 149.204 730.194 149.432 728.802 149.432ZM728.802 145.22C729.858 145.22 730.674 144.896 731.25 144.248C731.826 143.6 732.114 142.676 732.114 141.476V137.624C732.114 136.424 731.826 135.5 731.25 134.852C730.674 134.204 729.858 133.88 728.802 133.88C727.746 133.88 726.93 134.204 726.354 134.852C725.778 135.5 725.49 136.424 725.49 137.624V141.476C725.49 142.676 725.778 143.6 726.354 144.248C726.93 144.896 727.746 145.22 728.802 145.22ZM741.455 149V130.1H746.783V134.204H746.963C747.059 133.676 747.227 133.172 747.467 132.692C747.707 132.188 748.019 131.744 748.403 131.36C748.811 130.976 749.291 130.676 749.843 130.46C750.395 130.22 751.043 130.1 751.787 130.1H752.723V135.068H751.391C749.831 135.068 748.667 135.272 747.899 135.68C747.155 136.088 746.783 136.844 746.783 137.948V149H741.455ZM763.502 149.432C762.11 149.432 760.862 149.204 759.758 148.748C758.678 148.292 757.754 147.632 756.986 146.768C756.242 145.904 755.666 144.86 755.258 143.636C754.85 142.412 754.646 141.044 754.646 139.532C754.646 138.02 754.85 136.652 755.258 135.428C755.666 134.204 756.242 133.172 756.986 132.332C757.754 131.468 758.678 130.808 759.758 130.352C760.862 129.896 762.11 129.668 763.502 129.668C764.894 129.668 766.13 129.896 767.21 130.352C768.314 130.808 769.238 131.468 769.982 132.332C770.75 133.172 771.338 134.204 771.746 135.428C772.154 136.652 772.358 138.02 772.358 139.532C772.358 141.044 772.154 142.412 771.746 143.636C771.338 144.86 770.75 145.904 769.982 146.768C769.238 147.632 768.314 148.292 767.21 148.748C766.13 149.204 764.894 149.432 763.502 149.432ZM763.502 145.22C764.558 145.22 765.374 144.896 765.95 144.248C766.526 143.6 766.814 142.676 766.814 141.476V137.624C766.814 136.424 766.526 135.5 765.95 134.852C765.374 134.204 764.558 133.88 763.502 133.88C762.446 133.88 761.63 134.204 761.054 134.852C760.478 135.5 760.19 136.424 760.19 137.624V141.476C760.19 142.676 760.478 143.6 761.054 144.248C761.63 144.896 762.446 145.22 763.502 145.22ZM788.91 149L783.222 123.872H788.622L790.998 135.932L792.33 142.916H792.438L794.022 135.932L796.794 123.872H802.77L805.578 135.932L807.126 142.916H807.234L808.566 135.932L810.978 123.872H816.162L810.33 149H804.102L800.934 135.392L799.71 129.884H799.602L798.342 135.392L795.174 149H788.91ZM826.647 149.432C825.207 149.432 823.923 149.204 822.795 148.748C821.667 148.268 820.707 147.608 819.915 146.768C819.147 145.904 818.559 144.86 818.151 143.636C817.767 142.412 817.575 141.044 817.575 139.532C817.575 138.044 817.767 136.7 818.151 135.5C818.535 134.276 819.099 133.232 819.843 132.368C820.611 131.504 821.547 130.844 822.651 130.388C823.755 129.908 825.015 129.668 826.431 129.668C827.991 129.668 829.323 129.932 830.427 130.46C831.555 130.988 832.467 131.696 833.163 132.584C833.883 133.472 834.399 134.504 834.711 135.68C835.047 136.832 835.215 138.044 835.215 139.316V140.9H823.083V141.188C823.083 142.436 823.419 143.432 824.091 144.176C824.763 144.896 825.819 145.256 827.259 145.256C828.363 145.256 829.263 145.04 829.959 144.608C830.655 144.152 831.303 143.612 831.903 142.988L834.567 146.3C833.727 147.284 832.623 148.052 831.255 148.604C829.911 149.156 828.375 149.432 826.647 149.432ZM826.539 133.592C825.459 133.592 824.607 133.952 823.983 134.672C823.383 135.368 823.083 136.304 823.083 137.48V137.768H829.707V137.444C829.707 136.292 829.443 135.368 828.915 134.672C828.411 133.952 827.619 133.592 826.539 133.592ZM840.701 122C841.781 122 842.561 122.252 843.041 122.756C843.545 123.236 843.797 123.848 843.797 124.592V125.348C843.797 126.044 843.689 126.752 843.473 127.472C843.281 128.168 843.005 128.84 842.645 129.488C842.309 130.136 841.901 130.748 841.421 131.324C840.941 131.876 840.425 132.368 839.873 132.8H836.525C837.317 132.08 837.989 131.348 838.541 130.604C839.117 129.86 839.549 129.032 839.837 128.12C839.069 127.976 838.505 127.664 838.145 127.184C837.785 126.68 837.605 126.116 837.605 125.492V124.592C837.605 123.848 837.845 123.236 838.325 122.756C838.829 122.252 839.621 122 840.701 122ZM854.778 149C852.93 149 851.526 148.532 850.566 147.596C849.63 146.66 849.162 145.292 849.162 143.492V134.24H846.498V130.1H847.83C848.55 130.1 849.042 129.932 849.306 129.596C849.57 129.236 849.702 128.732 849.702 128.084V124.988H854.49V130.1H858.234V134.24H854.49V144.86H857.946V149H854.778Z" fill="white"/>
<path d="M379.911 226.872H389.379C391.035 226.872 392.547 227.136 393.915 227.664C395.283 228.192 396.447 228.984 397.407 230.04C398.367 231.072 399.111 232.38 399.639 233.964C400.167 235.524 400.431 237.348 400.431 239.436C400.431 241.524 400.167 243.36 399.639 244.944C399.111 246.504 398.367 247.812 397.407 248.868C396.447 249.9 395.283 250.68 393.915 251.208C392.547 251.736 391.035 252 389.379 252H379.911V226.872ZM389.379 247.14C391.011 247.14 392.295 246.684 393.231 245.772C394.167 244.86 394.635 243.396 394.635 241.38V237.492C394.635 235.476 394.167 234.012 393.231 233.1C392.295 232.188 391.011 231.732 389.379 231.732H385.383V247.14H389.379ZM412.392 252.432C411 252.432 409.752 252.204 408.648 251.748C407.568 251.292 406.644 250.632 405.876 249.768C405.132 248.904 404.556 247.86 404.148 246.636C403.74 245.412 403.536 244.044 403.536 242.532C403.536 241.02 403.74 239.652 404.148 238.428C404.556 237.204 405.132 236.172 405.876 235.332C406.644 234.468 407.568 233.808 408.648 233.352C409.752 232.896 411 232.668 412.392 232.668C413.784 232.668 415.02 232.896 416.1 233.352C417.204 233.808 418.128 234.468 418.872 235.332C419.64 236.172 420.228 237.204 420.636 238.428C421.044 239.652 421.248 241.02 421.248 242.532C421.248 244.044 421.044 245.412 420.636 246.636C420.228 247.86 419.64 248.904 418.872 249.768C418.128 250.632 417.204 251.292 416.1 251.748C415.02 252.204 413.784 252.432 412.392 252.432ZM412.392 248.22C413.448 248.22 414.264 247.896 414.84 247.248C415.416 246.6 415.704 245.676 415.704 244.476V240.624C415.704 239.424 415.416 238.5 414.84 237.852C414.264 237.204 413.448 236.88 412.392 236.88C411.336 236.88 410.52 237.204 409.944 237.852C409.368 238.5 409.08 239.424 409.08 240.624V244.476C409.08 245.676 409.368 246.6 409.944 247.248C410.52 247.896 411.336 248.22 412.392 248.22ZM425.045 252V233.1H430.373V237.204H430.553C430.649 236.676 430.817 236.172 431.057 235.692C431.297 235.188 431.609 234.744 431.993 234.36C432.401 233.976 432.881 233.676 433.433 233.46C433.985 233.22 434.633 233.1 435.377 233.1H436.313V238.068H434.981C433.421 238.068 432.257 238.272 431.489 238.68C430.745 239.088 430.373 239.844 430.373 240.948V252H425.045ZM447.091 252.432C445.699 252.432 444.451 252.204 443.347 251.748C442.267 251.292 441.343 250.632 440.575 249.768C439.831 248.904 439.255 247.86 438.847 246.636C438.439 245.412 438.235 244.044 438.235 242.532C438.235 241.02 438.439 239.652 438.847 238.428C439.255 237.204 439.831 236.172 440.575 235.332C441.343 234.468 442.267 233.808 443.347 233.352C444.451 232.896 445.699 232.668 447.091 232.668C448.483 232.668 449.719 232.896 450.799 233.352C451.903 233.808 452.827 234.468 453.571 235.332C454.339 236.172 454.927 237.204 455.335 238.428C455.743 239.652 455.947 241.02 455.947 242.532C455.947 244.044 455.743 245.412 455.335 246.636C454.927 247.86 454.339 248.904 453.571 249.768C452.827 250.632 451.903 251.292 450.799 251.748C449.719 252.204 448.483 252.432 447.091 252.432ZM447.091 248.22C448.147 248.22 448.963 247.896 449.539 247.248C450.115 246.6 450.403 245.676 450.403 244.476V240.624C450.403 239.424 450.115 238.5 449.539 237.852C448.963 237.204 448.147 236.88 447.091 236.88C446.035 236.88 445.219 237.204 444.643 237.852C444.067 238.5 443.779 239.424 443.779 240.624V244.476C443.779 245.676 444.067 246.6 444.643 247.248C445.219 247.896 446.035 248.22 447.091 248.22ZM468.54 252V226.872H485.208V231.732H474.012V236.88H483.552V241.704H474.012V252H468.54ZM491.974 231.084C490.894 231.084 490.102 230.844 489.598 230.364C489.118 229.86 488.878 229.224 488.878 228.456V227.664C488.878 226.896 489.118 226.272 489.598 225.792C490.102 225.288 490.894 225.036 491.974 225.036C493.054 225.036 493.834 225.288 494.314 225.792C494.818 226.272 495.07 226.896 495.07 227.664V228.456C495.07 229.224 494.818 229.86 494.314 230.364C493.834 230.844 493.054 231.084 491.974 231.084ZM489.31 233.1H494.638V252H489.31V233.1ZM499.611 252V233.1H504.939V237.204H505.119C505.215 236.676 505.383 236.172 505.623 235.692C505.863 235.188 506.175 234.744 506.559 234.36C506.967 233.976 507.447 233.676 507.999 233.46C508.551 233.22 509.199 233.1 509.943 233.1H510.879V238.068H509.547C507.987 238.068 506.823 238.272 506.055 238.68C505.311 239.088 504.939 239.844 504.939 240.948V252H499.611ZM515.418 237.24H512.754V233.1H515.418V230.868C515.418 229.044 515.898 227.676 516.858 226.764C517.818 225.828 519.222 225.36 521.07 225.36H524.526V229.5H520.746V233.1H532.806V252H527.478V237.24H520.746V252H515.418V237.24ZM530.142 231.084C529.062 231.084 528.27 230.844 527.766 230.364C527.286 229.86 527.046 229.224 527.046 228.456V227.664C527.046 226.896 527.286 226.272 527.766 225.792C528.27 225.288 529.062 225.036 530.142 225.036C531.222 225.036 532.002 225.288 532.482 225.792C532.986 226.272 533.238 226.896 533.238 227.664V228.456C533.238 229.224 532.986 229.86 532.482 230.364C532.002 230.844 531.222 231.084 530.142 231.084ZM537.791 252V233.1H543.119V237.204H543.299C543.395 236.676 543.563 236.172 543.803 235.692C544.043 235.188 544.355 234.744 544.739 234.36C545.147 233.976 545.627 233.676 546.179 233.46C546.731 233.22 547.379 233.1 548.123 233.1H549.059V238.068H547.727C546.167 238.068 545.003 238.272 544.235 238.68C543.491 239.088 543.119 239.844 543.119 240.948V252H537.791Z" fill="white"/>
<path d="M981.191 247L979.391 241.024H971.003L969.203 247H963.659L971.939 221.872H978.707L986.879 247H981.191ZM975.251 226.84H975.071L972.299 236.38H978.059L975.251 226.84ZM995.36 247C993.536 247 992.192 246.556 991.328 245.668C990.488 244.78 990.068 243.496 990.068 241.816V220.36H995.396V242.86H997.772V247H995.36ZM1003.63 226.084C1002.55 226.084 1001.76 225.844 1001.25 225.364C1000.77 224.86 1000.53 224.224 1000.53 223.456V222.664C1000.53 221.896 1000.77 221.272 1001.25 220.792C1001.76 220.288 1002.55 220.036 1003.63 220.036C1004.71 220.036 1005.49 220.288 1005.97 220.792C1006.47 221.272 1006.73 221.896 1006.73 222.664V223.456C1006.73 224.224 1006.47 224.86 1005.97 225.364C1005.49 225.844 1004.71 226.084 1003.63 226.084ZM1000.97 228.1H1006.29V247H1000.97V228.1ZM1018.9 247.432C1017.48 247.432 1016.22 247.204 1015.12 246.748C1014.02 246.268 1013.09 245.608 1012.35 244.768C1011.6 243.904 1011.04 242.86 1010.66 241.636C1010.27 240.412 1010.08 239.044 1010.08 237.532C1010.08 236.02 1010.27 234.664 1010.66 233.464C1011.04 232.24 1011.6 231.196 1012.35 230.332C1013.09 229.468 1014.02 228.808 1015.12 228.352C1016.22 227.896 1017.48 227.668 1018.9 227.668C1020.82 227.668 1022.42 228.1 1023.69 228.964C1024.98 229.828 1025.91 231.04 1026.46 232.6L1022.14 234.472C1021.97 233.752 1021.62 233.14 1021.1 232.636C1020.57 232.132 1019.84 231.88 1018.9 231.88C1017.82 231.88 1017 232.24 1016.45 232.96C1015.9 233.656 1015.62 234.604 1015.62 235.804V239.332C1015.62 240.532 1015.9 241.48 1016.45 242.176C1017 242.872 1017.82 243.22 1018.9 243.22C1019.86 243.22 1020.62 242.968 1021.17 242.464C1021.74 241.936 1022.16 241.252 1022.43 240.412L1026.57 242.212C1025.94 244.012 1024.97 245.332 1023.65 246.172C1022.36 247.012 1020.77 247.432 1018.9 247.432ZM1029.86 220.36H1035.19V231.304H1035.41C1035.74 230.32 1036.33 229.468 1037.17 228.748C1038.01 228.028 1039.18 227.668 1040.66 227.668C1042.61 227.668 1044.07 228.316 1045.06 229.612C1046.06 230.908 1046.57 232.756 1046.57 235.156V247H1041.24V235.588C1041.24 234.364 1041.05 233.464 1040.66 232.888C1040.28 232.288 1039.6 231.988 1038.61 231.988C1038.18 231.988 1037.76 232.048 1037.35 232.168C1036.94 232.264 1036.57 232.432 1036.24 232.672C1035.92 232.912 1035.67 233.212 1035.48 233.572C1035.29 233.908 1035.19 234.304 1035.19 234.76V247H1029.86V220.36ZM1065.28 247C1064.32 247 1063.51 246.7 1062.87 246.1C1062.24 245.5 1061.85 244.696 1061.68 243.688H1061.46C1061.17 244.912 1060.54 245.848 1059.55 246.496C1058.57 247.12 1057.36 247.432 1055.92 247.432C1054.02 247.432 1052.57 246.928 1051.56 245.92C1050.55 244.912 1050.05 243.58 1050.05 241.924C1050.05 239.932 1050.77 238.456 1052.21 237.496C1053.67 236.512 1055.65 236.02 1058.15 236.02H1061.14V234.832C1061.14 233.92 1060.9 233.2 1060.42 232.672C1059.94 232.12 1059.13 231.844 1058.01 231.844C1056.95 231.844 1056.11 232.072 1055.49 232.528C1054.86 232.984 1054.35 233.5 1053.94 234.076L1050.77 231.268C1051.54 230.14 1052.5 229.264 1053.65 228.64C1054.83 227.992 1056.41 227.668 1058.4 227.668C1061.09 227.668 1063.11 228.256 1064.45 229.432C1065.79 230.608 1066.47 232.324 1066.47 234.58V242.86H1068.23V247H1065.28ZM1057.9 243.724C1058.79 243.724 1059.54 243.532 1060.17 243.148C1060.81 242.764 1061.14 242.14 1061.14 241.276V239.044H1058.55C1056.46 239.044 1055.41 239.752 1055.41 241.168V241.708C1055.41 242.404 1055.63 242.92 1056.06 243.256C1056.49 243.568 1057.11 243.724 1057.9 243.724ZM1080.6 247V221.872H1097.27V226.732H1086.07V231.88H1095.61V236.704H1086.07V247H1080.6ZM1104.04 226.084C1102.96 226.084 1102.16 225.844 1101.66 225.364C1101.18 224.86 1100.94 224.224 1100.94 223.456V222.664C1100.94 221.896 1101.18 221.272 1101.66 220.792C1102.16 220.288 1102.96 220.036 1104.04 220.036C1105.12 220.036 1105.9 220.288 1106.38 220.792C1106.88 221.272 1107.13 221.896 1107.13 222.664V223.456C1107.13 224.224 1106.88 224.86 1106.38 225.364C1105.9 225.844 1105.12 226.084 1104.04 226.084ZM1101.37 228.1H1106.7V247H1101.37V228.1ZM1118.3 247C1116.45 247 1115.05 246.532 1114.09 245.596C1113.15 244.66 1112.68 243.292 1112.68 241.492V232.24H1110.02V228.1H1111.35C1112.07 228.1 1112.56 227.932 1112.83 227.596C1113.09 227.236 1113.22 226.732 1113.22 226.084V222.988H1118.01V228.1H1121.75V232.24H1118.01V242.86H1121.47V247H1118.3ZM1126.39 232.24H1123.73V228.1H1126.39V225.868C1126.39 224.044 1126.87 222.676 1127.83 221.764C1128.79 220.828 1130.19 220.36 1132.04 220.36H1135.5V224.5H1131.72V228.1H1143.78V247H1138.45V232.24H1131.72V247H1126.39V232.24ZM1141.11 226.084C1140.03 226.084 1139.24 225.844 1138.74 225.364C1138.26 224.86 1138.02 224.224 1138.02 223.456V222.664C1138.02 221.896 1138.26 221.272 1138.74 220.792C1139.24 220.288 1140.03 220.036 1141.11 220.036C1142.19 220.036 1142.97 220.288 1143.45 220.792C1143.96 221.272 1144.21 221.896 1144.21 222.664V223.456C1144.21 224.224 1143.96 224.86 1143.45 225.364C1142.97 225.844 1142.19 226.084 1141.11 226.084ZM1155.39 247C1153.54 247 1152.14 246.532 1151.18 245.596C1150.24 244.66 1149.77 243.292 1149.77 241.492V232.24H1147.11V228.1H1148.44C1149.16 228.1 1149.65 227.932 1149.92 227.596C1150.18 227.236 1150.31 226.732 1150.31 226.084V222.988H1155.1V228.1H1158.84V232.24H1155.1V242.86H1158.56V247H1155.39Z" fill="white"/>
<path d="M1134.27 149V139.172L1125.66 123.872H1131.78L1137.18 133.88H1137.26L1142.44 123.872H1148.38L1139.78 139.136V149H1134.27ZM1156.94 149.432C1155.5 149.432 1154.22 149.204 1153.09 148.748C1151.96 148.268 1151 147.608 1150.21 146.768C1149.44 145.904 1148.85 144.86 1148.45 143.636C1148.06 142.412 1147.87 141.044 1147.87 139.532C1147.87 138.044 1148.06 136.7 1148.45 135.5C1148.83 134.276 1149.39 133.232 1150.14 132.368C1150.91 131.504 1151.84 130.844 1152.95 130.388C1154.05 129.908 1155.31 129.668 1156.73 129.668C1158.29 129.668 1159.62 129.932 1160.72 130.46C1161.85 130.988 1162.76 131.696 1163.46 132.584C1164.18 133.472 1164.69 134.504 1165.01 135.68C1165.34 136.832 1165.51 138.044 1165.51 139.316V140.9H1153.38V141.188C1153.38 142.436 1153.71 143.432 1154.39 144.176C1155.06 144.896 1156.11 145.256 1157.55 145.256C1158.66 145.256 1159.56 145.04 1160.25 144.608C1160.95 144.152 1161.6 143.612 1162.2 142.988L1164.86 146.3C1164.02 147.284 1162.92 148.052 1161.55 148.604C1160.21 149.156 1158.67 149.432 1156.94 149.432ZM1156.83 133.592C1155.75 133.592 1154.9 133.952 1154.28 134.672C1153.68 135.368 1153.38 136.304 1153.38 137.48V137.768H1160V137.444C1160 136.292 1159.74 135.368 1159.21 134.672C1158.71 133.952 1157.91 133.592 1156.83 133.592ZM1169.27 122.36H1174.6V133.268H1174.78C1175.05 132.212 1175.65 131.348 1176.58 130.676C1177.54 130.004 1178.63 129.668 1179.86 129.668C1182.26 129.668 1184.07 130.508 1185.29 132.188C1186.52 133.868 1187.13 136.316 1187.13 139.532C1187.13 142.748 1186.52 145.208 1185.29 146.912C1184.07 148.592 1182.26 149.432 1179.86 149.432C1179.23 149.432 1178.65 149.336 1178.09 149.144C1177.54 148.976 1177.04 148.736 1176.58 148.424C1176.15 148.088 1175.78 147.704 1175.47 147.272C1175.15 146.816 1174.93 146.336 1174.78 145.832H1174.6V149H1169.27V122.36ZM1178.09 145.112C1179.1 145.112 1179.93 144.764 1180.58 144.068C1181.25 143.348 1181.59 142.388 1181.59 141.188V137.912C1181.59 136.712 1181.25 135.764 1180.58 135.068C1179.93 134.348 1179.1 133.988 1178.09 133.988C1177.09 133.988 1176.25 134.24 1175.57 134.744C1174.93 135.224 1174.6 135.896 1174.6 136.76V142.34C1174.6 143.204 1174.93 143.888 1175.57 144.392C1176.25 144.872 1177.09 145.112 1178.09 145.112ZM1199.06 149.432C1197.62 149.432 1196.34 149.204 1195.21 148.748C1194.08 148.268 1193.12 147.608 1192.33 146.768C1191.56 145.904 1190.97 144.86 1190.56 143.636C1190.18 142.412 1189.99 141.044 1189.99 139.532C1189.99 138.044 1190.18 136.7 1190.56 135.5C1190.95 134.276 1191.51 133.232 1192.26 132.368C1193.02 131.504 1193.96 130.844 1195.06 130.388C1196.17 129.908 1197.43 129.668 1198.84 129.668C1200.4 129.668 1201.74 129.932 1202.84 130.46C1203.97 130.988 1204.88 131.696 1205.58 132.584C1206.3 133.472 1206.81 134.504 1207.12 135.68C1207.46 136.832 1207.63 138.044 1207.63 139.316V140.9H1195.5V141.188C1195.5 142.436 1195.83 143.432 1196.5 144.176C1197.18 144.896 1198.23 145.256 1199.67 145.256C1200.78 145.256 1201.68 145.04 1202.37 144.608C1203.07 144.152 1203.72 143.612 1204.32 142.988L1206.98 146.3C1206.14 147.284 1205.04 148.052 1203.67 148.604C1202.32 149.156 1200.79 149.432 1199.06 149.432ZM1198.95 133.592C1197.87 133.592 1197.02 133.952 1196.4 134.672C1195.8 135.368 1195.5 136.304 1195.5 137.48V137.768H1202.12V137.444C1202.12 136.292 1201.86 135.368 1201.33 134.672C1200.82 133.952 1200.03 133.592 1198.95 133.592ZM1228.89 150.368C1228.89 151.376 1228.71 152.264 1228.35 153.032C1228.01 153.8 1227.45 154.448 1226.65 154.976C1225.86 155.528 1224.81 155.936 1223.49 156.2C1222.19 156.488 1220.58 156.632 1218.66 156.632C1217.03 156.632 1215.64 156.524 1214.49 156.308C1213.36 156.116 1212.43 155.828 1211.71 155.444C1211.02 155.084 1210.5 154.628 1210.17 154.076C1209.85 153.548 1209.7 152.936 1209.7 152.24C1209.7 151.184 1210.01 150.356 1210.63 149.756C1211.26 149.156 1212.12 148.784 1213.23 148.64V148.244C1212.31 148.076 1211.63 147.692 1211.17 147.092C1210.72 146.468 1210.49 145.748 1210.49 144.932C1210.49 144.428 1210.59 143.996 1210.78 143.636C1210.99 143.252 1211.26 142.928 1211.57 142.664C1211.91 142.376 1212.29 142.148 1212.72 141.98C1213.15 141.812 1213.59 141.68 1214.02 141.584V141.44C1212.87 140.912 1212.01 140.192 1211.46 139.28C1210.91 138.344 1210.63 137.264 1210.63 136.04C1210.63 134.12 1211.29 132.584 1212.61 131.432C1213.96 130.256 1216 129.668 1218.73 129.668C1219.98 129.668 1221.05 129.788 1221.94 130.028V129.308C1221.94 128.3 1222.18 127.58 1222.66 127.148C1223.16 126.692 1223.87 126.464 1224.78 126.464H1227.77V130.424H1223.59V130.64C1224.7 131.168 1225.51 131.9 1226.04 132.836C1226.57 133.748 1226.83 134.816 1226.83 136.04C1226.83 137.936 1226.16 139.46 1224.82 140.612C1223.5 141.74 1221.47 142.304 1218.73 142.304C1217.51 142.304 1216.39 142.172 1215.39 141.908C1214.83 142.268 1214.56 142.772 1214.56 143.42C1214.56 143.876 1214.73 144.236 1215.06 144.5C1215.42 144.74 1216.01 144.86 1216.83 144.86H1222.3C1224.6 144.86 1226.27 145.34 1227.3 146.3C1228.36 147.26 1228.89 148.616 1228.89 150.368ZM1223.88 151.088C1223.88 150.536 1223.67 150.116 1223.23 149.828C1222.8 149.54 1222.05 149.396 1220.97 149.396H1214.49C1214.25 149.636 1214.07 149.9 1213.95 150.188C1213.85 150.5 1213.8 150.8 1213.8 151.088C1213.8 151.784 1214.1 152.288 1214.7 152.6C1215.3 152.936 1216.32 153.104 1217.76 153.104H1219.92C1221.36 153.104 1222.38 152.936 1222.98 152.6C1223.58 152.288 1223.88 151.784 1223.88 151.088ZM1218.73 138.812C1219.79 138.812 1220.57 138.596 1221.07 138.164C1221.6 137.708 1221.87 137.06 1221.87 136.22V135.788C1221.87 134.948 1221.6 134.312 1221.07 133.88C1220.57 133.424 1219.79 133.196 1218.73 133.196C1217.68 133.196 1216.89 133.424 1216.36 133.88C1215.85 134.312 1215.6 134.948 1215.6 135.788V136.22C1215.6 137.06 1215.85 137.708 1216.36 138.164C1216.89 138.596 1217.68 138.812 1218.73 138.812ZM1255.53 149L1253.73 143.024H1245.34L1243.54 149H1238L1246.28 123.872H1253.05L1261.22 149H1255.53ZM1249.59 128.84H1249.41L1246.64 138.38H1252.4L1249.59 128.84ZM1269.7 149C1267.87 149 1266.53 148.556 1265.67 147.668C1264.83 146.78 1264.41 145.496 1264.41 143.816V122.36H1269.73V144.86H1272.11V149H1269.7ZM1277.97 128.084C1276.89 128.084 1276.1 127.844 1275.59 127.364C1275.11 126.86 1274.87 126.224 1274.87 125.456V124.664C1274.87 123.896 1275.11 123.272 1275.59 122.792C1276.1 122.288 1276.89 122.036 1277.97 122.036C1279.05 122.036 1279.83 122.288 1280.31 122.792C1280.81 123.272 1281.06 123.896 1281.06 124.664V125.456C1281.06 126.224 1280.81 126.86 1280.31 127.364C1279.83 127.844 1279.05 128.084 1277.97 128.084ZM1275.3 130.1H1280.63V149H1275.3V130.1ZM1293.24 149.432C1291.82 149.432 1290.56 149.204 1289.46 148.748C1288.35 148.268 1287.43 147.608 1286.69 146.768C1285.94 145.904 1285.38 144.86 1284.99 143.636C1284.61 142.412 1284.42 141.044 1284.42 139.532C1284.42 138.02 1284.61 136.664 1284.99 135.464C1285.38 134.24 1285.94 133.196 1286.69 132.332C1287.43 131.468 1288.35 130.808 1289.46 130.352C1290.56 129.896 1291.82 129.668 1293.24 129.668C1295.16 129.668 1296.75 130.1 1298.03 130.964C1299.32 131.828 1300.25 133.04 1300.8 134.6L1296.48 136.472C1296.31 135.752 1295.96 135.14 1295.43 134.636C1294.91 134.132 1294.17 133.88 1293.24 133.88C1292.16 133.88 1291.34 134.24 1290.79 134.96C1290.24 135.656 1289.96 136.604 1289.96 137.804V141.332C1289.96 142.532 1290.24 143.48 1290.79 144.176C1291.34 144.872 1292.16 145.22 1293.24 145.22C1294.2 145.22 1294.95 144.968 1295.51 144.464C1296.08 143.936 1296.5 143.252 1296.77 142.412L1300.91 144.212C1300.28 146.012 1299.31 147.332 1297.99 148.172C1296.69 149.012 1295.11 149.432 1293.24 149.432ZM1304.2 122.36H1309.53V133.304H1309.75C1310.08 132.32 1310.67 131.468 1311.51 130.748C1312.35 130.028 1313.51 129.668 1315 129.668C1316.95 129.668 1318.41 130.316 1319.39 131.612C1320.4 132.908 1320.91 134.756 1320.91 137.156V149H1315.58V137.588C1315.58 136.364 1315.39 135.464 1315 134.888C1314.62 134.288 1313.93 133.988 1312.95 133.988C1312.52 133.988 1312.1 134.048 1311.69 134.168C1311.28 134.264 1310.91 134.432 1310.57 134.672C1310.26 134.912 1310.01 135.212 1309.82 135.572C1309.63 135.908 1309.53 136.304 1309.53 136.76V149H1304.2V122.36ZM1339.62 149C1338.66 149 1337.85 148.7 1337.2 148.1C1336.58 147.5 1336.18 146.696 1336.02 145.688H1335.8C1335.51 146.912 1334.88 147.848 1333.89 148.496C1332.91 149.12 1331.7 149.432 1330.26 149.432C1328.36 149.432 1326.91 148.928 1325.9 147.92C1324.89 146.912 1324.39 145.58 1324.39 143.924C1324.39 141.932 1325.11 140.456 1326.55 139.496C1328.01 138.512 1329.99 138.02 1332.49 138.02H1335.48V136.832C1335.48 135.92 1335.24 135.2 1334.76 134.672C1334.28 134.12 1333.47 133.844 1332.34 133.844C1331.29 133.844 1330.45 134.072 1329.82 134.528C1329.2 134.984 1328.68 135.5 1328.28 136.076L1325.11 133.268C1325.88 132.14 1326.84 131.264 1327.99 130.64C1329.16 129.992 1330.75 129.668 1332.74 129.668C1335.43 129.668 1337.44 130.256 1338.79 131.432C1340.13 132.608 1340.8 134.324 1340.8 136.58V144.86H1342.57V149H1339.62ZM1332.24 145.724C1333.12 145.724 1333.88 145.532 1334.5 145.148C1335.15 144.764 1335.48 144.14 1335.48 143.276V141.044H1332.88C1330.8 141.044 1329.75 141.752 1329.75 143.168V143.708C1329.75 144.404 1329.97 144.92 1330.4 145.256C1330.83 145.568 1331.44 145.724 1332.24 145.724Z" fill="white"/>
<path d="M434.976 437.432C432.912 437.432 431.184 437.048 429.792 436.28C428.424 435.488 427.248 434.444 426.264 433.148L427.884 431.816C428.772 432.992 429.768 433.904 430.872 434.552C432 435.2 433.392 435.524 435.048 435.524C436.992 435.524 438.48 435.068 439.512 434.156C440.568 433.22 441.096 431.924 441.096 430.268C441.096 428.732 440.652 427.604 439.764 426.884C438.876 426.164 437.628 425.636 436.02 425.3L433.788 424.832C431.388 424.352 429.648 423.548 428.568 422.42C427.488 421.292 426.948 419.852 426.948 418.1C426.948 416.996 427.14 416.036 427.524 415.22C427.908 414.38 428.448 413.684 429.144 413.132C429.864 412.58 430.716 412.16 431.7 411.872C432.708 411.584 433.812 411.44 435.012 411.44C436.884 411.44 438.468 411.776 439.764 412.448C441.06 413.12 442.128 414.068 442.968 415.292L441.348 416.48C440.652 415.472 439.776 414.704 438.72 414.176C437.688 413.624 436.416 413.348 434.904 413.348C433.104 413.348 431.676 413.744 430.62 414.536C429.588 415.304 429.072 416.468 429.072 418.028C429.072 419.516 429.54 420.608 430.476 421.304C431.412 422 432.66 422.504 434.22 422.816L436.452 423.284C438.948 423.836 440.7 424.688 441.708 425.84C442.716 426.992 443.22 428.432 443.22 430.16C443.22 432.464 442.488 434.252 441.024 435.524C439.56 436.796 437.544 437.432 434.976 437.432ZM455.149 437.432C453.925 437.432 452.809 437.216 451.801 436.784C450.817 436.352 449.965 435.728 449.245 434.912C448.549 434.072 448.009 433.052 447.625 431.852C447.265 430.652 447.085 429.296 447.085 427.784C447.085 426.272 447.265 424.928 447.625 423.752C448.009 422.552 448.549 421.544 449.245 420.728C449.965 419.888 450.817 419.252 451.801 418.82C452.785 418.364 453.889 418.136 455.113 418.136C456.289 418.136 457.357 418.364 458.317 418.82C459.277 419.252 460.093 419.864 460.765 420.656C461.437 421.448 461.953 422.408 462.313 423.536C462.697 424.64 462.889 425.864 462.889 427.208V428.18H449.245V429.08C449.245 430.04 449.377 430.928 449.641 431.744C449.929 432.536 450.325 433.22 450.829 433.796C451.357 434.372 451.993 434.828 452.737 435.164C453.481 435.476 454.321 435.632 455.257 435.632C457.945 435.632 459.805 434.396 460.837 431.924L462.349 432.932C461.773 434.3 460.861 435.392 459.613 436.208C458.389 437.024 456.901 437.432 455.149 437.432ZM455.113 419.864C454.225 419.864 453.421 420.032 452.701 420.368C451.981 420.68 451.357 421.124 450.829 421.7C450.325 422.276 449.929 422.972 449.641 423.788C449.377 424.58 449.245 425.456 449.245 426.416V426.596H460.657V426.308C460.657 425.348 460.525 424.472 460.261 423.68C459.997 422.864 459.613 422.18 459.109 421.628C458.629 421.076 458.041 420.644 457.345 420.332C456.673 420.02 455.929 419.864 455.113 419.864ZM474.696 437.432C473.472 437.432 472.356 437.216 471.348 436.784C470.364 436.352 469.512 435.728 468.792 434.912C468.096 434.072 467.556 433.052 467.172 431.852C466.812 430.652 466.632 429.296 466.632 427.784C466.632 426.272 466.812 424.928 467.172 423.752C467.556 422.552 468.096 421.544 468.792 420.728C469.512 419.888 470.364 419.252 471.348 418.82C472.332 418.364 473.436 418.136 474.66 418.136C475.836 418.136 476.904 418.364 477.864 418.82C478.824 419.252 479.64 419.864 480.312 420.656C480.984 421.448 481.5 422.408 481.86 423.536C482.244 424.64 482.436 425.864 482.436 427.208V428.18H468.792V429.08C468.792 430.04 468.924 430.928 469.188 431.744C469.476 432.536 469.872 433.22 470.376 433.796C470.904 434.372 471.54 434.828 472.284 435.164C473.028 435.476 473.868 435.632 474.804 435.632C477.492 435.632 479.352 434.396 480.384 431.924L481.896 432.932C481.32 434.3 480.408 435.392 479.16 436.208C477.936 437.024 476.448 437.432 474.696 437.432ZM474.66 419.864C473.772 419.864 472.968 420.032 472.248 420.368C471.528 420.68 470.904 421.124 470.376 421.7C469.872 422.276 469.476 422.972 469.188 423.788C468.924 424.58 468.792 425.456 468.792 426.416V426.596H480.204V426.308C480.204 425.348 480.072 424.472 479.808 423.68C479.544 422.864 479.16 422.18 478.656 421.628C478.176 421.076 477.588 420.644 476.892 420.332C476.22 420.02 475.476 419.864 474.66 419.864ZM502.714 437.432C501.49 437.432 500.386 437.216 499.402 436.784C498.418 436.352 497.578 435.728 496.882 434.912C496.186 434.072 495.646 433.052 495.262 431.852C494.878 430.652 494.686 429.296 494.686 427.784C494.686 426.272 494.878 424.928 495.262 423.752C495.646 422.552 496.186 421.544 496.882 420.728C497.578 419.888 498.418 419.252 499.402 418.82C500.386 418.364 501.49 418.136 502.714 418.136C503.938 418.136 505.042 418.364 506.026 418.82C507.01 419.252 507.85 419.888 508.546 420.728C509.242 421.544 509.782 422.552 510.166 423.752C510.55 424.928 510.742 426.272 510.742 427.784C510.742 429.296 510.55 430.652 510.166 431.852C509.782 433.052 509.242 434.072 508.546 434.912C507.85 435.728 507.01 436.352 506.026 436.784C505.042 437.216 503.938 437.432 502.714 437.432ZM502.714 435.596C504.514 435.596 505.93 435.032 506.962 433.904C508.018 432.776 508.546 431.12 508.546 428.936V426.632C508.546 424.472 508.018 422.828 506.962 421.7C505.93 420.548 504.514 419.972 502.714 419.972C500.914 419.972 499.486 420.536 498.43 421.664C497.398 422.792 496.882 424.448 496.882 426.632V428.936C496.882 431.096 497.398 432.752 498.43 433.904C499.486 435.032 500.914 435.596 502.714 435.596ZM527.475 434.084H527.331C527.163 434.516 526.935 434.936 526.647 435.344C526.359 435.752 525.999 436.112 525.567 436.424C525.135 436.712 524.619 436.952 524.019 437.144C523.443 437.336 522.759 437.432 521.967 437.432C519.999 437.432 518.463 436.832 517.359 435.632C516.255 434.408 515.703 432.668 515.703 430.412V418.568H517.755V430.016C517.755 431.912 518.163 433.316 518.979 434.228C519.795 435.14 520.971 435.596 522.507 435.596C523.155 435.596 523.767 435.512 524.343 435.344C524.943 435.176 525.471 434.924 525.927 434.588C526.407 434.252 526.779 433.832 527.043 433.328C527.331 432.8 527.475 432.188 527.475 431.492V418.568H529.527V437H527.475V434.084ZM536.241 437V418.568H538.293V421.88H538.437C538.797 421.016 539.409 420.248 540.273 419.576C541.137 418.904 542.361 418.568 543.945 418.568H545.169V420.584H543.549C542.013 420.584 540.753 420.92 539.769 421.592C538.785 422.264 538.293 423.2 538.293 424.4V437H536.241ZM558.48 420.368H555.312V418.568H558.48V413.42C558.48 412.484 558.708 411.74 559.164 411.188C559.644 410.636 560.376 410.36 561.36 410.36H564.6V412.16H560.532V418.568H564.6V420.368H560.532V437H558.48V420.368ZM580.245 434.084H580.101C579.933 434.516 579.705 434.936 579.417 435.344C579.129 435.752 578.769 436.112 578.337 436.424C577.905 436.712 577.389 436.952 576.789 437.144C576.213 437.336 575.529 437.432 574.737 437.432C572.769 437.432 571.233 436.832 570.129 435.632C569.025 434.408 568.473 432.668 568.473 430.412V418.568H570.525V430.016C570.525 431.912 570.933 433.316 571.749 434.228C572.565 435.14 573.741 435.596 575.277 435.596C575.925 435.596 576.537 435.512 577.113 435.344C577.713 435.176 578.241 434.924 578.697 434.588C579.177 434.252 579.549 433.832 579.813 433.328C580.101 432.8 580.245 432.188 580.245 431.492V418.568H582.297V437H580.245V434.084ZM591.278 437C590.534 437 589.97 436.796 589.586 436.388C589.202 435.98 589.01 435.44 589.01 434.768V410.36H591.062V435.2H593.906V437H591.278ZM600.524 437C599.78 437 599.216 436.796 598.832 436.388C598.448 435.98 598.256 435.44 598.256 434.768V410.36H600.308V435.2H603.152V437H600.524ZM621.476 437.432C619.868 437.432 618.488 437.132 617.336 436.532C616.208 435.932 615.224 435.056 614.384 433.904L615.896 432.716C616.664 433.724 617.504 434.468 618.416 434.948C619.328 435.428 620.396 435.668 621.62 435.668C623.036 435.668 624.128 435.368 624.896 434.768C625.664 434.168 626.048 433.304 626.048 432.176C626.048 431.192 625.748 430.424 625.148 429.872C624.572 429.296 623.612 428.912 622.268 428.72L620.756 428.468C619.916 428.348 619.148 428.168 618.452 427.928C617.756 427.688 617.156 427.364 616.652 426.956C616.172 426.548 615.788 426.056 615.5 425.48C615.236 424.88 615.104 424.16 615.104 423.32C615.104 422.456 615.26 421.7 615.572 421.052C615.908 420.404 616.352 419.864 616.904 419.432C617.456 419 618.116 418.676 618.884 418.46C619.652 418.244 620.48 418.136 621.368 418.136C622.904 418.136 624.164 418.4 625.148 418.928C626.132 419.456 626.972 420.14 627.668 420.98L626.3 422.24C625.82 421.664 625.172 421.136 624.356 420.656C623.564 420.152 622.532 419.9 621.26 419.9C619.94 419.9 618.908 420.188 618.164 420.764C617.444 421.34 617.084 422.156 617.084 423.212C617.084 424.292 617.408 425.072 618.056 425.552C618.728 426.032 619.724 426.38 621.044 426.596L622.52 426.812C624.392 427.1 625.772 427.664 626.66 428.504C627.572 429.32 628.028 430.472 628.028 431.96C628.028 433.688 627.44 435.032 626.264 435.992C625.112 436.952 623.516 437.432 621.476 437.432ZM640 437.432C638.776 437.432 637.66 437.216 636.652 436.784C635.668 436.352 634.816 435.728 634.096 434.912C633.4 434.072 632.86 433.052 632.476 431.852C632.116 430.652 631.936 429.296 631.936 427.784C631.936 426.272 632.116 424.928 632.476 423.752C632.86 422.552 633.4 421.544 634.096 420.728C634.816 419.888 635.668 419.252 636.652 418.82C637.636 418.364 638.74 418.136 639.964 418.136C641.14 418.136 642.208 418.364 643.168 418.82C644.128 419.252 644.944 419.864 645.616 420.656C646.288 421.448 646.804 422.408 647.164 423.536C647.548 424.64 647.74 425.864 647.74 427.208V428.18H634.096V429.08C634.096 430.04 634.228 430.928 634.492 431.744C634.78 432.536 635.176 433.22 635.68 433.796C636.208 434.372 636.844 434.828 637.588 435.164C638.332 435.476 639.172 435.632 640.108 435.632C642.796 435.632 644.656 434.396 645.688 431.924L647.2 432.932C646.624 434.3 645.712 435.392 644.464 436.208C643.24 437.024 641.752 437.432 640 437.432ZM639.964 419.864C639.076 419.864 638.272 420.032 637.552 420.368C636.832 420.68 636.208 421.124 635.68 421.7C635.176 422.276 634.78 422.972 634.492 423.788C634.228 424.58 634.096 425.456 634.096 426.416V426.596H645.508V426.308C645.508 425.348 645.376 424.472 645.112 423.68C644.848 422.864 644.464 422.18 643.96 421.628C643.48 421.076 642.892 420.644 642.196 420.332C641.524 420.02 640.78 419.864 639.964 419.864ZM655.227 437C654.483 437 653.919 436.796 653.535 436.388C653.151 435.98 652.959 435.44 652.959 434.768V410.36H655.011V435.2H657.855V437H655.227ZM669.04 437.432C667.816 437.432 666.7 437.216 665.692 436.784C664.708 436.352 663.856 435.728 663.136 434.912C662.44 434.072 661.9 433.052 661.516 431.852C661.156 430.652 660.976 429.296 660.976 427.784C660.976 426.272 661.156 424.928 661.516 423.752C661.9 422.552 662.44 421.544 663.136 420.728C663.856 419.888 664.708 419.252 665.692 418.82C666.676 418.364 667.78 418.136 669.004 418.136C670.18 418.136 671.248 418.364 672.208 418.82C673.168 419.252 673.984 419.864 674.656 420.656C675.328 421.448 675.844 422.408 676.204 423.536C676.588 424.64 676.78 425.864 676.78 427.208V428.18H663.136V429.08C663.136 430.04 663.268 430.928 663.532 431.744C663.82 432.536 664.216 433.22 664.72 433.796C665.248 434.372 665.884 434.828 666.628 435.164C667.372 435.476 668.212 435.632 669.148 435.632C671.836 435.632 673.696 434.396 674.728 431.924L676.24 432.932C675.664 434.3 674.752 435.392 673.504 436.208C672.28 437.024 670.792 437.432 669.04 437.432ZM669.004 419.864C668.116 419.864 667.312 420.032 666.592 420.368C665.872 420.68 665.248 421.124 664.72 421.7C664.216 422.276 663.82 422.972 663.532 423.788C663.268 424.58 663.136 425.456 663.136 426.416V426.596H674.548V426.308C674.548 425.348 674.416 424.472 674.152 423.68C673.888 422.864 673.504 422.18 673 421.628C672.52 421.076 671.932 420.644 671.236 420.332C670.564 420.02 669.82 419.864 669.004 419.864ZM688.478 437.432C685.934 437.432 683.966 436.592 682.574 434.912C681.206 433.232 680.522 430.856 680.522 427.784C680.522 424.712 681.206 422.336 682.574 420.656C683.966 418.976 685.934 418.136 688.478 418.136C690.182 418.136 691.562 418.508 692.618 419.252C693.674 419.996 694.478 420.98 695.03 422.204L693.302 423.068C692.87 422.06 692.258 421.292 691.466 420.764C690.698 420.236 689.702 419.972 688.478 419.972C686.606 419.972 685.178 420.572 684.194 421.772C683.21 422.972 682.718 424.544 682.718 426.488V429.08C682.718 431.024 683.21 432.596 684.194 433.796C685.178 434.996 686.606 435.596 688.478 435.596C689.75 435.596 690.818 435.32 691.682 434.768C692.546 434.216 693.242 433.424 693.77 432.392L695.282 433.4C694.682 434.624 693.818 435.608 692.69 436.352C691.586 437.072 690.182 437.432 688.478 437.432ZM703.026 437C702.282 437 701.718 436.796 701.334 436.388C700.95 435.98 700.758 435.428 700.758 434.732V420.368H697.554V418.568H699.642C700.146 418.568 700.482 418.472 700.65 418.28C700.842 418.064 700.938 417.692 700.938 417.164V413.42H702.81V418.568H706.986V420.368H702.81V435.2H706.698V437H703.026ZM712.924 413.564C712.444 413.564 712.084 413.444 711.844 413.204C711.628 412.964 711.52 412.652 711.52 412.268V411.908C711.52 411.524 711.628 411.212 711.844 410.972C712.084 410.732 712.444 410.612 712.924 410.612C713.404 410.612 713.752 410.732 713.968 410.972C714.208 411.212 714.328 411.524 714.328 411.908V412.268C714.328 412.652 714.208 412.964 713.968 413.204C713.752 413.444 713.404 413.564 712.924 413.564ZM711.916 418.568H713.968V437H711.916V418.568ZM727.222 437.432C725.998 437.432 724.894 437.216 723.91 436.784C722.926 436.352 722.086 435.728 721.39 434.912C720.694 434.072 720.154 433.052 719.77 431.852C719.386 430.652 719.194 429.296 719.194 427.784C719.194 426.272 719.386 424.928 719.77 423.752C720.154 422.552 720.694 421.544 721.39 420.728C722.086 419.888 722.926 419.252 723.91 418.82C724.894 418.364 725.998 418.136 727.222 418.136C728.446 418.136 729.55 418.364 730.534 418.82C731.518 419.252 732.358 419.888 733.054 420.728C733.75 421.544 734.29 422.552 734.674 423.752C735.058 424.928 735.25 426.272 735.25 427.784C735.25 429.296 735.058 430.652 734.674 431.852C734.29 433.052 733.75 434.072 733.054 434.912C732.358 435.728 731.518 436.352 730.534 436.784C729.55 437.216 728.446 437.432 727.222 437.432ZM727.222 435.596C729.022 435.596 730.438 435.032 731.47 433.904C732.526 432.776 733.054 431.12 733.054 428.936V426.632C733.054 424.472 732.526 422.828 731.47 421.7C730.438 420.548 729.022 419.972 727.222 419.972C725.422 419.972 723.994 420.536 722.938 421.664C721.906 422.792 721.39 424.448 721.39 426.632V428.936C721.39 431.096 721.906 432.752 722.938 433.904C723.994 435.032 725.422 435.596 727.222 435.596ZM740.463 437V418.568H742.515V421.484H742.623C743.031 420.524 743.667 419.732 744.531 419.108C745.395 418.46 746.571 418.136 748.059 418.136C750.027 418.136 751.551 418.748 752.631 419.972C753.735 421.172 754.287 422.9 754.287 425.156V437H752.235V425.516C752.235 423.644 751.827 422.252 751.011 421.34C750.219 420.428 749.055 419.972 747.519 419.972C746.871 419.972 746.247 420.056 745.647 420.224C745.047 420.392 744.507 420.644 744.027 420.98C743.571 421.316 743.199 421.748 742.911 422.276C742.647 422.78 742.515 423.368 742.515 424.04V437H740.463ZM767.096 418.568H769.112L773.54 435.164H773.612L778.508 418.568H780.416L785.348 435.164H785.42L789.812 418.568H791.792L786.608 437H784.088L779.444 421.484H779.372L774.764 437H772.28L767.096 418.568ZM796.327 410.36H798.379V421.484H798.487C798.895 420.524 799.531 419.732 800.395 419.108C801.259 418.46 802.435 418.136 803.923 418.136C805.891 418.136 807.415 418.748 808.495 419.972C809.599 421.172 810.151 422.9 810.151 425.156V437H808.099V425.516C808.099 423.644 807.691 422.252 806.875 421.34C806.083 420.428 804.919 419.972 803.383 419.972C802.735 419.972 802.111 420.056 801.511 420.224C800.911 420.392 800.371 420.644 799.891 420.98C799.435 421.316 799.063 421.748 798.775 422.276C798.511 422.78 798.379 423.368 798.379 424.04V437H796.327V410.36ZM823.2 437.432C821.976 437.432 820.86 437.216 819.852 436.784C818.868 436.352 818.016 435.728 817.296 434.912C816.6 434.072 816.06 433.052 815.676 431.852C815.316 430.652 815.136 429.296 815.136 427.784C815.136 426.272 815.316 424.928 815.676 423.752C816.06 422.552 816.6 421.544 817.296 420.728C818.016 419.888 818.868 419.252 819.852 418.82C820.836 418.364 821.94 418.136 823.164 418.136C824.34 418.136 825.408 418.364 826.368 418.82C827.328 419.252 828.144 419.864 828.816 420.656C829.488 421.448 830.004 422.408 830.364 423.536C830.748 424.64 830.94 425.864 830.94 427.208V428.18H817.296V429.08C817.296 430.04 817.428 430.928 817.692 431.744C817.98 432.536 818.376 433.22 818.88 433.796C819.408 434.372 820.044 434.828 820.788 435.164C821.532 435.476 822.372 435.632 823.308 435.632C825.996 435.632 827.856 434.396 828.888 431.924L830.4 432.932C829.824 434.3 828.912 435.392 827.664 436.208C826.44 437.024 824.952 437.432 823.2 437.432ZM823.164 419.864C822.276 419.864 821.472 420.032 820.752 420.368C820.032 420.68 819.408 421.124 818.88 421.7C818.376 422.276 817.98 422.972 817.692 423.788C817.428 424.58 817.296 425.456 817.296 426.416V426.596H828.708V426.308C828.708 425.348 828.576 424.472 828.312 423.68C828.048 422.864 827.664 422.18 827.16 421.628C826.68 421.076 826.092 420.644 825.396 420.332C824.724 420.02 823.98 419.864 823.164 419.864ZM836.159 437V418.568H838.211V421.484H838.319C838.727 420.524 839.363 419.732 840.227 419.108C841.091 418.46 842.267 418.136 843.755 418.136C845.723 418.136 847.247 418.748 848.327 419.972C849.431 421.172 849.983 422.9 849.983 425.156V437H847.931V425.516C847.931 423.644 847.523 422.252 846.707 421.34C845.915 420.428 844.751 419.972 843.215 419.972C842.567 419.972 841.943 420.056 841.343 420.224C840.743 420.392 840.203 420.644 839.723 420.98C839.267 421.316 838.895 421.748 838.607 422.276C838.343 422.78 838.211 423.368 838.211 424.04V437H836.159ZM875.968 418.568H878.056L869.524 442.184C869.236 442.952 868.888 443.48 868.48 443.768C868.072 444.056 867.4 444.2 866.464 444.2H864.376V442.4H867.472L869.236 437.54L862.396 418.568H864.556L870.208 434.804H870.352L875.968 418.568ZM888.484 437.432C887.26 437.432 886.156 437.216 885.172 436.784C884.188 436.352 883.348 435.728 882.652 434.912C881.956 434.072 881.416 433.052 881.032 431.852C880.648 430.652 880.456 429.296 880.456 427.784C880.456 426.272 880.648 424.928 881.032 423.752C881.416 422.552 881.956 421.544 882.652 420.728C883.348 419.888 884.188 419.252 885.172 418.82C886.156 418.364 887.26 418.136 888.484 418.136C889.708 418.136 890.812 418.364 891.796 418.82C892.78 419.252 893.62 419.888 894.316 420.728C895.012 421.544 895.552 422.552 895.936 423.752C896.32 424.928 896.512 426.272 896.512 427.784C896.512 429.296 896.32 430.652 895.936 431.852C895.552 433.052 895.012 434.072 894.316 434.912C893.62 435.728 892.78 436.352 891.796 436.784C890.812 437.216 889.708 437.432 888.484 437.432ZM888.484 435.596C890.284 435.596 891.7 435.032 892.732 433.904C893.788 432.776 894.316 431.12 894.316 428.936V426.632C894.316 424.472 893.788 422.828 892.732 421.7C891.7 420.548 890.284 419.972 888.484 419.972C886.684 419.972 885.256 420.536 884.2 421.664C883.168 422.792 882.652 424.448 882.652 426.632V428.936C882.652 431.096 883.168 432.752 884.2 433.904C885.256 435.032 886.684 435.596 888.484 435.596ZM913.245 434.084H913.101C912.933 434.516 912.705 434.936 912.417 435.344C912.129 435.752 911.769 436.112 911.337 436.424C910.905 436.712 910.389 436.952 909.789 437.144C909.213 437.336 908.529 437.432 907.737 437.432C905.769 437.432 904.233 436.832 903.129 435.632C902.025 434.408 901.473 432.668 901.473 430.412V418.568H903.525V430.016C903.525 431.912 903.933 433.316 904.749 434.228C905.565 435.14 906.741 435.596 908.277 435.596C908.925 435.596 909.537 435.512 910.113 435.344C910.713 435.176 911.241 434.924 911.697 434.588C912.177 434.252 912.549 433.832 912.813 433.328C913.101 432.8 913.245 432.188 913.245 431.492V418.568H915.297V437H913.245V434.084ZM937.07 437.432C935.846 437.432 934.742 437.216 933.758 436.784C932.774 436.352 931.934 435.728 931.238 434.912C930.542 434.072 930.002 433.052 929.618 431.852C929.234 430.652 929.042 429.296 929.042 427.784C929.042 426.272 929.234 424.928 929.618 423.752C930.002 422.552 930.542 421.544 931.238 420.728C931.934 419.888 932.774 419.252 933.758 418.82C934.742 418.364 935.846 418.136 937.07 418.136C938.294 418.136 939.398 418.364 940.382 418.82C941.366 419.252 942.206 419.888 942.902 420.728C943.598 421.544 944.138 422.552 944.522 423.752C944.906 424.928 945.098 426.272 945.098 427.784C945.098 429.296 944.906 430.652 944.522 431.852C944.138 433.052 943.598 434.072 942.902 434.912C942.206 435.728 941.366 436.352 940.382 436.784C939.398 437.216 938.294 437.432 937.07 437.432ZM937.07 435.596C938.87 435.596 940.286 435.032 941.318 433.904C942.374 432.776 942.902 431.12 942.902 428.936V426.632C942.902 424.472 942.374 422.828 941.318 421.7C940.286 420.548 938.87 419.972 937.07 419.972C935.27 419.972 933.842 420.536 932.786 421.664C931.754 422.792 931.238 424.448 931.238 426.632V428.936C931.238 431.096 931.754 432.752 932.786 433.904C933.842 435.032 935.27 435.596 937.07 435.596ZM950.311 437V418.568H952.363V421.88H952.507C952.867 421.016 953.479 420.248 954.343 419.576C955.207 418.904 956.431 418.568 958.015 418.568H959.239V420.584H957.619C956.083 420.584 954.823 420.92 953.839 421.592C952.855 422.264 952.363 423.2 952.363 424.4V437H950.311ZM974.953 434.048H974.845C974.365 435.08 973.657 435.908 972.721 436.532C971.809 437.132 970.645 437.432 969.229 437.432C966.853 437.432 964.993 436.592 963.649 434.912C962.305 433.232 961.633 430.856 961.633 427.784C961.633 424.712 962.305 422.336 963.649 420.656C964.993 418.976 966.853 418.136 969.229 418.136C970.645 418.136 971.821 418.448 972.757 419.072C973.693 419.672 974.389 420.488 974.845 421.52H974.953V410.36H977.005V437H974.953V434.048ZM969.697 435.596C970.417 435.596 971.089 435.5 971.713 435.308C972.361 435.116 972.925 434.84 973.405 434.48C973.885 434.096 974.257 433.652 974.521 433.148C974.809 432.62 974.953 432.032 974.953 431.384V424.076C974.953 423.476 974.809 422.924 974.521 422.42C974.257 421.916 973.885 421.484 973.405 421.124C972.925 420.764 972.361 420.488 971.713 420.296C971.089 420.08 970.417 419.972 969.697 419.972C967.849 419.972 966.409 420.56 965.377 421.736C964.345 422.912 963.829 424.496 963.829 426.488V429.08C963.829 431.072 964.345 432.656 965.377 433.832C966.409 435.008 967.849 435.596 969.697 435.596ZM990.297 437.432C989.073 437.432 987.957 437.216 986.949 436.784C985.965 436.352 985.113 435.728 984.393 434.912C983.697 434.072 983.157 433.052 982.773 431.852C982.413 430.652 982.233 429.296 982.233 427.784C982.233 426.272 982.413 424.928 982.773 423.752C983.157 422.552 983.697 421.544 984.393 420.728C985.113 419.888 985.965 419.252 986.949 418.82C987.933 418.364 989.037 418.136 990.261 418.136C991.437 418.136 992.505 418.364 993.465 418.82C994.425 419.252 995.241 419.864 995.913 420.656C996.585 421.448 997.101 422.408 997.461 423.536C997.845 424.64 998.037 425.864 998.037 427.208V428.18H984.393V429.08C984.393 430.04 984.525 430.928 984.789 431.744C985.077 432.536 985.473 433.22 985.977 433.796C986.505 434.372 987.141 434.828 987.885 435.164C988.629 435.476 989.469 435.632 990.405 435.632C993.093 435.632 994.953 434.396 995.985 431.924L997.497 432.932C996.921 434.3 996.009 435.392 994.761 436.208C993.537 437.024 992.049 437.432 990.297 437.432ZM990.261 419.864C989.373 419.864 988.569 420.032 987.849 420.368C987.129 420.68 986.505 421.124 985.977 421.7C985.473 422.276 985.077 422.972 984.789 423.788C984.525 424.58 984.393 425.456 984.393 426.416V426.596H995.805V426.308C995.805 425.348 995.673 424.472 995.409 423.68C995.145 422.864 994.761 422.18 994.257 421.628C993.777 421.076 993.189 420.644 992.493 420.332C991.821 420.02 991.077 419.864 990.261 419.864ZM1003.26 437V418.568H1005.31V421.88H1005.45C1005.81 421.016 1006.42 420.248 1007.29 419.576C1008.15 418.904 1009.38 418.568 1010.96 418.568H1012.18V420.584H1010.56C1009.03 420.584 1007.77 420.92 1006.78 421.592C1005.8 422.264 1005.31 423.2 1005.31 424.4V437H1003.26ZM1031.18 437.432C1029.96 437.432 1028.86 437.216 1027.87 436.784C1026.89 436.352 1026.05 435.728 1025.35 434.912C1024.66 434.072 1024.12 433.052 1023.73 431.852C1023.35 430.652 1023.16 429.296 1023.16 427.784C1023.16 426.272 1023.35 424.928 1023.73 423.752C1024.12 422.552 1024.66 421.544 1025.35 420.728C1026.05 419.888 1026.89 419.252 1027.87 418.82C1028.86 418.364 1029.96 418.136 1031.18 418.136C1032.41 418.136 1033.51 418.364 1034.5 418.82C1035.48 419.252 1036.32 419.888 1037.02 420.728C1037.71 421.544 1038.25 422.552 1038.64 423.752C1039.02 424.928 1039.21 426.272 1039.21 427.784C1039.21 429.296 1039.02 430.652 1038.64 431.852C1038.25 433.052 1037.71 434.072 1037.02 434.912C1036.32 435.728 1035.48 436.352 1034.5 436.784C1033.51 437.216 1032.41 437.432 1031.18 437.432ZM1031.18 435.596C1032.98 435.596 1034.4 435.032 1035.43 433.904C1036.49 432.776 1037.02 431.12 1037.02 428.936V426.632C1037.02 424.472 1036.49 422.828 1035.43 421.7C1034.4 420.548 1032.98 419.972 1031.18 419.972C1029.38 419.972 1027.96 420.536 1026.9 421.664C1025.87 422.792 1025.35 424.448 1025.35 426.632V428.936C1025.35 431.096 1025.87 432.752 1026.9 433.904C1027.96 435.032 1029.38 435.596 1031.18 435.596ZM1044.42 437V418.568H1046.48V421.484H1046.58C1046.99 420.524 1047.63 419.732 1048.49 419.108C1049.36 418.46 1050.53 418.136 1052.02 418.136C1053.99 418.136 1055.51 418.748 1056.59 419.972C1057.7 421.172 1058.25 422.9 1058.25 425.156V437H1056.2V425.516C1056.2 423.644 1055.79 422.252 1054.97 421.34C1054.18 420.428 1053.02 419.972 1051.48 419.972C1050.83 419.972 1050.21 420.056 1049.61 420.224C1049.01 420.392 1048.47 420.644 1047.99 420.98C1047.53 421.316 1047.16 421.748 1046.87 422.276C1046.61 422.78 1046.48 423.368 1046.48 424.04V437H1044.42ZM1066.98 437C1066.23 437 1065.67 436.796 1065.29 436.388C1064.9 435.98 1064.71 435.44 1064.71 434.768V410.36H1066.76V435.2H1069.61V437H1066.98ZM1075.21 413.564C1074.73 413.564 1074.37 413.444 1074.13 413.204C1073.91 412.964 1073.81 412.652 1073.81 412.268V411.908C1073.81 411.524 1073.91 411.212 1074.13 410.972C1074.37 410.732 1074.73 410.612 1075.21 410.612C1075.69 410.612 1076.04 410.732 1076.25 410.972C1076.49 411.212 1076.61 411.524 1076.61 411.908V412.268C1076.61 412.652 1076.49 412.964 1076.25 413.204C1076.04 413.444 1075.69 413.564 1075.21 413.564ZM1074.2 418.568H1076.25V437H1074.2V418.568ZM1082.96 437V418.568H1085.01V421.484H1085.12C1085.52 420.524 1086.16 419.732 1087.02 419.108C1087.89 418.46 1089.06 418.136 1090.55 418.136C1092.52 418.136 1094.04 418.748 1095.12 419.972C1096.23 421.172 1096.78 422.9 1096.78 425.156V437H1094.73V425.516C1094.73 423.644 1094.32 422.252 1093.5 421.34C1092.71 420.428 1091.55 419.972 1090.01 419.972C1089.36 419.972 1088.74 420.056 1088.14 420.224C1087.54 420.392 1087 420.644 1086.52 420.98C1086.06 421.316 1085.69 421.748 1085.4 422.276C1085.14 422.78 1085.01 423.368 1085.01 424.04V437H1082.96ZM1109.83 437.432C1108.6 437.432 1107.49 437.216 1106.48 436.784C1105.5 436.352 1104.64 435.728 1103.92 434.912C1103.23 434.072 1102.69 433.052 1102.3 431.852C1101.94 430.652 1101.76 429.296 1101.76 427.784C1101.76 426.272 1101.94 424.928 1102.3 423.752C1102.69 422.552 1103.23 421.544 1103.92 420.728C1104.64 419.888 1105.5 419.252 1106.48 418.82C1107.46 418.364 1108.57 418.136 1109.79 418.136C1110.97 418.136 1112.04 418.364 1113 418.82C1113.96 419.252 1114.77 419.864 1115.44 420.656C1116.12 421.448 1116.63 422.408 1116.99 423.536C1117.38 424.64 1117.57 425.864 1117.57 427.208V428.18H1103.92V429.08C1103.92 430.04 1104.06 430.928 1104.32 431.744C1104.61 432.536 1105 433.22 1105.51 433.796C1106.04 434.372 1106.67 434.828 1107.42 435.164C1108.16 435.476 1109 435.632 1109.94 435.632C1112.62 435.632 1114.48 434.396 1115.52 431.924L1117.03 432.932C1116.45 434.3 1115.54 435.392 1114.29 436.208C1113.07 437.024 1111.58 437.432 1109.83 437.432ZM1109.79 419.864C1108.9 419.864 1108.1 420.032 1107.38 420.368C1106.66 420.68 1106.04 421.124 1105.51 421.7C1105 422.276 1104.61 422.972 1104.32 423.788C1104.06 424.58 1103.92 425.456 1103.92 426.416V426.596H1115.34V426.308C1115.34 425.348 1115.2 424.472 1114.94 423.68C1114.68 422.864 1114.29 422.18 1113.79 421.628C1113.31 421.076 1112.72 420.644 1112.02 420.332C1111.35 420.02 1110.61 419.864 1109.79 419.864ZM1123.8 430.484L1123.22 420.296V411.872H1125.45V420.296L1124.84 430.484H1123.8ZM1124.34 437.324C1123.74 437.324 1123.29 437.18 1123 436.892C1122.74 436.58 1122.61 436.184 1122.61 435.704V435.308C1122.61 434.828 1122.74 434.444 1123 434.156C1123.29 433.844 1123.74 433.688 1124.34 433.688C1124.91 433.688 1125.34 433.844 1125.63 434.156C1125.92 434.444 1126.06 434.828 1126.06 435.308V435.704C1126.06 436.184 1125.92 436.58 1125.63 436.892C1125.34 437.18 1124.91 437.324 1124.34 437.324Z" fill="white"/>
<path d="M1 262.5C53 192.5 214.4 78.3 444 181.5C673.6 284.7 1029 230.833 1178 191L1557 66" stroke="white" stroke-width="2"/>
<path d="M1.5 238.5C53.5 168.5 214.9 54.3 444.5 157.5C674.1 260.7 1029.5 206.833 1178.5 167L1557.5 42" stroke="white" stroke-width="2"/>
<path d="M1.5 282.5C53.5 212.5 214.9 98.3 444.5 201.5C674.1 304.7 1029.5 250.833 1178.5 211L1557.5 86" stroke="white" stroke-width="2"/>
</svg>
