<svg width="1559" height="472" viewBox="0 0 1559 472" fill="none" xmlns="http://www.w3.org/2000/svg">
<rect x="57" width="1440" height="472" fill="#DCC72C"/>
<path d="M77.85 53V18.1H94.35C95.9833 18.1 97.45 18.3833 98.75 18.95C100.05 19.4833 101.15 20.2333 102.05 21.2C102.983 22.1667 103.7 23.35 104.2 24.75C104.7 26.1167 104.95 27.6167 104.95 29.25C104.95 30.9167 104.7 32.4333 104.2 33.8C103.7 35.1667 102.983 36.3333 102.05 37.3C101.15 38.2667 100.05 39.0333 98.75 39.6C97.45 40.1333 95.9833 40.4 94.35 40.4H85.45V53H77.85ZM85.45 33.8H93.45C94.5833 33.8 95.4667 33.5167 96.1 32.95C96.7667 32.35 97.1 31.4833 97.1 30.35V28.15C97.1 27.0167 96.7667 26.1667 96.1 25.6C95.4667 25 94.5833 24.7 93.45 24.7H85.45V33.8ZM124.663 53.6C122.363 53.6 120.263 53.2167 118.363 52.45C116.463 51.6833 114.846 50.55 113.513 49.05C112.179 47.5167 111.146 45.6333 110.413 43.4C109.679 41.1333 109.313 38.5167 109.313 35.55C109.313 32.5833 109.679 29.9833 110.413 27.75C111.146 25.4833 112.179 23.6 113.513 22.1C114.846 20.5667 116.463 19.4167 118.363 18.65C120.263 17.8833 122.363 17.5 124.663 17.5C126.963 17.5 129.063 17.8833 130.963 18.65C132.863 19.4167 134.479 20.5667 135.813 22.1C137.146 23.6 138.179 25.4833 138.913 27.75C139.646 29.9833 140.013 32.5833 140.013 35.55C140.013 38.5167 139.646 41.1333 138.913 43.4C138.179 45.6333 137.146 47.5167 135.813 49.05C134.479 50.55 132.863 51.6833 130.963 52.45C129.063 53.2167 126.963 53.6 124.663 53.6ZM124.663 46.85C126.963 46.85 128.746 46.1 130.013 44.6C131.313 43.1 131.963 40.95 131.963 38.15V32.95C131.963 30.15 131.313 28 130.013 26.5C128.746 25 126.963 24.25 124.663 24.25C122.363 24.25 120.563 25 119.263 26.5C117.996 28 117.363 30.15 117.363 32.95V38.15C117.363 40.95 117.996 43.1 119.263 44.6C120.563 46.1 122.363 46.85 124.663 46.85ZM146.356 53V18.1H162.856C164.489 18.1 165.956 18.3833 167.256 18.95C168.556 19.4833 169.656 20.2333 170.556 21.2C171.489 22.1667 172.206 23.35 172.706 24.75C173.206 26.1167 173.456 27.6167 173.456 29.25C173.456 30.9167 173.206 32.4333 172.706 33.8C172.206 35.1667 171.489 36.3333 170.556 37.3C169.656 38.2667 168.556 39.0333 167.256 39.6C165.956 40.1333 164.489 40.4 162.856 40.4H153.956V53H146.356ZM153.956 33.8H161.956C163.089 33.8 163.973 33.5167 164.606 32.95C165.273 32.35 165.606 31.4833 165.606 30.35V28.15C165.606 27.0167 165.273 26.1667 164.606 25.6C163.973 25 163.089 24.7 161.956 24.7H153.956V33.8ZM186.368 18.1V39.5C186.368 41.9667 186.852 43.8167 187.818 45.05C188.785 46.25 190.402 46.85 192.668 46.85C194.935 46.85 196.552 46.25 197.518 45.05C198.485 43.8167 198.968 41.9667 198.968 39.5V18.1H206.368V38.7C206.368 41.2667 206.118 43.5 205.618 45.4C205.152 47.2667 204.368 48.8167 203.268 50.05C202.168 51.25 200.752 52.15 199.018 52.75C197.285 53.3167 195.168 53.6 192.668 53.6C190.168 53.6 188.052 53.3167 186.318 52.75C184.585 52.15 183.168 51.25 182.068 50.05C180.968 48.8167 180.168 47.2667 179.668 45.4C179.202 43.5 178.968 41.2667 178.968 38.7V18.1H186.368ZM213.885 53V18.1H221.485V46.25H234.785V53H213.885ZM262.729 53L260.229 44.7H248.579L246.079 53H238.379L249.879 18.1H259.279L270.629 53H262.729ZM254.479 25H254.229L250.379 38.25H258.379L254.479 25ZM283.057 53H275.457V18.1H292.007C293.607 18.1 295.057 18.3667 296.357 18.9C297.657 19.4333 298.757 20.2 299.657 21.2C300.591 22.1667 301.307 23.3333 301.807 24.7C302.307 26.0667 302.557 27.5833 302.557 29.25C302.557 31.6167 302.024 33.6833 300.957 35.45C299.924 37.2167 298.341 38.5 296.207 39.3L303.057 53H294.607L288.507 40.2H283.057V53ZM291.057 33.8C292.191 33.8 293.074 33.5167 293.707 32.95C294.374 32.35 294.707 31.4833 294.707 30.35V28.15C294.707 27.0167 294.374 26.1667 293.707 25.6C293.074 25 292.191 24.7 291.057 24.7H283.057V33.8H291.057ZM319.615 53V46.95H324.115V24.15H319.615V18.1H336.215V24.15H331.715V46.95H336.215V53H319.615ZM356.902 24.85V53H349.302V24.85H339.852V18.1H366.352V24.85H356.902ZM371.551 53V18.1H395.301V24.85H379.151V32H393.001V38.7H379.151V46.25H395.301V53H371.551ZM428.022 30.1H427.872L425.322 35.2L418.522 47.55L411.872 35.25L409.222 29.75H409.072V53H401.922V18.1H409.972L418.522 34.45H418.622L427.072 18.1H435.172V53H428.022V30.1ZM454.189 53.6C451.122 53.6 448.522 53.0833 446.389 52.05C444.256 50.9833 442.439 49.6167 440.939 47.95L445.939 42.9C448.306 45.5667 451.222 46.9 454.689 46.9C456.556 46.9 457.939 46.5167 458.839 45.75C459.739 44.9833 460.189 43.9667 460.189 42.7C460.189 41.7333 459.922 40.9333 459.389 40.3C458.856 39.6333 457.772 39.1833 456.139 38.95L452.689 38.5C448.989 38.0333 446.272 36.9167 444.539 35.15C442.839 33.3833 441.989 31.0333 441.989 28.1C441.989 26.5333 442.289 25.1 442.889 23.8C443.489 22.5 444.339 21.3833 445.439 20.45C446.572 19.5167 447.939 18.8 449.539 18.3C451.172 17.7667 453.022 17.5 455.089 17.5C457.722 17.5 460.039 17.9167 462.039 18.75C464.039 19.5833 465.756 20.8 467.189 22.4L462.139 27.5C461.306 26.5333 460.289 25.75 459.089 25.15C457.922 24.5167 456.439 24.2 454.639 24.2C452.939 24.2 451.672 24.5 450.839 25.1C450.006 25.7 449.589 26.5333 449.589 27.6C449.589 28.8 449.906 29.6667 450.539 30.2C451.206 30.7333 452.272 31.1167 453.739 31.35L457.189 31.9C460.789 32.4667 463.456 33.5833 465.189 35.25C466.922 36.8833 467.789 39.2167 467.789 42.25C467.789 43.9167 467.489 45.45 466.889 46.85C466.289 48.25 465.406 49.45 464.239 50.45C463.106 51.45 461.689 52.2333 459.989 52.8C458.289 53.3333 456.356 53.6 454.189 53.6Z" fill="white"/>
<path d="M190.891 137.12L188.479 132.08H188.371V149H183.223V123.872H189.199L196.075 135.752L198.487 140.792H198.595V123.872H203.743V149H197.767L190.891 137.12ZM216.87 149.432C215.43 149.432 214.146 149.204 213.018 148.748C211.89 148.268 210.93 147.608 210.138 146.768C209.37 145.904 208.782 144.86 208.374 143.636C207.99 142.412 207.798 141.044 207.798 139.532C207.798 138.044 207.99 136.7 208.374 135.5C208.758 134.276 209.322 133.232 210.066 132.368C210.834 131.504 211.77 130.844 212.874 130.388C213.978 129.908 215.238 129.668 216.654 129.668C218.214 129.668 219.546 129.932 220.65 130.46C221.778 130.988 222.69 131.696 223.386 132.584C224.106 133.472 224.622 134.504 224.934 135.68C225.27 136.832 225.438 138.044 225.438 139.316V140.9H213.306V141.188C213.306 142.436 213.642 143.432 214.314 144.176C214.986 144.896 216.042 145.256 217.482 145.256C218.586 145.256 219.486 145.04 220.182 144.608C220.878 144.152 221.526 143.612 222.126 142.988L224.79 146.3C223.95 147.284 222.846 148.052 221.478 148.604C220.134 149.156 218.598 149.432 216.87 149.432ZM216.762 133.592C215.682 133.592 214.83 133.952 214.206 134.672C213.606 135.368 213.306 136.304 213.306 137.48V137.768H219.93V137.444C219.93 136.292 219.666 135.368 219.138 134.672C218.634 133.952 217.842 133.592 216.762 133.592ZM229.201 149V130.1H234.529V133.304H234.745C235.081 132.32 235.669 131.468 236.509 130.748C237.349 130.028 238.513 129.668 240.001 129.668C241.945 129.668 243.409 130.316 244.393 131.612C245.401 132.908 245.905 134.756 245.905 137.156V149H240.577V137.588C240.577 136.364 240.385 135.464 240.001 134.888C239.617 134.288 238.933 133.988 237.949 133.988C237.517 133.988 237.097 134.048 236.689 134.168C236.281 134.264 235.909 134.432 235.573 134.672C235.261 134.912 235.009 135.212 234.817 135.572C234.625 135.908 234.529 136.304 234.529 136.76V149H229.201ZM258.53 149.432C257.09 149.432 255.806 149.204 254.678 148.748C253.55 148.268 252.59 147.608 251.798 146.768C251.03 145.904 250.442 144.86 250.034 143.636C249.65 142.412 249.458 141.044 249.458 139.532C249.458 138.044 249.65 136.7 250.034 135.5C250.418 134.276 250.982 133.232 251.726 132.368C252.494 131.504 253.43 130.844 254.534 130.388C255.638 129.908 256.898 129.668 258.314 129.668C259.874 129.668 261.206 129.932 262.31 130.46C263.438 130.988 264.35 131.696 265.046 132.584C265.766 133.472 266.282 134.504 266.594 135.68C266.93 136.832 267.098 138.044 267.098 139.316V140.9H254.966V141.188C254.966 142.436 255.302 143.432 255.974 144.176C256.646 144.896 257.702 145.256 259.142 145.256C260.246 145.256 261.146 145.04 261.842 144.608C262.538 144.152 263.186 143.612 263.786 142.988L266.45 146.3C265.61 147.284 264.506 148.052 263.138 148.604C261.794 149.156 260.258 149.432 258.53 149.432ZM258.422 133.592C257.342 133.592 256.49 133.952 255.866 134.672C255.266 135.368 254.966 136.304 254.966 137.48V137.768H261.59V137.444C261.59 136.292 261.326 135.368 260.798 134.672C260.294 133.952 259.502 133.592 258.422 133.592ZM272.583 122C273.663 122 274.443 122.252 274.923 122.756C275.427 123.236 275.679 123.848 275.679 124.592V125.348C275.679 126.044 275.571 126.752 275.355 127.472C275.163 128.168 274.887 128.84 274.527 129.488C274.191 130.136 273.783 130.748 273.303 131.324C272.823 131.876 272.307 132.368 271.755 132.8H268.407C269.199 132.08 269.871 131.348 270.423 130.604C270.999 129.86 271.431 129.032 271.719 128.12C270.951 127.976 270.387 127.664 270.027 127.184C269.667 126.68 269.487 126.116 269.487 125.492V124.592C269.487 123.848 269.727 123.236 270.207 122.756C270.711 122.252 271.503 122 272.583 122ZM277.885 130.1H283.033L284.869 137.732L286.165 143.492H286.309L287.821 137.732L289.981 130.1H294.841L297.037 137.732L298.585 143.492H298.729L300.025 137.732L301.861 130.1H306.793L301.573 149H295.993L293.689 141.008L292.357 136.112H292.249L290.953 141.008L288.649 149H283.177L277.885 130.1ZM317.487 149.432C316.047 149.432 314.763 149.204 313.635 148.748C312.507 148.268 311.547 147.608 310.755 146.768C309.987 145.904 309.399 144.86 308.991 143.636C308.607 142.412 308.415 141.044 308.415 139.532C308.415 138.044 308.607 136.7 308.991 135.5C309.375 134.276 309.939 133.232 310.683 132.368C311.451 131.504 312.387 130.844 313.491 130.388C314.595 129.908 315.855 129.668 317.271 129.668C318.831 129.668 320.163 129.932 321.267 130.46C322.395 130.988 323.307 131.696 324.003 132.584C324.723 133.472 325.239 134.504 325.551 135.68C325.887 136.832 326.055 138.044 326.055 139.316V140.9H313.923V141.188C313.923 142.436 314.259 143.432 314.931 144.176C315.603 144.896 316.659 145.256 318.099 145.256C319.203 145.256 320.103 145.04 320.799 144.608C321.495 144.152 322.143 143.612 322.743 142.988L325.407 146.3C324.567 147.284 323.463 148.052 322.095 148.604C320.751 149.156 319.215 149.432 317.487 149.432ZM317.379 133.592C316.299 133.592 315.447 133.952 314.823 134.672C314.223 135.368 313.923 136.304 313.923 137.48V137.768H320.547V137.444C320.547 136.292 320.283 135.368 319.755 134.672C319.251 133.952 318.459 133.592 317.379 133.592ZM337.702 149.432C336.262 149.432 334.978 149.204 333.85 148.748C332.722 148.268 331.762 147.608 330.97 146.768C330.202 145.904 329.614 144.86 329.206 143.636C328.822 142.412 328.63 141.044 328.63 139.532C328.63 138.044 328.822 136.7 329.206 135.5C329.59 134.276 330.154 133.232 330.898 132.368C331.666 131.504 332.602 130.844 333.706 130.388C334.81 129.908 336.07 129.668 337.486 129.668C339.046 129.668 340.378 129.932 341.482 130.46C342.61 130.988 343.522 131.696 344.218 132.584C344.938 133.472 345.454 134.504 345.766 135.68C346.102 136.832 346.27 138.044 346.27 139.316V140.9H334.138V141.188C334.138 142.436 334.474 143.432 335.146 144.176C335.818 144.896 336.874 145.256 338.314 145.256C339.418 145.256 340.318 145.04 341.014 144.608C341.71 144.152 342.358 143.612 342.958 142.988L345.622 146.3C344.782 147.284 343.678 148.052 342.31 148.604C340.966 149.156 339.43 149.432 337.702 149.432ZM337.594 133.592C336.514 133.592 335.662 133.952 335.038 134.672C334.438 135.368 334.138 136.304 334.138 137.48V137.768H340.762V137.444C340.762 136.292 340.498 135.368 339.97 134.672C339.466 133.952 338.674 133.592 337.594 133.592Z" fill="white"/>
<path d="M581.838 149L573.738 123.872H579.282L583.026 135.932L585.006 143.816H585.114L587.022 135.932L590.766 123.872H596.13L587.958 149H581.838ZM605.751 149.432C604.311 149.432 603.027 149.204 601.899 148.748C600.771 148.268 599.811 147.608 599.019 146.768C598.251 145.904 597.663 144.86 597.255 143.636C596.871 142.412 596.679 141.044 596.679 139.532C596.679 138.044 596.871 136.7 597.255 135.5C597.639 134.276 598.203 133.232 598.947 132.368C599.715 131.504 600.651 130.844 601.755 130.388C602.859 129.908 604.119 129.668 605.535 129.668C607.095 129.668 608.427 129.932 609.531 130.46C610.659 130.988 611.571 131.696 612.267 132.584C612.987 133.472 613.503 134.504 613.815 135.68C614.151 136.832 614.319 138.044 614.319 139.316V140.9H602.187V141.188C602.187 142.436 602.523 143.432 603.195 144.176C603.867 144.896 604.923 145.256 606.363 145.256C607.467 145.256 608.367 145.04 609.063 144.608C609.759 144.152 610.407 143.612 611.007 142.988L613.671 146.3C612.831 147.284 611.727 148.052 610.359 148.604C609.015 149.156 607.479 149.432 605.751 149.432ZM605.643 133.592C604.563 133.592 603.711 133.952 603.087 134.672C602.487 135.368 602.187 136.304 602.187 137.48V137.768H608.811V137.444C608.811 136.292 608.547 135.368 608.019 134.672C607.515 133.952 606.723 133.592 605.643 133.592ZM635.578 150.368C635.578 151.376 635.398 152.264 635.038 153.032C634.702 153.8 634.138 154.448 633.346 154.976C632.554 155.528 631.498 155.936 630.178 156.2C628.882 156.488 627.274 156.632 625.354 156.632C623.722 156.632 622.33 156.524 621.178 156.308C620.05 156.116 619.126 155.828 618.406 155.444C617.71 155.084 617.194 154.628 616.858 154.076C616.546 153.548 616.39 152.936 616.39 152.24C616.39 151.184 616.702 150.356 617.326 149.756C617.95 149.156 618.814 148.784 619.918 148.64V148.244C619.006 148.076 618.322 147.692 617.866 147.092C617.41 146.468 617.182 145.748 617.182 144.932C617.182 144.428 617.278 143.996 617.47 143.636C617.686 143.252 617.95 142.928 618.262 142.664C618.598 142.376 618.982 142.148 619.414 141.98C619.846 141.812 620.278 141.68 620.71 141.584V141.44C619.558 140.912 618.706 140.192 618.154 139.28C617.602 138.344 617.326 137.264 617.326 136.04C617.326 134.12 617.986 132.584 619.306 131.432C620.65 130.256 622.69 129.668 625.426 129.668C626.674 129.668 627.742 129.788 628.63 130.028V129.308C628.63 128.3 628.87 127.58 629.35 127.148C629.854 126.692 630.562 126.464 631.474 126.464H634.462V130.424H630.286V130.64C631.39 131.168 632.206 131.9 632.734 132.836C633.262 133.748 633.526 134.816 633.526 136.04C633.526 137.936 632.854 139.46 631.51 140.612C630.19 141.74 628.162 142.304 625.426 142.304C624.202 142.304 623.086 142.172 622.078 141.908C621.526 142.268 621.25 142.772 621.25 143.42C621.25 143.876 621.418 144.236 621.754 144.5C622.114 144.74 622.702 144.86 623.518 144.86H628.99C631.294 144.86 632.962 145.34 633.994 146.3C635.05 147.26 635.578 148.616 635.578 150.368ZM630.574 151.088C630.574 150.536 630.358 150.116 629.926 149.828C629.494 149.54 628.738 149.396 627.658 149.396H621.178C620.938 149.636 620.758 149.9 620.638 150.188C620.542 150.5 620.494 150.8 620.494 151.088C620.494 151.784 620.794 152.288 621.394 152.6C621.994 152.936 623.014 153.104 624.454 153.104H626.614C628.054 153.104 629.074 152.936 629.674 152.6C630.274 152.288 630.574 151.784 630.574 151.088ZM625.426 138.812C626.482 138.812 627.262 138.596 627.766 138.164C628.294 137.708 628.558 137.06 628.558 136.22V135.788C628.558 134.948 628.294 134.312 627.766 133.88C627.262 133.424 626.482 133.196 625.426 133.196C624.37 133.196 623.578 133.424 623.05 133.88C622.546 134.312 622.294 134.948 622.294 135.788V136.22C622.294 137.06 622.546 137.708 623.05 138.164C623.578 138.596 624.37 138.812 625.426 138.812ZM645.618 149.432C644.178 149.432 642.894 149.204 641.766 148.748C640.638 148.268 639.678 147.608 638.886 146.768C638.118 145.904 637.53 144.86 637.122 143.636C636.738 142.412 636.546 141.044 636.546 139.532C636.546 138.044 636.738 136.7 637.122 135.5C637.506 134.276 638.07 133.232 638.814 132.368C639.582 131.504 640.518 130.844 641.622 130.388C642.726 129.908 643.986 129.668 645.402 129.668C646.962 129.668 648.294 129.932 649.398 130.46C650.526 130.988 651.438 131.696 652.134 132.584C652.854 133.472 653.37 134.504 653.682 135.68C654.018 136.832 654.186 138.044 654.186 139.316V140.9H642.054V141.188C642.054 142.436 642.39 143.432 643.062 144.176C643.734 144.896 644.79 145.256 646.23 145.256C647.334 145.256 648.234 145.04 648.93 144.608C649.626 144.152 650.274 143.612 650.874 142.988L653.538 146.3C652.698 147.284 651.594 148.052 650.226 148.604C648.882 149.156 647.346 149.432 645.618 149.432ZM645.51 133.592C644.43 133.592 643.578 133.952 642.954 134.672C642.354 135.368 642.054 136.304 642.054 137.48V137.768H648.678V137.444C648.678 136.292 648.414 135.368 647.886 134.672C647.382 133.952 646.59 133.592 645.51 133.592ZM664.573 149C662.725 149 661.321 148.532 660.361 147.596C659.425 146.66 658.957 145.292 658.957 143.492V134.24H656.293V130.1H657.625C658.345 130.1 658.837 129.932 659.101 129.596C659.365 129.236 659.497 128.732 659.497 128.084V124.988H664.285V130.1H668.029V134.24H664.285V144.86H667.741V149H664.573ZM685.698 149C684.738 149 683.934 148.7 683.286 148.1C682.662 147.5 682.266 146.696 682.098 145.688H681.882C681.594 146.912 680.958 147.848 679.974 148.496C678.99 149.12 677.778 149.432 676.338 149.432C674.442 149.432 672.99 148.928 671.982 147.92C670.974 146.912 670.47 145.58 670.47 143.924C670.47 141.932 671.19 140.456 672.63 139.496C674.094 138.512 676.074 138.02 678.57 138.02H681.558V136.832C681.558 135.92 681.318 135.2 680.838 134.672C680.358 134.12 679.554 133.844 678.426 133.844C677.37 133.844 676.53 134.072 675.906 134.528C675.282 134.984 674.766 135.5 674.358 136.076L671.19 133.268C671.958 132.14 672.918 131.264 674.07 130.64C675.246 129.992 676.83 129.668 678.822 129.668C681.51 129.668 683.526 130.256 684.87 131.432C686.214 132.608 686.886 134.324 686.886 136.58V144.86H688.65V149H685.698ZM678.318 145.724C679.206 145.724 679.962 145.532 680.586 145.148C681.234 144.764 681.558 144.14 681.558 143.276V141.044H678.966C676.878 141.044 675.834 141.752 675.834 143.168V143.708C675.834 144.404 676.05 144.92 676.482 145.256C676.914 145.568 677.526 145.724 678.318 145.724ZM692.226 149V130.1H697.554V134.204H697.734C697.83 133.676 697.998 133.172 698.238 132.692C698.478 132.188 698.79 131.744 699.174 131.36C699.582 130.976 700.062 130.676 700.614 130.46C701.166 130.22 701.814 130.1 702.558 130.1H703.494V135.068H702.162C700.602 135.068 699.438 135.272 698.67 135.68C697.926 136.088 697.554 136.844 697.554 137.948V149H692.226ZM709.445 128.084C708.365 128.084 707.573 127.844 707.069 127.364C706.589 126.86 706.349 126.224 706.349 125.456V124.664C706.349 123.896 706.589 123.272 707.069 122.792C707.573 122.288 708.365 122.036 709.445 122.036C710.525 122.036 711.305 122.288 711.785 122.792C712.289 123.272 712.541 123.896 712.541 124.664V125.456C712.541 126.224 712.289 126.86 711.785 127.364C711.305 127.844 710.525 128.084 709.445 128.084ZM706.781 130.1H712.109V149H706.781V130.1ZM731.05 149C730.09 149 729.286 148.7 728.638 148.1C728.014 147.5 727.618 146.696 727.45 145.688H727.234C726.946 146.912 726.31 147.848 725.326 148.496C724.342 149.12 723.13 149.432 721.69 149.432C719.794 149.432 718.342 148.928 717.334 147.92C716.326 146.912 715.822 145.58 715.822 143.924C715.822 141.932 716.542 140.456 717.982 139.496C719.446 138.512 721.426 138.02 723.922 138.02H726.91V136.832C726.91 135.92 726.67 135.2 726.19 134.672C725.71 134.12 724.906 133.844 723.778 133.844C722.722 133.844 721.882 134.072 721.258 134.528C720.634 134.984 720.118 135.5 719.71 136.076L716.542 133.268C717.31 132.14 718.27 131.264 719.422 130.64C720.598 129.992 722.182 129.668 724.174 129.668C726.862 129.668 728.878 130.256 730.222 131.432C731.566 132.608 732.238 134.324 732.238 136.58V144.86H734.002V149H731.05ZM723.67 145.724C724.558 145.724 725.314 145.532 725.938 145.148C726.586 144.764 726.91 144.14 726.91 143.276V141.044H724.318C722.23 141.044 721.186 141.752 721.186 143.168V143.708C721.186 144.404 721.402 144.92 721.834 145.256C722.266 145.568 722.878 145.724 723.67 145.724ZM737.578 149V130.1H742.906V133.304H743.122C743.458 132.32 744.046 131.468 744.886 130.748C745.726 130.028 746.89 129.668 748.378 129.668C750.322 129.668 751.786 130.316 752.77 131.612C753.778 132.908 754.282 134.756 754.282 137.156V149H748.954V137.588C748.954 136.364 748.762 135.464 748.378 134.888C747.994 134.288 747.31 133.988 746.326 133.988C745.894 133.988 745.474 134.048 745.066 134.168C744.658 134.264 744.286 134.432 743.95 134.672C743.638 134.912 743.386 135.212 743.194 135.572C743.002 135.908 742.906 136.304 742.906 136.76V149H737.578ZM777.971 149.432C776.267 149.432 774.731 149.168 773.363 148.64C771.995 148.088 770.831 147.284 769.871 146.228C768.911 145.148 768.167 143.816 767.639 142.232C767.111 140.624 766.847 138.752 766.847 136.616C766.847 134.504 767.111 132.632 767.639 131C768.167 129.344 768.911 127.964 769.871 126.86C770.831 125.732 771.995 124.88 773.363 124.304C774.731 123.728 776.267 123.44 777.971 123.44C780.299 123.44 782.219 123.92 783.731 124.88C785.243 125.816 786.455 127.304 787.367 129.344L782.651 131.792C782.315 130.736 781.787 129.896 781.067 129.272C780.371 128.624 779.339 128.3 777.971 128.3C776.363 128.3 775.067 128.828 774.083 129.884C773.123 130.916 772.643 132.428 772.643 134.42V138.452C772.643 140.444 773.123 141.968 774.083 143.024C775.067 144.056 776.363 144.572 777.971 144.572C779.315 144.572 780.383 144.212 781.175 143.492C781.991 142.748 782.591 141.86 782.975 140.828L787.439 143.42C786.503 145.34 785.267 146.828 783.731 147.884C782.219 148.916 780.299 149.432 777.971 149.432ZM798.648 149.432C797.256 149.432 796.008 149.204 794.904 148.748C793.824 148.292 792.9 147.632 792.132 146.768C791.388 145.904 790.812 144.86 790.404 143.636C789.996 142.412 789.792 141.044 789.792 139.532C789.792 138.02 789.996 136.652 790.404 135.428C790.812 134.204 791.388 133.172 792.132 132.332C792.9 131.468 793.824 130.808 794.904 130.352C796.008 129.896 797.256 129.668 798.648 129.668C800.04 129.668 801.276 129.896 802.356 130.352C803.46 130.808 804.384 131.468 805.128 132.332C805.896 133.172 806.484 134.204 806.892 135.428C807.3 136.652 807.504 138.02 807.504 139.532C807.504 141.044 807.3 142.412 806.892 143.636C806.484 144.86 805.896 145.904 805.128 146.768C804.384 147.632 803.46 148.292 802.356 148.748C801.276 149.204 800.04 149.432 798.648 149.432ZM798.648 145.22C799.704 145.22 800.52 144.896 801.096 144.248C801.672 143.6 801.96 142.676 801.96 141.476V137.624C801.96 136.424 801.672 135.5 801.096 134.852C800.52 134.204 799.704 133.88 798.648 133.88C797.592 133.88 796.776 134.204 796.2 134.852C795.624 135.5 795.336 136.424 795.336 137.624V141.476C795.336 142.676 795.624 143.6 796.2 144.248C796.776 144.896 797.592 145.22 798.648 145.22ZM811.3 149V130.1H816.628V133.304H816.844C817.18 132.296 817.756 131.444 818.572 130.748C819.388 130.028 820.504 129.668 821.92 129.668C823.216 129.668 824.32 129.992 825.232 130.64C826.144 131.288 826.804 132.236 827.212 133.484H827.32C827.488 132.956 827.74 132.464 828.076 132.008C828.436 131.528 828.868 131.12 829.372 130.784C829.876 130.448 830.44 130.184 831.064 129.992C831.688 129.776 832.36 129.668 833.08 129.668C834.904 129.668 836.296 130.316 837.256 131.612C838.24 132.908 838.732 134.756 838.732 137.156V149H833.404V137.588C833.404 135.188 832.54 133.988 830.812 133.988C830.02 133.988 829.3 134.216 828.652 134.672C828.004 135.128 827.68 135.824 827.68 136.76V149H822.352V137.588C822.352 135.188 821.488 133.988 819.76 133.988C819.376 133.988 818.992 134.048 818.608 134.168C818.248 134.264 817.912 134.432 817.6 134.672C817.312 134.912 817.072 135.212 816.88 135.572C816.712 135.908 816.628 136.304 816.628 136.76V149H811.3ZM843.468 122.36H848.796V133.268H848.976C849.24 132.212 849.84 131.348 850.776 130.676C851.736 130.004 852.828 129.668 854.052 129.668C856.452 129.668 858.264 130.508 859.488 132.188C860.712 133.868 861.324 136.316 861.324 139.532C861.324 142.748 860.712 145.208 859.488 146.912C858.264 148.592 856.452 149.432 854.052 149.432C853.428 149.432 852.84 149.336 852.288 149.144C851.736 148.976 851.232 148.736 850.776 148.424C850.344 148.088 849.972 147.704 849.66 147.272C849.348 146.816 849.12 146.336 848.976 145.832H848.796V149H843.468V122.36ZM852.288 145.112C853.296 145.112 854.124 144.764 854.772 144.068C855.444 143.348 855.78 142.388 855.78 141.188V137.912C855.78 136.712 855.444 135.764 854.772 135.068C854.124 134.348 853.296 133.988 852.288 133.988C851.28 133.988 850.44 134.24 849.768 134.744C849.12 135.224 848.796 135.896 848.796 136.76V142.34C848.796 143.204 849.12 143.888 849.768 144.392C850.44 144.872 851.28 145.112 852.288 145.112ZM868.035 128.084C866.955 128.084 866.163 127.844 865.659 127.364C865.179 126.86 864.939 126.224 864.939 125.456V124.664C864.939 123.896 865.179 123.272 865.659 122.792C866.163 122.288 866.955 122.036 868.035 122.036C869.115 122.036 869.895 122.288 870.375 122.792C870.879 123.272 871.131 123.896 871.131 124.664V125.456C871.131 126.224 870.879 126.86 870.375 127.364C869.895 127.844 869.115 128.084 868.035 128.084ZM865.371 130.1H870.699V149H865.371V130.1ZM875.672 149V130.1H881V133.304H881.216C881.552 132.32 882.14 131.468 882.98 130.748C883.82 130.028 884.984 129.668 886.472 129.668C888.416 129.668 889.88 130.316 890.864 131.612C891.872 132.908 892.376 134.756 892.376 137.156V149H887.048V137.588C887.048 136.364 886.856 135.464 886.472 134.888C886.088 134.288 885.404 133.988 884.42 133.988C883.988 133.988 883.568 134.048 883.16 134.168C882.752 134.264 882.38 134.432 882.044 134.672C881.732 134.912 881.48 135.212 881.288 135.572C881.096 135.908 881 136.304 881 136.76V149H875.672ZM911.085 149C910.125 149 909.321 148.7 908.673 148.1C908.049 147.5 907.653 146.696 907.485 145.688H907.269C906.981 146.912 906.345 147.848 905.361 148.496C904.377 149.12 903.165 149.432 901.725 149.432C899.829 149.432 898.377 148.928 897.369 147.92C896.361 146.912 895.857 145.58 895.857 143.924C895.857 141.932 896.577 140.456 898.017 139.496C899.481 138.512 901.461 138.02 903.957 138.02H906.945V136.832C906.945 135.92 906.705 135.2 906.225 134.672C905.745 134.12 904.941 133.844 903.813 133.844C902.757 133.844 901.917 134.072 901.293 134.528C900.669 134.984 900.153 135.5 899.745 136.076L896.577 133.268C897.345 132.14 898.305 131.264 899.457 130.64C900.633 129.992 902.217 129.668 904.209 129.668C906.897 129.668 908.913 130.256 910.257 131.432C911.601 132.608 912.273 134.324 912.273 136.58V144.86H914.037V149H911.085ZM903.705 145.724C904.593 145.724 905.349 145.532 905.973 145.148C906.621 144.764 906.945 144.14 906.945 143.276V141.044H904.353C902.265 141.044 901.221 141.752 901.221 143.168V143.708C901.221 144.404 901.437 144.92 901.869 145.256C902.301 145.568 902.913 145.724 903.705 145.724ZM924.026 149C922.178 149 920.774 148.532 919.814 147.596C918.878 146.66 918.41 145.292 918.41 143.492V134.24H915.746V130.1H917.078C917.798 130.1 918.29 129.932 918.554 129.596C918.818 129.236 918.95 128.732 918.95 128.084V124.988H923.738V130.1H927.482V134.24H923.738V144.86H927.194V149H924.026ZM933.847 128.084C932.767 128.084 931.975 127.844 931.471 127.364C930.991 126.86 930.751 126.224 930.751 125.456V124.664C930.751 123.896 930.991 123.272 931.471 122.792C931.975 122.288 932.767 122.036 933.847 122.036C934.927 122.036 935.707 122.288 936.187 122.792C936.691 123.272 936.943 123.896 936.943 124.664V125.456C936.943 126.224 936.691 126.86 936.187 127.364C935.707 127.844 934.927 128.084 933.847 128.084ZM931.183 130.1H936.511V149H931.183V130.1ZM949.152 149.432C947.76 149.432 946.512 149.204 945.408 148.748C944.328 148.292 943.404 147.632 942.636 146.768C941.892 145.904 941.316 144.86 940.908 143.636C940.5 142.412 940.296 141.044 940.296 139.532C940.296 138.02 940.5 136.652 940.908 135.428C941.316 134.204 941.892 133.172 942.636 132.332C943.404 131.468 944.328 130.808 945.408 130.352C946.512 129.896 947.76 129.668 949.152 129.668C950.544 129.668 951.78 129.896 952.86 130.352C953.964 130.808 954.888 131.468 955.632 132.332C956.4 133.172 956.988 134.204 957.396 135.428C957.804 136.652 958.008 138.02 958.008 139.532C958.008 141.044 957.804 142.412 957.396 143.636C956.988 144.86 956.4 145.904 955.632 146.768C954.888 147.632 953.964 148.292 952.86 148.748C951.78 149.204 950.544 149.432 949.152 149.432ZM949.152 145.22C950.208 145.22 951.024 144.896 951.6 144.248C952.176 143.6 952.464 142.676 952.464 141.476V137.624C952.464 136.424 952.176 135.5 951.6 134.852C951.024 134.204 950.208 133.88 949.152 133.88C948.096 133.88 947.28 134.204 946.704 134.852C946.128 135.5 945.84 136.424 945.84 137.624V141.476C945.84 142.676 946.128 143.6 946.704 144.248C947.28 144.896 948.096 145.22 949.152 145.22ZM961.804 149V130.1H967.132V133.304H967.348C967.684 132.32 968.272 131.468 969.112 130.748C969.952 130.028 971.116 129.668 972.604 129.668C974.548 129.668 976.012 130.316 976.996 131.612C978.004 132.908 978.508 134.756 978.508 137.156V149H973.18V137.588C973.18 136.364 972.988 135.464 972.604 134.888C972.22 134.288 971.536 133.988 970.552 133.988C970.12 133.988 969.7 134.048 969.292 134.168C968.884 134.264 968.512 134.432 968.176 134.672C967.864 134.912 967.612 135.212 967.42 135.572C967.228 135.908 967.132 136.304 967.132 136.76V149H961.804Z" fill="white"/>
<path d="M411.859 241.704H402.283V252H396.811V226.872H402.283V236.88H411.859V226.872H417.331V252H411.859V241.704ZM433.734 248.832H433.554C433.386 249.312 433.158 249.768 432.87 250.2C432.606 250.632 432.258 251.016 431.826 251.352C431.394 251.688 430.878 251.952 430.278 252.144C429.702 252.336 429.03 252.432 428.262 252.432C426.318 252.432 424.842 251.796 423.834 250.524C422.85 249.228 422.358 247.38 422.358 244.98V233.1H427.686V244.512C427.686 245.664 427.89 246.552 428.298 247.176C428.706 247.8 429.402 248.112 430.386 248.112C430.794 248.112 431.202 248.052 431.61 247.932C432.018 247.812 432.378 247.644 432.69 247.428C433.002 247.188 433.254 246.9 433.446 246.564C433.638 246.228 433.734 245.832 433.734 245.376V233.1H439.062V252H433.734V248.832ZM455.611 248.832H455.431C455.287 249.336 455.059 249.816 454.747 250.272C454.435 250.704 454.051 251.088 453.595 251.424C453.163 251.736 452.659 251.976 452.083 252.144C451.531 252.336 450.955 252.432 450.355 252.432C447.955 252.432 446.143 251.592 444.919 249.912C443.695 248.208 443.083 245.748 443.083 242.532C443.083 239.316 443.695 236.868 444.919 235.188C446.143 233.508 447.955 232.668 450.355 232.668C451.579 232.668 452.659 233.004 453.595 233.676C454.555 234.348 455.167 235.212 455.431 236.268H455.611V225.36H460.939V252H455.611V248.832ZM452.119 248.112C453.127 248.112 453.955 247.872 454.603 247.392C455.275 246.888 455.611 246.204 455.611 245.34V239.76C455.611 238.896 455.275 238.224 454.603 237.744C453.955 237.24 453.127 236.988 452.119 236.988C451.111 236.988 450.271 237.348 449.599 238.068C448.951 238.764 448.627 239.712 448.627 240.912V244.188C448.627 245.388 448.951 246.348 449.599 247.068C450.271 247.764 451.111 248.112 452.119 248.112ZM479.89 252C478.93 252 478.126 251.7 477.478 251.1C476.854 250.5 476.458 249.696 476.29 248.688H476.074C475.786 249.912 475.15 250.848 474.166 251.496C473.182 252.12 471.97 252.432 470.53 252.432C468.634 252.432 467.182 251.928 466.174 250.92C465.166 249.912 464.662 248.58 464.662 246.924C464.662 244.932 465.382 243.456 466.822 242.496C468.286 241.512 470.266 241.02 472.762 241.02H475.75V239.832C475.75 238.92 475.51 238.2 475.03 237.672C474.55 237.12 473.746 236.844 472.618 236.844C471.562 236.844 470.722 237.072 470.098 237.528C469.474 237.984 468.958 238.5 468.55 239.076L465.382 236.268C466.15 235.14 467.11 234.264 468.262 233.64C469.438 232.992 471.022 232.668 473.014 232.668C475.702 232.668 477.718 233.256 479.062 234.432C480.406 235.608 481.078 237.324 481.078 239.58V247.86H482.842V252H479.89ZM472.51 248.724C473.398 248.724 474.154 248.532 474.778 248.148C475.426 247.764 475.75 247.14 475.75 246.276V244.044H473.158C471.07 244.044 470.026 244.752 470.026 246.168V246.708C470.026 247.404 470.242 247.92 470.674 248.256C471.106 248.568 471.718 248.724 472.51 248.724ZM489.406 225C490.486 225 491.266 225.252 491.746 225.756C492.25 226.236 492.502 226.848 492.502 227.592V228.348C492.502 229.044 492.394 229.752 492.178 230.472C491.986 231.168 491.71 231.84 491.35 232.488C491.014 233.136 490.606 233.748 490.126 234.324C489.646 234.876 489.13 235.368 488.578 235.8H485.23C486.022 235.08 486.694 234.348 487.246 233.604C487.822 232.86 488.254 232.032 488.542 231.12C487.774 230.976 487.21 230.664 486.85 230.184C486.49 229.68 486.31 229.116 486.31 228.492V227.592C486.31 226.848 486.55 226.236 487.03 225.756C487.534 225.252 488.326 225 489.406 225ZM505.92 248.832H505.74C505.596 249.336 505.368 249.816 505.056 250.272C504.744 250.704 504.36 251.088 503.904 251.424C503.472 251.736 502.968 251.976 502.392 252.144C501.84 252.336 501.264 252.432 500.664 252.432C498.264 252.432 496.452 251.592 495.228 249.912C494.004 248.208 493.392 245.748 493.392 242.532C493.392 239.316 494.004 236.868 495.228 235.188C496.452 233.508 498.264 232.668 500.664 232.668C501.888 232.668 502.968 233.004 503.904 233.676C504.864 234.348 505.476 235.212 505.74 236.268H505.92V225.36H511.248V252H505.92V248.832ZM502.428 248.112C503.436 248.112 504.264 247.872 504.912 247.392C505.584 246.888 505.92 246.204 505.92 245.34V239.76C505.92 238.896 505.584 238.224 504.912 237.744C504.264 237.24 503.436 236.988 502.428 236.988C501.42 236.988 500.58 237.348 499.908 238.068C499.26 238.764 498.936 239.712 498.936 240.912V244.188C498.936 245.388 499.26 246.348 499.908 247.068C500.58 247.764 501.42 248.112 502.428 248.112ZM524.114 252.432C522.674 252.432 521.39 252.204 520.262 251.748C519.134 251.268 518.174 250.608 517.382 249.768C516.614 248.904 516.026 247.86 515.618 246.636C515.234 245.412 515.042 244.044 515.042 242.532C515.042 241.044 515.234 239.7 515.618 238.5C516.002 237.276 516.566 236.232 517.31 235.368C518.078 234.504 519.014 233.844 520.118 233.388C521.222 232.908 522.482 232.668 523.898 232.668C525.458 232.668 526.79 232.932 527.894 233.46C529.022 233.988 529.934 234.696 530.63 235.584C531.35 236.472 531.866 237.504 532.178 238.68C532.514 239.832 532.682 241.044 532.682 242.316V243.9H520.55V244.188C520.55 245.436 520.886 246.432 521.558 247.176C522.23 247.896 523.286 248.256 524.726 248.256C525.83 248.256 526.73 248.04 527.426 247.608C528.122 247.152 528.77 246.612 529.37 245.988L532.034 249.3C531.194 250.284 530.09 251.052 528.722 251.604C527.378 252.156 525.842 252.432 524.114 252.432ZM524.006 236.592C522.926 236.592 522.074 236.952 521.45 237.672C520.85 238.368 520.55 239.304 520.55 240.48V240.768H527.174V240.444C527.174 239.292 526.91 238.368 526.382 237.672C525.878 236.952 525.086 236.592 524.006 236.592Z" fill="white"/>
<path d="M966.233 247V237.172L957.629 221.872H963.749L969.149 231.88H969.221L974.405 221.872H980.345L971.741 237.136V247H966.233ZM988.907 247.432C987.467 247.432 986.183 247.204 985.055 246.748C983.927 246.268 982.967 245.608 982.175 244.768C981.407 243.904 980.819 242.86 980.411 241.636C980.027 240.412 979.835 239.044 979.835 237.532C979.835 236.044 980.027 234.7 980.411 233.5C980.795 232.276 981.359 231.232 982.103 230.368C982.871 229.504 983.807 228.844 984.911 228.388C986.015 227.908 987.275 227.668 988.691 227.668C990.251 227.668 991.583 227.932 992.687 228.46C993.815 228.988 994.727 229.696 995.423 230.584C996.143 231.472 996.659 232.504 996.971 233.68C997.307 234.832 997.475 236.044 997.475 237.316V238.9H985.343V239.188C985.343 240.436 985.679 241.432 986.351 242.176C987.023 242.896 988.079 243.256 989.519 243.256C990.623 243.256 991.523 243.04 992.219 242.608C992.915 242.152 993.563 241.612 994.163 240.988L996.827 244.3C995.987 245.284 994.883 246.052 993.515 246.604C992.171 247.156 990.635 247.432 988.907 247.432ZM988.799 231.592C987.719 231.592 986.867 231.952 986.243 232.672C985.643 233.368 985.343 234.304 985.343 235.48V235.768H991.967V235.444C991.967 234.292 991.703 233.368 991.175 232.672C990.671 231.952 989.879 231.592 988.799 231.592ZM1012.83 243.832H1012.65C1012.51 244.336 1012.28 244.816 1011.97 245.272C1011.65 245.704 1011.27 246.088 1010.81 246.424C1010.38 246.736 1009.88 246.976 1009.3 247.144C1008.75 247.336 1008.17 247.432 1007.57 247.432C1005.17 247.432 1003.36 246.592 1002.14 244.912C1000.91 243.208 1000.3 240.748 1000.3 237.532C1000.3 234.316 1000.91 231.868 1002.14 230.188C1003.36 228.508 1005.17 227.668 1007.57 227.668C1008.8 227.668 1009.88 228.004 1010.81 228.676C1011.77 229.348 1012.39 230.212 1012.65 231.268H1012.83V220.36H1018.16V247H1012.83V243.832ZM1009.34 243.112C1010.35 243.112 1011.17 242.872 1011.82 242.392C1012.49 241.888 1012.83 241.204 1012.83 240.34V234.76C1012.83 233.896 1012.49 233.224 1011.82 232.744C1011.17 232.24 1010.35 231.988 1009.34 231.988C1008.33 231.988 1007.49 232.348 1006.82 233.068C1006.17 233.764 1005.85 234.712 1005.85 235.912V239.188C1005.85 240.388 1006.17 241.348 1006.82 242.068C1007.49 242.764 1008.33 243.112 1009.34 243.112ZM1030.81 247.432C1029.42 247.432 1028.17 247.204 1027.06 246.748C1025.98 246.292 1025.06 245.632 1024.29 244.768C1023.55 243.904 1022.97 242.86 1022.56 241.636C1022.16 240.412 1021.95 239.044 1021.95 237.532C1021.95 236.02 1022.16 234.652 1022.56 233.428C1022.97 232.204 1023.55 231.172 1024.29 230.332C1025.06 229.468 1025.98 228.808 1027.06 228.352C1028.17 227.896 1029.42 227.668 1030.81 227.668C1032.2 227.668 1033.44 227.896 1034.52 228.352C1035.62 228.808 1036.54 229.468 1037.29 230.332C1038.06 231.172 1038.64 232.204 1039.05 233.428C1039.46 234.652 1039.66 236.02 1039.66 237.532C1039.66 239.044 1039.46 240.412 1039.05 241.636C1038.64 242.86 1038.06 243.904 1037.29 244.768C1036.54 245.632 1035.62 246.292 1034.52 246.748C1033.44 247.204 1032.2 247.432 1030.81 247.432ZM1030.81 243.22C1031.86 243.22 1032.68 242.896 1033.26 242.248C1033.83 241.6 1034.12 240.676 1034.12 239.476V235.624C1034.12 234.424 1033.83 233.5 1033.26 232.852C1032.68 232.204 1031.86 231.88 1030.81 231.88C1029.75 231.88 1028.94 232.204 1028.36 232.852C1027.78 233.5 1027.5 234.424 1027.5 235.624V239.476C1027.5 240.676 1027.78 241.6 1028.36 242.248C1028.94 242.896 1029.75 243.22 1030.81 243.22ZM1043.46 247V228.1H1048.79V232.204H1048.97C1049.06 231.676 1049.23 231.172 1049.47 230.692C1049.71 230.188 1050.02 229.744 1050.41 229.36C1050.82 228.976 1051.3 228.676 1051.85 228.46C1052.4 228.22 1053.05 228.1 1053.79 228.1H1054.73V233.068H1053.4C1051.84 233.068 1050.67 233.272 1049.9 233.68C1049.16 234.088 1048.79 234.844 1048.79 235.948V247H1043.46ZM1065.51 247.432C1064.12 247.432 1062.87 247.204 1061.76 246.748C1060.68 246.292 1059.76 245.632 1058.99 244.768C1058.25 243.904 1057.67 242.86 1057.26 241.636C1056.86 240.412 1056.65 239.044 1056.65 237.532C1056.65 236.02 1056.86 234.652 1057.26 233.428C1057.67 232.204 1058.25 231.172 1058.99 230.332C1059.76 229.468 1060.68 228.808 1061.76 228.352C1062.87 227.896 1064.12 227.668 1065.51 227.668C1066.9 227.668 1068.14 227.896 1069.22 228.352C1070.32 228.808 1071.24 229.468 1071.99 230.332C1072.76 231.172 1073.34 232.204 1073.75 233.428C1074.16 234.652 1074.36 236.02 1074.36 237.532C1074.36 239.044 1074.16 240.412 1073.75 241.636C1073.34 242.86 1072.76 243.904 1071.99 244.768C1071.24 245.632 1070.32 246.292 1069.22 246.748C1068.14 247.204 1066.9 247.432 1065.51 247.432ZM1065.51 243.22C1066.56 243.22 1067.38 242.896 1067.96 242.248C1068.53 241.6 1068.82 240.676 1068.82 239.476V235.624C1068.82 234.424 1068.53 233.5 1067.96 232.852C1067.38 232.204 1066.56 231.88 1065.51 231.88C1064.45 231.88 1063.64 232.204 1063.06 232.852C1062.48 233.5 1062.2 234.424 1062.2 235.624V239.476C1062.2 240.676 1062.48 241.6 1063.06 242.248C1063.64 242.896 1064.45 243.22 1065.51 243.22ZM1097.43 226.732V247H1091.96V226.732H1085.16V221.872H1104.24V226.732H1097.43ZM1111.03 220C1112.11 220 1112.89 220.252 1113.37 220.756C1113.87 221.236 1114.13 221.848 1114.13 222.592V223.348C1114.13 224.044 1114.02 224.752 1113.8 225.472C1113.61 226.168 1113.33 226.84 1112.97 227.488C1112.64 228.136 1112.23 228.748 1111.75 229.324C1111.27 229.876 1110.75 230.368 1110.2 230.8H1106.85C1107.65 230.08 1108.32 229.348 1108.87 228.604C1109.45 227.86 1109.88 227.032 1110.17 226.12C1109.4 225.976 1108.83 225.664 1108.47 225.184C1108.11 224.68 1107.93 224.116 1107.93 223.492V222.592C1107.93 221.848 1108.17 221.236 1108.65 220.756C1109.16 220.252 1109.95 220 1111.03 220ZM1121.5 226.084C1120.42 226.084 1119.63 225.844 1119.12 225.364C1118.64 224.86 1118.4 224.224 1118.4 223.456V222.664C1118.4 221.896 1118.64 221.272 1119.12 220.792C1119.63 220.288 1120.42 220.036 1121.5 220.036C1122.58 220.036 1123.36 220.288 1123.84 220.792C1124.34 221.272 1124.6 221.896 1124.6 222.664V223.456C1124.6 224.224 1124.34 224.86 1123.84 225.364C1123.36 225.844 1122.58 226.084 1121.5 226.084ZM1118.84 228.1H1124.16V247H1118.84V228.1ZM1129.14 220.36H1134.46V231.268H1134.64C1134.91 230.212 1135.51 229.348 1136.44 228.676C1137.4 228.004 1138.5 227.668 1139.72 227.668C1142.12 227.668 1143.93 228.508 1145.16 230.188C1146.38 231.868 1146.99 234.316 1146.99 237.532C1146.99 240.748 1146.38 243.208 1145.16 244.912C1143.93 246.592 1142.12 247.432 1139.72 247.432C1139.1 247.432 1138.51 247.336 1137.96 247.144C1137.4 246.976 1136.9 246.736 1136.44 246.424C1136.01 246.088 1135.64 245.704 1135.33 245.272C1135.02 244.816 1134.79 244.336 1134.64 243.832H1134.46V247H1129.14V220.36ZM1137.96 243.112C1138.96 243.112 1139.79 242.764 1140.44 242.068C1141.11 241.348 1141.45 240.388 1141.45 239.188V235.912C1141.45 234.712 1141.11 233.764 1140.44 233.068C1139.79 232.348 1138.96 231.988 1137.96 231.988C1136.95 231.988 1136.11 232.24 1135.44 232.744C1134.79 233.224 1134.46 233.896 1134.46 234.76V240.34C1134.46 241.204 1134.79 241.888 1135.44 242.392C1136.11 242.872 1136.95 243.112 1137.96 243.112ZM1157.45 247.432C1155.62 247.432 1154.09 247.144 1152.84 246.568C1151.59 245.968 1150.47 245.128 1149.49 244.048L1152.62 240.88C1153.29 241.624 1154.04 242.212 1154.85 242.644C1155.67 243.076 1156.59 243.292 1157.63 243.292C1158.68 243.292 1159.41 243.136 1159.82 242.824C1160.23 242.488 1160.43 242.044 1160.43 241.492C1160.43 240.604 1159.8 240.076 1158.53 239.908L1156.47 239.656C1152.23 239.128 1150.1 237.184 1150.1 233.824C1150.1 232.912 1150.27 232.084 1150.61 231.34C1150.97 230.572 1151.46 229.924 1152.08 229.396C1152.73 228.844 1153.5 228.424 1154.39 228.136C1155.3 227.824 1156.32 227.668 1157.45 227.668C1158.43 227.668 1159.29 227.74 1160.04 227.884C1160.81 228.004 1161.48 228.196 1162.05 228.46C1162.65 228.7 1163.19 229.012 1163.67 229.396C1164.18 229.756 1164.67 230.164 1165.15 230.62L1162.09 233.752C1161.49 233.152 1160.81 232.684 1160.04 232.348C1159.29 231.988 1158.53 231.808 1157.73 231.808C1156.82 231.808 1156.17 231.952 1155.79 232.24C1155.41 232.528 1155.21 232.912 1155.21 233.392C1155.21 233.896 1155.35 234.292 1155.61 234.58C1155.9 234.844 1156.43 235.036 1157.19 235.156L1159.32 235.444C1163.47 235.996 1165.55 237.892 1165.55 241.132C1165.55 242.044 1165.35 242.884 1164.97 243.652C1164.59 244.42 1164.03 245.092 1163.31 245.668C1162.62 246.22 1161.77 246.652 1160.76 246.964C1159.77 247.276 1158.67 247.432 1157.45 247.432Z" fill="white"/>
<path d="M1148.24 149.432C1146.04 149.432 1144.16 149.06 1142.63 148.316C1141.09 147.548 1139.78 146.564 1138.7 145.364L1142.3 141.728C1144.01 143.648 1146.11 144.608 1148.6 144.608C1149.95 144.608 1150.94 144.332 1151.59 143.78C1152.24 143.228 1152.56 142.496 1152.56 141.584C1152.56 140.888 1152.37 140.312 1151.99 139.856C1151.6 139.376 1150.82 139.052 1149.65 138.884L1147.16 138.56C1144.5 138.224 1142.54 137.42 1141.3 136.148C1140.07 134.876 1139.46 133.184 1139.46 131.072C1139.46 129.944 1139.68 128.912 1140.11 127.976C1140.54 127.04 1141.15 126.236 1141.94 125.564C1142.76 124.892 1143.74 124.376 1144.9 124.016C1146.07 123.632 1147.4 123.44 1148.89 123.44C1150.79 123.44 1152.46 123.74 1153.9 124.34C1155.34 124.94 1156.57 125.816 1157.6 126.968L1153.97 130.64C1153.37 129.944 1152.64 129.38 1151.77 128.948C1150.93 128.492 1149.86 128.264 1148.57 128.264C1147.34 128.264 1146.43 128.48 1145.83 128.912C1145.23 129.344 1144.93 129.944 1144.93 130.712C1144.93 131.576 1145.16 132.2 1145.62 132.584C1146.1 132.968 1146.86 133.244 1147.92 133.412L1150.4 133.808C1153 134.216 1154.92 135.02 1156.16 136.22C1157.41 137.396 1158.04 139.076 1158.04 141.26C1158.04 142.46 1157.82 143.564 1157.39 144.572C1156.96 145.58 1156.32 146.444 1155.48 147.164C1154.66 147.884 1153.64 148.448 1152.42 148.856C1151.2 149.24 1149.8 149.432 1148.24 149.432ZM1176.25 149C1175.29 149 1174.49 148.7 1173.84 148.1C1173.22 147.5 1172.82 146.696 1172.65 145.688H1172.44C1172.15 146.912 1171.51 147.848 1170.53 148.496C1169.54 149.12 1168.33 149.432 1166.89 149.432C1165 149.432 1163.54 148.928 1162.54 147.92C1161.53 146.912 1161.02 145.58 1161.02 143.924C1161.02 141.932 1161.74 140.456 1163.18 139.496C1164.65 138.512 1166.63 138.02 1169.12 138.02H1172.11V136.832C1172.11 135.92 1171.87 135.2 1171.39 134.672C1170.91 134.12 1170.11 133.844 1168.98 133.844C1167.92 133.844 1167.08 134.072 1166.46 134.528C1165.84 134.984 1165.32 135.5 1164.91 136.076L1161.74 133.268C1162.51 132.14 1163.47 131.264 1164.62 130.64C1165.8 129.992 1167.38 129.668 1169.38 129.668C1172.06 129.668 1174.08 130.256 1175.42 131.432C1176.77 132.608 1177.44 134.324 1177.44 136.58V144.86H1179.2V149H1176.25ZM1168.87 145.724C1169.76 145.724 1170.52 145.532 1171.14 145.148C1171.79 144.764 1172.11 144.14 1172.11 143.276V141.044H1169.52C1167.43 141.044 1166.39 141.752 1166.39 143.168V143.708C1166.39 144.404 1166.6 144.92 1167.04 145.256C1167.47 145.568 1168.08 145.724 1168.87 145.724ZM1182.78 149V130.1H1188.11V133.304H1188.32C1188.66 132.296 1189.24 131.444 1190.05 130.748C1190.87 130.028 1191.98 129.668 1193.4 129.668C1194.7 129.668 1195.8 129.992 1196.71 130.64C1197.62 131.288 1198.28 132.236 1198.69 133.484H1198.8C1198.97 132.956 1199.22 132.464 1199.56 132.008C1199.92 131.528 1200.35 131.12 1200.85 130.784C1201.36 130.448 1201.92 130.184 1202.54 129.992C1203.17 129.776 1203.84 129.668 1204.56 129.668C1206.38 129.668 1207.78 130.316 1208.74 131.612C1209.72 132.908 1210.21 134.756 1210.21 137.156V149H1204.88V137.588C1204.88 135.188 1204.02 133.988 1202.29 133.988C1201.5 133.988 1200.78 134.216 1200.13 134.672C1199.48 135.128 1199.16 135.824 1199.16 136.76V149H1193.83V137.588C1193.83 135.188 1192.97 133.988 1191.24 133.988C1190.86 133.988 1190.47 134.048 1190.09 134.168C1189.73 134.264 1189.39 134.432 1189.08 134.672C1188.79 134.912 1188.55 135.212 1188.36 135.572C1188.19 135.908 1188.11 136.304 1188.11 136.76V149H1182.78ZM1214.95 122.36H1220.28V133.268H1220.46C1220.72 132.212 1221.32 131.348 1222.26 130.676C1223.22 130.004 1224.31 129.668 1225.53 129.668C1227.93 129.668 1229.74 130.508 1230.97 132.188C1232.19 133.868 1232.8 136.316 1232.8 139.532C1232.8 142.748 1232.19 145.208 1230.97 146.912C1229.74 148.592 1227.93 149.432 1225.53 149.432C1224.91 149.432 1224.32 149.336 1223.77 149.144C1223.22 148.976 1222.71 148.736 1222.26 148.424C1221.82 148.088 1221.45 147.704 1221.14 147.272C1220.83 146.816 1220.6 146.336 1220.46 145.832H1220.28V149H1214.95V122.36ZM1223.77 145.112C1224.78 145.112 1225.6 144.764 1226.25 144.068C1226.92 143.348 1227.26 142.388 1227.26 141.188V137.912C1227.26 136.712 1226.92 135.764 1226.25 135.068C1225.6 134.348 1224.78 133.988 1223.77 133.988C1222.76 133.988 1221.92 134.24 1221.25 134.744C1220.6 135.224 1220.28 135.896 1220.28 136.76V142.34C1220.28 143.204 1220.6 143.888 1221.25 144.392C1221.92 144.872 1222.76 145.112 1223.77 145.112ZM1244.52 149.432C1243.13 149.432 1241.88 149.204 1240.78 148.748C1239.7 148.292 1238.77 147.632 1238 146.768C1237.26 145.904 1236.68 144.86 1236.28 143.636C1235.87 142.412 1235.66 141.044 1235.66 139.532C1235.66 138.02 1235.87 136.652 1236.28 135.428C1236.68 134.204 1237.26 133.172 1238 132.332C1238.77 131.468 1239.7 130.808 1240.78 130.352C1241.88 129.896 1243.13 129.668 1244.52 129.668C1245.91 129.668 1247.15 129.896 1248.23 130.352C1249.33 130.808 1250.26 131.468 1251 132.332C1251.77 133.172 1252.36 134.204 1252.76 135.428C1253.17 136.652 1253.38 138.02 1253.38 139.532C1253.38 141.044 1253.17 142.412 1252.76 143.636C1252.36 144.86 1251.77 145.904 1251 146.768C1250.26 147.632 1249.33 148.292 1248.23 148.748C1247.15 149.204 1245.91 149.432 1244.52 149.432ZM1244.52 145.22C1245.58 145.22 1246.39 144.896 1246.97 144.248C1247.54 143.6 1247.83 142.676 1247.83 141.476V137.624C1247.83 136.424 1247.54 135.5 1246.97 134.852C1246.39 134.204 1245.58 133.88 1244.52 133.88C1243.46 133.88 1242.65 134.204 1242.07 134.852C1241.5 135.5 1241.21 136.424 1241.21 137.624V141.476C1241.21 142.676 1241.5 143.6 1242.07 144.248C1242.65 144.896 1243.46 145.22 1244.52 145.22ZM1268.33 145.832H1268.15C1267.98 146.312 1267.76 146.768 1267.47 147.2C1267.2 147.632 1266.86 148.016 1266.42 148.352C1265.99 148.688 1265.48 148.952 1264.88 149.144C1264.3 149.336 1263.63 149.432 1262.86 149.432C1260.92 149.432 1259.44 148.796 1258.43 147.524C1257.45 146.228 1256.96 144.38 1256.96 141.98V130.1H1262.28V141.512C1262.28 142.664 1262.49 143.552 1262.9 144.176C1263.3 144.8 1264 145.112 1264.98 145.112C1265.39 145.112 1265.8 145.052 1266.21 144.932C1266.62 144.812 1266.98 144.644 1267.29 144.428C1267.6 144.188 1267.85 143.9 1268.04 143.564C1268.24 143.228 1268.33 142.832 1268.33 142.376V130.1H1273.66V149H1268.33V145.832ZM1285.02 149.432C1283.2 149.432 1281.66 149.144 1280.42 148.568C1279.17 147.968 1278.05 147.128 1277.07 146.048L1280.2 142.88C1280.87 143.624 1281.62 144.212 1282.43 144.644C1283.25 145.076 1284.17 145.292 1285.2 145.292C1286.26 145.292 1286.99 145.136 1287.4 144.824C1287.81 144.488 1288.01 144.044 1288.01 143.492C1288.01 142.604 1287.38 142.076 1286.1 141.908L1284.05 141.656C1279.8 141.128 1277.68 139.184 1277.68 135.824C1277.68 134.912 1277.85 134.084 1278.18 133.34C1278.54 132.572 1279.04 131.924 1279.66 131.396C1280.31 130.844 1281.08 130.424 1281.96 130.136C1282.88 129.824 1283.9 129.668 1285.02 129.668C1286.01 129.668 1286.87 129.74 1287.62 129.884C1288.38 130.004 1289.06 130.196 1289.63 130.46C1290.23 130.7 1290.77 131.012 1291.25 131.396C1291.76 131.756 1292.25 132.164 1292.73 132.62L1289.67 135.752C1289.07 135.152 1288.38 134.684 1287.62 134.348C1286.87 133.988 1286.1 133.808 1285.31 133.808C1284.4 133.808 1283.75 133.952 1283.37 134.24C1282.98 134.528 1282.79 134.912 1282.79 135.392C1282.79 135.896 1282.92 136.292 1283.19 136.58C1283.48 136.844 1284 137.036 1284.77 137.156L1286.9 137.444C1291.05 137.996 1293.12 139.892 1293.12 143.132C1293.12 144.044 1292.93 144.884 1292.55 145.652C1292.16 146.42 1291.61 147.092 1290.89 147.668C1290.2 148.22 1289.34 148.652 1288.34 148.964C1287.35 149.276 1286.25 149.432 1285.02 149.432ZM1302.92 149.432C1301.1 149.432 1299.56 149.144 1298.31 148.568C1297.06 147.968 1295.95 147.128 1294.96 146.048L1298.1 142.88C1298.77 143.624 1299.51 144.212 1300.33 144.644C1301.14 145.076 1302.07 145.292 1303.1 145.292C1304.16 145.292 1304.89 145.136 1305.3 144.824C1305.7 144.488 1305.91 144.044 1305.91 143.492C1305.91 142.604 1305.27 142.076 1304 141.908L1301.95 141.656C1297.7 141.128 1295.58 139.184 1295.58 135.824C1295.58 134.912 1295.74 134.084 1296.08 133.34C1296.44 132.572 1296.93 131.924 1297.56 131.396C1298.2 130.844 1298.97 130.424 1299.86 130.136C1300.77 129.824 1301.79 129.668 1302.92 129.668C1303.9 129.668 1304.77 129.74 1305.51 129.884C1306.28 130.004 1306.95 130.196 1307.53 130.46C1308.13 130.7 1308.67 131.012 1309.15 131.396C1309.65 131.756 1310.14 132.164 1310.62 132.62L1307.56 135.752C1306.96 135.152 1306.28 134.684 1305.51 134.348C1304.77 133.988 1304 133.808 1303.21 133.808C1302.3 133.808 1301.65 133.952 1301.26 134.24C1300.88 134.528 1300.69 134.912 1300.69 135.392C1300.69 135.896 1300.82 136.292 1301.08 136.58C1301.37 136.844 1301.9 137.036 1302.67 137.156L1304.79 137.444C1308.94 137.996 1311.02 139.892 1311.02 143.132C1311.02 144.044 1310.83 144.884 1310.44 145.652C1310.06 146.42 1309.51 147.092 1308.79 147.668C1308.09 148.22 1307.24 148.652 1306.23 148.964C1305.25 149.276 1304.14 149.432 1302.92 149.432ZM1328.62 149C1327.66 149 1326.86 148.7 1326.21 148.1C1325.58 147.5 1325.19 146.696 1325.02 145.688H1324.8C1324.52 146.912 1323.88 147.848 1322.9 148.496C1321.91 149.12 1320.7 149.432 1319.26 149.432C1317.36 149.432 1315.91 148.928 1314.9 147.92C1313.9 146.912 1313.39 145.58 1313.39 143.924C1313.39 141.932 1314.11 140.456 1315.55 139.496C1317.02 138.512 1319 138.02 1321.49 138.02H1324.48V136.832C1324.48 135.92 1324.24 135.2 1323.76 134.672C1323.28 134.12 1322.48 133.844 1321.35 133.844C1320.29 133.844 1319.45 134.072 1318.83 134.528C1318.2 134.984 1317.69 135.5 1317.28 136.076L1314.11 133.268C1314.88 132.14 1315.84 131.264 1316.99 130.64C1318.17 129.992 1319.75 129.668 1321.74 129.668C1324.43 129.668 1326.45 130.256 1327.79 131.432C1329.14 132.608 1329.81 134.324 1329.81 136.58V144.86H1331.57V149H1328.62ZM1321.24 145.724C1322.13 145.724 1322.88 145.532 1323.51 145.148C1324.16 144.764 1324.48 144.14 1324.48 143.276V141.044H1321.89C1319.8 141.044 1318.76 141.752 1318.76 143.168V143.708C1318.76 144.404 1318.97 144.92 1319.4 145.256C1319.84 145.568 1320.45 145.724 1321.24 145.724Z" fill="white"/>
<path d="M435.476 437.432C433.412 437.432 431.684 437.048 430.292 436.28C428.924 435.488 427.748 434.444 426.764 433.148L428.384 431.816C429.272 432.992 430.268 433.904 431.372 434.552C432.5 435.2 433.892 435.524 435.548 435.524C437.492 435.524 438.98 435.068 440.012 434.156C441.068 433.22 441.596 431.924 441.596 430.268C441.596 428.732 441.152 427.604 440.264 426.884C439.376 426.164 438.128 425.636 436.52 425.3L434.288 424.832C431.888 424.352 430.148 423.548 429.068 422.42C427.988 421.292 427.448 419.852 427.448 418.1C427.448 416.996 427.64 416.036 428.024 415.22C428.408 414.38 428.948 413.684 429.644 413.132C430.364 412.58 431.216 412.16 432.2 411.872C433.208 411.584 434.312 411.44 435.512 411.44C437.384 411.44 438.968 411.776 440.264 412.448C441.56 413.12 442.628 414.068 443.468 415.292L441.848 416.48C441.152 415.472 440.276 414.704 439.22 414.176C438.188 413.624 436.916 413.348 435.404 413.348C433.604 413.348 432.176 413.744 431.12 414.536C430.088 415.304 429.572 416.468 429.572 418.028C429.572 419.516 430.04 420.608 430.976 421.304C431.912 422 433.16 422.504 434.72 422.816L436.952 423.284C439.448 423.836 441.2 424.688 442.208 425.84C443.216 426.992 443.72 428.432 443.72 430.16C443.72 432.464 442.988 434.252 441.524 435.524C440.06 436.796 438.044 437.432 435.476 437.432ZM455.649 437.432C454.425 437.432 453.309 437.216 452.301 436.784C451.317 436.352 450.465 435.728 449.745 434.912C449.049 434.072 448.509 433.052 448.125 431.852C447.765 430.652 447.585 429.296 447.585 427.784C447.585 426.272 447.765 424.928 448.125 423.752C448.509 422.552 449.049 421.544 449.745 420.728C450.465 419.888 451.317 419.252 452.301 418.82C453.285 418.364 454.389 418.136 455.613 418.136C456.789 418.136 457.857 418.364 458.817 418.82C459.777 419.252 460.593 419.864 461.265 420.656C461.937 421.448 462.453 422.408 462.813 423.536C463.197 424.64 463.389 425.864 463.389 427.208V428.18H449.745V429.08C449.745 430.04 449.877 430.928 450.141 431.744C450.429 432.536 450.825 433.22 451.329 433.796C451.857 434.372 452.493 434.828 453.237 435.164C453.981 435.476 454.821 435.632 455.757 435.632C458.445 435.632 460.305 434.396 461.337 431.924L462.849 432.932C462.273 434.3 461.361 435.392 460.113 436.208C458.889 437.024 457.401 437.432 455.649 437.432ZM455.613 419.864C454.725 419.864 453.921 420.032 453.201 420.368C452.481 420.68 451.857 421.124 451.329 421.7C450.825 422.276 450.429 422.972 450.141 423.788C449.877 424.58 449.745 425.456 449.745 426.416V426.596H461.157V426.308C461.157 425.348 461.025 424.472 460.761 423.68C460.497 422.864 460.113 422.18 459.609 421.628C459.129 421.076 458.541 420.644 457.845 420.332C457.173 420.02 456.429 419.864 455.613 419.864ZM475.196 437.432C473.972 437.432 472.856 437.216 471.848 436.784C470.864 436.352 470.012 435.728 469.292 434.912C468.596 434.072 468.056 433.052 467.672 431.852C467.312 430.652 467.132 429.296 467.132 427.784C467.132 426.272 467.312 424.928 467.672 423.752C468.056 422.552 468.596 421.544 469.292 420.728C470.012 419.888 470.864 419.252 471.848 418.82C472.832 418.364 473.936 418.136 475.16 418.136C476.336 418.136 477.404 418.364 478.364 418.82C479.324 419.252 480.14 419.864 480.812 420.656C481.484 421.448 482 422.408 482.36 423.536C482.744 424.64 482.936 425.864 482.936 427.208V428.18H469.292V429.08C469.292 430.04 469.424 430.928 469.688 431.744C469.976 432.536 470.372 433.22 470.876 433.796C471.404 434.372 472.04 434.828 472.784 435.164C473.528 435.476 474.368 435.632 475.304 435.632C477.992 435.632 479.852 434.396 480.884 431.924L482.396 432.932C481.82 434.3 480.908 435.392 479.66 436.208C478.436 437.024 476.948 437.432 475.196 437.432ZM475.16 419.864C474.272 419.864 473.468 420.032 472.748 420.368C472.028 420.68 471.404 421.124 470.876 421.7C470.372 422.276 469.976 422.972 469.688 423.788C469.424 424.58 469.292 425.456 469.292 426.416V426.596H480.704V426.308C480.704 425.348 480.572 424.472 480.308 423.68C480.044 422.864 479.66 422.18 479.156 421.628C478.676 421.076 478.088 420.644 477.392 420.332C476.72 420.02 475.976 419.864 475.16 419.864ZM503.214 437.432C501.99 437.432 500.886 437.216 499.902 436.784C498.918 436.352 498.078 435.728 497.382 434.912C496.686 434.072 496.146 433.052 495.762 431.852C495.378 430.652 495.186 429.296 495.186 427.784C495.186 426.272 495.378 424.928 495.762 423.752C496.146 422.552 496.686 421.544 497.382 420.728C498.078 419.888 498.918 419.252 499.902 418.82C500.886 418.364 501.99 418.136 503.214 418.136C504.438 418.136 505.542 418.364 506.526 418.82C507.51 419.252 508.35 419.888 509.046 420.728C509.742 421.544 510.282 422.552 510.666 423.752C511.05 424.928 511.242 426.272 511.242 427.784C511.242 429.296 511.05 430.652 510.666 431.852C510.282 433.052 509.742 434.072 509.046 434.912C508.35 435.728 507.51 436.352 506.526 436.784C505.542 437.216 504.438 437.432 503.214 437.432ZM503.214 435.596C505.014 435.596 506.43 435.032 507.462 433.904C508.518 432.776 509.046 431.12 509.046 428.936V426.632C509.046 424.472 508.518 422.828 507.462 421.7C506.43 420.548 505.014 419.972 503.214 419.972C501.414 419.972 499.986 420.536 498.93 421.664C497.898 422.792 497.382 424.448 497.382 426.632V428.936C497.382 431.096 497.898 432.752 498.93 433.904C499.986 435.032 501.414 435.596 503.214 435.596ZM527.975 434.084H527.831C527.663 434.516 527.435 434.936 527.147 435.344C526.859 435.752 526.499 436.112 526.067 436.424C525.635 436.712 525.119 436.952 524.519 437.144C523.943 437.336 523.259 437.432 522.467 437.432C520.499 437.432 518.963 436.832 517.859 435.632C516.755 434.408 516.203 432.668 516.203 430.412V418.568H518.255V430.016C518.255 431.912 518.663 433.316 519.479 434.228C520.295 435.14 521.471 435.596 523.007 435.596C523.655 435.596 524.267 435.512 524.843 435.344C525.443 435.176 525.971 434.924 526.427 434.588C526.907 434.252 527.279 433.832 527.543 433.328C527.831 432.8 527.975 432.188 527.975 431.492V418.568H530.027V437H527.975V434.084ZM536.741 437V418.568H538.793V421.88H538.937C539.297 421.016 539.909 420.248 540.773 419.576C541.637 418.904 542.861 418.568 544.445 418.568H545.669V420.584H544.049C542.513 420.584 541.253 420.92 540.269 421.592C539.285 422.264 538.793 423.2 538.793 424.4V437H536.741ZM558.98 420.368H555.812V418.568H558.98V413.42C558.98 412.484 559.208 411.74 559.664 411.188C560.144 410.636 560.876 410.36 561.86 410.36H565.1V412.16H561.032V418.568H565.1V420.368H561.032V437H558.98V420.368ZM580.745 434.084H580.601C580.433 434.516 580.205 434.936 579.917 435.344C579.629 435.752 579.269 436.112 578.837 436.424C578.405 436.712 577.889 436.952 577.289 437.144C576.713 437.336 576.029 437.432 575.237 437.432C573.269 437.432 571.733 436.832 570.629 435.632C569.525 434.408 568.973 432.668 568.973 430.412V418.568H571.025V430.016C571.025 431.912 571.433 433.316 572.249 434.228C573.065 435.14 574.241 435.596 575.777 435.596C576.425 435.596 577.037 435.512 577.613 435.344C578.213 435.176 578.741 434.924 579.197 434.588C579.677 434.252 580.049 433.832 580.313 433.328C580.601 432.8 580.745 432.188 580.745 431.492V418.568H582.797V437H580.745V434.084ZM591.778 437C591.034 437 590.47 436.796 590.086 436.388C589.702 435.98 589.51 435.44 589.51 434.768V410.36H591.562V435.2H594.406V437H591.778ZM601.024 437C600.28 437 599.716 436.796 599.332 436.388C598.948 435.98 598.756 435.44 598.756 434.768V410.36H600.808V435.2H603.652V437H601.024ZM621.976 437.432C620.368 437.432 618.988 437.132 617.836 436.532C616.708 435.932 615.724 435.056 614.884 433.904L616.396 432.716C617.164 433.724 618.004 434.468 618.916 434.948C619.828 435.428 620.896 435.668 622.12 435.668C623.536 435.668 624.628 435.368 625.396 434.768C626.164 434.168 626.548 433.304 626.548 432.176C626.548 431.192 626.248 430.424 625.648 429.872C625.072 429.296 624.112 428.912 622.768 428.72L621.256 428.468C620.416 428.348 619.648 428.168 618.952 427.928C618.256 427.688 617.656 427.364 617.152 426.956C616.672 426.548 616.288 426.056 616 425.48C615.736 424.88 615.604 424.16 615.604 423.32C615.604 422.456 615.76 421.7 616.072 421.052C616.408 420.404 616.852 419.864 617.404 419.432C617.956 419 618.616 418.676 619.384 418.46C620.152 418.244 620.98 418.136 621.868 418.136C623.404 418.136 624.664 418.4 625.648 418.928C626.632 419.456 627.472 420.14 628.168 420.98L626.8 422.24C626.32 421.664 625.672 421.136 624.856 420.656C624.064 420.152 623.032 419.9 621.76 419.9C620.44 419.9 619.408 420.188 618.664 420.764C617.944 421.34 617.584 422.156 617.584 423.212C617.584 424.292 617.908 425.072 618.556 425.552C619.228 426.032 620.224 426.38 621.544 426.596L623.02 426.812C624.892 427.1 626.272 427.664 627.16 428.504C628.072 429.32 628.528 430.472 628.528 431.96C628.528 433.688 627.94 435.032 626.764 435.992C625.612 436.952 624.016 437.432 621.976 437.432ZM640.5 437.432C639.276 437.432 638.16 437.216 637.152 436.784C636.168 436.352 635.316 435.728 634.596 434.912C633.9 434.072 633.36 433.052 632.976 431.852C632.616 430.652 632.436 429.296 632.436 427.784C632.436 426.272 632.616 424.928 632.976 423.752C633.36 422.552 633.9 421.544 634.596 420.728C635.316 419.888 636.168 419.252 637.152 418.82C638.136 418.364 639.24 418.136 640.464 418.136C641.64 418.136 642.708 418.364 643.668 418.82C644.628 419.252 645.444 419.864 646.116 420.656C646.788 421.448 647.304 422.408 647.664 423.536C648.048 424.64 648.24 425.864 648.24 427.208V428.18H634.596V429.08C634.596 430.04 634.728 430.928 634.992 431.744C635.28 432.536 635.676 433.22 636.18 433.796C636.708 434.372 637.344 434.828 638.088 435.164C638.832 435.476 639.672 435.632 640.608 435.632C643.296 435.632 645.156 434.396 646.188 431.924L647.7 432.932C647.124 434.3 646.212 435.392 644.964 436.208C643.74 437.024 642.252 437.432 640.5 437.432ZM640.464 419.864C639.576 419.864 638.772 420.032 638.052 420.368C637.332 420.68 636.708 421.124 636.18 421.7C635.676 422.276 635.28 422.972 634.992 423.788C634.728 424.58 634.596 425.456 634.596 426.416V426.596H646.008V426.308C646.008 425.348 645.876 424.472 645.612 423.68C645.348 422.864 644.964 422.18 644.46 421.628C643.98 421.076 643.392 420.644 642.696 420.332C642.024 420.02 641.28 419.864 640.464 419.864ZM655.727 437C654.983 437 654.419 436.796 654.035 436.388C653.651 435.98 653.459 435.44 653.459 434.768V410.36H655.511V435.2H658.355V437H655.727ZM669.54 437.432C668.316 437.432 667.2 437.216 666.192 436.784C665.208 436.352 664.356 435.728 663.636 434.912C662.94 434.072 662.4 433.052 662.016 431.852C661.656 430.652 661.476 429.296 661.476 427.784C661.476 426.272 661.656 424.928 662.016 423.752C662.4 422.552 662.94 421.544 663.636 420.728C664.356 419.888 665.208 419.252 666.192 418.82C667.176 418.364 668.28 418.136 669.504 418.136C670.68 418.136 671.748 418.364 672.708 418.82C673.668 419.252 674.484 419.864 675.156 420.656C675.828 421.448 676.344 422.408 676.704 423.536C677.088 424.64 677.28 425.864 677.28 427.208V428.18H663.636V429.08C663.636 430.04 663.768 430.928 664.032 431.744C664.32 432.536 664.716 433.22 665.22 433.796C665.748 434.372 666.384 434.828 667.128 435.164C667.872 435.476 668.712 435.632 669.648 435.632C672.336 435.632 674.196 434.396 675.228 431.924L676.74 432.932C676.164 434.3 675.252 435.392 674.004 436.208C672.78 437.024 671.292 437.432 669.54 437.432ZM669.504 419.864C668.616 419.864 667.812 420.032 667.092 420.368C666.372 420.68 665.748 421.124 665.22 421.7C664.716 422.276 664.32 422.972 664.032 423.788C663.768 424.58 663.636 425.456 663.636 426.416V426.596H675.048V426.308C675.048 425.348 674.916 424.472 674.652 423.68C674.388 422.864 674.004 422.18 673.5 421.628C673.02 421.076 672.432 420.644 671.736 420.332C671.064 420.02 670.32 419.864 669.504 419.864ZM688.978 437.432C686.434 437.432 684.466 436.592 683.074 434.912C681.706 433.232 681.022 430.856 681.022 427.784C681.022 424.712 681.706 422.336 683.074 420.656C684.466 418.976 686.434 418.136 688.978 418.136C690.682 418.136 692.062 418.508 693.118 419.252C694.174 419.996 694.978 420.98 695.53 422.204L693.802 423.068C693.37 422.06 692.758 421.292 691.966 420.764C691.198 420.236 690.202 419.972 688.978 419.972C687.106 419.972 685.678 420.572 684.694 421.772C683.71 422.972 683.218 424.544 683.218 426.488V429.08C683.218 431.024 683.71 432.596 684.694 433.796C685.678 434.996 687.106 435.596 688.978 435.596C690.25 435.596 691.318 435.32 692.182 434.768C693.046 434.216 693.742 433.424 694.27 432.392L695.782 433.4C695.182 434.624 694.318 435.608 693.19 436.352C692.086 437.072 690.682 437.432 688.978 437.432ZM703.526 437C702.782 437 702.218 436.796 701.834 436.388C701.45 435.98 701.258 435.428 701.258 434.732V420.368H698.054V418.568H700.142C700.646 418.568 700.982 418.472 701.15 418.28C701.342 418.064 701.438 417.692 701.438 417.164V413.42H703.31V418.568H707.486V420.368H703.31V435.2H707.198V437H703.526ZM713.424 413.564C712.944 413.564 712.584 413.444 712.344 413.204C712.128 412.964 712.02 412.652 712.02 412.268V411.908C712.02 411.524 712.128 411.212 712.344 410.972C712.584 410.732 712.944 410.612 713.424 410.612C713.904 410.612 714.252 410.732 714.468 410.972C714.708 411.212 714.828 411.524 714.828 411.908V412.268C714.828 412.652 714.708 412.964 714.468 413.204C714.252 413.444 713.904 413.564 713.424 413.564ZM712.416 418.568H714.468V437H712.416V418.568ZM727.722 437.432C726.498 437.432 725.394 437.216 724.41 436.784C723.426 436.352 722.586 435.728 721.89 434.912C721.194 434.072 720.654 433.052 720.27 431.852C719.886 430.652 719.694 429.296 719.694 427.784C719.694 426.272 719.886 424.928 720.27 423.752C720.654 422.552 721.194 421.544 721.89 420.728C722.586 419.888 723.426 419.252 724.41 418.82C725.394 418.364 726.498 418.136 727.722 418.136C728.946 418.136 730.05 418.364 731.034 418.82C732.018 419.252 732.858 419.888 733.554 420.728C734.25 421.544 734.79 422.552 735.174 423.752C735.558 424.928 735.75 426.272 735.75 427.784C735.75 429.296 735.558 430.652 735.174 431.852C734.79 433.052 734.25 434.072 733.554 434.912C732.858 435.728 732.018 436.352 731.034 436.784C730.05 437.216 728.946 437.432 727.722 437.432ZM727.722 435.596C729.522 435.596 730.938 435.032 731.97 433.904C733.026 432.776 733.554 431.12 733.554 428.936V426.632C733.554 424.472 733.026 422.828 731.97 421.7C730.938 420.548 729.522 419.972 727.722 419.972C725.922 419.972 724.494 420.536 723.438 421.664C722.406 422.792 721.89 424.448 721.89 426.632V428.936C721.89 431.096 722.406 432.752 723.438 433.904C724.494 435.032 725.922 435.596 727.722 435.596ZM740.963 437V418.568H743.015V421.484H743.123C743.531 420.524 744.167 419.732 745.031 419.108C745.895 418.46 747.071 418.136 748.559 418.136C750.527 418.136 752.051 418.748 753.131 419.972C754.235 421.172 754.787 422.9 754.787 425.156V437H752.735V425.516C752.735 423.644 752.327 422.252 751.511 421.34C750.719 420.428 749.555 419.972 748.019 419.972C747.371 419.972 746.747 420.056 746.147 420.224C745.547 420.392 745.007 420.644 744.527 420.98C744.071 421.316 743.699 421.748 743.411 422.276C743.147 422.78 743.015 423.368 743.015 424.04V437H740.963ZM767.596 418.568H769.612L774.04 435.164H774.112L779.008 418.568H780.916L785.848 435.164H785.92L790.312 418.568H792.292L787.108 437H784.588L779.944 421.484H779.872L775.264 437H772.78L767.596 418.568ZM796.827 410.36H798.879V421.484H798.987C799.395 420.524 800.031 419.732 800.895 419.108C801.759 418.46 802.935 418.136 804.423 418.136C806.391 418.136 807.915 418.748 808.995 419.972C810.099 421.172 810.651 422.9 810.651 425.156V437H808.599V425.516C808.599 423.644 808.191 422.252 807.375 421.34C806.583 420.428 805.419 419.972 803.883 419.972C803.235 419.972 802.611 420.056 802.011 420.224C801.411 420.392 800.871 420.644 800.391 420.98C799.935 421.316 799.563 421.748 799.275 422.276C799.011 422.78 798.879 423.368 798.879 424.04V437H796.827V410.36ZM823.7 437.432C822.476 437.432 821.36 437.216 820.352 436.784C819.368 436.352 818.516 435.728 817.796 434.912C817.1 434.072 816.56 433.052 816.176 431.852C815.816 430.652 815.636 429.296 815.636 427.784C815.636 426.272 815.816 424.928 816.176 423.752C816.56 422.552 817.1 421.544 817.796 420.728C818.516 419.888 819.368 419.252 820.352 418.82C821.336 418.364 822.44 418.136 823.664 418.136C824.84 418.136 825.908 418.364 826.868 418.82C827.828 419.252 828.644 419.864 829.316 420.656C829.988 421.448 830.504 422.408 830.864 423.536C831.248 424.64 831.44 425.864 831.44 427.208V428.18H817.796V429.08C817.796 430.04 817.928 430.928 818.192 431.744C818.48 432.536 818.876 433.22 819.38 433.796C819.908 434.372 820.544 434.828 821.288 435.164C822.032 435.476 822.872 435.632 823.808 435.632C826.496 435.632 828.356 434.396 829.388 431.924L830.9 432.932C830.324 434.3 829.412 435.392 828.164 436.208C826.94 437.024 825.452 437.432 823.7 437.432ZM823.664 419.864C822.776 419.864 821.972 420.032 821.252 420.368C820.532 420.68 819.908 421.124 819.38 421.7C818.876 422.276 818.48 422.972 818.192 423.788C817.928 424.58 817.796 425.456 817.796 426.416V426.596H829.208V426.308C829.208 425.348 829.076 424.472 828.812 423.68C828.548 422.864 828.164 422.18 827.66 421.628C827.18 421.076 826.592 420.644 825.896 420.332C825.224 420.02 824.48 419.864 823.664 419.864ZM836.659 437V418.568H838.711V421.484H838.819C839.227 420.524 839.863 419.732 840.727 419.108C841.591 418.46 842.767 418.136 844.255 418.136C846.223 418.136 847.747 418.748 848.827 419.972C849.931 421.172 850.483 422.9 850.483 425.156V437H848.431V425.516C848.431 423.644 848.023 422.252 847.207 421.34C846.415 420.428 845.251 419.972 843.715 419.972C843.067 419.972 842.443 420.056 841.843 420.224C841.243 420.392 840.703 420.644 840.223 420.98C839.767 421.316 839.395 421.748 839.107 422.276C838.843 422.78 838.711 423.368 838.711 424.04V437H836.659ZM876.468 418.568H878.556L870.024 442.184C869.736 442.952 869.388 443.48 868.98 443.768C868.572 444.056 867.9 444.2 866.964 444.2H864.876V442.4H867.972L869.736 437.54L862.896 418.568H865.056L870.708 434.804H870.852L876.468 418.568ZM888.984 437.432C887.76 437.432 886.656 437.216 885.672 436.784C884.688 436.352 883.848 435.728 883.152 434.912C882.456 434.072 881.916 433.052 881.532 431.852C881.148 430.652 880.956 429.296 880.956 427.784C880.956 426.272 881.148 424.928 881.532 423.752C881.916 422.552 882.456 421.544 883.152 420.728C883.848 419.888 884.688 419.252 885.672 418.82C886.656 418.364 887.76 418.136 888.984 418.136C890.208 418.136 891.312 418.364 892.296 418.82C893.28 419.252 894.12 419.888 894.816 420.728C895.512 421.544 896.052 422.552 896.436 423.752C896.82 424.928 897.012 426.272 897.012 427.784C897.012 429.296 896.82 430.652 896.436 431.852C896.052 433.052 895.512 434.072 894.816 434.912C894.12 435.728 893.28 436.352 892.296 436.784C891.312 437.216 890.208 437.432 888.984 437.432ZM888.984 435.596C890.784 435.596 892.2 435.032 893.232 433.904C894.288 432.776 894.816 431.12 894.816 428.936V426.632C894.816 424.472 894.288 422.828 893.232 421.7C892.2 420.548 890.784 419.972 888.984 419.972C887.184 419.972 885.756 420.536 884.7 421.664C883.668 422.792 883.152 424.448 883.152 426.632V428.936C883.152 431.096 883.668 432.752 884.7 433.904C885.756 435.032 887.184 435.596 888.984 435.596ZM913.745 434.084H913.601C913.433 434.516 913.205 434.936 912.917 435.344C912.629 435.752 912.269 436.112 911.837 436.424C911.405 436.712 910.889 436.952 910.289 437.144C909.713 437.336 909.029 437.432 908.237 437.432C906.269 437.432 904.733 436.832 903.629 435.632C902.525 434.408 901.973 432.668 901.973 430.412V418.568H904.025V430.016C904.025 431.912 904.433 433.316 905.249 434.228C906.065 435.14 907.241 435.596 908.777 435.596C909.425 435.596 910.037 435.512 910.613 435.344C911.213 435.176 911.741 434.924 912.197 434.588C912.677 434.252 913.049 433.832 913.313 433.328C913.601 432.8 913.745 432.188 913.745 431.492V418.568H915.797V437H913.745V434.084ZM937.57 437.432C936.346 437.432 935.242 437.216 934.258 436.784C933.274 436.352 932.434 435.728 931.738 434.912C931.042 434.072 930.502 433.052 930.118 431.852C929.734 430.652 929.542 429.296 929.542 427.784C929.542 426.272 929.734 424.928 930.118 423.752C930.502 422.552 931.042 421.544 931.738 420.728C932.434 419.888 933.274 419.252 934.258 418.82C935.242 418.364 936.346 418.136 937.57 418.136C938.794 418.136 939.898 418.364 940.882 418.82C941.866 419.252 942.706 419.888 943.402 420.728C944.098 421.544 944.638 422.552 945.022 423.752C945.406 424.928 945.598 426.272 945.598 427.784C945.598 429.296 945.406 430.652 945.022 431.852C944.638 433.052 944.098 434.072 943.402 434.912C942.706 435.728 941.866 436.352 940.882 436.784C939.898 437.216 938.794 437.432 937.57 437.432ZM937.57 435.596C939.37 435.596 940.786 435.032 941.818 433.904C942.874 432.776 943.402 431.12 943.402 428.936V426.632C943.402 424.472 942.874 422.828 941.818 421.7C940.786 420.548 939.37 419.972 937.57 419.972C935.77 419.972 934.342 420.536 933.286 421.664C932.254 422.792 931.738 424.448 931.738 426.632V428.936C931.738 431.096 932.254 432.752 933.286 433.904C934.342 435.032 935.77 435.596 937.57 435.596ZM950.811 437V418.568H952.863V421.88H953.007C953.367 421.016 953.979 420.248 954.843 419.576C955.707 418.904 956.931 418.568 958.515 418.568H959.739V420.584H958.119C956.583 420.584 955.323 420.92 954.339 421.592C953.355 422.264 952.863 423.2 952.863 424.4V437H950.811ZM975.453 434.048H975.345C974.865 435.08 974.157 435.908 973.221 436.532C972.309 437.132 971.145 437.432 969.729 437.432C967.353 437.432 965.493 436.592 964.149 434.912C962.805 433.232 962.133 430.856 962.133 427.784C962.133 424.712 962.805 422.336 964.149 420.656C965.493 418.976 967.353 418.136 969.729 418.136C971.145 418.136 972.321 418.448 973.257 419.072C974.193 419.672 974.889 420.488 975.345 421.52H975.453V410.36H977.505V437H975.453V434.048ZM970.197 435.596C970.917 435.596 971.589 435.5 972.213 435.308C972.861 435.116 973.425 434.84 973.905 434.48C974.385 434.096 974.757 433.652 975.021 433.148C975.309 432.62 975.453 432.032 975.453 431.384V424.076C975.453 423.476 975.309 422.924 975.021 422.42C974.757 421.916 974.385 421.484 973.905 421.124C973.425 420.764 972.861 420.488 972.213 420.296C971.589 420.08 970.917 419.972 970.197 419.972C968.349 419.972 966.909 420.56 965.877 421.736C964.845 422.912 964.329 424.496 964.329 426.488V429.08C964.329 431.072 964.845 432.656 965.877 433.832C966.909 435.008 968.349 435.596 970.197 435.596ZM990.797 437.432C989.573 437.432 988.457 437.216 987.449 436.784C986.465 436.352 985.613 435.728 984.893 434.912C984.197 434.072 983.657 433.052 983.273 431.852C982.913 430.652 982.733 429.296 982.733 427.784C982.733 426.272 982.913 424.928 983.273 423.752C983.657 422.552 984.197 421.544 984.893 420.728C985.613 419.888 986.465 419.252 987.449 418.82C988.433 418.364 989.537 418.136 990.761 418.136C991.937 418.136 993.005 418.364 993.965 418.82C994.925 419.252 995.741 419.864 996.413 420.656C997.085 421.448 997.601 422.408 997.961 423.536C998.345 424.64 998.537 425.864 998.537 427.208V428.18H984.893V429.08C984.893 430.04 985.025 430.928 985.289 431.744C985.577 432.536 985.973 433.22 986.477 433.796C987.005 434.372 987.641 434.828 988.385 435.164C989.129 435.476 989.969 435.632 990.905 435.632C993.593 435.632 995.453 434.396 996.485 431.924L997.997 432.932C997.421 434.3 996.509 435.392 995.261 436.208C994.037 437.024 992.549 437.432 990.797 437.432ZM990.761 419.864C989.873 419.864 989.069 420.032 988.349 420.368C987.629 420.68 987.005 421.124 986.477 421.7C985.973 422.276 985.577 422.972 985.289 423.788C985.025 424.58 984.893 425.456 984.893 426.416V426.596H996.305V426.308C996.305 425.348 996.173 424.472 995.909 423.68C995.645 422.864 995.261 422.18 994.757 421.628C994.277 421.076 993.689 420.644 992.993 420.332C992.321 420.02 991.577 419.864 990.761 419.864ZM1003.76 437V418.568H1005.81V421.88H1005.95C1006.31 421.016 1006.92 420.248 1007.79 419.576C1008.65 418.904 1009.88 418.568 1011.46 418.568H1012.68V420.584H1011.06C1009.53 420.584 1008.27 420.92 1007.28 421.592C1006.3 422.264 1005.81 423.2 1005.81 424.4V437H1003.76ZM1031.68 437.432C1030.46 437.432 1029.36 437.216 1028.37 436.784C1027.39 436.352 1026.55 435.728 1025.85 434.912C1025.16 434.072 1024.62 433.052 1024.23 431.852C1023.85 430.652 1023.66 429.296 1023.66 427.784C1023.66 426.272 1023.85 424.928 1024.23 423.752C1024.62 422.552 1025.16 421.544 1025.85 420.728C1026.55 419.888 1027.39 419.252 1028.37 418.82C1029.36 418.364 1030.46 418.136 1031.68 418.136C1032.91 418.136 1034.01 418.364 1035 418.82C1035.98 419.252 1036.82 419.888 1037.52 420.728C1038.21 421.544 1038.75 422.552 1039.14 423.752C1039.52 424.928 1039.71 426.272 1039.71 427.784C1039.71 429.296 1039.52 430.652 1039.14 431.852C1038.75 433.052 1038.21 434.072 1037.52 434.912C1036.82 435.728 1035.98 436.352 1035 436.784C1034.01 437.216 1032.91 437.432 1031.68 437.432ZM1031.68 435.596C1033.48 435.596 1034.9 435.032 1035.93 433.904C1036.99 432.776 1037.52 431.12 1037.52 428.936V426.632C1037.52 424.472 1036.99 422.828 1035.93 421.7C1034.9 420.548 1033.48 419.972 1031.68 419.972C1029.88 419.972 1028.46 420.536 1027.4 421.664C1026.37 422.792 1025.85 424.448 1025.85 426.632V428.936C1025.85 431.096 1026.37 432.752 1027.4 433.904C1028.46 435.032 1029.88 435.596 1031.68 435.596ZM1044.92 437V418.568H1046.98V421.484H1047.08C1047.49 420.524 1048.13 419.732 1048.99 419.108C1049.86 418.46 1051.03 418.136 1052.52 418.136C1054.49 418.136 1056.01 418.748 1057.09 419.972C1058.2 421.172 1058.75 422.9 1058.75 425.156V437H1056.7V425.516C1056.7 423.644 1056.29 422.252 1055.47 421.34C1054.68 420.428 1053.52 419.972 1051.98 419.972C1051.33 419.972 1050.71 420.056 1050.11 420.224C1049.51 420.392 1048.97 420.644 1048.49 420.98C1048.03 421.316 1047.66 421.748 1047.37 422.276C1047.11 422.78 1046.98 423.368 1046.98 424.04V437H1044.92ZM1067.48 437C1066.73 437 1066.17 436.796 1065.79 436.388C1065.4 435.98 1065.21 435.44 1065.21 434.768V410.36H1067.26V435.2H1070.11V437H1067.48ZM1075.71 413.564C1075.23 413.564 1074.87 413.444 1074.63 413.204C1074.41 412.964 1074.31 412.652 1074.31 412.268V411.908C1074.31 411.524 1074.41 411.212 1074.63 410.972C1074.87 410.732 1075.23 410.612 1075.71 410.612C1076.19 410.612 1076.54 410.732 1076.75 410.972C1076.99 411.212 1077.11 411.524 1077.11 411.908V412.268C1077.11 412.652 1076.99 412.964 1076.75 413.204C1076.54 413.444 1076.19 413.564 1075.71 413.564ZM1074.7 418.568H1076.75V437H1074.7V418.568ZM1083.46 437V418.568H1085.51V421.484H1085.62C1086.02 420.524 1086.66 419.732 1087.52 419.108C1088.39 418.46 1089.56 418.136 1091.05 418.136C1093.02 418.136 1094.54 418.748 1095.62 419.972C1096.73 421.172 1097.28 422.9 1097.28 425.156V437H1095.23V425.516C1095.23 423.644 1094.82 422.252 1094 421.34C1093.21 420.428 1092.05 419.972 1090.51 419.972C1089.86 419.972 1089.24 420.056 1088.64 420.224C1088.04 420.392 1087.5 420.644 1087.02 420.98C1086.56 421.316 1086.19 421.748 1085.9 422.276C1085.64 422.78 1085.51 423.368 1085.51 424.04V437H1083.46ZM1110.33 437.432C1109.1 437.432 1107.99 437.216 1106.98 436.784C1106 436.352 1105.14 435.728 1104.42 434.912C1103.73 434.072 1103.19 433.052 1102.8 431.852C1102.44 430.652 1102.26 429.296 1102.26 427.784C1102.26 426.272 1102.44 424.928 1102.8 423.752C1103.19 422.552 1103.73 421.544 1104.42 420.728C1105.14 419.888 1106 419.252 1106.98 418.82C1107.96 418.364 1109.07 418.136 1110.29 418.136C1111.47 418.136 1112.54 418.364 1113.5 418.82C1114.46 419.252 1115.27 419.864 1115.94 420.656C1116.62 421.448 1117.13 422.408 1117.49 423.536C1117.88 424.64 1118.07 425.864 1118.07 427.208V428.18H1104.42V429.08C1104.42 430.04 1104.56 430.928 1104.82 431.744C1105.11 432.536 1105.5 433.22 1106.01 433.796C1106.54 434.372 1107.17 434.828 1107.92 435.164C1108.66 435.476 1109.5 435.632 1110.44 435.632C1113.12 435.632 1114.98 434.396 1116.02 431.924L1117.53 432.932C1116.95 434.3 1116.04 435.392 1114.79 436.208C1113.57 437.024 1112.08 437.432 1110.33 437.432ZM1110.29 419.864C1109.4 419.864 1108.6 420.032 1107.88 420.368C1107.16 420.68 1106.54 421.124 1106.01 421.7C1105.5 422.276 1105.11 422.972 1104.82 423.788C1104.56 424.58 1104.42 425.456 1104.42 426.416V426.596H1115.84V426.308C1115.84 425.348 1115.7 424.472 1115.44 423.68C1115.18 422.864 1114.79 422.18 1114.29 421.628C1113.81 421.076 1113.22 420.644 1112.52 420.332C1111.85 420.02 1111.11 419.864 1110.29 419.864ZM1124.3 430.484L1123.72 420.296V411.872H1125.95V420.296L1125.34 430.484H1124.3ZM1124.84 437.324C1124.24 437.324 1123.79 437.18 1123.5 436.892C1123.24 436.58 1123.11 436.184 1123.11 435.704V435.308C1123.11 434.828 1123.24 434.444 1123.5 434.156C1123.79 433.844 1124.24 433.688 1124.84 433.688C1125.41 433.688 1125.84 433.844 1126.13 434.156C1126.42 434.444 1126.56 434.828 1126.56 435.308V435.704C1126.56 436.184 1126.42 436.58 1126.13 436.892C1125.84 437.18 1125.41 437.324 1124.84 437.324Z" fill="white"/>
<path d="M1.5 262.5C53.5 192.5 214.9 78.3 444.5 181.5C674.1 284.7 1029.5 230.833 1178.5 191L1557.5 66" stroke="white" stroke-width="2"/>
<path d="M2 238.5C54 168.5 215.4 54.3 445 157.5C674.6 260.7 1030 206.833 1179 167L1558 42" stroke="white" stroke-width="2"/>
<path d="M2 282.5C54 212.5 215.4 98.3 445 201.5C674.6 304.7 1030 250.833 1179 211L1558 86" stroke="white" stroke-width="2"/>
</svg>
