<svg width="1558" height="472" viewBox="0 0 1558 472" fill="none" xmlns="http://www.w3.org/2000/svg">
<rect x="56.5" width="1440" height="472" fill="#DCC72C"/>
<path d="M84.95 53L73.7 18.1H81.4L86.6 34.85L89.35 45.8H89.5L92.15 34.85L97.35 18.1H104.8L93.45 53H84.95ZM109.37 53V18.1H133.12V24.85H116.97V32H130.82V38.7H116.97V46.25H133.12V53H109.37ZM161.891 47.45H161.641C161.374 49.2167 160.474 50.6833 158.941 51.85C157.407 53.0167 155.324 53.6 152.691 53.6C150.691 53.6 148.824 53.2167 147.091 52.45C145.357 51.6833 143.841 50.55 142.541 49.05C141.241 47.55 140.224 45.6833 139.491 43.45C138.757 41.2167 138.391 38.6333 138.391 35.7C138.391 32.7667 138.774 30.1667 139.541 27.9C140.307 25.6333 141.374 23.7333 142.741 22.2C144.141 20.6667 145.807 19.5 147.741 18.7C149.674 17.9 151.824 17.5 154.191 17.5C157.324 17.5 160.024 18.1833 162.291 19.55C164.557 20.8833 166.341 22.9 167.641 25.6L161.441 29.15C160.907 27.7833 160.074 26.6333 158.941 25.7C157.807 24.7333 156.224 24.25 154.191 24.25C151.824 24.25 149.941 24.9333 148.541 26.3C147.141 27.6667 146.441 29.8167 146.441 32.75V38.35C146.441 41.25 147.141 43.4 148.541 44.8C149.941 46.1667 151.824 46.85 154.191 46.85C155.124 46.85 156.007 46.75 156.841 46.55C157.674 46.3167 158.407 45.9833 159.041 45.55C159.674 45.0833 160.157 44.5333 160.491 43.9C160.857 43.2667 161.041 42.5167 161.041 41.65V39.9H154.541V33.55H168.291V53H161.891V47.45ZM175.678 53V18.1H199.428V24.85H183.278V32H197.128V38.7H183.278V46.25H199.428V53H175.678ZM220.599 24.85V53H212.999V24.85H203.549V18.1H230.049V24.85H220.599ZM253.477 53L250.977 44.7H239.327L236.827 53H229.127L240.627 18.1H250.027L261.377 53H253.477ZM245.227 25H244.977L241.127 38.25H249.127L245.227 25ZM273.805 53H266.205V18.1H282.755C284.355 18.1 285.805 18.3667 287.105 18.9C288.405 19.4333 289.505 20.2 290.405 21.2C291.339 22.1667 292.055 23.3333 292.555 24.7C293.055 26.0667 293.305 27.5833 293.305 29.25C293.305 31.6167 292.772 33.6833 291.705 35.45C290.672 37.2167 289.089 38.5 286.955 39.3L293.805 53H285.355L279.255 40.2H273.805V53ZM281.805 33.8C282.939 33.8 283.822 33.5167 284.455 32.95C285.122 32.35 285.455 31.4833 285.455 30.35V28.15C285.455 27.0167 285.122 26.1667 284.455 25.6C283.822 25 282.939 24.7 281.805 24.7H273.805V33.8H281.805ZM298.547 53V46.95H303.047V24.15H298.547V18.1H315.147V24.15H310.647V46.95H315.147V53H298.547ZM342.979 53L340.479 44.7H328.829L326.329 53H318.629L330.129 18.1H339.529L350.879 53H342.979ZM334.729 25H334.479L330.629 38.25H338.629L334.729 25ZM366.357 36.5L363.007 29.5H362.857V53H355.707V18.1H364.007L373.557 34.6L376.907 41.6H377.057V18.1H384.207V53H375.907L366.357 36.5Z" fill="white"/>
<path d="M210.547 149.432C208.339 149.432 206.467 149.06 204.931 148.316C203.395 147.548 202.087 146.564 201.007 145.364L204.607 141.728C206.311 143.648 208.411 144.608 210.907 144.608C212.251 144.608 213.247 144.332 213.895 143.78C214.543 143.228 214.867 142.496 214.867 141.584C214.867 140.888 214.675 140.312 214.291 139.856C213.907 139.376 213.127 139.052 211.951 138.884L209.467 138.56C206.803 138.224 204.847 137.42 203.599 136.148C202.375 134.876 201.763 133.184 201.763 131.072C201.763 129.944 201.979 128.912 202.411 127.976C202.843 127.04 203.455 126.236 204.247 125.564C205.063 124.892 206.047 124.376 207.199 124.016C208.375 123.632 209.707 123.44 211.195 123.44C213.091 123.44 214.759 123.74 216.199 124.34C217.639 124.94 218.875 125.816 219.907 126.968L216.271 130.64C215.671 129.944 214.939 129.38 214.075 128.948C213.235 128.492 212.167 128.264 210.871 128.264C209.647 128.264 208.735 128.48 208.135 128.912C207.535 129.344 207.235 129.944 207.235 130.712C207.235 131.576 207.463 132.2 207.919 132.584C208.399 132.968 209.167 133.244 210.223 133.412L212.707 133.808C215.299 134.216 217.219 135.02 218.467 136.22C219.715 137.396 220.339 139.076 220.339 141.26C220.339 142.46 220.123 143.564 219.691 144.572C219.259 145.58 218.623 146.444 217.783 147.164C216.967 147.884 215.947 148.448 214.723 148.856C213.499 149.24 212.107 149.432 210.547 149.432ZM224.588 122.36H229.916V133.304H230.132C230.468 132.32 231.056 131.468 231.896 130.748C232.736 130.028 233.9 129.668 235.388 129.668C237.332 129.668 238.796 130.316 239.78 131.612C240.788 132.908 241.292 134.756 241.292 137.156V149H235.964V137.588C235.964 136.364 235.772 135.464 235.388 134.888C235.004 134.288 234.32 133.988 233.336 133.988C232.904 133.988 232.484 134.048 232.076 134.168C231.668 134.264 231.296 134.432 230.96 134.672C230.648 134.912 230.396 135.212 230.204 135.572C230.012 135.908 229.916 136.304 229.916 136.76V149H224.588V122.36ZM248.697 128.084C247.617 128.084 246.825 127.844 246.321 127.364C245.841 126.86 245.601 126.224 245.601 125.456V124.664C245.601 123.896 245.841 123.272 246.321 122.792C246.825 122.288 247.617 122.036 248.697 122.036C249.777 122.036 250.557 122.288 251.037 122.792C251.541 123.272 251.793 123.896 251.793 124.664V125.456C251.793 126.224 251.541 126.86 251.037 127.364C250.557 127.844 249.777 128.084 248.697 128.084ZM246.033 130.1H251.361V149H246.033V130.1ZM256.334 149V130.1H261.662V134.204H261.842C261.938 133.676 262.106 133.172 262.346 132.692C262.586 132.188 262.898 131.744 263.282 131.36C263.69 130.976 264.17 130.676 264.722 130.46C265.274 130.22 265.922 130.1 266.666 130.1H267.602V135.068H266.27C264.71 135.068 263.546 135.272 262.778 135.68C262.034 136.088 261.662 136.844 261.662 137.948V149H256.334ZM278.381 149.432C276.989 149.432 275.741 149.204 274.637 148.748C273.557 148.292 272.633 147.632 271.865 146.768C271.121 145.904 270.545 144.86 270.137 143.636C269.729 142.412 269.525 141.044 269.525 139.532C269.525 138.02 269.729 136.652 270.137 135.428C270.545 134.204 271.121 133.172 271.865 132.332C272.633 131.468 273.557 130.808 274.637 130.352C275.741 129.896 276.989 129.668 278.381 129.668C279.773 129.668 281.009 129.896 282.089 130.352C283.193 130.808 284.117 131.468 284.861 132.332C285.629 133.172 286.217 134.204 286.625 135.428C287.033 136.652 287.237 138.02 287.237 139.532C287.237 141.044 287.033 142.412 286.625 143.636C286.217 144.86 285.629 145.904 284.861 146.768C284.117 147.632 283.193 148.292 282.089 148.748C281.009 149.204 279.773 149.432 278.381 149.432ZM278.381 145.22C279.437 145.22 280.253 144.896 280.829 144.248C281.405 143.6 281.693 142.676 281.693 141.476V137.624C281.693 136.424 281.405 135.5 280.829 134.852C280.253 134.204 279.437 133.88 278.381 133.88C277.325 133.88 276.509 134.204 275.933 134.852C275.357 135.5 275.069 136.424 275.069 137.624V141.476C275.069 142.676 275.357 143.6 275.933 144.248C276.509 144.896 277.325 145.22 278.381 145.22ZM302.237 130.1H307.205L299.933 151.916C299.453 153.38 298.769 154.46 297.881 155.156C297.017 155.852 295.769 156.2 294.137 156.2H290.825V152.06H294.389L295.037 149.972L288.413 130.1H293.705L296.477 138.92L297.845 144.392H298.061L299.465 138.92L302.237 130.1ZM317.514 149.432C316.074 149.432 314.79 149.204 313.662 148.748C312.534 148.268 311.574 147.608 310.782 146.768C310.014 145.904 309.426 144.86 309.018 143.636C308.634 142.412 308.442 141.044 308.442 139.532C308.442 138.044 308.634 136.7 309.018 135.5C309.402 134.276 309.966 133.232 310.71 132.368C311.478 131.504 312.414 130.844 313.518 130.388C314.622 129.908 315.882 129.668 317.298 129.668C318.858 129.668 320.19 129.932 321.294 130.46C322.422 130.988 323.334 131.696 324.03 132.584C324.75 133.472 325.266 134.504 325.578 135.68C325.914 136.832 326.082 138.044 326.082 139.316V140.9H313.95V141.188C313.95 142.436 314.286 143.432 314.958 144.176C315.63 144.896 316.686 145.256 318.126 145.256C319.23 145.256 320.13 145.04 320.826 144.608C321.522 144.152 322.17 143.612 322.77 142.988L325.434 146.3C324.594 147.284 323.49 148.052 322.122 148.604C320.778 149.156 319.242 149.432 317.514 149.432ZM317.406 133.592C316.326 133.592 315.474 133.952 314.85 134.672C314.25 135.368 313.95 136.304 313.95 137.48V137.768H320.574V137.444C320.574 136.292 320.31 135.368 319.782 134.672C319.278 133.952 318.486 133.592 317.406 133.592Z" fill="white"/>
<path d="M713.195 128.732V149H707.723V128.732H700.919V123.872H719.999V128.732H713.195ZM728.767 149.432C727.375 149.432 726.127 149.204 725.023 148.748C723.943 148.292 723.019 147.632 722.251 146.768C721.507 145.904 720.931 144.86 720.523 143.636C720.115 142.412 719.911 141.044 719.911 139.532C719.911 138.02 720.115 136.652 720.523 135.428C720.931 134.204 721.507 133.172 722.251 132.332C723.019 131.468 723.943 130.808 725.023 130.352C726.127 129.896 727.375 129.668 728.767 129.668C730.159 129.668 731.395 129.896 732.475 130.352C733.579 130.808 734.503 131.468 735.247 132.332C736.015 133.172 736.603 134.204 737.011 135.428C737.419 136.652 737.623 138.02 737.623 139.532C737.623 141.044 737.419 142.412 737.011 143.636C736.603 144.86 736.015 145.904 735.247 146.768C734.503 147.632 733.579 148.292 732.475 148.748C731.395 149.204 730.159 149.432 728.767 149.432ZM728.767 145.22C729.823 145.22 730.639 144.896 731.215 144.248C731.791 143.6 732.079 142.676 732.079 141.476V137.624C732.079 136.424 731.791 135.5 731.215 134.852C730.639 134.204 729.823 133.88 728.767 133.88C727.711 133.88 726.895 134.204 726.319 134.852C725.743 135.5 725.455 136.424 725.455 137.624V141.476C725.455 142.676 725.743 143.6 726.319 144.248C726.895 144.896 727.711 145.22 728.767 145.22ZM742.145 134.24H739.481V130.1H742.145V127.868C742.145 126.044 742.625 124.676 743.585 123.764C744.545 122.828 745.949 122.36 747.797 122.36H751.253V126.5H747.473V130.1H751.253V134.24H747.473V149H742.145V134.24ZM765.376 145.832H765.196C765.028 146.312 764.8 146.768 764.512 147.2C764.248 147.632 763.9 148.016 763.468 148.352C763.036 148.688 762.52 148.952 761.92 149.144C761.344 149.336 760.672 149.432 759.904 149.432C757.96 149.432 756.484 148.796 755.476 147.524C754.492 146.228 754 144.38 754 141.98V130.1H759.328V141.512C759.328 142.664 759.532 143.552 759.94 144.176C760.348 144.8 761.044 145.112 762.028 145.112C762.436 145.112 762.844 145.052 763.252 144.932C763.66 144.812 764.02 144.644 764.332 144.428C764.644 144.188 764.896 143.9 765.088 143.564C765.28 143.228 765.376 142.832 765.376 142.376V130.1H770.704V149H765.376V145.832ZM794.934 128.732V149H789.462V128.732H782.658V123.872H801.738V128.732H794.934ZM807.857 128.084C806.777 128.084 805.985 127.844 805.481 127.364C805.001 126.86 804.761 126.224 804.761 125.456V124.664C804.761 123.896 805.001 123.272 805.481 122.792C805.985 122.288 806.777 122.036 807.857 122.036C808.937 122.036 809.717 122.288 810.197 122.792C810.701 123.272 810.953 123.896 810.953 124.664V125.456C810.953 126.224 810.701 126.86 810.197 127.364C809.717 127.844 808.937 128.084 807.857 128.084ZM805.193 130.1H810.521V149H805.193V130.1ZM815.494 122.36H820.822V133.268H821.002C821.266 132.212 821.866 131.348 822.802 130.676C823.762 130.004 824.854 129.668 826.078 129.668C828.478 129.668 830.29 130.508 831.514 132.188C832.738 133.868 833.35 136.316 833.35 139.532C833.35 142.748 832.738 145.208 831.514 146.912C830.29 148.592 828.478 149.432 826.078 149.432C825.454 149.432 824.866 149.336 824.314 149.144C823.762 148.976 823.258 148.736 822.802 148.424C822.37 148.088 821.998 147.704 821.686 147.272C821.374 146.816 821.146 146.336 821.002 145.832H820.822V149H815.494V122.36ZM824.314 145.112C825.322 145.112 826.15 144.764 826.798 144.068C827.47 143.348 827.806 142.388 827.806 141.188V137.912C827.806 136.712 827.47 135.764 826.798 135.068C826.15 134.348 825.322 133.988 824.314 133.988C823.306 133.988 822.466 134.24 821.794 134.744C821.146 135.224 820.822 135.896 820.822 136.76V142.34C820.822 143.204 821.146 143.888 821.794 144.392C822.466 144.872 823.306 145.112 824.314 145.112ZM843.804 149.432C841.98 149.432 840.444 149.144 839.196 148.568C837.948 147.968 836.832 147.128 835.848 146.048L838.98 142.88C839.652 143.624 840.396 144.212 841.212 144.644C842.028 145.076 842.952 145.292 843.984 145.292C845.04 145.292 845.772 145.136 846.18 144.824C846.588 144.488 846.792 144.044 846.792 143.492C846.792 142.604 846.156 142.076 844.884 141.908L842.832 141.656C838.584 141.128 836.46 139.184 836.46 135.824C836.46 134.912 836.628 134.084 836.964 133.34C837.324 132.572 837.816 131.924 838.44 131.396C839.088 130.844 839.856 130.424 840.744 130.136C841.656 129.824 842.676 129.668 843.804 129.668C844.788 129.668 845.652 129.74 846.396 129.884C847.164 130.004 847.836 130.196 848.412 130.46C849.012 130.7 849.552 131.012 850.032 131.396C850.536 131.756 851.028 132.164 851.508 132.62L848.448 135.752C847.848 135.152 847.164 134.684 846.396 134.348C845.652 133.988 844.884 133.808 844.092 133.808C843.18 133.808 842.532 133.952 842.148 134.24C841.764 134.528 841.572 134.912 841.572 135.392C841.572 135.896 841.704 136.292 841.968 136.58C842.256 136.844 842.784 137.036 843.552 137.156L845.676 137.444C849.828 137.996 851.904 139.892 851.904 143.132C851.904 144.044 851.712 144.884 851.328 145.652C850.944 146.42 850.392 147.092 849.672 147.668C848.976 148.22 848.124 148.652 847.116 148.964C846.132 149.276 845.028 149.432 843.804 149.432Z" fill="white"/>
<path d="M399.879 252V226.872H416.547V231.732H405.351V236.88H414.891V241.704H405.351V252H399.879ZM423.314 231.084C422.234 231.084 421.442 230.844 420.938 230.364C420.458 229.86 420.218 229.224 420.218 228.456V227.664C420.218 226.896 420.458 226.272 420.938 225.792C421.442 225.288 422.234 225.036 423.314 225.036C424.394 225.036 425.174 225.288 425.654 225.792C426.158 226.272 426.41 226.896 426.41 227.664V228.456C426.41 229.224 426.158 229.86 425.654 230.364C425.174 230.844 424.394 231.084 423.314 231.084ZM420.65 233.1H425.978V252H420.65V233.1ZM436.243 252C434.419 252 433.075 251.556 432.211 250.668C431.371 249.78 430.951 248.496 430.951 246.816V225.36H436.279V247.86H438.655V252H436.243ZM448.257 252.432C446.433 252.432 444.897 252.144 443.649 251.568C442.401 250.968 441.285 250.128 440.301 249.048L443.433 245.88C444.105 246.624 444.849 247.212 445.665 247.644C446.481 248.076 447.405 248.292 448.437 248.292C449.493 248.292 450.225 248.136 450.633 247.824C451.041 247.488 451.245 247.044 451.245 246.492C451.245 245.604 450.609 245.076 449.337 244.908L447.285 244.656C443.037 244.128 440.913 242.184 440.913 238.824C440.913 237.912 441.081 237.084 441.417 236.34C441.777 235.572 442.269 234.924 442.893 234.396C443.541 233.844 444.309 233.424 445.197 233.136C446.109 232.824 447.129 232.668 448.257 232.668C449.241 232.668 450.105 232.74 450.849 232.884C451.617 233.004 452.289 233.196 452.865 233.46C453.465 233.7 454.005 234.012 454.485 234.396C454.989 234.756 455.481 235.164 455.961 235.62L452.901 238.752C452.301 238.152 451.617 237.684 450.849 237.348C450.105 236.988 449.337 236.808 448.545 236.808C447.633 236.808 446.985 236.952 446.601 237.24C446.217 237.528 446.025 237.912 446.025 238.392C446.025 238.896 446.157 239.292 446.421 239.58C446.709 239.844 447.237 240.036 448.005 240.156L450.129 240.444C454.281 240.996 456.357 242.892 456.357 246.132C456.357 247.044 456.165 247.884 455.781 248.652C455.397 249.42 454.845 250.092 454.125 250.668C453.429 251.22 452.577 251.652 451.569 251.964C450.585 252.276 449.481 252.432 448.257 252.432ZM466.152 252.432C464.328 252.432 462.792 252.144 461.544 251.568C460.296 250.968 459.18 250.128 458.196 249.048L461.328 245.88C462 246.624 462.744 247.212 463.56 247.644C464.376 248.076 465.3 248.292 466.332 248.292C467.388 248.292 468.12 248.136 468.528 247.824C468.936 247.488 469.14 247.044 469.14 246.492C469.14 245.604 468.504 245.076 467.232 244.908L465.18 244.656C460.932 244.128 458.808 242.184 458.808 238.824C458.808 237.912 458.976 237.084 459.312 236.34C459.672 235.572 460.164 234.924 460.788 234.396C461.436 233.844 462.204 233.424 463.092 233.136C464.004 232.824 465.024 232.668 466.152 232.668C467.136 232.668 468 232.74 468.744 232.884C469.512 233.004 470.184 233.196 470.76 233.46C471.36 233.7 471.9 234.012 472.38 234.396C472.884 234.756 473.376 235.164 473.856 235.62L470.796 238.752C470.196 238.152 469.512 237.684 468.744 237.348C468 236.988 467.232 236.808 466.44 236.808C465.528 236.808 464.88 236.952 464.496 237.24C464.112 237.528 463.92 237.912 463.92 238.392C463.92 238.896 464.052 239.292 464.316 239.58C464.604 239.844 465.132 240.036 465.9 240.156L468.024 240.444C472.176 240.996 474.252 242.892 474.252 246.132C474.252 247.044 474.06 247.884 473.676 248.652C473.292 249.42 472.74 250.092 472.02 250.668C471.324 251.22 470.472 251.652 469.464 251.964C468.48 252.276 467.376 252.432 466.152 252.432ZM485.768 252.432C484.328 252.432 483.044 252.204 481.916 251.748C480.788 251.268 479.828 250.608 479.036 249.768C478.268 248.904 477.68 247.86 477.272 246.636C476.888 245.412 476.696 244.044 476.696 242.532C476.696 241.044 476.888 239.7 477.272 238.5C477.656 237.276 478.22 236.232 478.964 235.368C479.732 234.504 480.668 233.844 481.772 233.388C482.876 232.908 484.136 232.668 485.552 232.668C487.112 232.668 488.444 232.932 489.548 233.46C490.676 233.988 491.588 234.696 492.284 235.584C493.004 236.472 493.52 237.504 493.832 238.68C494.168 239.832 494.336 241.044 494.336 242.316V243.9H482.204V244.188C482.204 245.436 482.54 246.432 483.212 247.176C483.884 247.896 484.94 248.256 486.38 248.256C487.484 248.256 488.384 248.04 489.08 247.608C489.776 247.152 490.424 246.612 491.024 245.988L493.688 249.3C492.848 250.284 491.744 251.052 490.376 251.604C489.032 252.156 487.496 252.432 485.768 252.432ZM485.66 236.592C484.58 236.592 483.728 236.952 483.104 237.672C482.504 238.368 482.204 239.304 482.204 240.48V240.768H488.828V240.444C488.828 239.292 488.564 238.368 488.036 237.672C487.532 236.952 486.74 236.592 485.66 236.592ZM504.723 252C502.875 252 501.471 251.532 500.511 250.596C499.575 249.66 499.107 248.292 499.107 246.492V237.24H496.443V233.1H497.775C498.495 233.1 498.987 232.932 499.251 232.596C499.515 232.236 499.647 231.732 499.647 231.084V227.988H504.435V233.1H508.179V237.24H504.435V247.86H507.891V252H504.723ZM525.848 252C524.888 252 524.084 251.7 523.436 251.1C522.812 250.5 522.416 249.696 522.248 248.688H522.032C521.744 249.912 521.108 250.848 520.124 251.496C519.14 252.12 517.928 252.432 516.488 252.432C514.592 252.432 513.14 251.928 512.132 250.92C511.124 249.912 510.62 248.58 510.62 246.924C510.62 244.932 511.34 243.456 512.78 242.496C514.244 241.512 516.224 241.02 518.72 241.02H521.708V239.832C521.708 238.92 521.468 238.2 520.988 237.672C520.508 237.12 519.704 236.844 518.576 236.844C517.52 236.844 516.68 237.072 516.056 237.528C515.432 237.984 514.916 238.5 514.508 239.076L511.34 236.268C512.108 235.14 513.068 234.264 514.22 233.64C515.396 232.992 516.98 232.668 518.972 232.668C521.66 232.668 523.676 233.256 525.02 234.432C526.364 235.608 527.036 237.324 527.036 239.58V247.86H528.8V252H525.848ZM518.468 248.724C519.356 248.724 520.112 248.532 520.736 248.148C521.384 247.764 521.708 247.14 521.708 246.276V244.044H519.116C517.028 244.044 515.984 244.752 515.984 246.168V246.708C515.984 247.404 516.2 247.92 516.632 248.256C517.064 248.568 517.676 248.724 518.468 248.724Z" fill="white"/>
<path d="M941.172 247V221.872H957.84V226.732H946.644V231.88H956.184V236.704H946.644V247H941.172ZM964.607 226.084C963.527 226.084 962.735 225.844 962.231 225.364C961.751 224.86 961.511 224.224 961.511 223.456V222.664C961.511 221.896 961.751 221.272 962.231 220.792C962.735 220.288 963.527 220.036 964.607 220.036C965.687 220.036 966.467 220.288 966.947 220.792C967.451 221.272 967.703 221.896 967.703 222.664V223.456C967.703 224.224 967.451 224.86 966.947 225.364C966.467 225.844 965.687 226.084 964.607 226.084ZM961.943 228.1H967.271V247H961.943V228.1ZM977.536 247C975.712 247 974.368 246.556 973.504 245.668C972.664 244.78 972.244 243.496 972.244 241.816V220.36H977.572V242.86H979.948V247H977.536ZM988.153 247C986.329 247 984.985 246.556 984.121 245.668C983.281 244.78 982.861 243.496 982.861 241.816V220.36H988.189V242.86H990.565V247H988.153ZM1001.64 247.432C1000.2 247.432 998.919 247.204 997.791 246.748C996.663 246.268 995.703 245.608 994.911 244.768C994.143 243.904 993.555 242.86 993.147 241.636C992.763 240.412 992.571 239.044 992.571 237.532C992.571 236.044 992.763 234.7 993.147 233.5C993.531 232.276 994.095 231.232 994.839 230.368C995.607 229.504 996.543 228.844 997.647 228.388C998.751 227.908 1000.01 227.668 1001.43 227.668C1002.99 227.668 1004.32 227.932 1005.42 228.46C1006.55 228.988 1007.46 229.696 1008.16 230.584C1008.88 231.472 1009.4 232.504 1009.71 233.68C1010.04 234.832 1010.21 236.044 1010.21 237.316V238.9H998.079V239.188C998.079 240.436 998.415 241.432 999.087 242.176C999.759 242.896 1000.82 243.256 1002.26 243.256C1003.36 243.256 1004.26 243.04 1004.96 242.608C1005.65 242.152 1006.3 241.612 1006.9 240.988L1009.56 244.3C1008.72 245.284 1007.62 246.052 1006.25 246.604C1004.91 247.156 1003.37 247.432 1001.64 247.432ZM1001.54 231.592C1000.46 231.592 999.603 231.952 998.979 232.672C998.379 233.368 998.079 234.304 998.079 235.48V235.768H1004.7V235.444C1004.7 234.292 1004.44 233.368 1003.91 232.672C1003.41 231.952 1002.62 231.592 1001.54 231.592ZM1020.6 247C1018.75 247 1017.35 246.532 1016.39 245.596C1015.45 244.66 1014.98 243.292 1014.98 241.492V232.24H1012.32V228.1H1013.65C1014.37 228.1 1014.86 227.932 1015.13 227.596C1015.39 227.236 1015.52 226.732 1015.52 226.084V222.988H1020.31V228.1H1024.05V232.24H1020.31V242.86H1023.77V247H1020.6ZM1036.55 247V221.872H1053.22V226.732H1042.02V231.88H1051.56V236.704H1042.02V247H1036.55ZM1059.99 226.084C1058.91 226.084 1058.11 225.844 1057.61 225.364C1057.13 224.86 1056.89 224.224 1056.89 223.456V222.664C1056.89 221.896 1057.13 221.272 1057.61 220.792C1058.11 220.288 1058.91 220.036 1059.99 220.036C1061.07 220.036 1061.85 220.288 1062.33 220.792C1062.83 221.272 1063.08 221.896 1063.08 222.664V223.456C1063.08 224.224 1062.83 224.86 1062.33 225.364C1061.85 225.844 1061.07 226.084 1059.99 226.084ZM1057.32 228.1H1062.65V247H1057.32V228.1ZM1074.03 247.432C1072.21 247.432 1070.67 247.144 1069.42 246.568C1068.17 245.968 1067.06 245.128 1066.07 244.048L1069.21 240.88C1069.88 241.624 1070.62 242.212 1071.44 242.644C1072.25 243.076 1073.18 243.292 1074.21 243.292C1075.27 243.292 1076 243.136 1076.41 242.824C1076.81 242.488 1077.02 242.044 1077.02 241.492C1077.02 240.604 1076.38 240.076 1075.11 239.908L1073.06 239.656C1068.81 239.128 1066.69 237.184 1066.69 233.824C1066.69 232.912 1066.85 232.084 1067.19 231.34C1067.55 230.572 1068.04 229.924 1068.67 229.396C1069.31 228.844 1070.08 228.424 1070.97 228.136C1071.88 227.824 1072.9 227.668 1074.03 227.668C1075.01 227.668 1075.88 227.74 1076.62 227.884C1077.39 228.004 1078.06 228.196 1078.64 228.46C1079.24 228.7 1079.78 229.012 1080.26 229.396C1080.76 229.756 1081.25 230.164 1081.73 230.62L1078.67 233.752C1078.07 233.152 1077.39 232.684 1076.62 232.348C1075.88 231.988 1075.11 231.808 1074.32 231.808C1073.41 231.808 1072.76 231.952 1072.37 232.24C1071.99 232.528 1071.8 232.912 1071.8 233.392C1071.8 233.896 1071.93 234.292 1072.19 234.58C1072.48 234.844 1073.01 235.036 1073.78 235.156L1075.9 235.444C1080.05 235.996 1082.13 237.892 1082.13 241.132C1082.13 242.044 1081.94 242.884 1081.55 243.652C1081.17 244.42 1080.62 245.092 1079.9 245.668C1079.2 246.22 1078.35 246.652 1077.34 246.964C1076.36 247.276 1075.25 247.432 1074.03 247.432ZM1085.76 220.36H1091.09V231.304H1091.31C1091.64 230.32 1092.23 229.468 1093.07 228.748C1093.91 228.028 1095.08 227.668 1096.56 227.668C1098.51 227.668 1099.97 228.316 1100.96 229.612C1101.96 230.908 1102.47 232.756 1102.47 235.156V247H1097.14V235.588C1097.14 234.364 1096.95 233.464 1096.56 232.888C1096.18 232.288 1095.5 231.988 1094.51 231.988C1094.08 231.988 1093.66 232.048 1093.25 232.168C1092.84 232.264 1092.47 232.432 1092.14 232.672C1091.82 232.912 1091.57 233.212 1091.38 233.572C1091.19 233.908 1091.09 234.304 1091.09 234.76V247H1085.76V220.36ZM1126.48 226.732V247H1121.01V226.732H1114.2V221.872H1133.28V226.732H1126.48ZM1139.4 226.084C1138.32 226.084 1137.53 225.844 1137.03 225.364C1136.55 224.86 1136.31 224.224 1136.31 223.456V222.664C1136.31 221.896 1136.55 221.272 1137.03 220.792C1137.53 220.288 1138.32 220.036 1139.4 220.036C1140.48 220.036 1141.26 220.288 1141.74 220.792C1142.25 221.272 1142.5 221.896 1142.5 222.664V223.456C1142.5 224.224 1142.25 224.86 1141.74 225.364C1141.26 225.844 1140.48 226.084 1139.4 226.084ZM1136.74 228.1H1142.07V247H1136.74V228.1ZM1147.04 220.36H1152.37V231.268H1152.55C1152.81 230.212 1153.41 229.348 1154.35 228.676C1155.31 228.004 1156.4 227.668 1157.62 227.668C1160.02 227.668 1161.84 228.508 1163.06 230.188C1164.28 231.868 1164.9 234.316 1164.9 237.532C1164.9 240.748 1164.28 243.208 1163.06 244.912C1161.84 246.592 1160.02 247.432 1157.62 247.432C1157 247.432 1156.41 247.336 1155.86 247.144C1155.31 246.976 1154.8 246.736 1154.35 246.424C1153.92 246.088 1153.54 245.704 1153.23 245.272C1152.92 244.816 1152.69 244.336 1152.55 243.832H1152.37V247H1147.04V220.36ZM1155.86 243.112C1156.87 243.112 1157.7 242.764 1158.34 242.068C1159.02 241.348 1159.35 240.388 1159.35 239.188V235.912C1159.35 234.712 1159.02 233.764 1158.34 233.068C1157.7 232.348 1156.87 231.988 1155.86 231.988C1154.85 231.988 1154.01 232.24 1153.34 232.744C1152.69 233.224 1152.37 233.896 1152.37 234.76V240.34C1152.37 241.204 1152.69 241.888 1153.34 242.392C1154.01 242.872 1154.85 243.112 1155.86 243.112ZM1175.35 247.432C1173.53 247.432 1171.99 247.144 1170.74 246.568C1169.49 245.968 1168.38 245.128 1167.39 244.048L1170.53 240.88C1171.2 241.624 1171.94 242.212 1172.76 242.644C1173.57 243.076 1174.5 243.292 1175.53 243.292C1176.59 243.292 1177.32 243.136 1177.73 242.824C1178.13 242.488 1178.34 242.044 1178.34 241.492C1178.34 240.604 1177.7 240.076 1176.43 239.908L1174.38 239.656C1170.13 239.128 1168.01 237.184 1168.01 233.824C1168.01 232.912 1168.17 232.084 1168.51 231.34C1168.87 230.572 1169.36 229.924 1169.99 229.396C1170.63 228.844 1171.4 228.424 1172.29 228.136C1173.2 227.824 1174.22 227.668 1175.35 227.668C1176.33 227.668 1177.2 227.74 1177.94 227.884C1178.71 228.004 1179.38 228.196 1179.96 228.46C1180.56 228.7 1181.1 229.012 1181.58 229.396C1182.08 229.756 1182.57 230.164 1183.05 230.62L1179.99 233.752C1179.39 233.152 1178.71 232.684 1177.94 232.348C1177.2 231.988 1176.43 231.808 1175.64 231.808C1174.73 231.808 1174.08 231.952 1173.69 232.24C1173.31 232.528 1173.12 232.912 1173.12 233.392C1173.12 233.896 1173.25 234.292 1173.51 234.58C1173.8 234.844 1174.33 235.036 1175.1 235.156L1177.22 235.444C1181.37 235.996 1183.45 237.892 1183.45 241.132C1183.45 242.044 1183.26 242.884 1182.87 243.652C1182.49 244.42 1181.94 245.092 1181.22 245.668C1180.52 246.22 1179.67 246.652 1178.66 246.964C1177.68 247.276 1176.57 247.432 1175.35 247.432Z" fill="white"/>
<path d="M1144.05 149.432C1141.84 149.432 1139.97 149.06 1138.44 148.316C1136.9 147.548 1135.59 146.564 1134.51 145.364L1138.11 141.728C1139.82 143.648 1141.92 144.608 1144.41 144.608C1145.76 144.608 1146.75 144.332 1147.4 143.78C1148.05 143.228 1148.37 142.496 1148.37 141.584C1148.37 140.888 1148.18 140.312 1147.8 139.856C1147.41 139.376 1146.63 139.052 1145.46 138.884L1142.97 138.56C1140.31 138.224 1138.35 137.42 1137.1 136.148C1135.88 134.876 1135.27 133.184 1135.27 131.072C1135.27 129.944 1135.48 128.912 1135.92 127.976C1136.35 127.04 1136.96 126.236 1137.75 125.564C1138.57 124.892 1139.55 124.376 1140.7 124.016C1141.88 123.632 1143.21 123.44 1144.7 123.44C1146.6 123.44 1148.26 123.74 1149.7 124.34C1151.14 124.94 1152.38 125.816 1153.41 126.968L1149.78 130.64C1149.18 129.944 1148.44 129.38 1147.58 128.948C1146.74 128.492 1145.67 128.264 1144.38 128.264C1143.15 128.264 1142.24 128.48 1141.64 128.912C1141.04 129.344 1140.74 129.944 1140.74 130.712C1140.74 131.576 1140.97 132.2 1141.42 132.584C1141.9 132.968 1142.67 133.244 1143.73 133.412L1146.21 133.808C1148.8 134.216 1150.72 135.02 1151.97 136.22C1153.22 137.396 1153.84 139.076 1153.84 141.26C1153.84 142.46 1153.63 143.564 1153.2 144.572C1152.76 145.58 1152.13 146.444 1151.29 147.164C1150.47 147.884 1149.45 148.448 1148.23 148.856C1147 149.24 1145.61 149.432 1144.05 149.432ZM1158.09 122.36H1163.42V133.304H1163.64C1163.97 132.32 1164.56 131.468 1165.4 130.748C1166.24 130.028 1167.41 129.668 1168.89 129.668C1170.84 129.668 1172.3 130.316 1173.29 131.612C1174.29 132.908 1174.8 134.756 1174.8 137.156V149H1169.47V137.588C1169.47 136.364 1169.28 135.464 1168.89 134.888C1168.51 134.288 1167.83 133.988 1166.84 133.988C1166.41 133.988 1165.99 134.048 1165.58 134.168C1165.17 134.264 1164.8 134.432 1164.47 134.672C1164.15 134.912 1163.9 135.212 1163.71 135.572C1163.52 135.908 1163.42 136.304 1163.42 136.76V149H1158.09V122.36ZM1179.54 149V130.1H1184.87V134.204H1185.05C1185.14 133.676 1185.31 133.172 1185.55 132.692C1185.79 132.188 1186.1 131.744 1186.49 131.36C1186.89 130.976 1187.37 130.676 1187.93 130.46C1188.48 130.22 1189.13 130.1 1189.87 130.1H1190.81V135.068H1189.47C1187.91 135.068 1186.75 135.272 1185.98 135.68C1185.24 136.088 1184.87 136.844 1184.87 137.948V149H1179.54ZM1196.76 128.084C1195.68 128.084 1194.89 127.844 1194.38 127.364C1193.9 126.86 1193.66 126.224 1193.66 125.456V124.664C1193.66 123.896 1193.9 123.272 1194.38 122.792C1194.89 122.288 1195.68 122.036 1196.76 122.036C1197.84 122.036 1198.62 122.288 1199.1 122.792C1199.6 123.272 1199.85 123.896 1199.85 124.664V125.456C1199.85 126.224 1199.6 126.86 1199.1 127.364C1198.62 127.844 1197.84 128.084 1196.76 128.084ZM1194.09 130.1H1199.42V149H1194.09V130.1ZM1204.39 149V130.1H1209.72V133.304H1209.94C1210.27 132.296 1210.85 131.444 1211.67 130.748C1212.48 130.028 1213.6 129.668 1215.01 129.668C1216.31 129.668 1217.41 129.992 1218.33 130.64C1219.24 131.288 1219.9 132.236 1220.31 133.484H1220.41C1220.58 132.956 1220.83 132.464 1221.17 132.008C1221.53 131.528 1221.96 131.12 1222.47 130.784C1222.97 130.448 1223.53 130.184 1224.16 129.992C1224.78 129.776 1225.45 129.668 1226.17 129.668C1228 129.668 1229.39 130.316 1230.35 131.612C1231.33 132.908 1231.83 134.756 1231.83 137.156V149H1226.5V137.588C1226.5 135.188 1225.63 133.988 1223.91 133.988C1223.11 133.988 1222.39 134.216 1221.75 134.672C1221.1 135.128 1220.77 135.824 1220.77 136.76V149H1215.45V137.588C1215.45 135.188 1214.58 133.988 1212.85 133.988C1212.47 133.988 1212.09 134.048 1211.7 134.168C1211.34 134.264 1211.01 134.432 1210.69 134.672C1210.41 134.912 1210.17 135.212 1209.97 135.572C1209.81 135.908 1209.72 136.304 1209.72 136.76V149H1204.39ZM1236.56 130.1H1241.89V133.268H1242.07C1242.33 132.212 1242.93 131.348 1243.87 130.676C1244.83 130.004 1245.92 129.668 1247.15 129.668C1249.55 129.668 1251.36 130.508 1252.58 132.188C1253.81 133.868 1254.42 136.316 1254.42 139.532C1254.42 142.748 1253.81 145.208 1252.58 146.912C1251.36 148.592 1249.55 149.432 1247.15 149.432C1246.52 149.432 1245.93 149.336 1245.38 149.144C1244.83 148.976 1244.33 148.736 1243.87 148.424C1243.44 148.088 1243.07 147.704 1242.75 147.272C1242.44 146.816 1242.21 146.336 1242.07 145.832H1241.89V156.2H1236.56V130.1ZM1245.38 145.112C1246.39 145.112 1247.22 144.764 1247.87 144.068C1248.54 143.348 1248.87 142.388 1248.87 141.188V137.912C1248.87 136.712 1248.54 135.764 1247.87 135.068C1247.22 134.348 1246.39 133.988 1245.38 133.988C1244.37 133.988 1243.53 134.24 1242.86 134.744C1242.21 135.224 1241.89 135.896 1241.89 136.76V142.34C1241.89 143.204 1242.21 143.888 1242.86 144.392C1243.53 144.872 1244.37 145.112 1245.38 145.112ZM1277.74 128.732V149H1272.26V128.732H1265.46V123.872H1284.54V128.732H1277.74ZM1290.66 128.084C1289.58 128.084 1288.79 127.844 1288.28 127.364C1287.8 126.86 1287.56 126.224 1287.56 125.456V124.664C1287.56 123.896 1287.8 123.272 1288.28 122.792C1288.79 122.288 1289.58 122.036 1290.66 122.036C1291.74 122.036 1292.52 122.288 1293 122.792C1293.5 123.272 1293.76 123.896 1293.76 124.664V125.456C1293.76 126.224 1293.5 126.86 1293 127.364C1292.52 127.844 1291.74 128.084 1290.66 128.084ZM1288 130.1H1293.32V149H1288V130.1ZM1298.3 122.36H1303.62V133.268H1303.8C1304.07 132.212 1304.67 131.348 1305.6 130.676C1306.56 130.004 1307.66 129.668 1308.88 129.668C1311.28 129.668 1313.09 130.508 1314.32 132.188C1315.54 133.868 1316.15 136.316 1316.15 139.532C1316.15 142.748 1315.54 145.208 1314.32 146.912C1313.09 148.592 1311.28 149.432 1308.88 149.432C1308.26 149.432 1307.67 149.336 1307.12 149.144C1306.56 148.976 1306.06 148.736 1305.6 148.424C1305.17 148.088 1304.8 147.704 1304.49 147.272C1304.18 146.816 1303.95 146.336 1303.8 145.832H1303.62V149H1298.3V122.36ZM1307.12 145.112C1308.12 145.112 1308.95 144.764 1309.6 144.068C1310.27 143.348 1310.61 142.388 1310.61 141.188V137.912C1310.61 136.712 1310.27 135.764 1309.6 135.068C1308.95 134.348 1308.12 133.988 1307.12 133.988C1306.11 133.988 1305.27 134.24 1304.6 134.744C1303.95 135.224 1303.62 135.896 1303.62 136.76V142.34C1303.62 143.204 1303.95 143.888 1304.6 144.392C1305.27 144.872 1306.11 145.112 1307.12 145.112ZM1326.61 149.432C1324.78 149.432 1323.25 149.144 1322 148.568C1320.75 147.968 1319.63 147.128 1318.65 146.048L1321.78 142.88C1322.45 143.624 1323.2 144.212 1324.01 144.644C1324.83 145.076 1325.75 145.292 1326.79 145.292C1327.84 145.292 1328.57 145.136 1328.98 144.824C1329.39 144.488 1329.59 144.044 1329.59 143.492C1329.59 142.604 1328.96 142.076 1327.69 141.908L1325.63 141.656C1321.39 141.128 1319.26 139.184 1319.26 135.824C1319.26 134.912 1319.43 134.084 1319.77 133.34C1320.13 132.572 1320.62 131.924 1321.24 131.396C1321.89 130.844 1322.66 130.424 1323.55 130.136C1324.46 129.824 1325.48 129.668 1326.61 129.668C1327.59 129.668 1328.45 129.74 1329.2 129.884C1329.97 130.004 1330.64 130.196 1331.21 130.46C1331.81 130.7 1332.35 131.012 1332.83 131.396C1333.34 131.756 1333.83 132.164 1334.31 132.62L1331.25 135.752C1330.65 135.152 1329.97 134.684 1329.2 134.348C1328.45 133.988 1327.69 133.808 1326.89 133.808C1325.98 133.808 1325.33 133.952 1324.95 134.24C1324.57 134.528 1324.37 134.912 1324.37 135.392C1324.37 135.896 1324.51 136.292 1324.77 136.58C1325.06 136.844 1325.59 137.036 1326.35 137.156L1328.48 137.444C1332.63 137.996 1334.71 139.892 1334.71 143.132C1334.71 144.044 1334.51 144.884 1334.13 145.652C1333.75 146.42 1333.19 147.092 1332.47 147.668C1331.78 148.22 1330.93 148.652 1329.92 148.964C1328.93 149.276 1327.83 149.432 1326.61 149.432Z" fill="white"/>
<path d="M434.976 437.432C432.912 437.432 431.184 437.048 429.792 436.28C428.424 435.488 427.248 434.444 426.264 433.148L427.884 431.816C428.772 432.992 429.768 433.904 430.872 434.552C432 435.2 433.392 435.524 435.048 435.524C436.992 435.524 438.48 435.068 439.512 434.156C440.568 433.22 441.096 431.924 441.096 430.268C441.096 428.732 440.652 427.604 439.764 426.884C438.876 426.164 437.628 425.636 436.02 425.3L433.788 424.832C431.388 424.352 429.648 423.548 428.568 422.42C427.488 421.292 426.948 419.852 426.948 418.1C426.948 416.996 427.14 416.036 427.524 415.22C427.908 414.38 428.448 413.684 429.144 413.132C429.864 412.58 430.716 412.16 431.7 411.872C432.708 411.584 433.812 411.44 435.012 411.44C436.884 411.44 438.468 411.776 439.764 412.448C441.06 413.12 442.128 414.068 442.968 415.292L441.348 416.48C440.652 415.472 439.776 414.704 438.72 414.176C437.688 413.624 436.416 413.348 434.904 413.348C433.104 413.348 431.676 413.744 430.62 414.536C429.588 415.304 429.072 416.468 429.072 418.028C429.072 419.516 429.54 420.608 430.476 421.304C431.412 422 432.66 422.504 434.22 422.816L436.452 423.284C438.948 423.836 440.7 424.688 441.708 425.84C442.716 426.992 443.22 428.432 443.22 430.16C443.22 432.464 442.488 434.252 441.024 435.524C439.56 436.796 437.544 437.432 434.976 437.432ZM455.149 437.432C453.925 437.432 452.809 437.216 451.801 436.784C450.817 436.352 449.965 435.728 449.245 434.912C448.549 434.072 448.009 433.052 447.625 431.852C447.265 430.652 447.085 429.296 447.085 427.784C447.085 426.272 447.265 424.928 447.625 423.752C448.009 422.552 448.549 421.544 449.245 420.728C449.965 419.888 450.817 419.252 451.801 418.82C452.785 418.364 453.889 418.136 455.113 418.136C456.289 418.136 457.357 418.364 458.317 418.82C459.277 419.252 460.093 419.864 460.765 420.656C461.437 421.448 461.953 422.408 462.313 423.536C462.697 424.64 462.889 425.864 462.889 427.208V428.18H449.245V429.08C449.245 430.04 449.377 430.928 449.641 431.744C449.929 432.536 450.325 433.22 450.829 433.796C451.357 434.372 451.993 434.828 452.737 435.164C453.481 435.476 454.321 435.632 455.257 435.632C457.945 435.632 459.805 434.396 460.837 431.924L462.349 432.932C461.773 434.3 460.861 435.392 459.613 436.208C458.389 437.024 456.901 437.432 455.149 437.432ZM455.113 419.864C454.225 419.864 453.421 420.032 452.701 420.368C451.981 420.68 451.357 421.124 450.829 421.7C450.325 422.276 449.929 422.972 449.641 423.788C449.377 424.58 449.245 425.456 449.245 426.416V426.596H460.657V426.308C460.657 425.348 460.525 424.472 460.261 423.68C459.997 422.864 459.613 422.18 459.109 421.628C458.629 421.076 458.041 420.644 457.345 420.332C456.673 420.02 455.929 419.864 455.113 419.864ZM474.696 437.432C473.472 437.432 472.356 437.216 471.348 436.784C470.364 436.352 469.512 435.728 468.792 434.912C468.096 434.072 467.556 433.052 467.172 431.852C466.812 430.652 466.632 429.296 466.632 427.784C466.632 426.272 466.812 424.928 467.172 423.752C467.556 422.552 468.096 421.544 468.792 420.728C469.512 419.888 470.364 419.252 471.348 418.82C472.332 418.364 473.436 418.136 474.66 418.136C475.836 418.136 476.904 418.364 477.864 418.82C478.824 419.252 479.64 419.864 480.312 420.656C480.984 421.448 481.5 422.408 481.86 423.536C482.244 424.64 482.436 425.864 482.436 427.208V428.18H468.792V429.08C468.792 430.04 468.924 430.928 469.188 431.744C469.476 432.536 469.872 433.22 470.376 433.796C470.904 434.372 471.54 434.828 472.284 435.164C473.028 435.476 473.868 435.632 474.804 435.632C477.492 435.632 479.352 434.396 480.384 431.924L481.896 432.932C481.32 434.3 480.408 435.392 479.16 436.208C477.936 437.024 476.448 437.432 474.696 437.432ZM474.66 419.864C473.772 419.864 472.968 420.032 472.248 420.368C471.528 420.68 470.904 421.124 470.376 421.7C469.872 422.276 469.476 422.972 469.188 423.788C468.924 424.58 468.792 425.456 468.792 426.416V426.596H480.204V426.308C480.204 425.348 480.072 424.472 479.808 423.68C479.544 422.864 479.16 422.18 478.656 421.628C478.176 421.076 477.588 420.644 476.892 420.332C476.22 420.02 475.476 419.864 474.66 419.864ZM502.714 437.432C501.49 437.432 500.386 437.216 499.402 436.784C498.418 436.352 497.578 435.728 496.882 434.912C496.186 434.072 495.646 433.052 495.262 431.852C494.878 430.652 494.686 429.296 494.686 427.784C494.686 426.272 494.878 424.928 495.262 423.752C495.646 422.552 496.186 421.544 496.882 420.728C497.578 419.888 498.418 419.252 499.402 418.82C500.386 418.364 501.49 418.136 502.714 418.136C503.938 418.136 505.042 418.364 506.026 418.82C507.01 419.252 507.85 419.888 508.546 420.728C509.242 421.544 509.782 422.552 510.166 423.752C510.55 424.928 510.742 426.272 510.742 427.784C510.742 429.296 510.55 430.652 510.166 431.852C509.782 433.052 509.242 434.072 508.546 434.912C507.85 435.728 507.01 436.352 506.026 436.784C505.042 437.216 503.938 437.432 502.714 437.432ZM502.714 435.596C504.514 435.596 505.93 435.032 506.962 433.904C508.018 432.776 508.546 431.12 508.546 428.936V426.632C508.546 424.472 508.018 422.828 506.962 421.7C505.93 420.548 504.514 419.972 502.714 419.972C500.914 419.972 499.486 420.536 498.43 421.664C497.398 422.792 496.882 424.448 496.882 426.632V428.936C496.882 431.096 497.398 432.752 498.43 433.904C499.486 435.032 500.914 435.596 502.714 435.596ZM527.475 434.084H527.331C527.163 434.516 526.935 434.936 526.647 435.344C526.359 435.752 525.999 436.112 525.567 436.424C525.135 436.712 524.619 436.952 524.019 437.144C523.443 437.336 522.759 437.432 521.967 437.432C519.999 437.432 518.463 436.832 517.359 435.632C516.255 434.408 515.703 432.668 515.703 430.412V418.568H517.755V430.016C517.755 431.912 518.163 433.316 518.979 434.228C519.795 435.14 520.971 435.596 522.507 435.596C523.155 435.596 523.767 435.512 524.343 435.344C524.943 435.176 525.471 434.924 525.927 434.588C526.407 434.252 526.779 433.832 527.043 433.328C527.331 432.8 527.475 432.188 527.475 431.492V418.568H529.527V437H527.475V434.084ZM536.241 437V418.568H538.293V421.88H538.437C538.797 421.016 539.409 420.248 540.273 419.576C541.137 418.904 542.361 418.568 543.945 418.568H545.169V420.584H543.549C542.013 420.584 540.753 420.92 539.769 421.592C538.785 422.264 538.293 423.2 538.293 424.4V437H536.241ZM558.48 420.368H555.312V418.568H558.48V413.42C558.48 412.484 558.708 411.74 559.164 411.188C559.644 410.636 560.376 410.36 561.36 410.36H564.6V412.16H560.532V418.568H564.6V420.368H560.532V437H558.48V420.368ZM580.245 434.084H580.101C579.933 434.516 579.705 434.936 579.417 435.344C579.129 435.752 578.769 436.112 578.337 436.424C577.905 436.712 577.389 436.952 576.789 437.144C576.213 437.336 575.529 437.432 574.737 437.432C572.769 437.432 571.233 436.832 570.129 435.632C569.025 434.408 568.473 432.668 568.473 430.412V418.568H570.525V430.016C570.525 431.912 570.933 433.316 571.749 434.228C572.565 435.14 573.741 435.596 575.277 435.596C575.925 435.596 576.537 435.512 577.113 435.344C577.713 435.176 578.241 434.924 578.697 434.588C579.177 434.252 579.549 433.832 579.813 433.328C580.101 432.8 580.245 432.188 580.245 431.492V418.568H582.297V437H580.245V434.084ZM591.278 437C590.534 437 589.97 436.796 589.586 436.388C589.202 435.98 589.01 435.44 589.01 434.768V410.36H591.062V435.2H593.906V437H591.278ZM600.524 437C599.78 437 599.216 436.796 598.832 436.388C598.448 435.98 598.256 435.44 598.256 434.768V410.36H600.308V435.2H603.152V437H600.524ZM621.476 437.432C619.868 437.432 618.488 437.132 617.336 436.532C616.208 435.932 615.224 435.056 614.384 433.904L615.896 432.716C616.664 433.724 617.504 434.468 618.416 434.948C619.328 435.428 620.396 435.668 621.62 435.668C623.036 435.668 624.128 435.368 624.896 434.768C625.664 434.168 626.048 433.304 626.048 432.176C626.048 431.192 625.748 430.424 625.148 429.872C624.572 429.296 623.612 428.912 622.268 428.72L620.756 428.468C619.916 428.348 619.148 428.168 618.452 427.928C617.756 427.688 617.156 427.364 616.652 426.956C616.172 426.548 615.788 426.056 615.5 425.48C615.236 424.88 615.104 424.16 615.104 423.32C615.104 422.456 615.26 421.7 615.572 421.052C615.908 420.404 616.352 419.864 616.904 419.432C617.456 419 618.116 418.676 618.884 418.46C619.652 418.244 620.48 418.136 621.368 418.136C622.904 418.136 624.164 418.4 625.148 418.928C626.132 419.456 626.972 420.14 627.668 420.98L626.3 422.24C625.82 421.664 625.172 421.136 624.356 420.656C623.564 420.152 622.532 419.9 621.26 419.9C619.94 419.9 618.908 420.188 618.164 420.764C617.444 421.34 617.084 422.156 617.084 423.212C617.084 424.292 617.408 425.072 618.056 425.552C618.728 426.032 619.724 426.38 621.044 426.596L622.52 426.812C624.392 427.1 625.772 427.664 626.66 428.504C627.572 429.32 628.028 430.472 628.028 431.96C628.028 433.688 627.44 435.032 626.264 435.992C625.112 436.952 623.516 437.432 621.476 437.432ZM640 437.432C638.776 437.432 637.66 437.216 636.652 436.784C635.668 436.352 634.816 435.728 634.096 434.912C633.4 434.072 632.86 433.052 632.476 431.852C632.116 430.652 631.936 429.296 631.936 427.784C631.936 426.272 632.116 424.928 632.476 423.752C632.86 422.552 633.4 421.544 634.096 420.728C634.816 419.888 635.668 419.252 636.652 418.82C637.636 418.364 638.74 418.136 639.964 418.136C641.14 418.136 642.208 418.364 643.168 418.82C644.128 419.252 644.944 419.864 645.616 420.656C646.288 421.448 646.804 422.408 647.164 423.536C647.548 424.64 647.74 425.864 647.74 427.208V428.18H634.096V429.08C634.096 430.04 634.228 430.928 634.492 431.744C634.78 432.536 635.176 433.22 635.68 433.796C636.208 434.372 636.844 434.828 637.588 435.164C638.332 435.476 639.172 435.632 640.108 435.632C642.796 435.632 644.656 434.396 645.688 431.924L647.2 432.932C646.624 434.3 645.712 435.392 644.464 436.208C643.24 437.024 641.752 437.432 640 437.432ZM639.964 419.864C639.076 419.864 638.272 420.032 637.552 420.368C636.832 420.68 636.208 421.124 635.68 421.7C635.176 422.276 634.78 422.972 634.492 423.788C634.228 424.58 634.096 425.456 634.096 426.416V426.596H645.508V426.308C645.508 425.348 645.376 424.472 645.112 423.68C644.848 422.864 644.464 422.18 643.96 421.628C643.48 421.076 642.892 420.644 642.196 420.332C641.524 420.02 640.78 419.864 639.964 419.864ZM655.227 437C654.483 437 653.919 436.796 653.535 436.388C653.151 435.98 652.959 435.44 652.959 434.768V410.36H655.011V435.2H657.855V437H655.227ZM669.04 437.432C667.816 437.432 666.7 437.216 665.692 436.784C664.708 436.352 663.856 435.728 663.136 434.912C662.44 434.072 661.9 433.052 661.516 431.852C661.156 430.652 660.976 429.296 660.976 427.784C660.976 426.272 661.156 424.928 661.516 423.752C661.9 422.552 662.44 421.544 663.136 420.728C663.856 419.888 664.708 419.252 665.692 418.82C666.676 418.364 667.78 418.136 669.004 418.136C670.18 418.136 671.248 418.364 672.208 418.82C673.168 419.252 673.984 419.864 674.656 420.656C675.328 421.448 675.844 422.408 676.204 423.536C676.588 424.64 676.78 425.864 676.78 427.208V428.18H663.136V429.08C663.136 430.04 663.268 430.928 663.532 431.744C663.82 432.536 664.216 433.22 664.72 433.796C665.248 434.372 665.884 434.828 666.628 435.164C667.372 435.476 668.212 435.632 669.148 435.632C671.836 435.632 673.696 434.396 674.728 431.924L676.24 432.932C675.664 434.3 674.752 435.392 673.504 436.208C672.28 437.024 670.792 437.432 669.04 437.432ZM669.004 419.864C668.116 419.864 667.312 420.032 666.592 420.368C665.872 420.68 665.248 421.124 664.72 421.7C664.216 422.276 663.82 422.972 663.532 423.788C663.268 424.58 663.136 425.456 663.136 426.416V426.596H674.548V426.308C674.548 425.348 674.416 424.472 674.152 423.68C673.888 422.864 673.504 422.18 673 421.628C672.52 421.076 671.932 420.644 671.236 420.332C670.564 420.02 669.82 419.864 669.004 419.864ZM688.478 437.432C685.934 437.432 683.966 436.592 682.574 434.912C681.206 433.232 680.522 430.856 680.522 427.784C680.522 424.712 681.206 422.336 682.574 420.656C683.966 418.976 685.934 418.136 688.478 418.136C690.182 418.136 691.562 418.508 692.618 419.252C693.674 419.996 694.478 420.98 695.03 422.204L693.302 423.068C692.87 422.06 692.258 421.292 691.466 420.764C690.698 420.236 689.702 419.972 688.478 419.972C686.606 419.972 685.178 420.572 684.194 421.772C683.21 422.972 682.718 424.544 682.718 426.488V429.08C682.718 431.024 683.21 432.596 684.194 433.796C685.178 434.996 686.606 435.596 688.478 435.596C689.75 435.596 690.818 435.32 691.682 434.768C692.546 434.216 693.242 433.424 693.77 432.392L695.282 433.4C694.682 434.624 693.818 435.608 692.69 436.352C691.586 437.072 690.182 437.432 688.478 437.432ZM703.026 437C702.282 437 701.718 436.796 701.334 436.388C700.95 435.98 700.758 435.428 700.758 434.732V420.368H697.554V418.568H699.642C700.146 418.568 700.482 418.472 700.65 418.28C700.842 418.064 700.938 417.692 700.938 417.164V413.42H702.81V418.568H706.986V420.368H702.81V435.2H706.698V437H703.026ZM712.924 413.564C712.444 413.564 712.084 413.444 711.844 413.204C711.628 412.964 711.52 412.652 711.52 412.268V411.908C711.52 411.524 711.628 411.212 711.844 410.972C712.084 410.732 712.444 410.612 712.924 410.612C713.404 410.612 713.752 410.732 713.968 410.972C714.208 411.212 714.328 411.524 714.328 411.908V412.268C714.328 412.652 714.208 412.964 713.968 413.204C713.752 413.444 713.404 413.564 712.924 413.564ZM711.916 418.568H713.968V437H711.916V418.568ZM727.222 437.432C725.998 437.432 724.894 437.216 723.91 436.784C722.926 436.352 722.086 435.728 721.39 434.912C720.694 434.072 720.154 433.052 719.77 431.852C719.386 430.652 719.194 429.296 719.194 427.784C719.194 426.272 719.386 424.928 719.77 423.752C720.154 422.552 720.694 421.544 721.39 420.728C722.086 419.888 722.926 419.252 723.91 418.82C724.894 418.364 725.998 418.136 727.222 418.136C728.446 418.136 729.55 418.364 730.534 418.82C731.518 419.252 732.358 419.888 733.054 420.728C733.75 421.544 734.29 422.552 734.674 423.752C735.058 424.928 735.25 426.272 735.25 427.784C735.25 429.296 735.058 430.652 734.674 431.852C734.29 433.052 733.75 434.072 733.054 434.912C732.358 435.728 731.518 436.352 730.534 436.784C729.55 437.216 728.446 437.432 727.222 437.432ZM727.222 435.596C729.022 435.596 730.438 435.032 731.47 433.904C732.526 432.776 733.054 431.12 733.054 428.936V426.632C733.054 424.472 732.526 422.828 731.47 421.7C730.438 420.548 729.022 419.972 727.222 419.972C725.422 419.972 723.994 420.536 722.938 421.664C721.906 422.792 721.39 424.448 721.39 426.632V428.936C721.39 431.096 721.906 432.752 722.938 433.904C723.994 435.032 725.422 435.596 727.222 435.596ZM740.463 437V418.568H742.515V421.484H742.623C743.031 420.524 743.667 419.732 744.531 419.108C745.395 418.46 746.571 418.136 748.059 418.136C750.027 418.136 751.551 418.748 752.631 419.972C753.735 421.172 754.287 422.9 754.287 425.156V437H752.235V425.516C752.235 423.644 751.827 422.252 751.011 421.34C750.219 420.428 749.055 419.972 747.519 419.972C746.871 419.972 746.247 420.056 745.647 420.224C745.047 420.392 744.507 420.644 744.027 420.98C743.571 421.316 743.199 421.748 742.911 422.276C742.647 422.78 742.515 423.368 742.515 424.04V437H740.463ZM767.096 418.568H769.112L773.54 435.164H773.612L778.508 418.568H780.416L785.348 435.164H785.42L789.812 418.568H791.792L786.608 437H784.088L779.444 421.484H779.372L774.764 437H772.28L767.096 418.568ZM796.327 410.36H798.379V421.484H798.487C798.895 420.524 799.531 419.732 800.395 419.108C801.259 418.46 802.435 418.136 803.923 418.136C805.891 418.136 807.415 418.748 808.495 419.972C809.599 421.172 810.151 422.9 810.151 425.156V437H808.099V425.516C808.099 423.644 807.691 422.252 806.875 421.34C806.083 420.428 804.919 419.972 803.383 419.972C802.735 419.972 802.111 420.056 801.511 420.224C800.911 420.392 800.371 420.644 799.891 420.98C799.435 421.316 799.063 421.748 798.775 422.276C798.511 422.78 798.379 423.368 798.379 424.04V437H796.327V410.36ZM823.2 437.432C821.976 437.432 820.86 437.216 819.852 436.784C818.868 436.352 818.016 435.728 817.296 434.912C816.6 434.072 816.06 433.052 815.676 431.852C815.316 430.652 815.136 429.296 815.136 427.784C815.136 426.272 815.316 424.928 815.676 423.752C816.06 422.552 816.6 421.544 817.296 420.728C818.016 419.888 818.868 419.252 819.852 418.82C820.836 418.364 821.94 418.136 823.164 418.136C824.34 418.136 825.408 418.364 826.368 418.82C827.328 419.252 828.144 419.864 828.816 420.656C829.488 421.448 830.004 422.408 830.364 423.536C830.748 424.64 830.94 425.864 830.94 427.208V428.18H817.296V429.08C817.296 430.04 817.428 430.928 817.692 431.744C817.98 432.536 818.376 433.22 818.88 433.796C819.408 434.372 820.044 434.828 820.788 435.164C821.532 435.476 822.372 435.632 823.308 435.632C825.996 435.632 827.856 434.396 828.888 431.924L830.4 432.932C829.824 434.3 828.912 435.392 827.664 436.208C826.44 437.024 824.952 437.432 823.2 437.432ZM823.164 419.864C822.276 419.864 821.472 420.032 820.752 420.368C820.032 420.68 819.408 421.124 818.88 421.7C818.376 422.276 817.98 422.972 817.692 423.788C817.428 424.58 817.296 425.456 817.296 426.416V426.596H828.708V426.308C828.708 425.348 828.576 424.472 828.312 423.68C828.048 422.864 827.664 422.18 827.16 421.628C826.68 421.076 826.092 420.644 825.396 420.332C824.724 420.02 823.98 419.864 823.164 419.864ZM836.159 437V418.568H838.211V421.484H838.319C838.727 420.524 839.363 419.732 840.227 419.108C841.091 418.46 842.267 418.136 843.755 418.136C845.723 418.136 847.247 418.748 848.327 419.972C849.431 421.172 849.983 422.9 849.983 425.156V437H847.931V425.516C847.931 423.644 847.523 422.252 846.707 421.34C845.915 420.428 844.751 419.972 843.215 419.972C842.567 419.972 841.943 420.056 841.343 420.224C840.743 420.392 840.203 420.644 839.723 420.98C839.267 421.316 838.895 421.748 838.607 422.276C838.343 422.78 838.211 423.368 838.211 424.04V437H836.159ZM875.968 418.568H878.056L869.524 442.184C869.236 442.952 868.888 443.48 868.48 443.768C868.072 444.056 867.4 444.2 866.464 444.2H864.376V442.4H867.472L869.236 437.54L862.396 418.568H864.556L870.208 434.804H870.352L875.968 418.568ZM888.484 437.432C887.26 437.432 886.156 437.216 885.172 436.784C884.188 436.352 883.348 435.728 882.652 434.912C881.956 434.072 881.416 433.052 881.032 431.852C880.648 430.652 880.456 429.296 880.456 427.784C880.456 426.272 880.648 424.928 881.032 423.752C881.416 422.552 881.956 421.544 882.652 420.728C883.348 419.888 884.188 419.252 885.172 418.82C886.156 418.364 887.26 418.136 888.484 418.136C889.708 418.136 890.812 418.364 891.796 418.82C892.78 419.252 893.62 419.888 894.316 420.728C895.012 421.544 895.552 422.552 895.936 423.752C896.32 424.928 896.512 426.272 896.512 427.784C896.512 429.296 896.32 430.652 895.936 431.852C895.552 433.052 895.012 434.072 894.316 434.912C893.62 435.728 892.78 436.352 891.796 436.784C890.812 437.216 889.708 437.432 888.484 437.432ZM888.484 435.596C890.284 435.596 891.7 435.032 892.732 433.904C893.788 432.776 894.316 431.12 894.316 428.936V426.632C894.316 424.472 893.788 422.828 892.732 421.7C891.7 420.548 890.284 419.972 888.484 419.972C886.684 419.972 885.256 420.536 884.2 421.664C883.168 422.792 882.652 424.448 882.652 426.632V428.936C882.652 431.096 883.168 432.752 884.2 433.904C885.256 435.032 886.684 435.596 888.484 435.596ZM913.245 434.084H913.101C912.933 434.516 912.705 434.936 912.417 435.344C912.129 435.752 911.769 436.112 911.337 436.424C910.905 436.712 910.389 436.952 909.789 437.144C909.213 437.336 908.529 437.432 907.737 437.432C905.769 437.432 904.233 436.832 903.129 435.632C902.025 434.408 901.473 432.668 901.473 430.412V418.568H903.525V430.016C903.525 431.912 903.933 433.316 904.749 434.228C905.565 435.14 906.741 435.596 908.277 435.596C908.925 435.596 909.537 435.512 910.113 435.344C910.713 435.176 911.241 434.924 911.697 434.588C912.177 434.252 912.549 433.832 912.813 433.328C913.101 432.8 913.245 432.188 913.245 431.492V418.568H915.297V437H913.245V434.084ZM937.07 437.432C935.846 437.432 934.742 437.216 933.758 436.784C932.774 436.352 931.934 435.728 931.238 434.912C930.542 434.072 930.002 433.052 929.618 431.852C929.234 430.652 929.042 429.296 929.042 427.784C929.042 426.272 929.234 424.928 929.618 423.752C930.002 422.552 930.542 421.544 931.238 420.728C931.934 419.888 932.774 419.252 933.758 418.82C934.742 418.364 935.846 418.136 937.07 418.136C938.294 418.136 939.398 418.364 940.382 418.82C941.366 419.252 942.206 419.888 942.902 420.728C943.598 421.544 944.138 422.552 944.522 423.752C944.906 424.928 945.098 426.272 945.098 427.784C945.098 429.296 944.906 430.652 944.522 431.852C944.138 433.052 943.598 434.072 942.902 434.912C942.206 435.728 941.366 436.352 940.382 436.784C939.398 437.216 938.294 437.432 937.07 437.432ZM937.07 435.596C938.87 435.596 940.286 435.032 941.318 433.904C942.374 432.776 942.902 431.12 942.902 428.936V426.632C942.902 424.472 942.374 422.828 941.318 421.7C940.286 420.548 938.87 419.972 937.07 419.972C935.27 419.972 933.842 420.536 932.786 421.664C931.754 422.792 931.238 424.448 931.238 426.632V428.936C931.238 431.096 931.754 432.752 932.786 433.904C933.842 435.032 935.27 435.596 937.07 435.596ZM950.311 437V418.568H952.363V421.88H952.507C952.867 421.016 953.479 420.248 954.343 419.576C955.207 418.904 956.431 418.568 958.015 418.568H959.239V420.584H957.619C956.083 420.584 954.823 420.92 953.839 421.592C952.855 422.264 952.363 423.2 952.363 424.4V437H950.311ZM974.953 434.048H974.845C974.365 435.08 973.657 435.908 972.721 436.532C971.809 437.132 970.645 437.432 969.229 437.432C966.853 437.432 964.993 436.592 963.649 434.912C962.305 433.232 961.633 430.856 961.633 427.784C961.633 424.712 962.305 422.336 963.649 420.656C964.993 418.976 966.853 418.136 969.229 418.136C970.645 418.136 971.821 418.448 972.757 419.072C973.693 419.672 974.389 420.488 974.845 421.52H974.953V410.36H977.005V437H974.953V434.048ZM969.697 435.596C970.417 435.596 971.089 435.5 971.713 435.308C972.361 435.116 972.925 434.84 973.405 434.48C973.885 434.096 974.257 433.652 974.521 433.148C974.809 432.62 974.953 432.032 974.953 431.384V424.076C974.953 423.476 974.809 422.924 974.521 422.42C974.257 421.916 973.885 421.484 973.405 421.124C972.925 420.764 972.361 420.488 971.713 420.296C971.089 420.08 970.417 419.972 969.697 419.972C967.849 419.972 966.409 420.56 965.377 421.736C964.345 422.912 963.829 424.496 963.829 426.488V429.08C963.829 431.072 964.345 432.656 965.377 433.832C966.409 435.008 967.849 435.596 969.697 435.596ZM990.297 437.432C989.073 437.432 987.957 437.216 986.949 436.784C985.965 436.352 985.113 435.728 984.393 434.912C983.697 434.072 983.157 433.052 982.773 431.852C982.413 430.652 982.233 429.296 982.233 427.784C982.233 426.272 982.413 424.928 982.773 423.752C983.157 422.552 983.697 421.544 984.393 420.728C985.113 419.888 985.965 419.252 986.949 418.82C987.933 418.364 989.037 418.136 990.261 418.136C991.437 418.136 992.505 418.364 993.465 418.82C994.425 419.252 995.241 419.864 995.913 420.656C996.585 421.448 997.101 422.408 997.461 423.536C997.845 424.64 998.037 425.864 998.037 427.208V428.18H984.393V429.08C984.393 430.04 984.525 430.928 984.789 431.744C985.077 432.536 985.473 433.22 985.977 433.796C986.505 434.372 987.141 434.828 987.885 435.164C988.629 435.476 989.469 435.632 990.405 435.632C993.093 435.632 994.953 434.396 995.985 431.924L997.497 432.932C996.921 434.3 996.009 435.392 994.761 436.208C993.537 437.024 992.049 437.432 990.297 437.432ZM990.261 419.864C989.373 419.864 988.569 420.032 987.849 420.368C987.129 420.68 986.505 421.124 985.977 421.7C985.473 422.276 985.077 422.972 984.789 423.788C984.525 424.58 984.393 425.456 984.393 426.416V426.596H995.805V426.308C995.805 425.348 995.673 424.472 995.409 423.68C995.145 422.864 994.761 422.18 994.257 421.628C993.777 421.076 993.189 420.644 992.493 420.332C991.821 420.02 991.077 419.864 990.261 419.864ZM1003.26 437V418.568H1005.31V421.88H1005.45C1005.81 421.016 1006.42 420.248 1007.29 419.576C1008.15 418.904 1009.38 418.568 1010.96 418.568H1012.18V420.584H1010.56C1009.03 420.584 1007.77 420.92 1006.78 421.592C1005.8 422.264 1005.31 423.2 1005.31 424.4V437H1003.26ZM1031.18 437.432C1029.96 437.432 1028.86 437.216 1027.87 436.784C1026.89 436.352 1026.05 435.728 1025.35 434.912C1024.66 434.072 1024.12 433.052 1023.73 431.852C1023.35 430.652 1023.16 429.296 1023.16 427.784C1023.16 426.272 1023.35 424.928 1023.73 423.752C1024.12 422.552 1024.66 421.544 1025.35 420.728C1026.05 419.888 1026.89 419.252 1027.87 418.82C1028.86 418.364 1029.96 418.136 1031.18 418.136C1032.41 418.136 1033.51 418.364 1034.5 418.82C1035.48 419.252 1036.32 419.888 1037.02 420.728C1037.71 421.544 1038.25 422.552 1038.64 423.752C1039.02 424.928 1039.21 426.272 1039.21 427.784C1039.21 429.296 1039.02 430.652 1038.64 431.852C1038.25 433.052 1037.71 434.072 1037.02 434.912C1036.32 435.728 1035.48 436.352 1034.5 436.784C1033.51 437.216 1032.41 437.432 1031.18 437.432ZM1031.18 435.596C1032.98 435.596 1034.4 435.032 1035.43 433.904C1036.49 432.776 1037.02 431.12 1037.02 428.936V426.632C1037.02 424.472 1036.49 422.828 1035.43 421.7C1034.4 420.548 1032.98 419.972 1031.18 419.972C1029.38 419.972 1027.96 420.536 1026.9 421.664C1025.87 422.792 1025.35 424.448 1025.35 426.632V428.936C1025.35 431.096 1025.87 432.752 1026.9 433.904C1027.96 435.032 1029.38 435.596 1031.18 435.596ZM1044.42 437V418.568H1046.48V421.484H1046.58C1046.99 420.524 1047.63 419.732 1048.49 419.108C1049.36 418.46 1050.53 418.136 1052.02 418.136C1053.99 418.136 1055.51 418.748 1056.59 419.972C1057.7 421.172 1058.25 422.9 1058.25 425.156V437H1056.2V425.516C1056.2 423.644 1055.79 422.252 1054.97 421.34C1054.18 420.428 1053.02 419.972 1051.48 419.972C1050.83 419.972 1050.21 420.056 1049.61 420.224C1049.01 420.392 1048.47 420.644 1047.99 420.98C1047.53 421.316 1047.16 421.748 1046.87 422.276C1046.61 422.78 1046.48 423.368 1046.48 424.04V437H1044.42ZM1066.98 437C1066.23 437 1065.67 436.796 1065.29 436.388C1064.9 435.98 1064.71 435.44 1064.71 434.768V410.36H1066.76V435.2H1069.61V437H1066.98ZM1075.21 413.564C1074.73 413.564 1074.37 413.444 1074.13 413.204C1073.91 412.964 1073.81 412.652 1073.81 412.268V411.908C1073.81 411.524 1073.91 411.212 1074.13 410.972C1074.37 410.732 1074.73 410.612 1075.21 410.612C1075.69 410.612 1076.04 410.732 1076.25 410.972C1076.49 411.212 1076.61 411.524 1076.61 411.908V412.268C1076.61 412.652 1076.49 412.964 1076.25 413.204C1076.04 413.444 1075.69 413.564 1075.21 413.564ZM1074.2 418.568H1076.25V437H1074.2V418.568ZM1082.96 437V418.568H1085.01V421.484H1085.12C1085.52 420.524 1086.16 419.732 1087.02 419.108C1087.89 418.46 1089.06 418.136 1090.55 418.136C1092.52 418.136 1094.04 418.748 1095.12 419.972C1096.23 421.172 1096.78 422.9 1096.78 425.156V437H1094.73V425.516C1094.73 423.644 1094.32 422.252 1093.5 421.34C1092.71 420.428 1091.55 419.972 1090.01 419.972C1089.36 419.972 1088.74 420.056 1088.14 420.224C1087.54 420.392 1087 420.644 1086.52 420.98C1086.06 421.316 1085.69 421.748 1085.4 422.276C1085.14 422.78 1085.01 423.368 1085.01 424.04V437H1082.96ZM1109.83 437.432C1108.6 437.432 1107.49 437.216 1106.48 436.784C1105.5 436.352 1104.64 435.728 1103.92 434.912C1103.23 434.072 1102.69 433.052 1102.3 431.852C1101.94 430.652 1101.76 429.296 1101.76 427.784C1101.76 426.272 1101.94 424.928 1102.3 423.752C1102.69 422.552 1103.23 421.544 1103.92 420.728C1104.64 419.888 1105.5 419.252 1106.48 418.82C1107.46 418.364 1108.57 418.136 1109.79 418.136C1110.97 418.136 1112.04 418.364 1113 418.82C1113.96 419.252 1114.77 419.864 1115.44 420.656C1116.12 421.448 1116.63 422.408 1116.99 423.536C1117.38 424.64 1117.57 425.864 1117.57 427.208V428.18H1103.92V429.08C1103.92 430.04 1104.06 430.928 1104.32 431.744C1104.61 432.536 1105 433.22 1105.51 433.796C1106.04 434.372 1106.67 434.828 1107.42 435.164C1108.16 435.476 1109 435.632 1109.94 435.632C1112.62 435.632 1114.48 434.396 1115.52 431.924L1117.03 432.932C1116.45 434.3 1115.54 435.392 1114.29 436.208C1113.07 437.024 1111.58 437.432 1109.83 437.432ZM1109.79 419.864C1108.9 419.864 1108.1 420.032 1107.38 420.368C1106.66 420.68 1106.04 421.124 1105.51 421.7C1105 422.276 1104.61 422.972 1104.32 423.788C1104.06 424.58 1103.92 425.456 1103.92 426.416V426.596H1115.34V426.308C1115.34 425.348 1115.2 424.472 1114.94 423.68C1114.68 422.864 1114.29 422.18 1113.79 421.628C1113.31 421.076 1112.72 420.644 1112.02 420.332C1111.35 420.02 1110.61 419.864 1109.79 419.864ZM1123.8 430.484L1123.22 420.296V411.872H1125.45V420.296L1124.84 430.484H1123.8ZM1124.34 437.324C1123.74 437.324 1123.29 437.18 1123 436.892C1122.74 436.58 1122.61 436.184 1122.61 435.704V435.308C1122.61 434.828 1122.74 434.444 1123 434.156C1123.29 433.844 1123.74 433.688 1124.34 433.688C1124.91 433.688 1125.34 433.844 1125.63 434.156C1125.92 434.444 1126.06 434.828 1126.06 435.308V435.704C1126.06 436.184 1125.92 436.58 1125.63 436.892C1125.34 437.18 1124.91 437.324 1124.34 437.324Z" fill="white"/>
<path d="M1 262.5C53 192.5 214.4 78.3 444 181.5C673.6 284.7 1029 230.833 1178 191L1557 66" stroke="white" stroke-width="2"/>
<path d="M1.5 238.5C53.5 168.5 214.9 54.3 444.5 157.5C674.1 260.7 1029.5 206.833 1178.5 167L1557.5 42" stroke="white" stroke-width="2"/>
<path d="M1.5 282.5C53.5 212.5 214.9 98.3 444.5 201.5C674.1 304.7 1029.5 250.833 1178.5 211L1557.5 86" stroke="white" stroke-width="2"/>
</svg>
